<svg xmlns="http://www.w3.org/2000/svg" xmlns:xlink="http://www.w3.org/1999/xlink" width="441" zoomAndPan="magnify" viewBox="0 0 330.75 172.499995" height="230" preserveAspectRatio="xMidYMid meet" version="1.0"><defs><g/><clipPath id="1fdc17f16f"><path d="M 0.351562 0 L 330.148438 0 L 330.148438 172 L 0.351562 172 Z M 0.351562 0 " clip-rule="nonzero"/></clipPath><clipPath id="a327c3b2e5"><path d="M 106.210938 0 L 244.5625 0 L 244.5625 109.929688 L 106.210938 109.929688 Z M 106.210938 0 " clip-rule="nonzero"/></clipPath></defs><g clip-path="url(#1fdc17f16f)"><path fill="#ffffff" d="M 0.351562 0 L 330.148438 0 L 330.148438 172 L 0.351562 172 Z M 0.351562 0 " fill-opacity="1" fill-rule="nonzero"/></g><g clip-path="url(#a327c3b2e5)"><path fill="#545454" d="M 133.21875 31.476562 C 129.777344 31.734375 121.386719 32.890625 114.929688 38.082031 C 110.09375 41.96875 106.242188 48.023438 106.210938 57.535156 C 106.183594 66.753906 110.296875 72.546875 115.414062 76.214844 C 121.203125 80.367188 128.429688 81.621094 132.210938 82 C 132.960938 84.546875 133.472656 87.753906 133.683594 91.238281 C 133.914062 95.03125 133.773438 99.144531 133.121094 103.117188 L 132.039062 109.710938 L 138.121094 106.945312 C 144.746094 103.898438 157.113281 101.371094 170.101562 101.523438 C 173.363281 101.5625 176.660156 101.792969 179.9375 102.128906 C 182.132812 102.351562 184.300781 102.59375 186.460938 102.929688 C 189.242188 103.359375 191.921875 103.867188 194.597656 104.574219 C 197.417969 105.324219 200.070312 106.101562 202.691406 107.304688 C 200.675781 105.269531 198.574219 103.492188 196.140625 101.921875 C 193.738281 100.367188 191.175781 99.148438 188.464844 98.082031 C 186.328125 97.246094 184.136719 96.589844 181.886719 96.0625 C 180.402344 95.714844 178.894531 95.464844 177.378906 95.261719 C 171.636719 94.484375 165.820312 94.480469 160.34375 94.855469 C 152.941406 95.367188 146.136719 96.710938 140.824219 98.347656 C 140.976562 95.78125 140.96875 93.234375 140.820312 90.804688 C 140.488281 85.390625 139.457031 80.546875 138.085938 77.238281 L 137.171875 75.039062 L 134.792969 75.039062 C 134.792969 75.039062 126.019531 75.085938 119.515625 70.46875 C 115.960938 67.945312 113.179688 63.917969 113.15625 57.535156 C 113.136719 50.667969 115.753906 46.21875 119.226562 43.386719 C 124.027344 39.46875 130.242188 38.4375 133.152344 38.164062 C 133.234375 39.125 133.355469 40.078125 133.515625 41.015625 C 134.804688 48.511719 138.414062 54.890625 143.605469 58.042969 C 139.390625 54.234375 137.285156 47.789062 137.21875 40.683594 C 137.164062 34.875 138.625 28.714844 141.761719 23.226562 C 143.457031 20.257812 145.691406 17.558594 148.445312 15.207031 C 153.796875 10.640625 161.277344 7.605469 171.410156 7.722656 C 182.386719 7.796875 189.726562 11.117188 194.585938 15.652344 C 204.15625 24.582031 204.160156 37.855469 204.160156 37.855469 L 204.160156 42.25 L 208.523438 41.726562 C 208.523438 41.726562 219.980469 40.277344 228.648438 45.023438 C 233.484375 47.671875 237.292969 52.449219 237.328125 60.820312 C 237.394531 68.824219 234.53125 73.449219 230.578125 75.988281 C 227.324219 78.078125 223.492188 78.796875 220.246094 79.105469 C 217.144531 79.398438 214.539062 79.304688 213.332031 79.230469 C 213.507812 78.980469 213.675781 78.726562 213.835938 78.46875 C 214.699219 77.070312 215.371094 75.566406 215.8125 73.957031 C 216.128906 72.785156 216.367188 71.609375 216.425781 70.363281 C 216.550781 67.726562 216.160156 65.125 215.15625 62.335938 C 215.058594 63.902344 214.78125 65.277344 214.429688 66.6875 C 213.898438 68.8125 213.027344 70.621094 212.003906 72.394531 C 211.339844 73.550781 210.5625 74.589844 209.753906 75.617188 C 209.21875 76.300781 208.652344 76.949219 208.09375 77.605469 C 206.640625 79.300781 205.097656 80.878906 203.269531 82.175781 C 200.335938 84.265625 197.144531 85.84375 193.519531 86.441406 C 197.4375 87.085938 201.316406 86.722656 204.976562 85.382812 C 206.265625 84.910156 207.480469 84.289062 208.632812 83.558594 C 208.105469 85.945312 207.835938 88.40625 207.878906 90.960938 C 207.957031 95.613281 208.859375 100.324219 209.957031 105.230469 C 210.230469 100.367188 210.765625 95.765625 211.78125 91.371094 C 212.261719 89.28125 212.871094 87.304688 213.6875 85.429688 C 215.347656 85.703125 217.820312 85.984375 220.65625 85.910156 C 224.964844 85.792969 230.03125 84.726562 234.386719 82.0625 C 240.101562 78.566406 244.746094 72.234375 244.835938 60.820312 C 244.878906 51.585938 241.480469 45.476562 236.8125 41.386719 C 229.179688 34.695312 217.65625 33.773438 211.617188 33.800781 C 210.832031 28.148438 208.273438 17.71875 199.90625 9.941406 C 193.910156 4.375 184.949219 0.0664062 171.445312 0.0351562 C 161.125 0.046875 153.03125 2.71875 146.984375 7.003906 C 145.019531 8.394531 143.253906 9.945312 141.730469 11.648438 C 139.355469 14.304688 137.46875 17.253906 136.105469 20.390625 C 134.554688 23.964844 133.597656 27.734375 133.21875 31.476562 Z M 133.21875 31.476562 " fill-opacity="1" fill-rule="evenodd"/></g><g fill="#0c9a61" fill-opacity="1"><g transform="translate(87.816343, 151.33167)"><g/></g></g><g fill="#0c9a61" fill-opacity="1"><g transform="translate(96.714122, 151.33167)"><g><path d="M 16.65625 -30.5625 C 16.269531 -30.5625 15.816406 -30.476562 15.296875 -30.3125 C 14.773438 -30.15625 14.242188 -29.859375 13.703125 -29.421875 C 13.160156 -28.984375 12.628906 -28.363281 12.109375 -27.5625 C 11.585938 -26.769531 11.117188 -25.738281 10.703125 -24.46875 C 10.296875 -23.207031 9.960938 -21.671875 9.703125 -19.859375 C 9.453125 -18.054688 9.328125 -15.925781 9.328125 -13.46875 C 9.328125 -11.125 9.453125 -9.09375 9.703125 -7.375 C 9.960938 -5.65625 10.300781 -4.191406 10.71875 -2.984375 C 11.144531 -1.773438 11.632812 -0.785156 12.1875 -0.015625 C 12.738281 0.742188 13.316406 1.335938 13.921875 1.765625 C 14.535156 2.191406 15.144531 2.484375 15.75 2.640625 C 16.351562 2.804688 16.921875 2.890625 17.453125 2.890625 C 18.023438 2.890625 18.597656 2.816406 19.171875 2.671875 C 19.753906 2.523438 20.320312 2.3125 20.875 2.03125 C 21.4375 1.757812 21.972656 1.425781 22.484375 1.03125 C 22.992188 0.644531 23.46875 0.203125 23.90625 -0.296875 L 24.875 0.671875 C 24.445312 1.203125 23.925781 1.742188 23.3125 2.296875 C 22.707031 2.859375 22.003906 3.367188 21.203125 3.828125 C 20.398438 4.285156 19.5 4.65625 18.5 4.9375 C 17.5 5.226562 16.394531 5.375 15.1875 5.375 C 13.289062 5.375 11.53125 5.007812 9.90625 4.28125 C 8.28125 3.5625 6.863281 2.441406 5.65625 0.921875 C 4.445312 -0.597656 3.5 -2.550781 2.8125 -4.9375 C 2.125 -7.332031 1.78125 -10.191406 1.78125 -13.515625 C 1.78125 -16.640625 2.140625 -19.378906 2.859375 -21.734375 C 3.585938 -24.085938 4.570312 -26.054688 5.8125 -27.640625 C 7.050781 -29.222656 8.507812 -30.414062 10.1875 -31.21875 C 11.863281 -32.019531 13.648438 -32.421875 15.546875 -32.421875 C 16.804688 -32.421875 17.953125 -32.300781 18.984375 -32.0625 C 20.023438 -31.832031 20.921875 -31.488281 21.671875 -31.03125 C 22.421875 -30.570312 23 -30.003906 23.40625 -29.328125 C 23.820312 -28.660156 24.03125 -27.898438 24.03125 -27.046875 C 24.03125 -26.660156 23.960938 -26.253906 23.828125 -25.828125 C 23.703125 -25.398438 23.503906 -25.007812 23.234375 -24.65625 C 22.972656 -24.300781 22.644531 -24.007812 22.25 -23.78125 C 21.863281 -23.5625 21.410156 -23.453125 20.890625 -23.453125 C 20.421875 -23.453125 20.0625 -23.550781 19.8125 -23.75 C 19.5625 -23.945312 19.375 -24.210938 19.25 -24.546875 C 19.125 -24.878906 19.039062 -25.257812 19 -25.6875 C 18.96875 -26.113281 18.941406 -26.550781 18.921875 -27 C 18.910156 -27.445312 18.878906 -27.882812 18.828125 -28.3125 C 18.785156 -28.738281 18.6875 -29.117188 18.53125 -29.453125 C 18.382812 -29.785156 18.164062 -30.050781 17.875 -30.25 C 17.582031 -30.457031 17.175781 -30.5625 16.65625 -30.5625 Z M 16.65625 -30.5625 "/></g></g></g><g fill="#0c9a61" fill-opacity="1"><g transform="translate(119.802787, 151.33167)"><g><path d="M 1.328125 -11.109375 C 1.328125 -13.003906 1.597656 -14.660156 2.140625 -16.078125 C 2.691406 -17.503906 3.425781 -18.691406 4.34375 -19.640625 C 5.257812 -20.597656 6.328125 -21.316406 7.546875 -21.796875 C 8.765625 -22.273438 10.035156 -22.515625 11.359375 -22.515625 C 12.691406 -22.515625 13.960938 -22.289062 15.171875 -21.84375 C 16.390625 -21.40625 17.457031 -20.726562 18.375 -19.8125 C 19.300781 -18.90625 20.035156 -17.753906 20.578125 -16.359375 C 21.128906 -14.960938 21.40625 -13.3125 21.40625 -11.40625 C 21.40625 -9.507812 21.128906 -7.832031 20.578125 -6.375 C 20.035156 -4.914062 19.300781 -3.6875 18.375 -2.6875 C 17.457031 -1.6875 16.390625 -0.929688 15.171875 -0.421875 C 13.960938 0.0859375 12.691406 0.34375 11.359375 0.34375 C 10.035156 0.34375 8.765625 0.101562 7.546875 -0.375 C 6.328125 -0.863281 5.257812 -1.582031 4.34375 -2.53125 C 3.425781 -3.488281 2.691406 -4.679688 2.140625 -6.109375 C 1.597656 -7.546875 1.328125 -9.210938 1.328125 -11.109375 Z M 14.65625 -11.328125 C 14.65625 -12.484375 14.613281 -13.597656 14.53125 -14.671875 C 14.457031 -15.753906 14.304688 -16.710938 14.078125 -17.546875 C 13.847656 -18.390625 13.515625 -19.054688 13.078125 -19.546875 C 12.640625 -20.046875 12.066406 -20.296875 11.359375 -20.296875 C 10.648438 -20.296875 10.078125 -20.03125 9.640625 -19.5 C 9.210938 -18.976562 8.882812 -18.285156 8.65625 -17.421875 C 8.425781 -16.566406 8.273438 -15.585938 8.203125 -14.484375 C 8.128906 -13.390625 8.09375 -12.265625 8.09375 -11.109375 C 8.09375 -9.953125 8.128906 -8.816406 8.203125 -7.703125 C 8.273438 -6.597656 8.425781 -5.613281 8.65625 -4.75 C 8.882812 -3.882812 9.210938 -3.1875 9.640625 -2.65625 C 10.078125 -2.125 10.648438 -1.859375 11.359375 -1.859375 C 12.066406 -1.859375 12.640625 -2.132812 13.078125 -2.6875 C 13.515625 -3.238281 13.847656 -3.960938 14.078125 -4.859375 C 14.304688 -5.753906 14.457031 -6.765625 14.53125 -7.890625 C 14.613281 -9.023438 14.65625 -10.171875 14.65625 -11.328125 Z M 14.65625 -11.328125 "/></g></g></g><g fill="#0c9a61" fill-opacity="1"><g transform="translate(141.438629, 151.33167)"><g><path d="M 1.328125 -11.109375 C 1.328125 -13.003906 1.597656 -14.660156 2.140625 -16.078125 C 2.691406 -17.503906 3.425781 -18.691406 4.34375 -19.640625 C 5.257812 -20.597656 6.328125 -21.316406 7.546875 -21.796875 C 8.765625 -22.273438 10.035156 -22.515625 11.359375 -22.515625 C 12.691406 -22.515625 13.960938 -22.289062 15.171875 -21.84375 C 16.390625 -21.40625 17.457031 -20.726562 18.375 -19.8125 C 19.300781 -18.90625 20.035156 -17.753906 20.578125 -16.359375 C 21.128906 -14.960938 21.40625 -13.3125 21.40625 -11.40625 C 21.40625 -9.507812 21.128906 -7.832031 20.578125 -6.375 C 20.035156 -4.914062 19.300781 -3.6875 18.375 -2.6875 C 17.457031 -1.6875 16.390625 -0.929688 15.171875 -0.421875 C 13.960938 0.0859375 12.691406 0.34375 11.359375 0.34375 C 10.035156 0.34375 8.765625 0.101562 7.546875 -0.375 C 6.328125 -0.863281 5.257812 -1.582031 4.34375 -2.53125 C 3.425781 -3.488281 2.691406 -4.679688 2.140625 -6.109375 C 1.597656 -7.546875 1.328125 -9.210938 1.328125 -11.109375 Z M 14.65625 -11.328125 C 14.65625 -12.484375 14.613281 -13.597656 14.53125 -14.671875 C 14.457031 -15.753906 14.304688 -16.710938 14.078125 -17.546875 C 13.847656 -18.390625 13.515625 -19.054688 13.078125 -19.546875 C 12.640625 -20.046875 12.066406 -20.296875 11.359375 -20.296875 C 10.648438 -20.296875 10.078125 -20.03125 9.640625 -19.5 C 9.210938 -18.976562 8.882812 -18.285156 8.65625 -17.421875 C 8.425781 -16.566406 8.273438 -15.585938 8.203125 -14.484375 C 8.128906 -13.390625 8.09375 -12.265625 8.09375 -11.109375 C 8.09375 -9.953125 8.128906 -8.816406 8.203125 -7.703125 C 8.273438 -6.597656 8.425781 -5.613281 8.65625 -4.75 C 8.882812 -3.882812 9.210938 -3.1875 9.640625 -2.65625 C 10.078125 -2.125 10.648438 -1.859375 11.359375 -1.859375 C 12.066406 -1.859375 12.640625 -2.132812 13.078125 -2.6875 C 13.515625 -3.238281 13.847656 -3.960938 14.078125 -4.859375 C 14.304688 -5.753906 14.457031 -6.765625 14.53125 -7.890625 C 14.613281 -9.023438 14.65625 -10.171875 14.65625 -11.328125 Z M 14.65625 -11.328125 "/></g></g></g><g fill="#0c9a61" fill-opacity="1"><g transform="translate(163.07447, 151.33167)"><g><path d="M 9.40625 -16.609375 C 9.914062 -17.296875 10.457031 -17.988281 11.03125 -18.6875 C 11.613281 -19.382812 12.238281 -20.015625 12.90625 -20.578125 C 13.570312 -21.148438 14.296875 -21.613281 15.078125 -21.96875 C 15.859375 -22.332031 16.710938 -22.515625 17.640625 -22.515625 C 18.460938 -22.515625 19.144531 -22.347656 19.6875 -22.015625 C 20.238281 -21.691406 20.679688 -21.300781 21.015625 -20.84375 C 21.359375 -20.394531 21.597656 -19.925781 21.734375 -19.4375 C 21.878906 -18.945312 21.953125 -18.523438 21.953125 -18.171875 C 21.953125 -17.535156 21.867188 -16.875 21.703125 -16.1875 C 21.535156 -15.5 21.253906 -14.816406 20.859375 -14.140625 C 20.460938 -13.472656 19.929688 -12.820312 19.265625 -12.1875 C 18.597656 -11.5625 17.757812 -10.988281 16.75 -10.46875 C 18.101562 -7.59375 19.421875 -5.117188 20.703125 -3.046875 C 21.992188 -0.972656 23.234375 0.726562 24.421875 2.0625 C 25.617188 3.40625 26.765625 4.394531 27.859375 5.03125 C 28.960938 5.664062 30.015625 5.984375 31.015625 5.984375 C 31.191406 5.984375 31.363281 5.960938 31.53125 5.921875 C 31.707031 5.878906 31.867188 5.828125 32.015625 5.765625 C 32.171875 5.710938 32.335938 5.640625 32.515625 5.546875 L 32.921875 6.3125 C 32.535156 6.53125 32.140625 6.734375 31.734375 6.921875 C 31.328125 7.117188 30.863281 7.289062 30.34375 7.4375 C 29.820312 7.582031 29.222656 7.695312 28.546875 7.78125 C 27.867188 7.875 27.054688 7.921875 26.109375 7.921875 C 25.253906 7.921875 24.410156 7.816406 23.578125 7.609375 C 22.753906 7.410156 21.921875 7.050781 21.078125 6.53125 C 20.242188 6.007812 19.394531 5.3125 18.53125 4.4375 C 17.675781 3.570312 16.796875 2.472656 15.890625 1.140625 C 14.984375 -0.179688 14.050781 -1.757812 13.09375 -3.59375 C 12.144531 -5.4375 11.15625 -7.585938 10.125 -10.046875 C 11.519531 -11.066406 12.613281 -12.015625 13.40625 -12.890625 C 14.195312 -13.765625 14.796875 -14.554688 15.203125 -15.265625 C 15.609375 -15.972656 15.859375 -16.601562 15.953125 -17.15625 C 16.054688 -17.707031 16.109375 -18.175781 16.109375 -18.5625 C 16.109375 -18.625 16.101562 -18.722656 16.09375 -18.859375 C 16.082031 -18.992188 16.035156 -19.125 15.953125 -19.25 C 15.867188 -19.382812 15.75 -19.503906 15.59375 -19.609375 C 15.445312 -19.710938 15.238281 -19.765625 14.96875 -19.765625 C 14.425781 -19.765625 13.878906 -19.535156 13.328125 -19.078125 C 12.785156 -18.617188 12.265625 -18.050781 11.765625 -17.375 C 11.265625 -16.707031 10.8125 -15.988281 10.40625 -15.21875 C 10 -14.445312 9.664062 -13.738281 9.40625 -13.09375 L 9.40625 -1.90625 C 9.40625 -1.71875 9.375 -1.492188 9.3125 -1.234375 C 9.25 -0.972656 9.097656 -0.726562 8.859375 -0.5 C 8.617188 -0.269531 8.269531 -0.0703125 7.8125 0.09375 C 7.363281 0.257812 6.753906 0.34375 5.984375 0.34375 C 5.222656 0.34375 4.625 0.253906 4.1875 0.078125 C 3.75 -0.0976562 3.425781 -0.3125 3.21875 -0.5625 C 3.007812 -0.8125 2.878906 -1.066406 2.828125 -1.328125 C 2.773438 -1.585938 2.75 -1.796875 2.75 -1.953125 L 2.75 -29.9375 C 2.75 -30.351562 2.648438 -30.71875 2.453125 -31.03125 C 2.265625 -31.34375 1.9375 -31.5 1.46875 -31.5 C 1.226562 -31.5 1.015625 -31.457031 0.828125 -31.375 C 0.648438 -31.289062 0.460938 -31.171875 0.265625 -31.015625 L -0.171875 -31.53125 C 0.160156 -31.8125 0.53125 -32.082031 0.9375 -32.34375 C 1.34375 -32.613281 1.785156 -32.847656 2.265625 -33.046875 C 2.753906 -33.253906 3.269531 -33.421875 3.8125 -33.546875 C 4.363281 -33.679688 4.941406 -33.75 5.546875 -33.75 C 6.492188 -33.75 7.226562 -33.617188 7.75 -33.359375 C 8.269531 -33.109375 8.648438 -32.800781 8.890625 -32.4375 C 9.140625 -32.070312 9.285156 -31.679688 9.328125 -31.265625 C 9.378906 -30.859375 9.40625 -30.492188 9.40625 -30.171875 Z M 9.40625 -16.609375 "/></g></g></g><g fill="#0c9a61" fill-opacity="1"><g transform="translate(185.534301, 151.33167)"><g><path d="M 9.625 -1.953125 C 9.625 -1.765625 9.59375 -1.535156 9.53125 -1.265625 C 9.46875 -1.003906 9.316406 -0.753906 9.078125 -0.515625 C 8.835938 -0.273438 8.492188 -0.0703125 8.046875 0.09375 C 7.597656 0.257812 6.988281 0.34375 6.21875 0.34375 C 5.457031 0.34375 4.859375 0.253906 4.421875 0.078125 C 3.992188 -0.0976562 3.671875 -0.3125 3.453125 -0.5625 C 3.234375 -0.8125 3.097656 -1.066406 3.046875 -1.328125 C 2.992188 -1.585938 2.96875 -1.796875 2.96875 -1.953125 L 2.96875 -18.703125 C 2.96875 -19.117188 2.867188 -19.484375 2.671875 -19.796875 C 2.484375 -20.109375 2.15625 -20.265625 1.6875 -20.265625 C 1.445312 -20.265625 1.238281 -20.21875 1.0625 -20.125 C 0.882812 -20.039062 0.695312 -19.921875 0.5 -19.765625 L 0.046875 -20.296875 C 0.378906 -20.578125 0.75 -20.847656 1.15625 -21.109375 C 1.570312 -21.378906 2.015625 -21.613281 2.484375 -21.8125 C 2.960938 -22.019531 3.476562 -22.1875 4.03125 -22.3125 C 4.582031 -22.445312 5.160156 -22.515625 5.765625 -22.515625 C 6.703125 -22.515625 7.429688 -22.382812 7.953125 -22.125 C 8.472656 -21.875 8.859375 -21.566406 9.109375 -21.203125 C 9.359375 -20.835938 9.503906 -20.441406 9.546875 -20.015625 C 9.597656 -19.597656 9.625 -19.226562 9.625 -18.90625 Z M 2.296875 -27.453125 C 2.296875 -27.859375 2.382812 -28.242188 2.5625 -28.609375 C 2.75 -28.984375 3.003906 -29.304688 3.328125 -29.578125 C 3.648438 -29.859375 4.023438 -30.078125 4.453125 -30.234375 C 4.878906 -30.390625 5.347656 -30.46875 5.859375 -30.46875 C 6.347656 -30.46875 6.804688 -30.390625 7.234375 -30.234375 C 7.660156 -30.078125 8.03125 -29.859375 8.34375 -29.578125 C 8.664062 -29.304688 8.914062 -28.984375 9.09375 -28.609375 C 9.28125 -28.242188 9.375 -27.859375 9.375 -27.453125 C 9.375 -27.035156 9.28125 -26.644531 9.09375 -26.28125 C 8.914062 -25.925781 8.664062 -25.613281 8.34375 -25.34375 C 8.03125 -25.070312 7.660156 -24.859375 7.234375 -24.703125 C 6.804688 -24.546875 6.347656 -24.46875 5.859375 -24.46875 C 5.347656 -24.46875 4.878906 -24.546875 4.453125 -24.703125 C 4.023438 -24.859375 3.648438 -25.070312 3.328125 -25.34375 C 3.003906 -25.613281 2.75 -25.925781 2.5625 -26.28125 C 2.382812 -26.644531 2.296875 -27.035156 2.296875 -27.453125 Z M 2.296875 -27.453125 "/></g></g></g><g fill="#0c9a61" fill-opacity="1"><g transform="translate(196.805213, 151.33167)"><g><path d="M 15.46875 -10.796875 C 15.46875 -12.617188 15.382812 -14.078125 15.21875 -15.171875 C 15.050781 -16.265625 14.828125 -17.097656 14.546875 -17.671875 C 14.273438 -18.242188 13.972656 -18.617188 13.640625 -18.796875 C 13.304688 -18.972656 12.96875 -19.0625 12.625 -19.0625 C 12.207031 -19.0625 11.832031 -18.945312 11.5 -18.71875 C 11.175781 -18.5 10.894531 -18.242188 10.65625 -17.953125 C 10.414062 -17.671875 10.210938 -17.382812 10.046875 -17.09375 C 9.878906 -16.800781 9.738281 -16.582031 9.625 -16.4375 L 9.625 -1.953125 C 9.625 -1.765625 9.59375 -1.535156 9.53125 -1.265625 C 9.476562 -1.003906 9.335938 -0.753906 9.109375 -0.515625 C 8.890625 -0.273438 8.5625 -0.0703125 8.125 0.09375 C 7.6875 0.257812 7.082031 0.34375 6.3125 0.34375 C 5.539062 0.34375 4.9375 0.253906 4.5 0.078125 C 4.0625 -0.0976562 3.722656 -0.3125 3.484375 -0.5625 C 3.253906 -0.8125 3.109375 -1.066406 3.046875 -1.328125 C 2.992188 -1.585938 2.96875 -1.796875 2.96875 -1.953125 L 2.96875 -18.703125 C 2.96875 -19.117188 2.867188 -19.484375 2.671875 -19.796875 C 2.484375 -20.109375 2.15625 -20.265625 1.6875 -20.265625 C 1.445312 -20.265625 1.238281 -20.21875 1.0625 -20.125 C 0.882812 -20.039062 0.695312 -19.921875 0.5 -19.765625 L 0.046875 -20.296875 C 0.378906 -20.578125 0.75 -20.847656 1.15625 -21.109375 C 1.570312 -21.378906 2.015625 -21.613281 2.484375 -21.8125 C 2.960938 -22.019531 3.476562 -22.1875 4.03125 -22.3125 C 4.582031 -22.445312 5.160156 -22.515625 5.765625 -22.515625 C 6.703125 -22.515625 7.429688 -22.359375 7.953125 -22.046875 C 8.472656 -21.734375 8.859375 -21.359375 9.109375 -20.921875 C 9.359375 -20.492188 9.503906 -20.046875 9.546875 -19.578125 C 9.597656 -19.109375 9.625 -18.710938 9.625 -18.390625 C 10.164062 -19.160156 10.773438 -19.847656 11.453125 -20.453125 C 11.722656 -20.710938 12.03125 -20.960938 12.375 -21.203125 C 12.71875 -21.453125 13.078125 -21.675781 13.453125 -21.875 C 13.835938 -22.070312 14.242188 -22.226562 14.671875 -22.34375 C 15.097656 -22.457031 15.535156 -22.515625 15.984375 -22.515625 C 16.960938 -22.515625 17.832031 -22.328125 18.59375 -21.953125 C 19.351562 -21.578125 19.992188 -20.945312 20.515625 -20.0625 C 21.035156 -19.175781 21.429688 -18.003906 21.703125 -16.546875 C 21.984375 -15.097656 22.125 -13.300781 22.125 -11.15625 C 22.125 -9.050781 21.9375 -7.222656 21.5625 -5.671875 C 21.1875 -4.128906 20.691406 -2.816406 20.078125 -1.734375 C 19.472656 -0.648438 18.785156 0.234375 18.015625 0.921875 C 17.253906 1.609375 16.484375 2.144531 15.703125 2.53125 C 14.921875 2.925781 14.171875 3.195312 13.453125 3.34375 C 12.742188 3.5 12.128906 3.582031 11.609375 3.59375 L 11.359375 2.71875 C 11.796875 2.613281 12.195312 2.453125 12.5625 2.234375 C 12.9375 2.015625 13.273438 1.695312 13.578125 1.28125 C 13.878906 0.863281 14.144531 0.332031 14.375 -0.3125 C 14.613281 -0.957031 14.816406 -1.765625 14.984375 -2.734375 C 15.148438 -3.703125 15.269531 -4.847656 15.34375 -6.171875 C 15.425781 -7.492188 15.46875 -9.035156 15.46875 -10.796875 Z M 15.46875 -10.796875 "/></g></g></g><g fill="#0c9a61" fill-opacity="1"><g transform="translate(219.590303, 151.33167)"><g><path d="M 1.78125 -13.640625 C 1.78125 -15.117188 2.035156 -16.410156 2.546875 -17.515625 C 3.054688 -18.617188 3.742188 -19.539062 4.609375 -20.28125 C 5.484375 -21.03125 6.488281 -21.585938 7.625 -21.953125 C 8.769531 -22.328125 9.972656 -22.515625 11.234375 -22.515625 C 12.492188 -22.515625 13.6875 -22.347656 14.8125 -22.015625 C 15.9375 -21.679688 16.9375 -21.164062 17.8125 -20.46875 C 18.082031 -20.894531 18.300781 -21.335938 18.46875 -21.796875 C 18.644531 -22.265625 18.734375 -22.726562 18.734375 -23.1875 C 18.734375 -23.789062 18.570312 -24.273438 18.25 -24.640625 C 17.925781 -25.003906 17.507812 -25.1875 17 -25.1875 L 17 -25.8125 C 17.320312 -25.914062 17.601562 -26.003906 17.84375 -26.078125 C 18.09375 -26.160156 18.316406 -26.222656 18.515625 -26.265625 C 18.722656 -26.304688 18.925781 -26.335938 19.125 -26.359375 C 19.332031 -26.378906 19.554688 -26.390625 19.796875 -26.390625 C 20.484375 -26.390625 21.003906 -26.179688 21.359375 -25.765625 C 21.722656 -25.347656 21.90625 -24.769531 21.90625 -24.03125 C 21.90625 -23.59375 21.800781 -23.160156 21.59375 -22.734375 C 21.394531 -22.316406 21.144531 -21.910156 20.84375 -21.515625 C 20.539062 -21.128906 20.203125 -20.757812 19.828125 -20.40625 C 19.460938 -20.0625 19.113281 -19.757812 18.78125 -19.5 C 19.382812 -18.800781 19.851562 -17.988281 20.1875 -17.0625 C 20.519531 -16.144531 20.6875 -15.09375 20.6875 -13.90625 C 20.6875 -12.414062 20.429688 -11.097656 19.921875 -9.953125 C 19.410156 -8.816406 18.71875 -7.859375 17.84375 -7.078125 C 16.976562 -6.296875 15.972656 -5.703125 14.828125 -5.296875 C 13.691406 -4.898438 12.492188 -4.703125 11.234375 -4.703125 C 10.492188 -4.703125 9.769531 -4.765625 9.0625 -4.890625 C 8.351562 -5.023438 7.691406 -5.21875 7.078125 -5.46875 C 6.835938 -5.289062 6.632812 -5.070312 6.46875 -4.8125 C 6.300781 -4.550781 6.21875 -4.265625 6.21875 -3.953125 C 6.21875 -3.410156 6.445312 -3.007812 6.90625 -2.75 C 7.375 -2.488281 7.988281 -2.300781 8.75 -2.1875 C 9.519531 -2.070312 10.390625 -2 11.359375 -1.96875 C 12.328125 -1.945312 13.320312 -1.898438 14.34375 -1.828125 C 15.363281 -1.765625 16.359375 -1.640625 17.328125 -1.453125 C 18.296875 -1.273438 19.160156 -0.976562 19.921875 -0.5625 C 20.691406 -0.15625 21.304688 0.398438 21.765625 1.109375 C 22.234375 1.816406 22.46875 2.734375 22.46875 3.859375 C 22.46875 4.679688 22.296875 5.421875 21.953125 6.078125 C 21.609375 6.742188 21.140625 7.320312 20.546875 7.8125 C 19.960938 8.3125 19.285156 8.738281 18.515625 9.09375 C 17.742188 9.445312 16.925781 9.734375 16.0625 9.953125 C 15.195312 10.179688 14.320312 10.347656 13.4375 10.453125 C 12.550781 10.554688 11.703125 10.609375 10.890625 10.609375 C 9.410156 10.609375 8.082031 10.53125 6.90625 10.375 C 5.726562 10.226562 4.726562 9.992188 3.90625 9.671875 C 3.082031 9.359375 2.445312 8.945312 2 8.4375 C 1.550781 7.925781 1.328125 7.316406 1.328125 6.609375 C 1.328125 6.109375 1.441406 5.644531 1.671875 5.21875 C 1.898438 4.789062 2.207031 4.398438 2.59375 4.046875 C 2.976562 3.691406 3.40625 3.375 3.875 3.09375 C 4.351562 2.8125 4.835938 2.546875 5.328125 2.296875 C 4.609375 1.992188 4.003906 1.535156 3.515625 0.921875 C 3.035156 0.304688 2.796875 -0.503906 2.796875 -1.515625 C 2.796875 -2.054688 2.890625 -2.550781 3.078125 -3 C 3.265625 -3.457031 3.503906 -3.878906 3.796875 -4.265625 C 4.097656 -4.648438 4.425781 -4.992188 4.78125 -5.296875 C 5.132812 -5.609375 5.476562 -5.875 5.8125 -6.09375 C 5.21875 -6.4375 4.671875 -6.859375 4.171875 -7.359375 C 3.671875 -7.859375 3.242188 -8.421875 2.890625 -9.046875 C 2.535156 -9.679688 2.257812 -10.378906 2.0625 -11.140625 C 1.875 -11.910156 1.78125 -12.742188 1.78125 -13.640625 Z M 14.15625 -13.8125 C 14.15625 -14.65625 14.113281 -15.472656 14.03125 -16.265625 C 13.945312 -17.054688 13.796875 -17.765625 13.578125 -18.390625 C 13.359375 -19.015625 13.0625 -19.515625 12.6875 -19.890625 C 12.3125 -20.273438 11.828125 -20.46875 11.234375 -20.46875 C 10.640625 -20.46875 10.15625 -20.269531 9.78125 -19.875 C 9.40625 -19.476562 9.109375 -18.957031 8.890625 -18.3125 C 8.671875 -17.675781 8.519531 -16.945312 8.4375 -16.125 C 8.351562 -15.3125 8.3125 -14.484375 8.3125 -13.640625 C 8.3125 -12.785156 8.351562 -11.945312 8.4375 -11.125 C 8.519531 -10.300781 8.671875 -9.5625 8.890625 -8.90625 C 9.109375 -8.257812 9.40625 -7.738281 9.78125 -7.34375 C 10.15625 -6.945312 10.640625 -6.75 11.234375 -6.75 C 11.828125 -6.75 12.3125 -6.957031 12.6875 -7.375 C 13.0625 -7.789062 13.359375 -8.332031 13.578125 -9 C 13.796875 -9.675781 13.945312 -10.429688 14.03125 -11.265625 C 14.113281 -12.109375 14.15625 -12.957031 14.15625 -13.8125 Z M 17.453125 5.59375 C 17.453125 5.132812 17.269531 4.753906 16.90625 4.453125 C 16.550781 4.160156 16.082031 3.921875 15.5 3.734375 C 14.914062 3.554688 14.25 3.421875 13.5 3.328125 C 12.757812 3.234375 12.003906 3.160156 11.234375 3.109375 C 10.472656 3.054688 9.726562 3.007812 9 2.96875 C 8.28125 2.925781 7.648438 2.867188 7.109375 2.796875 C 6.804688 3.015625 6.515625 3.25 6.234375 3.5 C 5.953125 3.75 5.707031 4.015625 5.5 4.296875 C 5.289062 4.585938 5.117188 4.882812 4.984375 5.1875 C 4.859375 5.5 4.796875 5.816406 4.796875 6.140625 C 4.796875 6.691406 4.953125 7.148438 5.265625 7.515625 C 5.585938 7.878906 6.019531 8.171875 6.5625 8.390625 C 7.101562 8.609375 7.726562 8.757812 8.4375 8.84375 C 9.15625 8.9375 9.914062 8.984375 10.71875 8.984375 C 11.769531 8.984375 12.710938 8.890625 13.546875 8.703125 C 14.390625 8.523438 15.097656 8.28125 15.671875 7.96875 C 16.253906 7.65625 16.695312 7.296875 17 6.890625 C 17.300781 6.492188 17.453125 6.0625 17.453125 5.59375 Z M 17.453125 5.59375 "/></g></g></g></svg>