<svg xmlns="http://www.w3.org/2000/svg" xmlns:xlink="http://www.w3.org/1999/xlink" width="73" zoomAndPan="magnify" viewBox="0 0 54.75 47.25" height="63" preserveAspectRatio="xMidYMid meet" version="1.0"><defs><g/><clipPath id="b8a719e5e1"><path d="M 0.304688 12 L 26 12 L 26 41 L 0.304688 41 Z M 0.304688 12 " clip-rule="nonzero"/></clipPath><clipPath id="977501d1b8"><path d="M 22 21 L 54.199219 21 L 54.199219 38 L 22 38 Z M 22 21 " clip-rule="nonzero"/></clipPath></defs><g fill="#000000" fill-opacity="1"><g transform="translate(28.429507, 27.675889)"><g><path d="M 0.96875 0 L 0.75 0 L 0.671875 -0.234375 L 0.296875 -0.234375 L 0.21875 0 L 0.015625 0 L 0.359375 -1 L 0.609375 -1 Z M 0.484375 -0.796875 L 0.34375 -0.390625 L 0.625 -0.390625 L 0.5 -0.796875 Z M 0.484375 -0.796875 "/></g></g></g><g fill="#000000" fill-opacity="1"><g transform="translate(29.404038, 27.675889)"><g><path d="M 0.375 0.015625 C 0.3125 0.015625 0.253906 0 0.203125 -0.03125 C 0.160156 -0.0625 0.125 -0.101562 0.09375 -0.15625 C 0.0703125 -0.21875 0.0625 -0.289062 0.0625 -0.375 C 0.0625 -0.46875 0.0703125 -0.539062 0.09375 -0.59375 C 0.125 -0.65625 0.164062 -0.695312 0.21875 -0.71875 C 0.269531 -0.75 0.328125 -0.765625 0.390625 -0.765625 C 0.429688 -0.765625 0.46875 -0.753906 0.5 -0.734375 C 0.539062 -0.722656 0.570312 -0.703125 0.59375 -0.671875 L 0.609375 -0.671875 L 0.609375 -1.0625 L 0.796875 -1.0625 L 0.796875 0 L 0.609375 0 L 0.609375 -0.09375 L 0.59375 -0.09375 C 0.570312 -0.0625 0.539062 -0.0351562 0.5 -0.015625 C 0.46875 0.00390625 0.425781 0.015625 0.375 0.015625 Z M 0.4375 -0.140625 C 0.488281 -0.140625 0.53125 -0.160156 0.5625 -0.203125 C 0.59375 -0.242188 0.609375 -0.300781 0.609375 -0.375 C 0.609375 -0.457031 0.59375 -0.515625 0.5625 -0.546875 C 0.53125 -0.585938 0.488281 -0.609375 0.4375 -0.609375 C 0.382812 -0.609375 0.34375 -0.585938 0.3125 -0.546875 C 0.28125 -0.515625 0.265625 -0.457031 0.265625 -0.375 C 0.265625 -0.300781 0.28125 -0.242188 0.3125 -0.203125 C 0.34375 -0.160156 0.382812 -0.140625 0.4375 -0.140625 Z M 0.4375 -0.140625 "/></g></g></g><g fill="#000000" fill-opacity="1"><g transform="translate(30.308128, 27.675889)"><g><path d="M 0.375 0.015625 C 0.3125 0.015625 0.253906 0 0.203125 -0.03125 C 0.160156 -0.0625 0.125 -0.101562 0.09375 -0.15625 C 0.0703125 -0.21875 0.0625 -0.289062 0.0625 -0.375 C 0.0625 -0.46875 0.0703125 -0.539062 0.09375 -0.59375 C 0.125 -0.65625 0.164062 -0.695312 0.21875 -0.71875 C 0.269531 -0.75 0.328125 -0.765625 0.390625 -0.765625 C 0.429688 -0.765625 0.46875 -0.753906 0.5 -0.734375 C 0.539062 -0.722656 0.570312 -0.703125 0.59375 -0.671875 L 0.609375 -0.671875 L 0.609375 -1.0625 L 0.796875 -1.0625 L 0.796875 0 L 0.609375 0 L 0.609375 -0.09375 L 0.59375 -0.09375 C 0.570312 -0.0625 0.539062 -0.0351562 0.5 -0.015625 C 0.46875 0.00390625 0.425781 0.015625 0.375 0.015625 Z M 0.4375 -0.140625 C 0.488281 -0.140625 0.53125 -0.160156 0.5625 -0.203125 C 0.59375 -0.242188 0.609375 -0.300781 0.609375 -0.375 C 0.609375 -0.457031 0.59375 -0.515625 0.5625 -0.546875 C 0.53125 -0.585938 0.488281 -0.609375 0.4375 -0.609375 C 0.382812 -0.609375 0.34375 -0.585938 0.3125 -0.546875 C 0.28125 -0.515625 0.265625 -0.457031 0.265625 -0.375 C 0.265625 -0.300781 0.28125 -0.242188 0.3125 -0.203125 C 0.34375 -0.160156 0.382812 -0.140625 0.4375 -0.140625 Z M 0.4375 -0.140625 "/></g></g></g><g fill="#000000" fill-opacity="1"><g transform="translate(31.212218, 27.675889)"><g/></g></g><g fill="#000000" fill-opacity="1"><g transform="translate(31.542534, 27.675889)"><g><path d="M 0.296875 0.015625 C 0.242188 0.015625 0.195312 0.00390625 0.15625 -0.015625 C 0.125 -0.0351562 0.0976562 -0.0625 0.078125 -0.09375 C 0.0664062 -0.125 0.0625 -0.164062 0.0625 -0.21875 C 0.0625 -0.257812 0.0664062 -0.296875 0.078125 -0.328125 C 0.0976562 -0.359375 0.128906 -0.382812 0.171875 -0.40625 C 0.210938 -0.425781 0.265625 -0.441406 0.328125 -0.453125 C 0.378906 -0.453125 0.414062 -0.457031 0.4375 -0.46875 C 0.457031 -0.476562 0.472656 -0.488281 0.484375 -0.5 C 0.492188 -0.507812 0.5 -0.523438 0.5 -0.546875 C 0.5 -0.566406 0.488281 -0.582031 0.46875 -0.59375 C 0.457031 -0.613281 0.429688 -0.625 0.390625 -0.625 C 0.347656 -0.625 0.304688 -0.613281 0.265625 -0.59375 C 0.222656 -0.570312 0.191406 -0.546875 0.171875 -0.515625 L 0.15625 -0.515625 L 0.078125 -0.640625 C 0.109375 -0.679688 0.148438 -0.710938 0.203125 -0.734375 C 0.265625 -0.753906 0.328125 -0.765625 0.390625 -0.765625 C 0.492188 -0.765625 0.566406 -0.742188 0.609375 -0.703125 C 0.660156 -0.660156 0.6875 -0.601562 0.6875 -0.53125 L 0.6875 -0.203125 C 0.6875 -0.160156 0.695312 -0.140625 0.71875 -0.140625 C 0.738281 -0.140625 0.753906 -0.144531 0.765625 -0.15625 L 0.78125 -0.015625 C 0.769531 -0.00390625 0.753906 0 0.734375 0 C 0.722656 0 0.703125 0 0.671875 0 C 0.628906 0 0.59375 -0.00390625 0.5625 -0.015625 C 0.539062 -0.0351562 0.523438 -0.0664062 0.515625 -0.109375 L 0.5 -0.109375 C 0.46875 -0.0234375 0.398438 0.015625 0.296875 0.015625 Z M 0.359375 -0.125 C 0.398438 -0.125 0.429688 -0.140625 0.453125 -0.171875 C 0.484375 -0.203125 0.5 -0.242188 0.5 -0.296875 L 0.5 -0.375 L 0.484375 -0.375 C 0.472656 -0.363281 0.457031 -0.351562 0.4375 -0.34375 C 0.425781 -0.34375 0.398438 -0.335938 0.359375 -0.328125 C 0.316406 -0.328125 0.285156 -0.316406 0.265625 -0.296875 C 0.253906 -0.273438 0.25 -0.253906 0.25 -0.234375 C 0.25 -0.191406 0.253906 -0.160156 0.265625 -0.140625 C 0.285156 -0.128906 0.316406 -0.125 0.359375 -0.125 Z M 0.359375 -0.125 "/></g></g></g><g fill="#000000" fill-opacity="1"><g transform="translate(32.337888, 27.675889)"><g/></g></g><g fill="#000000" fill-opacity="1"><g transform="translate(32.668204, 27.675889)"><g><path d="M 0.359375 0.015625 C 0.304688 0.015625 0.253906 0.0078125 0.203125 0 C 0.160156 -0.0078125 0.125 -0.0234375 0.09375 -0.046875 C 0.0703125 -0.0664062 0.0507812 -0.09375 0.03125 -0.125 L 0.140625 -0.234375 L 0.15625 -0.234375 C 0.175781 -0.203125 0.203125 -0.175781 0.234375 -0.15625 C 0.273438 -0.144531 0.316406 -0.140625 0.359375 -0.140625 C 0.390625 -0.140625 0.414062 -0.144531 0.4375 -0.15625 C 0.457031 -0.164062 0.46875 -0.1875 0.46875 -0.21875 C 0.46875 -0.238281 0.457031 -0.253906 0.4375 -0.265625 C 0.425781 -0.273438 0.40625 -0.285156 0.375 -0.296875 L 0.28125 -0.3125 C 0.207031 -0.332031 0.148438 -0.359375 0.109375 -0.390625 C 0.078125 -0.429688 0.0625 -0.484375 0.0625 -0.546875 C 0.0625 -0.585938 0.0703125 -0.625 0.09375 -0.65625 C 0.125 -0.695312 0.160156 -0.722656 0.203125 -0.734375 C 0.242188 -0.753906 0.296875 -0.765625 0.359375 -0.765625 C 0.421875 -0.765625 0.472656 -0.753906 0.515625 -0.734375 C 0.566406 -0.722656 0.601562 -0.695312 0.625 -0.65625 L 0.53125 -0.546875 L 0.515625 -0.546875 C 0.492188 -0.578125 0.46875 -0.597656 0.4375 -0.609375 C 0.414062 -0.617188 0.390625 -0.625 0.359375 -0.625 C 0.285156 -0.625 0.25 -0.597656 0.25 -0.546875 C 0.25 -0.523438 0.253906 -0.507812 0.265625 -0.5 C 0.273438 -0.488281 0.300781 -0.476562 0.34375 -0.46875 L 0.4375 -0.453125 C 0.507812 -0.429688 0.5625 -0.398438 0.59375 -0.359375 C 0.632812 -0.328125 0.65625 -0.285156 0.65625 -0.234375 C 0.65625 -0.179688 0.640625 -0.132812 0.609375 -0.09375 C 0.585938 -0.0625 0.554688 -0.0351562 0.515625 -0.015625 C 0.472656 0.00390625 0.421875 0.015625 0.359375 0.015625 Z M 0.359375 0.015625 "/></g></g></g><g fill="#000000" fill-opacity="1"><g transform="translate(33.363713, 27.675889)"><g><path d="M 0.34375 0.015625 C 0.257812 0.015625 0.195312 -0.00390625 0.15625 -0.046875 C 0.113281 -0.0976562 0.09375 -0.164062 0.09375 -0.25 L 0.09375 -0.75 L 0.28125 -0.75 L 0.28125 -0.28125 C 0.28125 -0.226562 0.289062 -0.191406 0.3125 -0.171875 C 0.332031 -0.148438 0.363281 -0.140625 0.40625 -0.140625 C 0.457031 -0.140625 0.5 -0.15625 0.53125 -0.1875 C 0.5625 -0.226562 0.578125 -0.285156 0.578125 -0.359375 L 0.578125 -0.75 L 0.765625 -0.75 L 0.765625 0 L 0.578125 0 L 0.578125 -0.109375 L 0.5625 -0.109375 C 0.539062 -0.0664062 0.507812 -0.0351562 0.46875 -0.015625 C 0.4375 0.00390625 0.394531 0.015625 0.34375 0.015625 Z M 0.34375 0.015625 "/></g></g></g><g fill="#000000" fill-opacity="1"><g transform="translate(34.236344, 27.675889)"><g><path d="M 0.53125 0.015625 C 0.4375 0.015625 0.363281 -0.0195312 0.3125 -0.09375 L 0.296875 -0.09375 L 0.296875 0 L 0.109375 0 L 0.109375 -1.0625 L 0.296875 -1.0625 L 0.296875 -0.671875 L 0.3125 -0.671875 C 0.34375 -0.703125 0.375 -0.722656 0.40625 -0.734375 C 0.4375 -0.753906 0.476562 -0.765625 0.53125 -0.765625 C 0.59375 -0.765625 0.644531 -0.75 0.6875 -0.71875 C 0.738281 -0.695312 0.773438 -0.65625 0.796875 -0.59375 C 0.828125 -0.539062 0.84375 -0.46875 0.84375 -0.375 C 0.84375 -0.289062 0.828125 -0.21875 0.796875 -0.15625 C 0.773438 -0.101562 0.738281 -0.0625 0.6875 -0.03125 C 0.644531 0 0.59375 0.015625 0.53125 0.015625 Z M 0.46875 -0.140625 C 0.53125 -0.140625 0.570312 -0.160156 0.59375 -0.203125 C 0.625 -0.242188 0.640625 -0.300781 0.640625 -0.375 C 0.640625 -0.457031 0.625 -0.515625 0.59375 -0.546875 C 0.570312 -0.585938 0.53125 -0.609375 0.46875 -0.609375 C 0.414062 -0.609375 0.375 -0.585938 0.34375 -0.546875 C 0.3125 -0.515625 0.296875 -0.457031 0.296875 -0.375 C 0.296875 -0.300781 0.3125 -0.242188 0.34375 -0.203125 C 0.375 -0.160156 0.414062 -0.140625 0.46875 -0.140625 Z M 0.46875 -0.140625 "/></g></g></g><g fill="#000000" fill-opacity="1"><g transform="translate(35.139751, 27.675889)"><g><path d="M 0.109375 0 L 0.109375 -1.0625 L 0.296875 -1.0625 L 0.296875 -0.65625 L 0.3125 -0.65625 C 0.34375 -0.695312 0.375 -0.722656 0.40625 -0.734375 C 0.445312 -0.753906 0.488281 -0.765625 0.53125 -0.765625 C 0.707031 -0.765625 0.796875 -0.671875 0.796875 -0.484375 L 0.796875 0 L 0.59375 0 L 0.59375 -0.46875 C 0.59375 -0.519531 0.582031 -0.554688 0.5625 -0.578125 C 0.539062 -0.597656 0.507812 -0.609375 0.46875 -0.609375 C 0.414062 -0.609375 0.375 -0.585938 0.34375 -0.546875 C 0.3125 -0.515625 0.296875 -0.460938 0.296875 -0.390625 L 0.296875 0 Z M 0.109375 0 "/></g></g></g><g fill="#000000" fill-opacity="1"><g transform="translate(36.023324, 27.675889)"><g><path d="M 0.75 -0.328125 L 0.265625 -0.328125 C 0.265625 -0.265625 0.28125 -0.21875 0.3125 -0.1875 C 0.34375 -0.15625 0.390625 -0.140625 0.453125 -0.140625 C 0.492188 -0.140625 0.523438 -0.148438 0.546875 -0.171875 C 0.578125 -0.191406 0.601562 -0.21875 0.625 -0.25 L 0.640625 -0.25 L 0.765625 -0.171875 C 0.734375 -0.109375 0.691406 -0.0625 0.640625 -0.03125 C 0.597656 0 0.535156 0.015625 0.453125 0.015625 C 0.367188 0.015625 0.296875 0 0.234375 -0.03125 C 0.179688 -0.0625 0.140625 -0.101562 0.109375 -0.15625 C 0.078125 -0.21875 0.0625 -0.289062 0.0625 -0.375 C 0.0625 -0.457031 0.078125 -0.53125 0.109375 -0.59375 C 0.148438 -0.65625 0.195312 -0.695312 0.25 -0.71875 C 0.300781 -0.75 0.363281 -0.765625 0.4375 -0.765625 C 0.539062 -0.765625 0.617188 -0.734375 0.671875 -0.671875 C 0.734375 -0.617188 0.765625 -0.539062 0.765625 -0.4375 C 0.765625 -0.394531 0.765625 -0.363281 0.765625 -0.34375 Z M 0.578125 -0.453125 C 0.578125 -0.515625 0.5625 -0.554688 0.53125 -0.578125 C 0.507812 -0.609375 0.476562 -0.625 0.4375 -0.625 C 0.34375 -0.625 0.285156 -0.566406 0.265625 -0.453125 Z M 0.578125 -0.453125 "/></g></g></g><g fill="#000000" fill-opacity="1"><g transform="translate(36.843299, 27.675889)"><g><path d="M 0.296875 0.015625 C 0.242188 0.015625 0.195312 0.00390625 0.15625 -0.015625 C 0.125 -0.0351562 0.0976562 -0.0625 0.078125 -0.09375 C 0.0664062 -0.125 0.0625 -0.164062 0.0625 -0.21875 C 0.0625 -0.257812 0.0664062 -0.296875 0.078125 -0.328125 C 0.0976562 -0.359375 0.128906 -0.382812 0.171875 -0.40625 C 0.210938 -0.425781 0.265625 -0.441406 0.328125 -0.453125 C 0.378906 -0.453125 0.414062 -0.457031 0.4375 -0.46875 C 0.457031 -0.476562 0.472656 -0.488281 0.484375 -0.5 C 0.492188 -0.507812 0.5 -0.523438 0.5 -0.546875 C 0.5 -0.566406 0.488281 -0.582031 0.46875 -0.59375 C 0.457031 -0.613281 0.429688 -0.625 0.390625 -0.625 C 0.347656 -0.625 0.304688 -0.613281 0.265625 -0.59375 C 0.222656 -0.570312 0.191406 -0.546875 0.171875 -0.515625 L 0.15625 -0.515625 L 0.078125 -0.640625 C 0.109375 -0.679688 0.148438 -0.710938 0.203125 -0.734375 C 0.265625 -0.753906 0.328125 -0.765625 0.390625 -0.765625 C 0.492188 -0.765625 0.566406 -0.742188 0.609375 -0.703125 C 0.660156 -0.660156 0.6875 -0.601562 0.6875 -0.53125 L 0.6875 -0.203125 C 0.6875 -0.160156 0.695312 -0.140625 0.71875 -0.140625 C 0.738281 -0.140625 0.753906 -0.144531 0.765625 -0.15625 L 0.78125 -0.015625 C 0.769531 -0.00390625 0.753906 0 0.734375 0 C 0.722656 0 0.703125 0 0.671875 0 C 0.628906 0 0.59375 -0.00390625 0.5625 -0.015625 C 0.539062 -0.0351562 0.523438 -0.0664062 0.515625 -0.109375 L 0.5 -0.109375 C 0.46875 -0.0234375 0.398438 0.015625 0.296875 0.015625 Z M 0.359375 -0.125 C 0.398438 -0.125 0.429688 -0.140625 0.453125 -0.171875 C 0.484375 -0.203125 0.5 -0.242188 0.5 -0.296875 L 0.5 -0.375 L 0.484375 -0.375 C 0.472656 -0.363281 0.457031 -0.351562 0.4375 -0.34375 C 0.425781 -0.34375 0.398438 -0.335938 0.359375 -0.328125 C 0.316406 -0.328125 0.285156 -0.316406 0.265625 -0.296875 C 0.253906 -0.273438 0.25 -0.253906 0.25 -0.234375 C 0.25 -0.191406 0.253906 -0.160156 0.265625 -0.140625 C 0.285156 -0.128906 0.316406 -0.125 0.359375 -0.125 Z M 0.359375 -0.125 "/></g></g></g><g fill="#000000" fill-opacity="1"><g transform="translate(37.638653, 27.675889)"><g><path d="M 0.375 0.015625 C 0.3125 0.015625 0.253906 0 0.203125 -0.03125 C 0.160156 -0.0625 0.125 -0.101562 0.09375 -0.15625 C 0.0703125 -0.21875 0.0625 -0.289062 0.0625 -0.375 C 0.0625 -0.46875 0.0703125 -0.539062 0.09375 -0.59375 C 0.125 -0.65625 0.164062 -0.695312 0.21875 -0.71875 C 0.269531 -0.75 0.328125 -0.765625 0.390625 -0.765625 C 0.429688 -0.765625 0.46875 -0.753906 0.5 -0.734375 C 0.539062 -0.722656 0.570312 -0.703125 0.59375 -0.671875 L 0.609375 -0.671875 L 0.609375 -1.0625 L 0.796875 -1.0625 L 0.796875 0 L 0.609375 0 L 0.609375 -0.09375 L 0.59375 -0.09375 C 0.570312 -0.0625 0.539062 -0.0351562 0.5 -0.015625 C 0.46875 0.00390625 0.425781 0.015625 0.375 0.015625 Z M 0.4375 -0.140625 C 0.488281 -0.140625 0.53125 -0.160156 0.5625 -0.203125 C 0.59375 -0.242188 0.609375 -0.300781 0.609375 -0.375 C 0.609375 -0.457031 0.59375 -0.515625 0.5625 -0.546875 C 0.53125 -0.585938 0.488281 -0.609375 0.4375 -0.609375 C 0.382812 -0.609375 0.34375 -0.585938 0.3125 -0.546875 C 0.28125 -0.515625 0.265625 -0.457031 0.265625 -0.375 C 0.265625 -0.300781 0.28125 -0.242188 0.3125 -0.203125 C 0.34375 -0.160156 0.382812 -0.140625 0.4375 -0.140625 Z M 0.4375 -0.140625 "/></g></g></g><g fill="#000000" fill-opacity="1"><g transform="translate(38.542743, 27.675889)"><g><path d="M 0.203125 -0.84375 C 0.171875 -0.84375 0.144531 -0.851562 0.125 -0.875 C 0.101562 -0.894531 0.09375 -0.921875 0.09375 -0.953125 C 0.09375 -0.992188 0.101562 -1.023438 0.125 -1.046875 C 0.144531 -1.066406 0.171875 -1.078125 0.203125 -1.078125 C 0.222656 -1.078125 0.242188 -1.070312 0.265625 -1.0625 C 0.285156 -1.050781 0.300781 -1.035156 0.3125 -1.015625 C 0.320312 -1.003906 0.328125 -0.984375 0.328125 -0.953125 C 0.328125 -0.929688 0.320312 -0.910156 0.3125 -0.890625 C 0.300781 -0.878906 0.285156 -0.867188 0.265625 -0.859375 C 0.242188 -0.847656 0.222656 -0.84375 0.203125 -0.84375 Z M 0.109375 0 L 0.109375 -0.75 L 0.296875 -0.75 L 0.296875 0 Z M 0.109375 0 "/></g></g></g><g fill="#000000" fill-opacity="1"><g transform="translate(38.948968, 27.675889)"><g><path d="M 0.109375 0 L 0.109375 -0.75 L 0.296875 -0.75 L 0.296875 -0.640625 L 0.3125 -0.640625 C 0.351562 -0.722656 0.425781 -0.765625 0.53125 -0.765625 C 0.625 -0.765625 0.691406 -0.738281 0.734375 -0.6875 C 0.773438 -0.644531 0.796875 -0.582031 0.796875 -0.5 L 0.796875 0 L 0.59375 0 L 0.59375 -0.46875 C 0.59375 -0.519531 0.582031 -0.554688 0.5625 -0.578125 C 0.539062 -0.597656 0.507812 -0.609375 0.46875 -0.609375 C 0.414062 -0.609375 0.375 -0.585938 0.34375 -0.546875 C 0.3125 -0.515625 0.296875 -0.460938 0.296875 -0.390625 L 0.296875 0 Z M 0.109375 0 "/></g></g></g><g fill="#000000" fill-opacity="1"><g transform="translate(39.832541, 27.675889)"><g><path d="M 0.390625 0.328125 C 0.265625 0.328125 0.171875 0.304688 0.109375 0.265625 C 0.0546875 0.234375 0.03125 0.179688 0.03125 0.109375 C 0.03125 0.0664062 0.0390625 0.0351562 0.0625 0.015625 C 0.09375 -0.00390625 0.128906 -0.0195312 0.171875 -0.03125 L 0.171875 -0.046875 C 0.148438 -0.0664062 0.132812 -0.0820312 0.125 -0.09375 C 0.113281 -0.113281 0.109375 -0.140625 0.109375 -0.171875 C 0.109375 -0.234375 0.144531 -0.273438 0.21875 -0.296875 L 0.21875 -0.3125 C 0.175781 -0.332031 0.144531 -0.359375 0.125 -0.390625 C 0.101562 -0.421875 0.09375 -0.460938 0.09375 -0.515625 C 0.09375 -0.566406 0.101562 -0.609375 0.125 -0.640625 C 0.15625 -0.679688 0.191406 -0.710938 0.234375 -0.734375 C 0.273438 -0.753906 0.328125 -0.765625 0.390625 -0.765625 C 0.453125 -0.765625 0.503906 -0.753906 0.546875 -0.734375 C 0.566406 -0.773438 0.582031 -0.816406 0.59375 -0.859375 L 0.734375 -0.828125 C 0.734375 -0.796875 0.722656 -0.765625 0.703125 -0.734375 C 0.691406 -0.710938 0.664062 -0.691406 0.625 -0.671875 L 0.625 -0.65625 C 0.664062 -0.625 0.6875 -0.570312 0.6875 -0.5 C 0.6875 -0.457031 0.675781 -0.414062 0.65625 -0.375 C 0.632812 -0.34375 0.597656 -0.3125 0.546875 -0.28125 C 0.503906 -0.257812 0.453125 -0.25 0.390625 -0.25 L 0.359375 -0.25 C 0.347656 -0.257812 0.335938 -0.265625 0.328125 -0.265625 C 0.304688 -0.265625 0.289062 -0.257812 0.28125 -0.25 C 0.269531 -0.238281 0.265625 -0.222656 0.265625 -0.203125 C 0.265625 -0.191406 0.269531 -0.179688 0.28125 -0.171875 C 0.300781 -0.160156 0.320312 -0.15625 0.34375 -0.15625 L 0.515625 -0.15625 C 0.679688 -0.144531 0.765625 -0.0703125 0.765625 0.0625 C 0.765625 0.113281 0.75 0.15625 0.71875 0.1875 C 0.695312 0.226562 0.660156 0.257812 0.609375 0.28125 C 0.554688 0.3125 0.484375 0.328125 0.390625 0.328125 Z M 0.390625 -0.390625 C 0.429688 -0.390625 0.460938 -0.398438 0.484375 -0.421875 C 0.503906 -0.441406 0.515625 -0.472656 0.515625 -0.515625 C 0.515625 -0.554688 0.503906 -0.585938 0.484375 -0.609375 C 0.460938 -0.628906 0.429688 -0.640625 0.390625 -0.640625 C 0.359375 -0.640625 0.332031 -0.628906 0.3125 -0.609375 C 0.289062 -0.585938 0.28125 -0.554688 0.28125 -0.515625 C 0.28125 -0.472656 0.289062 -0.441406 0.3125 -0.421875 C 0.332031 -0.398438 0.359375 -0.390625 0.390625 -0.390625 Z M 0.390625 0.1875 C 0.453125 0.1875 0.5 0.175781 0.53125 0.15625 C 0.5625 0.132812 0.578125 0.109375 0.578125 0.078125 C 0.578125 0.0546875 0.566406 0.0390625 0.546875 0.03125 C 0.535156 0.0195312 0.515625 0.015625 0.484375 0.015625 L 0.328125 0 C 0.328125 0 0.320312 0 0.3125 0 C 0.28125 0 0.253906 0.00390625 0.234375 0.015625 C 0.210938 0.0351562 0.203125 0.0546875 0.203125 0.078125 C 0.203125 0.109375 0.21875 0.132812 0.25 0.15625 C 0.28125 0.175781 0.328125 0.1875 0.390625 0.1875 Z M 0.390625 0.1875 "/></g></g></g><path fill="#acd61a" d="M 33.714844 18.917969 C 32.160156 23.363281 34.832031 28.320312 39.675781 29.988281 C 44.519531 31.65625 49.703125 29.40625 51.253906 24.960938 C 52.804688 20.515625 50.136719 15.558594 45.292969 13.890625 C 40.449219 12.222656 35.265625 14.472656 33.714844 18.917969 " fill-opacity="1" fill-rule="nonzero"/><path fill="#edf4e6" d="M 50.730469 18.492188 C 50.492188 18.039062 50.21875 17.601562 49.902344 17.191406 C 50.222656 17.539062 50.496094 17.996094 50.730469 18.492188 " fill-opacity="1" fill-rule="nonzero"/><path fill="#9fcc1f" d="M 51.574219 23.664062 C 50.476562 23.121094 49.695312 22.824219 48.546875 22.460938 C 48.984375 20.203125 47.566406 19.011719 47.539062 18.25 C 47.511719 17.53125 48.113281 16.78125 48.898438 16.78125 C 49.210938 16.78125 49.554688 16.898438 49.902344 17.1875 C 50.21875 17.601562 50.492188 18.039062 50.730469 18.492188 C 51.320312 19.761719 51.628906 21.300781 51.664062 22.015625 C 51.691406 22.5625 51.660156 23.113281 51.574219 23.664062 " fill-opacity="1" fill-rule="nonzero"/><path fill="#86b727" d="M 44.601562 17.734375 C 44.386719 17.734375 44.171875 17.726562 43.960938 17.703125 C 42.695312 17.585938 40.730469 16.875 41.886719 15.339844 C 42.320312 14.761719 43.195312 14.5 44.136719 14.5 C 45.542969 14.5 47.09375 15.085938 47.539062 16.097656 C 47.976562 17.09375 46.332031 17.734375 44.601562 17.734375 M 44.246094 15.289062 C 43.96875 15.289062 43.71875 15.355469 43.597656 15.507812 C 43.246094 15.941406 43.878906 16.167969 44.28125 16.214844 C 44.375 16.226562 44.472656 16.234375 44.566406 16.234375 C 45.082031 16.234375 45.539062 16.066406 45.398438 15.789062 C 45.238281 15.476562 44.703125 15.289062 44.246094 15.289062 " fill-opacity="1" fill-rule="nonzero"/><path fill="#d9e944" d="M 34.1875 17.671875 C 36.171875 14.082031 40.761719 12.390625 45.101562 13.824219 C 44.03125 14.03125 39.605469 13.945312 40.574219 16.6875 C 41.410156 19.046875 44.726562 18.792969 45.527344 19.554688 C 46.324219 20.316406 46.398438 21.507812 46.179688 22.140625 C 45.632812 23.738281 43.261719 25.527344 39.886719 24.820312 C 36.828125 24.175781 33.90625 20.644531 34.1875 17.671875 " fill-opacity="1" fill-rule="nonzero"/><path fill="#4e802e" d="M 44.566406 16.234375 C 44.472656 16.234375 44.375 16.226562 44.28125 16.214844 C 43.878906 16.167969 43.246094 15.941406 43.597656 15.507812 C 43.71875 15.355469 43.96875 15.289062 44.246094 15.289062 C 44.703125 15.289062 45.238281 15.476562 45.398438 15.789062 C 45.539062 16.066406 45.082031 16.234375 44.566406 16.234375 " fill-opacity="1" fill-rule="nonzero"/><path fill="#edf49f" d="M 37.824219 18.453125 C 37.25 18.453125 36.757812 17.972656 36.714844 17.347656 C 36.667969 16.695312 37.121094 16.132812 37.730469 16.089844 C 37.753906 16.085938 37.777344 16.085938 37.804688 16.085938 C 38.378906 16.085938 38.871094 16.566406 38.914062 17.191406 C 38.964844 17.839844 38.507812 18.40625 37.898438 18.449219 C 37.875 18.449219 37.851562 18.453125 37.824219 18.453125 " fill-opacity="1" fill-rule="nonzero"/><path fill="#edf49f" d="M 38.496094 19.648438 C 38.230469 19.648438 38.003906 19.425781 37.984375 19.136719 C 37.960938 18.835938 38.171875 18.578125 38.453125 18.554688 C 38.464844 18.554688 38.476562 18.554688 38.488281 18.554688 C 38.753906 18.554688 38.980469 18.777344 39.003906 19.0625 C 39.027344 19.367188 38.8125 19.628906 38.535156 19.648438 C 38.523438 19.648438 38.511719 19.648438 38.496094 19.648438 " fill-opacity="1" fill-rule="nonzero"/><path fill="#d9e944" d="M 41.6875 16.710938 C 41.6875 16.710938 41.78125 16.761719 41.949219 16.839844 C 42.121094 16.917969 42.363281 17.027344 42.65625 17.132812 C 42.804688 17.183594 42.960938 17.238281 43.132812 17.285156 C 43.21875 17.308594 43.304688 17.332031 43.394531 17.351562 C 43.484375 17.371094 43.578125 17.394531 43.667969 17.410156 C 43.761719 17.425781 43.859375 17.441406 43.953125 17.457031 C 44.050781 17.46875 44.148438 17.476562 44.246094 17.484375 C 44.441406 17.5 44.640625 17.503906 44.839844 17.492188 C 45.035156 17.484375 45.234375 17.457031 45.425781 17.421875 C 45.519531 17.402344 45.613281 17.382812 45.707031 17.359375 C 45.726562 17.351562 45.75 17.347656 45.769531 17.339844 C 45.796875 17.335938 45.820312 17.328125 45.84375 17.320312 C 45.894531 17.308594 45.9375 17.292969 45.976562 17.28125 C 46.019531 17.269531 46.0625 17.25 46.105469 17.238281 C 46.148438 17.222656 46.1875 17.207031 46.230469 17.191406 C 46.269531 17.175781 46.308594 17.15625 46.347656 17.140625 C 46.386719 17.125 46.425781 17.105469 46.464844 17.089844 C 46.539062 17.050781 46.609375 17.015625 46.675781 16.972656 C 46.710938 16.953125 46.742188 16.933594 46.777344 16.914062 C 46.808594 16.894531 46.839844 16.871094 46.867188 16.851562 C 46.988281 16.765625 47.089844 16.675781 47.175781 16.589844 C 47.21875 16.546875 47.257812 16.503906 47.292969 16.460938 C 47.324219 16.421875 47.359375 16.382812 47.386719 16.34375 C 47.4375 16.273438 47.476562 16.210938 47.503906 16.167969 C 47.527344 16.121094 47.539062 16.097656 47.539062 16.097656 C 47.539062 16.097656 47.539062 16.105469 47.542969 16.117188 C 47.542969 16.128906 47.542969 16.152344 47.542969 16.175781 C 47.542969 16.230469 47.535156 16.304688 47.515625 16.402344 C 47.496094 16.5 47.460938 16.613281 47.398438 16.742188 C 47.339844 16.867188 47.253906 17.003906 47.140625 17.136719 C 47.082031 17.203125 47.019531 17.269531 46.949219 17.332031 C 46.933594 17.347656 46.914062 17.363281 46.898438 17.378906 C 46.878906 17.394531 46.859375 17.410156 46.839844 17.425781 C 46.800781 17.457031 46.761719 17.484375 46.722656 17.515625 C 46.679688 17.542969 46.636719 17.570312 46.59375 17.597656 C 46.550781 17.621094 46.507812 17.652344 46.460938 17.675781 C 46.367188 17.722656 46.273438 17.769531 46.167969 17.808594 C 46.117188 17.828125 46.0625 17.851562 46.015625 17.867188 C 45.992188 17.875 45.96875 17.882812 45.945312 17.890625 L 45.933594 17.894531 L 45.929688 17.894531 L 45.921875 17.898438 L 45.902344 17.90625 L 45.859375 17.914062 C 45.753906 17.945312 45.648438 17.972656 45.535156 17.992188 C 45.425781 18.015625 45.3125 18.03125 45.203125 18.042969 C 45.089844 18.058594 44.972656 18.066406 44.859375 18.066406 C 44.746094 18.070312 44.632812 18.066406 44.519531 18.058594 C 44.40625 18.050781 44.292969 18.039062 44.183594 18.023438 C 44.074219 18.007812 43.964844 17.984375 43.859375 17.960938 C 43.753906 17.9375 43.652344 17.910156 43.550781 17.878906 C 43.449219 17.847656 43.351562 17.8125 43.257812 17.777344 C 43.167969 17.738281 43.078125 17.699219 42.988281 17.660156 C 42.816406 17.578125 42.660156 17.492188 42.519531 17.402344 C 42.242188 17.230469 42.03125 17.054688 41.894531 16.925781 C 41.753906 16.792969 41.6875 16.710938 41.6875 16.710938 " fill-opacity="1" fill-rule="nonzero"/><path fill="#781c20" d="M 44.195312 16.078125 C 44.195312 16.078125 45.078125 14.320312 46.148438 13.566406 C 47.480469 12.625 48.421875 13.40625 48.421875 13.40625 L 48.164062 11.8125 C 48.164062 11.8125 46.984375 11.621094 46.003906 12.214844 C 44.40625 13.1875 43.9375 15.984375 43.9375 15.984375 L 44.195312 16.078125 " fill-opacity="1" fill-rule="nonzero"/><path fill="#5a1216" d="M 44.230469 16.050781 C 44.230469 16.050781 45.109375 14.296875 46.183594 13.539062 C 47.515625 12.597656 48.457031 13.378906 48.457031 13.378906 L 48.234375 12.582031 C 48.234375 12.582031 47.054688 12.390625 46.078125 12.984375 C 44.480469 13.957031 43.972656 15.957031 43.972656 15.957031 L 44.230469 16.050781 " fill-opacity="1" fill-rule="nonzero"/><path fill="#a0331f" d="M 17.148438 12.554688 L 15.070312 10.496094 L 13.054688 12.503906 L 16.621094 15.46875 L 17.148438 12.554688 " fill-opacity="1" fill-rule="nonzero"/><g clip-path="url(#b8a719e5e1)"><path fill="#f7bc0a" d="M 15.40625 14.527344 C 15.40625 14.527344 19.613281 21.417969 15.957031 27.597656 C 11.835938 34.550781 1.394531 36.363281 1.015625 36.984375 C 0.636719 37.605469 0.339844 38.816406 0.90625 39.058594 C 1.476562 39.300781 4.648438 41.492188 11.054688 40.023438 C 17.535156 38.539062 29.898438 28.613281 23.054688 16.328125 C 20.902344 12.46875 16.570312 12.34375 16.570312 12.34375 L 15.40625 14.527344 " fill-opacity="1" fill-rule="nonzero"/><path fill="#f09f10" d="M 0.6875 38.253906 C 0.582031 38.746094 0.667969 38.90625 1.003906 39.046875 C 1.574219 39.285156 4.746094 41.453125 11.152344 39.964844 C 17.636719 38.457031 30.007812 28.523438 23.164062 16.324219 C 21.011719 12.488281 16.675781 12.386719 16.675781 12.386719 L 16.21875 13.238281 C 16.21875 13.238281 26.207031 19.824219 19.738281 30.664062 C 15.121094 38.40625 5.292969 38.316406 1.882812 38.230469 C 1.140625 38.210938 0.703125 38.191406 0.6875 38.253906 " fill-opacity="1" fill-rule="nonzero"/></g><path fill="#f9dd06" d="M 16.042969 30.226562 C 15.039062 29.554688 14.160156 32.054688 11.582031 33.753906 C 9.015625 35.445312 7.265625 36.117188 7.265625 36.117188 C 7.265625 36.117188 9.9375 35.722656 12.027344 34.894531 C 15.34375 33.582031 17.472656 31.1875 16.042969 30.226562 " fill-opacity="1" fill-rule="nonzero"/><path fill="#a096d3" d="M 25.859375 2.535156 C 25.84375 3.320312 25.710938 6.386719 24.765625 8.191406 C 24.554688 8.59375 24.359375 8.902344 24.167969 9.203125 C 23.417969 10.398438 22.875 11.257812 22.78125 16.105469 C 22.664062 22.109375 22.78125 36.824219 22.78125 36.972656 C 22.78125 38.011719 25.316406 39.125 29.09375 39.125 C 32.867188 39.125 35.40625 38.011719 35.40625 36.976562 C 35.40625 36.972656 35.40625 36.933594 35.40625 36.859375 C 35.417969 34.289062 35.472656 21.210938 35.375 16.105469 C 35.28125 11.257812 34.738281 10.398438 33.984375 9.203125 C 33.796875 8.902344 33.601562 8.59375 33.390625 8.191406 C 32.445312 6.386719 32.425781 3.332031 32.4375 2.535156 L 25.859375 2.535156 M 29.09375 39.488281 C 27.335938 39.488281 25.683594 39.242188 24.4375 38.796875 C 23.132812 38.328125 22.414062 37.679688 22.414062 36.976562 C 22.414062 36.828125 22.296875 22.105469 22.414062 16.097656 C 22.507812 11.152344 23.074219 10.253906 23.859375 9.011719 C 24.042969 8.714844 24.234375 8.410156 24.4375 8.023438 C 25.464844 6.0625 25.496094 2.390625 25.496094 2.351562 L 25.496094 2.171875 L 32.816406 2.171875 L 32.808594 2.359375 C 32.808594 2.398438 32.691406 6.066406 33.71875 8.023438 C 33.921875 8.410156 34.113281 8.714844 34.296875 9.011719 C 35.082031 10.253906 35.644531 11.152344 35.742188 16.097656 C 35.839844 21.207031 35.785156 34.289062 35.773438 36.863281 C 35.773438 36.933594 35.773438 36.96875 35.773438 36.976562 C 35.773438 37.679688 35.054688 38.328125 33.75 38.796875 C 32.503906 39.242188 30.847656 39.488281 29.09375 39.488281 " fill-opacity="1" fill-rule="nonzero"/><path fill="#bbbbe4" d="M 35.0625 15.925781 C 34.953125 10.316406 34.121094 10.414062 33.140625 8.546875 C 32.160156 6.675781 31.960938 3.230469 31.960938 3.230469 L 26.117188 3.230469 C 26.117188 3.230469 25.996094 6.675781 25.015625 8.546875 C 24.035156 10.414062 23.203125 10.316406 23.09375 15.925781 C 22.984375 21.535156 23.09375 36.558594 23.09375 36.558594 C 23.09375 37.75 25.78125 38.714844 29.09375 38.714844 C 32.40625 38.714844 35.089844 37.75 35.089844 36.558594 C 35.089844 36.492188 35.164062 21.128906 35.0625 15.925781 " fill-opacity="1" fill-rule="nonzero"/><path fill="#e0dff3" d="M 24.539062 13.570312 C 24.542969 13.042969 24.570312 12.488281 24.632812 11.9375 C 24.925781 9.308594 25.488281 9.117188 25.976562 9.117188 C 26 9.117188 26.027344 9.117188 26.050781 9.117188 C 26.355469 9.125 26.816406 9.488281 26.800781 10.070312 C 26.785156 10.59375 25.710938 11.617188 25.21875 13.242188 C 24.960938 13.34375 24.734375 13.453125 24.539062 13.570312 " fill-opacity="1" fill-rule="nonzero"/><path fill="#f6f8fd" d="M 23.609375 25.773438 C 23.605469 22.507812 23.613281 19.179688 23.652344 17.042969 C 23.667969 16.070312 23.703125 15.269531 23.757812 14.605469 C 23.757812 15.007812 24.078125 15.382812 24.632812 15.695312 C 24.734375 16.742188 24.871094 17.441406 24.871094 17.441406 C 24.871094 17.441406 24.777344 16.847656 24.832031 15.800781 C 25.804688 16.277344 27.34375 16.585938 29.078125 16.585938 C 30.011719 16.585938 30.886719 16.5 31.648438 16.339844 C 31.699219 18.191406 31.769531 20.449219 31.828125 22.738281 C 29.296875 23.542969 25.867188 24.703125 23.609375 25.773438 " fill-opacity="1" fill-rule="nonzero"/><path fill="#f9fbfe" d="M 24.871094 17.441406 C 24.871094 17.441406 24.734375 16.742188 24.632812 15.695312 C 24.699219 15.730469 24.765625 15.765625 24.832031 15.800781 C 24.777344 16.847656 24.871094 17.441406 24.871094 17.441406 " fill-opacity="1" fill-rule="nonzero"/><path fill="#ffffff" d="M 34.398438 14.605469 C 34.398438 15.699219 32.015625 16.585938 29.078125 16.585938 C 26.140625 16.585938 23.757812 15.699219 23.757812 14.605469 C 23.757812 13.511719 26.140625 12.625 29.078125 12.625 C 32.015625 12.625 34.398438 13.511719 34.398438 14.605469 " fill-opacity="1" fill-rule="nonzero"/><path fill="#f0eff8" d="M 35.070312 16.394531 C 35.066406 16.230469 35.0625 16.074219 35.0625 15.925781 C 34.953125 10.316406 34.121094 10.414062 33.140625 8.546875 C 32.320312 6.976562 32.046875 4.300781 31.980469 3.480469 L 32.449219 3.480469 C 32.492188 4.738281 32.671875 6.777344 33.363281 8.136719 C 33.453125 8.371094 33.546875 8.589844 33.652344 8.792969 C 34.03125 9.507812 34.382812 9.9375 34.683594 10.507812 C 35.058594 11.472656 35.308594 12.925781 35.375 16.050781 C 35.269531 16.164062 35.167969 16.277344 35.070312 16.394531 " fill-opacity="1" fill-rule="nonzero"/><path fill="#9ec720" d="M 35.109375 21.742188 C 35.109375 21.542969 35.109375 21.347656 35.109375 21.148438 C 35.164062 21.246094 35.226562 21.34375 35.289062 21.441406 C 35.164062 21.613281 35.136719 21.734375 35.136719 21.734375 C 35.136719 21.734375 35.125 21.738281 35.109375 21.742188 " fill-opacity="1" fill-rule="nonzero"/><path fill="#c8db42" d="M 35.289062 21.441406 C 35.226562 21.34375 35.164062 21.246094 35.109375 21.148438 C 35.101562 19.296875 35.089844 17.628906 35.070312 16.390625 C 35.167969 16.277344 35.269531 16.164062 35.375 16.050781 C 35.375 16.070312 35.375 16.085938 35.375 16.105469 C 35.398438 17.410156 35.414062 19.238281 35.421875 21.28125 C 35.371094 21.335938 35.324219 21.390625 35.289062 21.441406 " fill-opacity="1" fill-rule="nonzero"/><path fill="#938bce" d="M 35.421875 21.28125 C 35.414062 19.238281 35.398438 17.410156 35.375 16.105469 C 35.375 16.085938 35.375 16.070312 35.375 16.050781 C 35.308594 12.925781 35.058594 11.472656 34.683594 10.507812 C 35.164062 11.425781 35.507812 12.714844 35.574219 16.171875 C 35.597656 17.375 35.613281 19.125 35.621094 21.101562 C 35.542969 21.164062 35.476562 21.222656 35.421875 21.28125 M 33.363281 8.136719 C 32.671875 6.777344 32.492188 4.738281 32.449219 3.480469 L 32.476562 3.480469 C 32.476562 3.480469 32.632812 6.21875 33.363281 8.136719 " fill-opacity="1" fill-rule="nonzero"/><path fill="#adacdd" d="M 34.546875 21.90625 C 34.539062 19.992188 34.527344 18.269531 34.503906 17.046875 C 34.488281 16.070312 34.453125 15.269531 34.398438 14.605469 C 34.398438 13.84375 33.246094 13.183594 31.554688 12.851562 C 31.359375 8.371094 30.578125 8.332031 29.667969 6.597656 C 29.214844 5.730469 28.929688 4.523438 28.75 3.480469 L 31.980469 3.480469 C 32.046875 4.300781 32.320312 6.976562 33.140625 8.546875 C 34.121094 10.414062 34.953125 10.316406 35.0625 15.925781 C 35.0625 16.074219 35.066406 16.230469 35.070312 16.394531 C 35.089844 17.628906 35.101562 19.296875 35.109375 21.148438 C 35.109375 21.347656 35.109375 21.542969 35.109375 21.742188 C 35.042969 21.761719 34.847656 21.816406 34.546875 21.90625 " fill-opacity="1" fill-rule="nonzero"/><path fill="#e4e5f5" d="M 31.828125 22.738281 C 31.769531 20.449219 31.699219 18.191406 31.648438 16.339844 C 33.289062 16.003906 34.398438 15.355469 34.398438 14.605469 C 34.453125 15.269531 34.488281 16.070312 34.503906 17.042969 C 34.527344 18.269531 34.539062 19.992188 34.546875 21.90625 C 33.964844 22.078125 32.992188 22.371094 31.828125 22.738281 " fill-opacity="1" fill-rule="nonzero"/><path fill="#f0eff8" d="M 31.648438 16.339844 C 31.625 15.445312 31.601562 14.640625 31.589844 13.976562 C 31.582031 13.574219 31.570312 13.199219 31.554688 12.851562 C 33.246094 13.183594 34.398438 13.84375 34.398438 14.605469 C 34.398438 15.351562 33.289062 16.003906 31.648438 16.339844 " fill-opacity="1" fill-rule="nonzero"/><path fill="#56c5af" d="M 29.082031 2.605469 C 25.214844 2.660156 24.539062 1.519531 24.539062 1.519531 L 24.539062 3.1875 C 24.539062 4.027344 26.570312 4.707031 29.082031 4.707031 C 31.589844 4.707031 33.625 4.027344 33.625 3.1875 L 33.625 1.519531 C 33.625 1.519531 32.914062 2.554688 29.082031 2.605469 " fill-opacity="1" fill-rule="nonzero"/><path fill="#6accb9" d="M 33.625 1.519531 C 33.625 2.359375 31.589844 3.039062 29.082031 3.039062 C 26.570312 3.039062 24.539062 2.359375 24.539062 1.519531 C 24.539062 0.679688 26.570312 0 29.082031 0 C 31.589844 0 33.625 0.679688 33.625 1.519531 " fill-opacity="1" fill-rule="nonzero"/><path fill="#89d7c4" d="M 33.132812 1.464844 C 33.132812 2.214844 31.320312 2.824219 29.082031 2.824219 C 26.84375 2.824219 25.027344 2.214844 25.027344 1.464844 C 25.027344 0.714844 26.84375 0.109375 29.082031 0.109375 C 31.320312 0.109375 33.132812 0.714844 33.132812 1.464844 " fill-opacity="1" fill-rule="nonzero"/><path fill="#e47918" d="M 21.4375 36.34375 C 21.882812 37.378906 25.101562 37.867188 28.933594 39.390625 C 32.941406 40.984375 34.441406 43.03125 37.882812 43.03125 C 40.546875 43.03125 51.21875 35.253906 52.695312 34.207031 C 53.320312 33.765625 53.613281 31.109375 53.277344 30.699219 C 52.601562 29.875 48.78125 29.167969 45.9375 28.320312 C 42.601562 27.328125 40.890625 26.863281 38.480469 27.21875 C 36.554688 27.5 25.222656 30.914062 21.410156 33.511719 C 20.8125 33.914062 21.050781 35.441406 21.4375 36.34375 " fill-opacity="1" fill-rule="nonzero"/><path fill="#c1561e" d="M 37.890625 40.109375 C 37.730469 41.21875 36.785156 42.347656 35.816406 42.835938 C 36.191406 42.820312 36.542969 42.867188 36.882812 42.910156 C 37.484375 42.984375 38.058594 43.0625 38.691406 42.832031 C 40.375 42.21875 44.828125 39.84375 46.507812 38.757812 C 48.039062 37.765625 52.539062 35.363281 52.898438 34.546875 C 53.394531 33.421875 53.433594 31.320312 53.222656 30.792969 C 52.253906 33.03125 48.898438 33.976562 46.914062 34.96875 C 44.175781 36.332031 37.890625 40.109375 37.890625 40.109375 " fill-opacity="1" fill-rule="nonzero"/><path fill="#c4551f" d="M 35.292969 27.691406 C 35.292969 27.691406 21.402344 31.660156 21.410156 33.511719 C 21.414062 34.929688 25.574219 35.433594 29.40625 36.957031 C 33.414062 38.550781 34.847656 40.488281 38.289062 40.488281 C 40.957031 40.488281 50.394531 33.511719 50.394531 33.511719 C 50.394531 33.511719 52.503906 33.269531 53.171875 32.101562 C 53.847656 30.921875 53.234375 30.375 51.839844 29.675781 C 50.050781 28.78125 49.132812 28.539062 46.285156 27.691406 C 42.949219 26.695312 40.367188 25.902344 37.957031 26.257812 C 35.53125 26.613281 35.292969 27.691406 35.292969 27.691406 " fill-opacity="1" fill-rule="nonzero"/><path fill="#f2de62" d="M 35.664062 27.871094 C 35.664062 27.871094 22.191406 31.746094 22.199219 33.46875 C 22.207031 34.796875 26.199219 35.292969 29.777344 36.71875 C 33.523438 38.207031 34.863281 40.015625 38.078125 40.015625 C 40.566406 40.015625 50.050781 33.222656 50.050781 33.222656 C 50.050781 33.222656 52.019531 33.050781 52.640625 31.964844 C 53.324219 30.773438 52.707031 30.464844 51.230469 29.722656 C 49.5625 28.890625 48.589844 28.660156 45.933594 27.871094 C 42.816406 26.941406 40.40625 26.199219 38.15625 26.53125 C 35.890625 26.863281 35.664062 27.871094 35.664062 27.871094 " fill-opacity="1" fill-rule="nonzero"/><path fill="#64992e" d="M 23.625 32.480469 C 21.394531 32.417969 22.269531 32.679688 23.234375 33.941406 C 22.722656 33.964844 22.203125 33.882812 21.890625 34.191406 C 23.1875 34.480469 22.074219 35.414062 21.546875 35.832031 C 23.128906 36.179688 22.5 36.605469 22.78125 37.171875 C 25.746094 36.179688 24.945312 37.976562 26.085938 38.78125 C 27.019531 38.167969 27.570312 37.296875 28.871094 37.554688 C 29.285156 37.636719 29.839844 38.28125 30.234375 38.28125 C 30.800781 38.28125 30.839844 37.726562 31.464844 37.707031 C 31.511719 38.113281 31.746094 38.40625 31.984375 38.691406 C 32.84375 37.851562 32.859375 39.792969 34.953125 40.402344 C 35.160156 39.792969 35.269531 38.949219 35.953125 38.820312 C 36.257812 39.289062 36.699219 39.167969 37.027344 39.042969 C 37.28125 38.949219 37.464844 38.855469 37.46875 39.039062 C 37.492188 40.453125 39.058594 40.574219 39.433594 40.445312 C 39.433594 40.445312 39.527344 39.492188 40.222656 39.296875 C 40.570312 39.199219 40.855469 39.316406 41.195312 39.148438 C 41.46875 39.015625 41.273438 38.554688 41.6875 38.398438 C 42.367188 38.144531 42.863281 38.5 43.308594 38.851562 C 43.910156 39.324219 44.425781 39.800781 45.1875 38.800781 C 45.71875 38.109375 45.21875 37.679688 46.457031 37.558594 C 46.613281 37.542969 46.785156 37.59375 46.957031 37.640625 C 47.179688 37.703125 47.398438 37.765625 47.585938 37.6875 C 48.117188 37.472656 47.855469 37.234375 48.179688 36.910156 C 49.40625 35.6875 50.300781 35.792969 51.804688 36.304688 C 52.039062 34.789062 51.394531 35.335938 52.808594 34.554688 C 52.554688 34.277344 52.335938 33.980469 51.96875 33.816406 C 52.332031 33.265625 52.570312 33.339844 52.769531 32.65625 C 51.789062 32.789062 51.109375 33.394531 50.808594 31.878906 C 49.890625 31.914062 49.199219 33.035156 48.207031 33.222656 L 23.625 32.480469 " fill-opacity="1" fill-rule="nonzero"/><path fill="#94d022" d="M 24.074219 32.722656 C 22.011719 32.664062 22.820312 32.910156 23.714844 34.078125 C 23.5625 34.085938 23.371094 34.039062 23.164062 33.988281 C 22.726562 33.890625 22.226562 33.792969 21.890625 34.191406 C 23.09375 34.460938 22.789062 35.3125 22.300781 35.703125 C 23.765625 36.023438 22.523438 36.648438 22.78125 37.171875 C 26.027344 35.152344 25.519531 38.121094 26.085938 38.78125 C 26.953125 38.214844 28.082031 36.738281 29.289062 36.976562 C 29.671875 37.050781 29.871094 38.28125 30.234375 38.28125 C 30.757812 38.28125 31.113281 37.136719 31.691406 37.117188 C 31.734375 37.492188 31.953125 37.765625 32.175781 38.027344 C 32.96875 37.25 33.105469 39.355469 34.953125 40.402344 C 35.144531 39.839844 35.21875 38.269531 35.851562 38.148438 C 36.40625 38.796875 36.941406 38.554688 37.285156 38.3125 C 37.535156 38.136719 37.679688 37.960938 37.65625 38.121094 C 37.4375 39.589844 39.085938 40.566406 39.433594 40.445312 C 39.433594 40.445312 39.167969 38.769531 39.808594 38.589844 C 40.136719 38.5 40.398438 38.609375 40.714844 38.453125 C 40.964844 38.332031 40.785156 37.902344 41.171875 37.757812 C 41.808594 37.519531 42.375 37.921875 42.914062 38.324219 C 43.617188 38.851562 44.269531 39.378906 44.96875 38.460938 C 45.460938 37.820312 44.445312 37.089844 45.59375 36.980469 C 45.738281 36.964844 45.894531 37.011719 46.054688 37.054688 C 46.261719 37.113281 46.464844 37.171875 46.640625 37.101562 C 47.132812 36.898438 46.886719 36.675781 47.1875 36.378906 C 48.328125 35.246094 50.410156 35.832031 51.804688 36.304688 C 51.5 34.671875 51.324219 34.375 52.808594 34.554688 C 52.574219 34.296875 51.839844 33.753906 51.5 33.601562 C 51.835938 33.089844 52.585938 33.289062 52.769531 32.65625 C 50.671875 33.003906 50.421875 33.394531 50.808594 31.878906 C 49.957031 31.910156 48.132812 32.785156 47.214844 32.960938 L 24.074219 32.722656 " fill-opacity="1" fill-rule="nonzero"/><path fill="#d4e840" d="M 33.355469 38.558594 C 33.65625 38.742188 34.433594 39.84375 34.800781 40.042969 C 35 39.554688 34.679688 39.269531 34.390625 39.128906 C 34.289062 39.078125 33.355469 38.558594 33.355469 38.558594 " fill-opacity="1" fill-rule="nonzero"/><path fill="#64992e" d="M 24.027344 35.183594 C 22.929688 35.511719 21.28125 35.761719 19.296875 34.207031 L 19.101562 33.722656 C 19.101562 33.722656 20.671875 33.328125 19.917969 32.070312 C 21.085938 31.136719 20.171875 29.527344 20.171875 29.527344 C 21.3125 29.585938 22.261719 29.085938 22.234375 27.496094 C 23.042969 28.34375 24.566406 27.8125 25.214844 27.023438 C 25.25 27.839844 25.890625 29.324219 26.886719 29.238281 C 26.949219 30.230469 27.003906 31.066406 27.460938 31.980469 C 27.460938 31.980469 25.175781 34.835938 24.027344 35.183594 " fill-opacity="1" fill-rule="nonzero"/><path fill="#94d022" d="M 24.027344 34.589844 C 22.929688 34.917969 21.085938 35.277344 19.101562 33.722656 C 19.710938 33.335938 20.378906 32.648438 19.917969 32.070312 C 21.695312 31.460938 20.171875 29.527344 20.171875 29.527344 C 22.242188 30.058594 22.261719 28.492188 22.234375 26.902344 C 23.042969 27.753906 24.566406 27.222656 25.214844 26.433594 C 25.25 27.25 25.890625 28.730469 26.886719 28.644531 C 26.949219 29.640625 27.003906 30.472656 27.460938 31.386719 C 27.460938 31.386719 25.175781 34.242188 24.027344 34.589844 " fill-opacity="1" fill-rule="nonzero"/><path fill="#ee2423" d="M 21.695312 31.460938 L 22.25 34.046875 C 22.25 34.046875 23.363281 35.382812 28.519531 36.390625 C 32.46875 37.160156 37.140625 36.175781 37.140625 36.175781 L 39.582031 35.308594 L 37.859375 32.867188 L 21.695312 31.460938 " fill-opacity="1" fill-rule="nonzero"/><path fill="#d61c2d" d="M 21.738281 30.445312 L 21.695312 31.460938 C 21.695312 31.460938 23.4375 33.457031 28.085938 34.480469 C 31.714844 35.28125 36.742188 34.46875 36.742188 34.46875 L 36.839844 32.070312 L 21.738281 30.445312 " fill-opacity="1" fill-rule="nonzero"/><path fill="#f36019" d="M 24.304688 33.601562 C 24.304688 33.601562 25.453125 34.679688 26.671875 35.085938 C 27.933594 35.507812 30.554688 36.027344 30.425781 35.5625 C 30.324219 35.199219 27.589844 34.878906 26.433594 34.574219 C 25.53125 34.332031 24.304688 33.601562 24.304688 33.601562 " fill-opacity="1" fill-rule="nonzero"/><path fill="#bc2823" d="M 46.78125 34.625 C 47.140625 36.171875 44.972656 37.988281 41.945312 38.679688 C 38.914062 39.371094 36.167969 38.679688 35.808594 37.132812 C 35.449219 35.585938 37.613281 33.773438 40.644531 33.078125 C 43.675781 32.386719 46.421875 33.078125 46.78125 34.625 " fill-opacity="1" fill-rule="nonzero"/><path fill="#bc2823" d="M 46.882812 34.316406 C 47.132812 35.882812 44.847656 37.546875 41.777344 38.035156 C 38.707031 38.523438 36.015625 37.648438 35.761719 36.078125 C 35.511719 34.511719 37.796875 32.847656 40.867188 32.359375 C 43.9375 31.871094 46.628906 32.75 46.882812 34.316406 " fill-opacity="1" fill-rule="nonzero"/><path fill="#dc2c23" d="M 46.171875 34.429688 C 46.390625 35.796875 44.398438 37.25 41.71875 37.671875 C 39.042969 38.097656 36.691406 37.335938 36.472656 35.96875 C 36.253906 34.601562 38.246094 33.148438 40.925781 32.722656 C 43.601562 32.296875 45.953125 33.0625 46.171875 34.429688 " fill-opacity="1" fill-rule="nonzero"/><path fill="#bc2823" d="M 40.6875 37.542969 C 39.96875 37.65625 39.617188 37.441406 39.902344 37.066406 L 40.800781 35.882812 C 41.085938 35.507812 41.640625 35.417969 42.03125 35.6875 L 43.257812 36.53125 C 43.648438 36.800781 43.378906 37.117188 42.660156 37.230469 L 40.6875 37.542969 " fill-opacity="1" fill-rule="nonzero"/><path fill="#bc2823" d="M 45.28125 35.753906 C 45.117188 36.136719 44.539062 36.300781 43.996094 36.113281 L 42.304688 35.535156 C 41.765625 35.347656 41.894531 35.054688 42.589844 34.875 L 44.773438 34.324219 C 45.46875 34.144531 45.902344 34.316406 45.738281 34.699219 L 45.28125 35.753906 " fill-opacity="1" fill-rule="nonzero"/><path fill="#bc2823" d="M 44.402344 33.195312 C 45.019531 33.320312 45.015625 33.632812 44.394531 33.898438 L 42.453125 34.71875 C 41.832031 34.984375 41.355469 34.886719 41.394531 34.507812 L 41.519531 33.320312 C 41.558594 32.941406 42.097656 32.734375 42.714844 32.855469 L 44.402344 33.195312 " fill-opacity="1" fill-rule="nonzero"/><path fill="#bc2823" d="M 39.265625 33.402344 C 39.8125 33.09375 40.390625 33.128906 40.546875 33.476562 L 41.039062 34.566406 C 41.195312 34.914062 40.773438 35.152344 40.097656 35.09375 L 37.996094 34.914062 C 37.320312 34.855469 37.21875 34.554688 37.765625 34.25 L 39.265625 33.402344 " fill-opacity="1" fill-rule="nonzero"/><path fill="#bc2823" d="M 36.96875 36.089844 C 36.691406 35.777344 37.050781 35.480469 37.769531 35.433594 L 40.015625 35.285156 C 40.734375 35.238281 40.949219 35.480469 40.492188 35.824219 L 39.066406 36.898438 C 38.613281 37.242188 38.011719 37.265625 37.734375 36.953125 L 36.96875 36.089844 " fill-opacity="1" fill-rule="nonzero"/><path fill="#dc2c23" d="M 41.097656 35.144531 C 41.097656 35.144531 39.691406 35.007812 39.851562 34.714844 C 40.007812 34.421875 40.683594 34.730469 40.738281 34.773438 C 40.871094 34.882812 41.097656 35.144531 41.097656 35.144531 " fill-opacity="1" fill-rule="nonzero"/><path fill="#dc2c23" d="M 40.832031 35.414062 C 40.832031 35.414062 39.753906 36.230469 39.296875 35.953125 C 38.839844 35.671875 39.816406 35.425781 39.929688 35.417969 C 40.210938 35.398438 40.832031 35.414062 40.832031 35.414062 " fill-opacity="1" fill-rule="nonzero"/><path fill="#dc2c23" d="M 41.296875 35.292969 C 41.296875 35.292969 42.152344 35.882812 41.601562 36.109375 C 41.050781 36.335938 40.996094 35.820312 41.023438 35.761719 C 41.082031 35.613281 41.296875 35.292969 41.296875 35.292969 " fill-opacity="1" fill-rule="nonzero"/><path fill="#dc2c23" d="M 41.894531 35.226562 C 41.894531 35.226562 43.414062 34.636719 43.578125 35.015625 C 43.742188 35.394531 42.746094 35.429688 42.648438 35.414062 C 42.402344 35.371094 41.894531 35.226562 41.894531 35.226562 " fill-opacity="1" fill-rule="nonzero"/><path fill="#dc2c23" d="M 41.582031 34.921875 C 41.582031 34.921875 41.535156 34.039062 42.296875 34.046875 C 43.058594 34.058594 42.480469 34.554688 42.386719 34.601562 C 42.160156 34.710938 41.582031 34.921875 41.582031 34.921875 " fill-opacity="1" fill-rule="nonzero"/><path fill="#ef3620" d="M 39.53125 34.296875 C 39.53125 34.296875 38.390625 34.269531 38.8125 33.988281 C 39.238281 33.707031 39.53125 34.296875 39.53125 34.296875 " fill-opacity="1" fill-rule="nonzero"/><path fill="#ef3620" d="M 39.332031 34.554688 C 39.332031 34.554688 38.207031 34.878906 38.3125 34.550781 C 38.414062 34.222656 39.332031 34.554688 39.332031 34.554688 " fill-opacity="1" fill-rule="nonzero"/><path fill="#ef3620" d="M 39.980469 34.171875 C 39.980469 34.171875 39.160156 33.824219 39.753906 33.667969 C 40.347656 33.515625 39.980469 34.171875 39.980469 34.171875 " fill-opacity="1" fill-rule="nonzero"/><path fill="#ef3620" d="M 38.703125 36.070312 C 38.703125 36.070312 37.960938 36.636719 37.722656 36.371094 C 37.480469 36.105469 38.703125 36.070312 38.703125 36.070312 " fill-opacity="1" fill-rule="nonzero"/><path fill="#ef3620" d="M 39.03125 36.222656 C 39.03125 36.222656 38.929688 36.847656 38.414062 36.734375 C 37.898438 36.617188 39.03125 36.222656 39.03125 36.222656 " fill-opacity="1" fill-rule="nonzero"/><path fill="#ef3620" d="M 38.753906 35.824219 C 38.753906 35.824219 37.644531 36.167969 37.726562 35.839844 C 37.8125 35.511719 38.753906 35.824219 38.753906 35.824219 " fill-opacity="1" fill-rule="nonzero"/><path fill="#ef3620" d="M 41.484375 36.601562 C 41.484375 36.601562 42.253906 36.980469 41.652344 37.121094 C 41.050781 37.257812 41.484375 36.601562 41.484375 36.601562 " fill-opacity="1" fill-rule="nonzero"/><path fill="#ef3620" d="M 41.902344 36.421875 C 41.902344 36.421875 43.039062 36.457031 42.613281 36.734375 C 42.1875 37.015625 41.902344 36.421875 41.902344 36.421875 " fill-opacity="1" fill-rule="nonzero"/><path fill="#ef3620" d="M 41.035156 36.582031 C 41.035156 36.582031 41.230469 37.167969 40.648438 37.132812 C 40.0625 37.097656 41.035156 36.582031 41.035156 36.582031 " fill-opacity="1" fill-rule="nonzero"/><path fill="#ef3620" d="M 44.085938 35.179688 C 44.085938 35.179688 45.1875 34.824219 45.117188 35.152344 C 45.046875 35.476562 44.085938 35.179688 44.085938 35.179688 " fill-opacity="1" fill-rule="nonzero"/><path fill="#ef3620" d="M 43.980469 34.945312 C 43.980469 34.945312 44.65625 34.359375 44.9375 34.613281 C 45.21875 34.863281 43.980469 34.945312 43.980469 34.945312 " fill-opacity="1" fill-rule="nonzero"/><path fill="#ef3620" d="M 43.8125 35.410156 C 43.8125 35.410156 44.980469 35.375 44.605469 35.671875 C 44.230469 35.96875 43.8125 35.410156 43.8125 35.410156 " fill-opacity="1" fill-rule="nonzero"/><path fill="#ef3620" d="M 42.835938 33.703125 C 42.835938 33.703125 42.816406 33.089844 43.363281 33.171875 C 43.914062 33.253906 42.835938 33.703125 42.835938 33.703125 " fill-opacity="1" fill-rule="nonzero"/><path fill="#ef3620" d="M 42.355469 33.722656 C 42.355469 33.722656 41.675781 33.296875 42.289062 33.1875 C 42.902344 33.082031 42.355469 33.722656 42.355469 33.722656 " fill-opacity="1" fill-rule="nonzero"/><path fill="#ef3620" d="M 43.097656 33.875 C 43.097656 33.875 43.6875 33.273438 44.015625 33.507812 C 44.339844 33.742188 43.097656 33.875 43.097656 33.875 " fill-opacity="1" fill-rule="nonzero"/><path fill="#cc2b23" d="M 40.65625 38.667969 C 39.265625 38.667969 37 38.371094 37.234375 37.992188 C 37.277344 37.921875 37.398438 37.894531 37.566406 37.894531 C 37.722656 37.894531 37.917969 37.914062 38.136719 37.949219 C 38.453125 38.027344 38.792969 38.085938 39.148438 38.121094 C 39.566406 38.191406 39.996094 38.253906 40.375 38.261719 C 40.394531 38.261719 40.414062 38.261719 40.433594 38.261719 C 41.40625 38.261719 43.664062 37.808594 43.664062 37.808594 C 43.664062 37.808594 42.253906 38.609375 40.972656 38.660156 C 40.875 38.664062 40.769531 38.667969 40.65625 38.667969 " fill-opacity="1" fill-rule="nonzero"/><path fill="#cc2b23" d="M 39.148438 38.121094 C 38.792969 38.085938 38.453125 38.027344 38.136719 37.949219 C 38.4375 37.996094 38.789062 38.0625 39.148438 38.121094 " fill-opacity="1" fill-rule="nonzero"/><path fill="#bc2823" d="M 53.109375 31.902344 C 52.851562 33.46875 50.15625 34.332031 47.085938 33.835938 C 44.015625 33.335938 41.738281 31.660156 41.996094 30.09375 C 42.253906 28.527344 44.953125 27.664062 48.019531 28.160156 C 51.089844 28.660156 53.367188 30.335938 53.109375 31.902344 " fill-opacity="1" fill-rule="nonzero"/><path fill="#dc2c23" d="M 52.398438 31.785156 C 52.175781 33.152344 49.824219 33.90625 47.144531 33.472656 C 44.46875 33.035156 42.484375 31.578125 42.707031 30.210938 C 42.933594 28.84375 45.285156 28.089844 47.960938 28.523438 C 50.636719 28.960938 52.625 30.417969 52.398438 31.785156 " fill-opacity="1" fill-rule="nonzero"/><path fill="#bc2823" d="M 46.207031 33.027344 C 45.488281 32.910156 45.222656 32.59375 45.613281 32.324219 L 46.839844 31.484375 C 47.234375 31.21875 47.785156 31.308594 48.074219 31.6875 L 48.964844 32.871094 C 49.25 33.25 48.898438 33.464844 48.179688 33.347656 L 46.207031 33.027344 " fill-opacity="1" fill-rule="nonzero"/><path fill="#bc2823" d="M 51.136719 32.765625 C 50.855469 33.078125 50.257812 33.050781 49.800781 32.707031 L 48.378906 31.625 C 47.925781 31.28125 48.140625 31.039062 48.859375 31.089844 L 51.105469 31.246094 C 51.824219 31.296875 52.183594 31.59375 51.902344 31.90625 L 51.136719 32.765625 " fill-opacity="1" fill-rule="nonzero"/><path fill="#bc2823" d="M 51.113281 30.0625 C 51.660156 30.371094 51.554688 30.671875 50.882812 30.726562 L 48.777344 30.898438 C 48.105469 30.953125 47.683594 30.714844 47.839844 30.367188 L 48.335938 29.28125 C 48.496094 28.933594 49.070312 28.902344 49.617188 29.210938 L 51.113281 30.0625 " fill-opacity="1" fill-rule="nonzero"/><path fill="#bc2823" d="M 46.171875 28.652344 C 46.789062 28.53125 47.324219 28.742188 47.363281 29.121094 L 47.484375 30.308594 C 47.523438 30.6875 47.046875 30.78125 46.425781 30.515625 L 44.484375 29.6875 C 43.867188 29.421875 43.863281 29.105469 44.480469 28.984375 L 46.171875 28.652344 " fill-opacity="1" fill-rule="nonzero"/><path fill="#bc2823" d="M 43.140625 30.484375 C 42.976562 30.097656 43.410156 29.929688 44.105469 30.109375 L 46.285156 30.671875 C 46.984375 30.851562 47.109375 31.148438 46.570312 31.332031 L 44.875 31.90625 C 44.332031 32.089844 43.753906 31.925781 43.589844 31.539062 L 43.140625 30.484375 " fill-opacity="1" fill-rule="nonzero"/><path fill="#dc2c23" d="M 47.359375 30.875 C 47.359375 30.875 46.066406 30.308594 46.308594 30.078125 C 46.550781 29.851562 47.097656 30.355469 47.132812 30.414062 C 47.226562 30.558594 47.359375 30.875 47.359375 30.875 " fill-opacity="1" fill-rule="nonzero"/><path fill="#dc2c23" d="M 47.019531 31.046875 C 47.019531 31.046875 45.738281 31.488281 45.390625 31.078125 C 45.046875 30.671875 46.050781 30.746094 46.164062 30.773438 C 46.433594 30.84375 47.019531 31.046875 47.019531 31.046875 " fill-opacity="1" fill-rule="nonzero"/><path fill="#dc2c23" d="M 47.5 31.078125 C 47.5 31.078125 48.125 31.910156 47.527344 31.953125 C 46.933594 31.996094 47.046875 31.488281 47.089844 31.4375 C 47.195312 31.320312 47.5 31.078125 47.5 31.078125 " fill-opacity="1" fill-rule="nonzero"/><path fill="#dc2c23" d="M 48.089844 31.203125 C 48.089844 31.203125 49.71875 31.117188 49.753906 31.53125 C 49.789062 31.945312 48.832031 31.664062 48.742188 31.617188 C 48.523438 31.5 48.089844 31.203125 48.089844 31.203125 " fill-opacity="1" fill-rule="nonzero"/><path fill="#dc2c23" d="M 47.886719 30.816406 C 47.886719 30.816406 48.121094 29.964844 48.84375 30.210938 C 49.5625 30.460938 48.859375 30.75 48.753906 30.765625 C 48.5 30.796875 47.886719 30.816406 47.886719 30.816406 " fill-opacity="1" fill-rule="nonzero"/><path fill="#ef3620" d="M 46.140625 29.585938 C 46.140625 29.585938 45.066406 29.199219 45.558594 29.066406 C 46.046875 28.929688 46.140625 29.585938 46.140625 29.585938 " fill-opacity="1" fill-rule="nonzero"/><path fill="#ef3620" d="M 45.867188 29.765625 C 45.867188 29.765625 44.699219 29.722656 44.902344 29.441406 C 45.101562 29.164062 45.867188 29.765625 45.867188 29.765625 " fill-opacity="1" fill-rule="nonzero"/><path fill="#ef3620" d="M 46.605469 29.605469 C 46.605469 29.605469 45.9375 29.019531 46.550781 29.058594 C 47.164062 29.09375 46.605469 29.605469 46.605469 29.605469 " fill-opacity="1" fill-rule="nonzero"/><path fill="#ef3620" d="M 44.789062 31.007812 C 44.789062 31.007812 43.90625 31.3125 43.761719 30.984375 C 43.617188 30.65625 44.789062 31.007812 44.789062 31.007812 " fill-opacity="1" fill-rule="nonzero"/><path fill="#ef3620" d="M 45.054688 31.253906 C 45.054688 31.253906 44.757812 31.816406 44.304688 31.542969 C 43.851562 31.273438 45.054688 31.253906 45.054688 31.253906 " fill-opacity="1" fill-rule="nonzero"/><path fill="#ef3620" d="M 44.917969 30.789062 C 44.917969 30.789062 43.753906 30.765625 43.9375 30.480469 C 44.121094 30.199219 44.917969 30.789062 44.917969 30.789062 " fill-opacity="1" fill-rule="nonzero"/><path fill="#ef3620" d="M 47.261719 32.382812 C 47.261719 32.382812 47.871094 32.980469 47.257812 32.925781 C 46.640625 32.867188 47.261719 32.382812 47.261719 32.382812 " fill-opacity="1" fill-rule="nonzero"/><path fill="#ef3620" d="M 47.714844 32.339844 C 47.714844 32.339844 48.785156 32.730469 48.292969 32.863281 C 47.796875 32.996094 47.714844 32.339844 47.714844 32.339844 " fill-opacity="1" fill-rule="nonzero"/><path fill="#ef3620" d="M 46.839844 32.222656 C 46.839844 32.222656 46.84375 32.839844 46.300781 32.625 C 45.753906 32.410156 46.839844 32.222656 46.839844 32.222656 " fill-opacity="1" fill-rule="nonzero"/><path fill="#ef3620" d="M 50.183594 31.847656 C 50.183594 31.847656 51.339844 31.855469 51.167969 32.140625 C 51 32.429688 50.183594 31.847656 50.183594 31.847656 " fill-opacity="1" fill-rule="nonzero"/><path fill="#ef3620" d="M 50.15625 31.589844 C 50.15625 31.589844 50.980469 31.246094 51.167969 31.574219 C 51.355469 31.898438 50.15625 31.589844 50.15625 31.589844 " fill-opacity="1" fill-rule="nonzero"/><path fill="#ef3620" d="M 49.847656 31.980469 C 49.847656 31.980469 50.96875 32.3125 50.519531 32.476562 C 50.070312 32.640625 49.847656 31.980469 49.847656 31.980469 " fill-opacity="1" fill-rule="nonzero"/><path fill="#ef3620" d="M 49.464844 30.054688 C 49.464844 30.054688 49.640625 29.464844 50.132812 29.714844 C 50.628906 29.964844 49.464844 30.054688 49.464844 30.054688 " fill-opacity="1" fill-rule="nonzero"/><path fill="#ef3620" d="M 49 29.921875 C 49 29.921875 48.492188 29.304688 49.109375 29.394531 C 49.722656 29.484375 49 29.921875 49 29.921875 " fill-opacity="1" fill-rule="nonzero"/><path fill="#ef3620" d="M 49.65625 30.300781 C 49.65625 30.300781 50.410156 29.914062 50.644531 30.238281 C 50.878906 30.5625 49.65625 30.300781 49.65625 30.300781 " fill-opacity="1" fill-rule="nonzero"/><path fill="#f9e220" d="M 34.265625 33.390625 C 34.269531 33.933594 33.632812 34.386719 32.84375 34.402344 C 32.054688 34.417969 31.414062 33.988281 31.40625 33.445312 C 31.402344 32.902344 32.039062 32.449219 32.828125 32.433594 C 33.617188 32.417969 34.257812 32.847656 34.265625 33.390625 " fill-opacity="1" fill-rule="nonzero"/><path fill="#d9561e" d="M 33.882812 33.46875 C 33.886719 33.9375 33.34375 34.324219 32.667969 34.335938 C 31.992188 34.347656 31.441406 33.980469 31.4375 33.515625 C 31.433594 33.050781 31.976562 32.664062 32.652344 32.648438 C 33.328125 32.636719 33.878906 33.003906 33.882812 33.46875 " fill-opacity="1" fill-rule="nonzero"/><path fill="#f79210" d="M 33.84375 33.578125 C 33.847656 33.980469 33.375 34.320312 32.789062 34.332031 C 32.203125 34.339844 31.722656 34.023438 31.71875 33.617188 C 31.714844 33.210938 32.1875 32.875 32.777344 32.863281 C 33.363281 32.851562 33.84375 33.171875 33.84375 33.578125 " fill-opacity="1" fill-rule="nonzero"/><path fill="#f9e220" d="M 29.347656 32.867188 C 29.214844 33.15625 28.738281 33.191406 28.28125 32.941406 C 27.824219 32.695312 27.5625 32.257812 27.695312 31.96875 C 27.828125 31.679688 28.304688 31.644531 28.761719 31.894531 C 29.21875 32.140625 29.480469 32.578125 29.347656 32.867188 " fill-opacity="1" fill-rule="nonzero"/><path fill="#d9561e" d="M 29.109375 32.785156 C 28.996094 33.035156 28.585938 33.0625 28.199219 32.851562 C 27.808594 32.636719 27.582031 32.261719 27.695312 32.015625 C 27.808594 31.765625 28.214844 31.738281 28.605469 31.953125 C 28.996094 32.164062 29.222656 32.539062 29.109375 32.785156 " fill-opacity="1" fill-rule="nonzero"/><path fill="#f79210" d="M 29.0625 32.832031 C 28.964844 33.046875 28.609375 33.070312 28.269531 32.886719 C 27.929688 32.699219 27.734375 32.375 27.832031 32.160156 C 27.929688 31.945312 28.285156 31.917969 28.625 32.105469 C 28.964844 32.289062 29.160156 32.613281 29.0625 32.832031 " fill-opacity="1" fill-rule="nonzero"/><g clip-path="url(#977501d1b8)"><path fill="#ce4a20" d="M 53.394531 33.722656 C 52.785156 33.699219 52.3125 33.191406 52.335938 32.585938 C 52.359375 31.984375 52.867188 31.511719 53.476562 31.535156 C 53.480469 31.535156 53.484375 31.535156 53.488281 31.535156 C 53.191406 30.457031 52.769531 29.375 52.148438 28.300781 C 50.441406 25.351562 49.371094 24.066406 49.371094 24.066406 L 38.15625 21.824219 C 38.15625 21.824219 26.789062 25.25 23.773438 26.605469 C 22.46875 27.191406 22.035156 27.886719 22.691406 30.675781 C 23.496094 34.113281 25.46875 37.515625 25.46875 37.515625 L 27.476562 37.414062 C 27.484375 37.390625 27.449219 36.164062 28.671875 36.042969 C 29.808594 35.933594 29.816406 36.835938 29.976562 37.164062 C 32.859375 36.957031 45.03125 34.511719 48.117188 35.269531 C 51.730469 36.152344 54.164062 36.074219 54.164062 36.074219 C 54.140625 35.699219 54.101562 34.871094 53.917969 33.613281 C 53.757812 33.6875 53.582031 33.726562 53.394531 33.722656 " fill-opacity="1" fill-rule="nonzero"/><path fill="#f1b91b" d="M 53.347656 33.28125 C 52.742188 33.257812 52.265625 32.75 52.289062 32.148438 C 52.3125 31.542969 52.824219 31.074219 53.433594 31.09375 C 53.4375 31.09375 53.441406 31.097656 53.445312 31.097656 C 53.148438 30.015625 52.722656 28.9375 52.101562 27.859375 C 50.398438 24.910156 49.328125 23.625 49.328125 23.625 L 38.113281 21.382812 C 38.113281 21.382812 26.746094 24.808594 23.730469 26.164062 C 22.425781 26.75 21.992188 27.445312 22.644531 30.234375 C 23.453125 33.671875 25.421875 37.074219 25.421875 37.074219 L 27.433594 36.972656 C 27.4375 36.949219 27.40625 35.726562 28.625 35.605469 C 29.765625 35.492188 29.769531 36.398438 29.933594 36.722656 C 32.816406 36.515625 44.988281 34.070312 48.074219 34.828125 C 51.683594 35.710938 54.121094 35.632812 54.121094 35.632812 C 54.066406 34.816406 53.996094 33.996094 53.871094 33.171875 C 53.714844 33.246094 53.535156 33.289062 53.347656 33.28125 " fill-opacity="1" fill-rule="nonzero"/></g><path fill="#f9e220" d="M 50.941406 32.214844 C 51.066406 32.605469 50.65625 33.078125 50.027344 33.273438 C 49.398438 33.46875 48.792969 33.308594 48.667969 32.914062 C 48.546875 32.523438 48.957031 32.050781 49.582031 31.855469 C 50.210938 31.660156 50.820312 31.820312 50.941406 32.214844 " fill-opacity="1" fill-rule="nonzero"/><path fill="#d9561e" d="M 50.65625 32.359375 C 50.757812 32.695312 50.410156 33.101562 49.871094 33.265625 C 49.335938 33.433594 48.8125 33.296875 48.710938 32.960938 C 48.605469 32.625 48.953125 32.21875 49.492188 32.054688 C 50.027344 31.886719 50.550781 32.023438 50.65625 32.359375 " fill-opacity="1" fill-rule="nonzero"/><path fill="#f79210" d="M 50.648438 32.445312 C 50.738281 32.734375 50.433594 33.089844 49.96875 33.234375 C 49.5 33.378906 49.046875 33.257812 48.957031 32.96875 C 48.863281 32.675781 49.167969 32.324219 49.636719 32.179688 C 50.105469 32.035156 50.554688 32.152344 50.648438 32.445312 " fill-opacity="1" fill-rule="nonzero"/><path fill="#f9e220" d="M 26.746094 34.003906 C 26.847656 34.332031 26.503906 34.730469 25.976562 34.894531 C 25.449219 35.058594 24.9375 34.921875 24.835938 34.59375 C 24.734375 34.265625 25.078125 33.867188 25.605469 33.703125 C 26.132812 33.539062 26.640625 33.675781 26.746094 34.003906 " fill-opacity="1" fill-rule="nonzero"/><path fill="#d9561e" d="M 26.503906 34.125 C 26.59375 34.40625 26.296875 34.75 25.847656 34.886719 C 25.394531 35.027344 24.957031 34.914062 24.871094 34.632812 C 24.78125 34.351562 25.074219 34.007812 25.527344 33.867188 C 25.976562 33.730469 26.414062 33.84375 26.503906 34.125 " fill-opacity="1" fill-rule="nonzero"/><path fill="#f79210" d="M 26.5 34.199219 C 26.574219 34.441406 26.320312 34.738281 25.925781 34.859375 C 25.535156 34.980469 25.152344 34.882812 25.078125 34.636719 C 25 34.390625 25.253906 34.09375 25.648438 33.972656 C 26.039062 33.851562 26.421875 33.953125 26.5 34.199219 " fill-opacity="1" fill-rule="nonzero"/><path fill="#e47918" d="M 21.476562 30.359375 C 21.917969 31.394531 24.972656 31.960938 28.804688 33.484375 C 32.8125 35.078125 34.246094 37.015625 37.6875 37.015625 C 40.355469 37.015625 51.316406 29.546875 52.796875 28.496094 C 53.417969 28.054688 53.457031 25.152344 53.117188 24.742188 C 52.445312 23.921875 48.625 23.210938 45.78125 22.363281 C 42.445312 21.371094 40.734375 20.90625 38.324219 21.261719 C 36.398438 21.546875 25.261719 24.765625 21.445312 27.359375 C 20.851562 27.765625 21.089844 29.460938 21.476562 30.359375 " fill-opacity="1" fill-rule="nonzero"/><path fill="#c1561e" d="M 37.785156 34.058594 C 37.625 35.167969 36.679688 36.296875 35.714844 36.785156 C 36.875 37.171875 37.59375 37.308594 38.589844 36.945312 C 40.273438 36.335938 44.722656 33.792969 46.402344 32.707031 C 47.933594 31.714844 52.433594 29.3125 52.796875 28.496094 C 53.292969 27.375 53.328125 25.269531 53.117188 24.742188 C 52.152344 26.984375 48.796875 27.925781 46.808594 28.917969 C 44.070312 30.28125 37.785156 34.058594 37.785156 34.058594 " fill-opacity="1" fill-rule="nonzero"/><path fill="#c4551f" d="M 35.136719 21.734375 C 35.136719 21.734375 21.246094 25.707031 21.253906 27.554688 C 21.257812 28.976562 25.417969 29.476562 29.25 31 C 33.257812 32.59375 34.691406 34.53125 38.132812 34.53125 C 40.800781 34.53125 50.238281 27.554688 50.238281 27.554688 C 50.238281 27.554688 52.347656 27.3125 53.015625 26.148438 C 53.691406 24.964844 53.078125 24.417969 51.683594 23.71875 C 49.894531 22.824219 48.976562 22.582031 46.128906 21.734375 C 42.792969 20.742188 40.210938 19.945312 37.800781 20.300781 C 35.375 20.65625 35.136719 21.734375 35.136719 21.734375 " fill-opacity="1" fill-rule="nonzero"/><path fill="#f2de62" d="M 35.507812 21.914062 C 35.507812 21.914062 22.035156 25.789062 22.042969 27.515625 C 22.050781 28.84375 26.042969 29.339844 29.621094 30.761719 C 33.367188 32.25 34.707031 34.058594 37.921875 34.058594 C 40.410156 34.058594 49.894531 27.265625 49.894531 27.265625 C 49.894531 27.265625 51.863281 27.097656 52.484375 26.007812 C 53.167969 24.816406 52.550781 24.507812 51.074219 23.769531 C 49.40625 22.933594 48.433594 22.707031 45.777344 21.914062 C 42.660156 20.984375 40.25 20.242188 38 20.574219 C 35.734375 20.90625 35.507812 21.914062 35.507812 21.914062 " fill-opacity="1" fill-rule="nonzero"/><path fill="#ea962a" d="M 36.699219 33.964844 C 35.726562 33.8125 35.101562 33.535156 35.101562 33.535156 C 35.113281 33.53125 35.128906 33.527344 35.140625 33.523438 C 35.628906 33.71875 36.136719 33.871094 36.699219 33.964844 M 36.644531 20.929688 L 36.644531 20.929688 M 36.648438 20.925781 L 36.648438 20.925781 M 36.648438 20.925781 C 36.988281 20.785156 37.421875 20.660156 37.984375 20.578125 C 37.421875 20.660156 36.988281 20.785156 36.648438 20.925781 M 37.984375 20.578125 C 37.988281 20.578125 37.988281 20.574219 37.992188 20.574219 C 37.988281 20.574219 37.988281 20.578125 37.984375 20.578125 M 37.992188 20.574219 C 37.992188 20.574219 37.996094 20.574219 38 20.574219 C 37.996094 20.574219 37.992188 20.574219 37.992188 20.574219 " fill-opacity="1" fill-rule="nonzero"/><path fill="#f7c047" d="M 37.921875 34.058594 C 37.472656 34.058594 37.0625 34.019531 36.699219 33.964844 C 36.136719 33.871094 35.628906 33.71875 35.140625 33.523438 C 46.648438 29.484375 47.445312 25.226562 45.113281 23.738281 C 41.851562 21.65625 36.960938 21.390625 36.164062 21.175781 C 36.296875 21.09375 36.453125 21.007812 36.644531 20.929688 C 36.644531 20.929688 36.644531 20.925781 36.648438 20.925781 C 36.648438 20.925781 36.648438 20.925781 36.652344 20.925781 C 36.988281 20.785156 37.421875 20.660156 37.984375 20.578125 C 37.988281 20.574219 37.988281 20.574219 37.992188 20.574219 C 37.992188 20.574219 37.996094 20.574219 38 20.574219 C 38.371094 20.519531 38.75 20.492188 39.132812 20.492188 C 41.066406 20.492188 43.175781 21.140625 45.777344 21.914062 C 48.433594 22.707031 49.40625 22.933594 51.074219 23.769531 C 52.144531 24.304688 52.761719 24.613281 52.761719 25.195312 C 52.761719 25.417969 52.671875 25.679688 52.484375 26.007812 C 51.863281 27.097656 49.894531 27.265625 49.894531 27.265625 C 49.894531 27.265625 49.890625 27.269531 49.886719 27.269531 C 49.644531 27.445312 40.378906 34.058594 37.921875 34.058594 " fill-opacity="1" fill-rule="nonzero"/><path fill="#f8b23d" d="M 27.726562 26.738281 C 27.726562 26.929688 27.492188 27.085938 27.199219 27.085938 C 26.910156 27.085938 26.675781 26.929688 26.675781 26.738281 C 26.675781 26.542969 26.910156 26.386719 27.199219 26.386719 C 27.492188 26.386719 27.726562 26.542969 27.726562 26.738281 " fill-opacity="1" fill-rule="nonzero"/><path fill="#f8b23d" d="M 29.734375 28.492188 C 29.734375 28.640625 29.554688 28.757812 29.335938 28.757812 C 29.113281 28.757812 28.933594 28.640625 28.933594 28.492188 C 28.933594 28.347656 29.113281 28.226562 29.335938 28.226562 C 29.554688 28.226562 29.734375 28.347656 29.734375 28.492188 " fill-opacity="1" fill-rule="nonzero"/><path fill="#f8b23d" d="M 37.398438 23.472656 C 37.332031 23.636719 37.074219 23.683594 36.832031 23.582031 C 36.585938 23.480469 36.441406 23.265625 36.511719 23.105469 C 36.582031 22.941406 36.835938 22.894531 37.078125 22.996094 C 37.324219 23.097656 37.46875 23.3125 37.398438 23.472656 " fill-opacity="1" fill-rule="nonzero"/><path fill="#f8b23d" d="M 37.761719 27.097656 C 37.710938 27.214844 37.53125 27.246094 37.359375 27.175781 C 37.1875 27.105469 37.085938 26.953125 37.136719 26.839844 C 37.183594 26.722656 37.363281 26.691406 37.535156 26.761719 C 37.707031 26.832031 37.808594 26.984375 37.761719 27.097656 " fill-opacity="1" fill-rule="nonzero"/><path fill="#f8b23d" d="M 32.867188 23.636719 C 32.867188 23.78125 32.6875 23.902344 32.464844 23.902344 C 32.242188 23.902344 32.0625 23.78125 32.0625 23.636719 C 32.0625 23.488281 32.242188 23.371094 32.464844 23.371094 C 32.6875 23.371094 32.867188 23.488281 32.867188 23.636719 " fill-opacity="1" fill-rule="nonzero"/><path fill="#f8b23d" d="M 36.410156 31.648438 C 36.410156 31.796875 36.230469 31.914062 36.007812 31.914062 C 35.789062 31.914062 35.609375 31.796875 35.609375 31.648438 C 35.609375 31.503906 35.789062 31.382812 36.007812 31.382812 C 36.230469 31.382812 36.410156 31.503906 36.410156 31.648438 " fill-opacity="1" fill-rule="nonzero"/><path fill="#f8b23d" d="M 44.335938 27.375 C 44.335938 27.519531 44.15625 27.640625 43.933594 27.640625 C 43.710938 27.640625 43.53125 27.519531 43.53125 27.375 C 43.53125 27.226562 43.710938 27.109375 43.933594 27.109375 C 44.15625 27.109375 44.335938 27.226562 44.335938 27.375 " fill-opacity="1" fill-rule="nonzero"/><path fill="#f8b23d" d="M 40.273438 28.78125 C 40.273438 28.898438 40.128906 28.992188 39.949219 28.992188 C 39.773438 28.992188 39.628906 28.898438 39.628906 28.78125 C 39.628906 28.660156 39.773438 28.566406 39.949219 28.566406 C 40.128906 28.566406 40.273438 28.660156 40.273438 28.78125 " fill-opacity="1" fill-rule="nonzero"/><path fill="#f8b23d" d="M 35.378906 27.738281 C 35.378906 27.875 35.210938 27.984375 35.003906 27.984375 C 34.796875 27.984375 34.628906 27.875 34.628906 27.738281 C 34.628906 27.601562 34.796875 27.488281 35.003906 27.488281 C 35.210938 27.488281 35.378906 27.601562 35.378906 27.738281 " fill-opacity="1" fill-rule="nonzero"/><path fill="#f8b23d" d="M 49.128906 25.515625 C 49.128906 25.652344 48.960938 25.765625 48.753906 25.765625 C 48.546875 25.765625 48.378906 25.652344 48.378906 25.515625 C 48.378906 25.378906 48.546875 25.269531 48.753906 25.269531 C 48.960938 25.269531 49.128906 25.378906 49.128906 25.515625 " fill-opacity="1" fill-rule="nonzero"/><path fill="#f8b23d" d="M 43.90625 22.695312 C 43.90625 22.832031 43.738281 22.941406 43.53125 22.941406 C 43.324219 22.941406 43.160156 22.832031 43.160156 22.695312 C 43.160156 22.558594 43.324219 22.445312 43.53125 22.445312 C 43.738281 22.445312 43.90625 22.558594 43.90625 22.695312 " fill-opacity="1" fill-rule="nonzero"/><path fill="#f8b23d" d="M 41.8125 23.902344 C 41.8125 24.039062 41.644531 24.148438 41.4375 24.148438 C 41.230469 24.148438 41.0625 24.039062 41.0625 23.902344 C 41.0625 23.765625 41.230469 23.652344 41.4375 23.652344 C 41.644531 23.652344 41.8125 23.765625 41.8125 23.902344 " fill-opacity="1" fill-rule="nonzero"/><path fill="#f8b23d" d="M 32.417969 31 C 32.417969 31.117188 32.273438 31.214844 32.089844 31.214844 C 31.910156 31.214844 31.765625 31.117188 31.765625 31 C 31.765625 30.878906 31.910156 30.78125 32.089844 30.78125 C 32.273438 30.78125 32.417969 30.878906 32.417969 31 " fill-opacity="1" fill-rule="nonzero"/><path fill="#f8b23d" d="M 32.09375 26.386719 C 32.09375 26.507812 31.945312 26.601562 31.765625 26.601562 C 31.585938 26.601562 31.441406 26.507812 31.441406 26.386719 C 31.441406 26.269531 31.585938 26.171875 31.765625 26.171875 C 31.945312 26.171875 32.09375 26.269531 32.09375 26.386719 " fill-opacity="1" fill-rule="nonzero"/><path fill="#f8b23d" d="M 23.90625 27.488281 C 23.90625 27.609375 23.761719 27.707031 23.582031 27.707031 C 23.398438 27.707031 23.253906 27.609375 23.253906 27.488281 C 23.253906 27.371094 23.398438 27.273438 23.582031 27.273438 C 23.761719 27.273438 23.90625 27.371094 23.90625 27.488281 " fill-opacity="1" fill-rule="nonzero"/><path fill="#f8b23d" d="M 42.472656 28.992188 C 42.472656 29.113281 42.328125 29.210938 42.148438 29.210938 C 41.96875 29.210938 41.820312 29.113281 41.820312 28.992188 C 41.820312 28.875 41.96875 28.777344 42.148438 28.777344 C 42.328125 28.777344 42.472656 28.875 42.472656 28.992188 " fill-opacity="1" fill-rule="nonzero"/><path fill="#f8b23d" d="M 45.128906 22.695312 C 45.128906 22.8125 44.984375 22.910156 44.804688 22.910156 C 44.625 22.910156 44.476562 22.8125 44.476562 22.695312 C 44.476562 22.574219 44.625 22.476562 44.804688 22.476562 C 44.984375 22.476562 45.128906 22.574219 45.128906 22.695312 " fill-opacity="1" fill-rule="nonzero"/><path fill="#e47918" d="M 36.648438 22.625 C 35.097656 23.65625 37.539062 24.949219 38.148438 23.175781 C 37.933594 22.820312 37.605469 22.671875 37.207031 22.625 L 36.648438 22.625 " fill-opacity="1" fill-rule="nonzero"/><path fill="#e47918" d="M 44.027344 25.753906 C 42.875 26.3125 43.28125 27.683594 44.585938 27.414062 C 45.734375 27.175781 45.78125 25.660156 44.398438 25.753906 L 44.027344 25.753906 " fill-opacity="1" fill-rule="nonzero"/><path fill="#e47918" d="M 32.582031 25.03125 C 32.496094 25.992188 32.171875 27.601562 35.300781 29.117188 C 37.515625 30.1875 42.175781 29.867188 44.09375 28.777344 C 42.386719 31.09375 36.890625 31.050781 34.625 29.988281 C 32.40625 28.945312 31.84375 27.132812 31.777344 25.511719 C 31.71875 24.148438 32.609375 24.738281 32.582031 25.03125 " fill-opacity="1" fill-rule="nonzero"/><path fill="#c1561e" d="M 37.003906 22.84375 C 35.925781 23.558594 37.621094 24.457031 38.042969 23.226562 C 37.894531 22.976562 37.667969 22.875 37.390625 22.84375 L 37.003906 22.84375 " fill-opacity="1" fill-rule="nonzero"/><path fill="#c1561e" d="M 44.257812 26.105469 C 43.183594 26.824219 44.875 27.722656 45.300781 26.488281 C 45.152344 26.242188 44.921875 26.140625 44.644531 26.105469 L 44.257812 26.105469 " fill-opacity="1" fill-rule="nonzero"/><path fill="#c1561e" d="M 32.339844 25.0625 C 32.253906 26.019531 32.371094 28.011719 35.5 29.523438 C 37.710938 30.59375 42.371094 29.832031 44.292969 28.742188 C 42.566406 30.410156 37.054688 30.769531 34.789062 29.703125 C 32.570312 28.664062 32 27.679688 31.933594 26.0625 C 31.875 24.699219 32.367188 24.769531 32.339844 25.0625 " fill-opacity="1" fill-rule="nonzero"/><path fill="#ca1e25" d="M 15.933594 42.136719 C 18.027344 45.5625 22.75 46.511719 26.480469 44.261719 C 30.210938 42.011719 31.535156 37.410156 29.441406 33.988281 C 27.351562 30.5625 22.628906 29.613281 18.898438 31.863281 C 15.167969 34.113281 13.84375 38.714844 15.933594 42.136719 " fill-opacity="1" fill-rule="nonzero"/><path fill="#a1192b" d="M 23.578125 30.652344 C 22.253906 30.890625 22.3125 32.242188 22.996094 32.769531 C 23.570312 33.207031 25.421875 32.8125 26.726562 34.957031 C 27.863281 36.835938 28.117188 38.894531 26.058594 41.609375 C 24.585938 43.546875 21.929688 44.695312 18.789062 44.011719 C 17.171875 43.660156 16.683594 43.140625 16.402344 42.824219 C 18.667969 45.714844 23.015625 46.40625 26.5 44.304688 C 30.230469 42.050781 31.558594 37.453125 29.464844 34.027344 C 29 33.269531 28.40625 32.628906 27.722656 32.121094 C 27.035156 31.613281 25.015625 30.585938 23.578125 30.652344 " fill-opacity="1" fill-rule="nonzero"/><path fill="#9c1e20" d="M 18.921875 35.75 C 18.511719 35.75 18.164062 35.515625 18.007812 34.871094 C 17.894531 34.40625 18.050781 33.871094 18.367188 33.371094 C 18.535156 33.441406 18.683594 33.511719 18.808594 33.574219 C 18.957031 33.644531 19.070312 33.707031 19.148438 33.746094 C 19.1875 33.769531 19.214844 33.785156 19.234375 33.796875 C 19.253906 33.804688 19.265625 33.8125 19.265625 33.8125 L 19.449219 33.496094 C 19.449219 33.496094 19.4375 33.488281 19.414062 33.476562 C 19.394531 33.464844 19.359375 33.449219 19.320312 33.429688 C 19.238281 33.386719 19.117188 33.328125 18.960938 33.253906 C 18.84375 33.203125 18.714844 33.148438 18.5625 33.085938 C 19.210938 32.238281 20.273438 31.542969 21.164062 31.542969 C 21.308594 31.542969 21.445312 31.5625 21.574219 31.597656 C 22.582031 31.886719 21.863281 33.640625 20.695312 34.800781 C 20.242188 35.253906 19.515625 35.75 18.921875 35.75 " fill-opacity="1" fill-rule="nonzero"/><path fill="#e72837" d="M 15.371094 41.152344 C 14.078125 37.910156 15.449219 34.003906 18.753906 31.953125 C 18.308594 32.761719 15.847656 35.601562 18.1875 36.457031 C 20.195312 37.195312 21.832031 34.894531 22.765625 34.785156 C 23.703125 34.679688 24.527344 35.277344 24.828125 35.761719 C 25.585938 36.988281 25.480469 39.503906 23.183594 41.316406 C 21.097656 42.964844 17.179688 42.949219 15.371094 41.152344 " fill-opacity="1" fill-rule="nonzero"/><path fill="#5a1216" d="M 19.886719 33.785156 C 19.636719 34.023438 19.144531 34.308594 19.046875 33.847656 C 18.957031 33.414062 19.742188 32.71875 20.210938 32.824219 C 20.519531 32.894531 20.265625 33.425781 19.886719 33.785156 " fill-opacity="1" fill-rule="nonzero"/><path fill="#781c20" d="M 19.886719 33.785156 C 19.886719 33.785156 18.707031 32.597656 18.386719 31.53125 C 17.992188 30.203125 18.886719 29.667969 18.886719 29.667969 L 17.523438 29.433594 C 17.523438 29.433594 17.042969 30.324219 17.253906 31.273438 C 17.601562 32.820312 19.738281 33.964844 19.738281 33.964844 L 19.886719 33.785156 " fill-opacity="1" fill-rule="nonzero"/><path fill="#f38899" d="M 17.140625 39.527344 C 16.933594 39.527344 16.714844 39.464844 16.527344 39.328125 C 16.070312 39.007812 15.945312 38.40625 16.246094 37.984375 C 16.421875 37.742188 16.707031 37.613281 17 37.613281 C 17.210938 37.613281 17.425781 37.675781 17.617188 37.8125 C 18.074219 38.132812 18.199219 38.734375 17.898438 39.15625 C 17.722656 39.398438 17.4375 39.527344 17.140625 39.527344 " fill-opacity="1" fill-rule="nonzero"/><path fill="#f38899" d="M 18.683594 39.566406 C 18.585938 39.566406 18.484375 39.535156 18.398438 39.476562 C 18.183594 39.324219 18.128906 39.046875 18.269531 38.851562 C 18.347656 38.738281 18.480469 38.679688 18.617188 38.679688 C 18.714844 38.679688 18.816406 38.707031 18.902344 38.769531 C 19.113281 38.917969 19.171875 39.199219 19.03125 39.394531 C 18.949219 39.507812 18.820312 39.566406 18.683594 39.566406 " fill-opacity="1" fill-rule="nonzero"/><path fill="#e72837" d="M 19.351562 35.675781 C 19.351562 35.675781 19.371094 35.671875 19.40625 35.65625 C 19.441406 35.644531 19.492188 35.621094 19.554688 35.589844 C 19.683594 35.53125 19.859375 35.4375 20.058594 35.300781 C 20.15625 35.234375 20.257812 35.160156 20.363281 35.070312 C 20.46875 34.984375 20.574219 34.890625 20.675781 34.785156 C 20.777344 34.679688 20.878906 34.566406 20.972656 34.445312 C 21.066406 34.324219 21.15625 34.195312 21.238281 34.0625 L 21.300781 33.960938 C 21.320312 33.929688 21.339844 33.894531 21.359375 33.859375 C 21.398438 33.792969 21.433594 33.722656 21.46875 33.652344 C 21.503906 33.585938 21.539062 33.515625 21.566406 33.445312 C 21.582031 33.410156 21.597656 33.375 21.613281 33.339844 C 21.628906 33.304688 21.644531 33.273438 21.65625 33.238281 C 21.714844 33.101562 21.765625 32.96875 21.804688 32.839844 C 21.847656 32.710938 21.878906 32.585938 21.902344 32.472656 C 21.921875 32.355469 21.933594 32.25 21.933594 32.152344 C 21.933594 32.058594 21.925781 31.976562 21.910156 31.910156 C 21.890625 31.84375 21.867188 31.792969 21.847656 31.761719 C 21.828125 31.730469 21.816406 31.714844 21.816406 31.714844 C 21.816406 31.714844 21.832031 31.726562 21.859375 31.753906 C 21.886719 31.78125 21.921875 31.828125 21.953125 31.894531 C 21.984375 31.960938 22.015625 32.046875 22.03125 32.148438 C 22.046875 32.246094 22.050781 32.363281 22.042969 32.488281 C 22.035156 32.613281 22.015625 32.746094 21.988281 32.886719 C 21.957031 33.023438 21.917969 33.167969 21.867188 33.316406 C 21.855469 33.351562 21.839844 33.390625 21.828125 33.425781 C 21.816406 33.464844 21.800781 33.5 21.785156 33.535156 C 21.757812 33.609375 21.726562 33.683594 21.691406 33.757812 C 21.625 33.90625 21.546875 34.054688 21.457031 34.195312 C 21.371094 34.335938 21.273438 34.472656 21.167969 34.601562 C 21.0625 34.726562 20.949219 34.84375 20.835938 34.949219 C 20.71875 35.054688 20.597656 35.148438 20.480469 35.226562 C 20.363281 35.308594 20.246094 35.375 20.132812 35.429688 C 20.023438 35.488281 19.917969 35.53125 19.820312 35.566406 C 19.726562 35.597656 19.640625 35.621094 19.574219 35.640625 C 19.503906 35.65625 19.445312 35.664062 19.410156 35.671875 C 19.371094 35.675781 19.351562 35.675781 19.351562 35.675781 " fill-opacity="1" fill-rule="nonzero"/><path fill="#5a1216" d="M 19.875 33.75 C 19.875 33.75 18.695312 32.5625 18.375 31.496094 C 17.980469 30.171875 18.875 29.632812 18.875 29.632812 L 18.167969 29.589844 C 18.167969 29.589844 17.6875 30.480469 17.898438 31.425781 C 18.246094 32.976562 19.726562 33.933594 19.726562 33.933594 L 19.875 33.75 " fill-opacity="1" fill-rule="nonzero"/><path fill="#fab61f" d="M 15.828125 32.550781 C 15.828125 32.550781 14.953125 30.09375 13.546875 29.457031 C 12.339844 28.910156 10.777344 29.082031 9.765625 29.566406 C 9.15625 29.859375 7.746094 30.105469 7.746094 30.105469 C 7.746094 30.105469 7.925781 30.296875 8.25 31.007812 C 8.820312 32.246094 8.621094 33 10.347656 33.976562 C 11.410156 34.574219 13.101562 34.820312 15.109375 33.355469 C 15.757812 32.878906 15.828125 32.550781 15.828125 32.550781 " fill-opacity="1" fill-rule="nonzero"/><path fill="#ea8920" d="M 12.148438 34.445312 C 11.4375 34.445312 10.828125 34.246094 10.347656 33.976562 C 8.621094 33 8.820312 32.246094 8.25 31.007812 C 7.925781 30.296875 7.746094 30.105469 7.746094 30.105469 C 7.746094 30.105469 8.492188 30.5625 9.480469 31.054688 C 9.71875 31.191406 9.976562 31.332031 10.25 31.476562 C 10.542969 31.632812 10.859375 31.785156 11.191406 31.929688 C 11.523438 32.074219 11.878906 32.207031 12.25 32.308594 C 12.332031 32.332031 12.414062 32.351562 12.496094 32.371094 C 12.464844 32.398438 12.429688 32.429688 12.390625 32.460938 C 12.335938 32.507812 12.269531 32.554688 12.199219 32.605469 C 12.125 32.652344 12.046875 32.703125 11.957031 32.75 C 11.871094 32.796875 11.773438 32.84375 11.671875 32.882812 C 11.648438 32.894531 11.621094 32.902344 11.59375 32.910156 C 11.570312 32.921875 11.542969 32.929688 11.515625 32.9375 C 11.460938 32.953125 11.40625 32.96875 11.351562 32.980469 C 11.238281 33.007812 11.125 33.019531 11.007812 33.027344 C 10.984375 33.027344 10.964844 33.027344 10.941406 33.027344 C 10.847656 33.027344 10.75 33.023438 10.660156 33.007812 C 10.628906 33.003906 10.601562 33 10.574219 32.996094 C 10.546875 32.988281 10.519531 32.980469 10.488281 32.976562 C 10.433594 32.964844 10.382812 32.945312 10.328125 32.929688 C 10.273438 32.914062 10.226562 32.890625 10.175781 32.871094 C 10.125 32.851562 10.082031 32.828125 10.035156 32.804688 C 10.011719 32.792969 9.988281 32.78125 9.96875 32.769531 C 9.945312 32.757812 9.925781 32.746094 9.90625 32.734375 C 9.886719 32.71875 9.863281 32.707031 9.84375 32.695312 C 9.835938 32.691406 9.824219 32.683594 9.816406 32.679688 C 9.804688 32.671875 9.796875 32.664062 9.789062 32.660156 C 9.714844 32.605469 9.648438 32.5625 9.59375 32.515625 C 9.535156 32.46875 9.488281 32.429688 9.449219 32.390625 C 9.375 32.320312 9.328125 32.28125 9.328125 32.28125 C 9.328125 32.28125 9.371094 32.324219 9.445312 32.398438 C 9.480469 32.4375 9.527344 32.476562 9.582031 32.527344 C 9.632812 32.578125 9.699219 32.625 9.769531 32.683594 C 9.78125 32.6875 9.789062 32.695312 9.796875 32.703125 C 9.808594 32.710938 9.816406 32.714844 9.828125 32.722656 C 9.847656 32.734375 9.867188 32.75 9.886719 32.761719 C 9.90625 32.777344 9.925781 32.789062 9.949219 32.804688 C 9.96875 32.816406 9.992188 32.828125 10.015625 32.839844 C 10.058594 32.867188 10.105469 32.894531 10.15625 32.917969 C 10.207031 32.9375 10.253906 32.964844 10.308594 32.984375 C 10.363281 33.003906 10.414062 33.027344 10.472656 33.039062 C 10.5 33.046875 10.53125 33.054688 10.558594 33.0625 C 10.585938 33.070312 10.617188 33.074219 10.644531 33.082031 C 10.761719 33.109375 10.886719 33.117188 11.007812 33.121094 C 11.128906 33.117188 11.253906 33.109375 11.371094 33.085938 C 11.433594 33.078125 11.488281 33.0625 11.546875 33.050781 C 11.578125 33.042969 11.605469 33.035156 11.632812 33.027344 C 11.660156 33.019531 11.6875 33.011719 11.714844 33 C 11.824219 32.964844 11.925781 32.917969 12.023438 32.875 C 12.117188 32.828125 12.207031 32.78125 12.28125 32.734375 C 12.363281 32.6875 12.429688 32.636719 12.492188 32.59375 C 12.550781 32.550781 12.601562 32.511719 12.644531 32.476562 C 12.671875 32.453125 12.695312 32.433594 12.710938 32.417969 C 12.746094 32.425781 12.78125 32.433594 12.8125 32.4375 C 13.007812 32.472656 13.199219 32.5 13.394531 32.511719 C 13.445312 32.519531 13.492188 32.519531 13.542969 32.523438 C 13.59375 32.523438 13.640625 32.527344 13.691406 32.527344 C 13.746094 32.527344 13.800781 32.53125 13.855469 32.53125 C 13.898438 32.53125 13.941406 32.527344 13.984375 32.527344 C 14.078125 32.523438 14.175781 32.519531 14.269531 32.519531 C 14.332031 32.515625 14.394531 32.515625 14.457031 32.515625 C 14.46875 32.515625 14.476562 32.515625 14.488281 32.515625 C 14.496094 32.515625 14.507812 32.515625 14.515625 32.515625 C 14.527344 32.515625 14.539062 32.515625 14.550781 32.515625 C 14.613281 32.515625 14.675781 32.515625 14.734375 32.515625 C 14.882812 32.527344 15.023438 32.535156 15.144531 32.539062 C 15.316406 32.554688 15.484375 32.570312 15.648438 32.59375 C 15.699219 32.601562 15.75 32.609375 15.804688 32.617188 C 15.75 32.738281 15.585938 33.007812 15.109375 33.355469 C 14.011719 34.15625 13.007812 34.445312 12.148438 34.445312 M 12.785156 32.261719 C 12.617188 32.234375 12.453125 32.199219 12.289062 32.160156 C 12.023438 32.09375 11.765625 32.015625 11.515625 31.925781 C 11.640625 31.964844 11.761719 32.003906 11.882812 32.039062 C 12.183594 32.128906 12.488281 32.199219 12.785156 32.261719 " fill-opacity="1" fill-rule="nonzero"/><path fill="#781c20" d="M 19.265625 33.8125 C 19.265625 33.8125 19.253906 33.804688 19.234375 33.796875 C 19.214844 33.785156 19.1875 33.769531 19.148438 33.746094 C 19.070312 33.707031 18.957031 33.644531 18.808594 33.570312 C 18.511719 33.425781 18.078125 33.234375 17.539062 33.050781 C 17 32.867188 16.351562 32.691406 15.648438 32.59375 C 15.292969 32.546875 14.925781 32.515625 14.550781 32.515625 C 14.53125 32.515625 14.507812 32.515625 14.488281 32.515625 C 14.414062 32.515625 14.34375 32.515625 14.269531 32.519531 C 14.175781 32.519531 14.078125 32.523438 13.984375 32.527344 C 13.890625 32.53125 13.789062 32.527344 13.691406 32.527344 C 13.640625 32.527344 13.59375 32.523438 13.542969 32.523438 C 13.492188 32.519531 13.445312 32.519531 13.394531 32.511719 C 13.199219 32.5 13.007812 32.472656 12.8125 32.4375 C 12.621094 32.402344 12.433594 32.359375 12.25 32.308594 C 11.878906 32.207031 11.523438 32.074219 11.191406 31.929688 C 10.859375 31.785156 10.542969 31.632812 10.25 31.476562 C 9.957031 31.324219 9.683594 31.171875 9.433594 31.03125 C 8.929688 30.746094 8.511719 30.511719 8.214844 30.351562 C 8.066406 30.273438 7.949219 30.210938 7.867188 30.167969 C 7.789062 30.128906 7.746094 30.105469 7.746094 30.105469 C 7.746094 30.105469 7.789062 30.125 7.871094 30.164062 C 7.949219 30.203125 8.070312 30.261719 8.21875 30.335938 C 8.523438 30.488281 8.949219 30.710938 9.460938 30.976562 C 9.71875 31.109375 9.996094 31.253906 10.292969 31.398438 C 10.589844 31.542969 10.90625 31.6875 11.238281 31.820312 C 11.574219 31.953125 11.925781 32.070312 12.289062 32.160156 C 12.46875 32.203125 12.65625 32.238281 12.84375 32.269531 C 13.03125 32.292969 13.21875 32.316406 13.40625 32.324219 C 13.457031 32.328125 13.503906 32.328125 13.550781 32.328125 C 13.597656 32.328125 13.644531 32.332031 13.691406 32.328125 C 13.785156 32.328125 13.878906 32.328125 13.972656 32.320312 C 14.070312 32.3125 14.164062 32.308594 14.261719 32.300781 C 14.359375 32.292969 14.453125 32.292969 14.550781 32.289062 C 14.933594 32.28125 15.316406 32.300781 15.679688 32.339844 C 16.40625 32.421875 17.074219 32.582031 17.636719 32.753906 C 18.195312 32.929688 18.648438 33.113281 18.960938 33.253906 C 19.117188 33.328125 19.238281 33.386719 19.320312 33.429688 C 19.363281 33.449219 19.394531 33.464844 19.414062 33.476562 C 19.4375 33.488281 19.449219 33.496094 19.449219 33.496094 L 19.265625 33.8125 " fill-opacity="1" fill-rule="nonzero"/><path fill="#ac561e" d="M 14.265625 32.300781 C 14.257812 32.28125 14.246094 32.261719 14.230469 32.234375 C 14.1875 32.148438 14.117188 32.027344 14.03125 31.882812 C 13.941406 31.738281 13.835938 31.574219 13.710938 31.40625 C 13.648438 31.320312 13.582031 31.234375 13.511719 31.144531 C 13.441406 31.058594 13.371094 30.972656 13.292969 30.890625 C 13.257812 30.847656 13.21875 30.808594 13.179688 30.765625 C 13.140625 30.726562 13.101562 30.6875 13.0625 30.648438 C 12.980469 30.570312 12.902344 30.496094 12.820312 30.425781 C 12.742188 30.355469 12.660156 30.289062 12.582031 30.230469 C 12.546875 30.203125 12.507812 30.175781 12.46875 30.148438 C 12.433594 30.121094 12.394531 30.097656 12.359375 30.074219 C 12.289062 30.023438 12.222656 29.988281 12.160156 29.949219 C 12.101562 29.917969 12.046875 29.886719 12.003906 29.863281 C 11.914062 29.820312 11.863281 29.796875 11.863281 29.796875 C 11.863281 29.796875 11.914062 29.816406 12.007812 29.855469 C 12.054688 29.875 12.109375 29.898438 12.171875 29.929688 C 12.234375 29.960938 12.304688 29.996094 12.378906 30.039062 C 12.417969 30.058594 12.457031 30.082031 12.496094 30.105469 C 12.535156 30.132812 12.578125 30.15625 12.617188 30.183594 C 12.703125 30.238281 12.785156 30.296875 12.871094 30.363281 C 12.957031 30.425781 13.046875 30.496094 13.132812 30.570312 C 13.175781 30.605469 13.21875 30.644531 13.261719 30.683594 C 13.304688 30.722656 13.34375 30.761719 13.386719 30.800781 C 13.46875 30.882812 13.550781 30.964844 13.628906 31.046875 C 13.703125 31.128906 13.78125 31.214844 13.847656 31.296875 C 13.988281 31.460938 14.109375 31.621094 14.210938 31.765625 C 14.3125 31.90625 14.390625 32.027344 14.445312 32.113281 C 14.472656 32.15625 14.492188 32.191406 14.507812 32.214844 C 14.519531 32.238281 14.527344 32.253906 14.527344 32.253906 L 14.449219 32.292969 C 14.386719 32.292969 14.328125 32.296875 14.265625 32.300781 " fill-opacity="1" fill-rule="nonzero"/><path fill="#6a1518" d="M 14.300781 32.367188 C 14.300781 32.367188 14.292969 32.355469 14.28125 32.335938 C 14.277344 32.324219 14.273438 32.3125 14.265625 32.300781 C 14.328125 32.296875 14.386719 32.292969 14.449219 32.292969 L 14.300781 32.367188 " fill-opacity="1" fill-rule="nonzero"/><path fill="#a2411e" d="M 11.007812 33.121094 C 10.886719 33.117188 10.761719 33.109375 10.644531 33.082031 C 10.617188 33.074219 10.585938 33.070312 10.558594 33.0625 C 10.53125 33.054688 10.5 33.046875 10.472656 33.039062 C 10.414062 33.027344 10.363281 33.003906 10.308594 32.984375 C 10.253906 32.964844 10.207031 32.9375 10.15625 32.917969 C 10.105469 32.894531 10.058594 32.867188 10.015625 32.839844 C 9.992188 32.828125 9.96875 32.816406 9.949219 32.804688 C 9.925781 32.789062 9.90625 32.777344 9.886719 32.761719 C 9.867188 32.75 9.847656 32.734375 9.828125 32.722656 C 9.816406 32.714844 9.808594 32.710938 9.796875 32.703125 C 9.789062 32.695312 9.78125 32.6875 9.769531 32.683594 C 9.699219 32.625 9.632812 32.578125 9.582031 32.527344 C 9.527344 32.476562 9.480469 32.4375 9.445312 32.398438 C 9.371094 32.324219 9.328125 32.28125 9.328125 32.28125 C 9.328125 32.28125 9.375 32.320312 9.449219 32.390625 C 9.488281 32.429688 9.535156 32.46875 9.59375 32.515625 C 9.648438 32.5625 9.714844 32.605469 9.789062 32.660156 C 9.796875 32.664062 9.804688 32.671875 9.816406 32.679688 C 9.824219 32.683594 9.835938 32.691406 9.84375 32.695312 C 9.863281 32.707031 9.886719 32.71875 9.90625 32.734375 C 9.925781 32.746094 9.945312 32.757812 9.96875 32.769531 C 9.988281 32.78125 10.011719 32.792969 10.035156 32.804688 C 10.082031 32.828125 10.125 32.851562 10.175781 32.871094 C 10.226562 32.890625 10.273438 32.914062 10.328125 32.929688 C 10.382812 32.945312 10.433594 32.964844 10.488281 32.976562 C 10.519531 32.980469 10.546875 32.988281 10.574219 32.996094 C 10.601562 33 10.628906 33.003906 10.660156 33.007812 C 10.75 33.023438 10.847656 33.027344 10.941406 33.027344 C 10.964844 33.027344 10.984375 33.027344 11.007812 33.027344 C 11.125 33.019531 11.238281 33.007812 11.351562 32.980469 C 11.40625 32.96875 11.460938 32.953125 11.515625 32.9375 C 11.542969 32.929688 11.570312 32.921875 11.59375 32.910156 C 11.621094 32.902344 11.648438 32.894531 11.671875 32.882812 C 11.773438 32.84375 11.871094 32.796875 11.957031 32.75 C 12.046875 32.703125 12.125 32.652344 12.199219 32.605469 C 12.269531 32.554688 12.335938 32.507812 12.390625 32.460938 C 12.429688 32.429688 12.464844 32.398438 12.496094 32.371094 C 12.570312 32.390625 12.640625 32.40625 12.710938 32.417969 C 12.695312 32.433594 12.671875 32.453125 12.644531 32.476562 C 12.601562 32.511719 12.550781 32.550781 12.492188 32.59375 C 12.429688 32.636719 12.363281 32.6875 12.28125 32.734375 C 12.207031 32.78125 12.117188 32.828125 12.023438 32.875 C 11.925781 32.917969 11.824219 32.964844 11.714844 33 C 11.6875 33.011719 11.660156 33.019531 11.632812 33.027344 C 11.605469 33.035156 11.578125 33.042969 11.546875 33.050781 C 11.488281 33.0625 11.433594 33.078125 11.371094 33.085938 C 11.253906 33.109375 11.128906 33.117188 11.007812 33.121094 " fill-opacity="1" fill-rule="nonzero"/><path fill="#6a1518" d="M 12.710938 32.417969 C 12.640625 32.40625 12.570312 32.390625 12.496094 32.371094 C 12.507812 32.363281 12.519531 32.351562 12.53125 32.34375 C 12.566406 32.308594 12.59375 32.28125 12.613281 32.265625 C 12.632812 32.246094 12.640625 32.234375 12.640625 32.234375 L 12.773438 32.363281 C 12.773438 32.363281 12.761719 32.375 12.742188 32.394531 C 12.730469 32.402344 12.722656 32.410156 12.710938 32.417969 M 12.773438 32.363281 L 12.773438 32.363281 " fill-opacity="1" fill-rule="nonzero"/></svg>