<svg xmlns="http://www.w3.org/2000/svg" xmlns:xlink="http://www.w3.org/1999/xlink" width="118" zoomAndPan="magnify" viewBox="0 0 88.5 149.999998" height="200" preserveAspectRatio="xMidYMid meet" version="1.0"><defs><clipPath id="bedaed9287"><path d="M 0 0.421875 L 88 0.421875 L 88 149.578125 L 0 149.578125 Z M 0 0.421875 " clip-rule="nonzero"/></clipPath><clipPath id="655af5a615"><path d="M 24.503906 119.582031 L 24.910156 119.582031 L 24.910156 119.859375 L 24.503906 119.859375 Z M 24.503906 119.582031 " clip-rule="nonzero"/></clipPath><clipPath id="551fd38d91"><path d="M 24.890625 119.746094 C 24.144531 120.046875 24.742188 119.597656 24.742188 119.597656 " clip-rule="nonzero"/></clipPath></defs><g clip-path="url(#bedaed9287)"><path fill="#00bf63" d="M 83.945312 48.398438 L 83.539062 48.398438 C 80.894531 31.890625 66.714844 19.640625 49.800781 19.640625 C 46.683594 19.640625 43.664062 20.074219 40.785156 20.855469 L 39.429688 13.378906 C 37.910156 4.429688 29.585938 1.78125 25.804688 1.972656 L 2.078125 0.75 C 1.011719 0.660156 0.0625 1.53125 0.00390625 2.621094 C -0.0507812 3.710938 0.785156 4.640625 1.875 4.695312 L 25.699219 5.921875 C 25.769531 5.925781 25.84375 5.925781 25.917969 5.921875 C 28.140625 5.773438 34.417969 7.484375 35.535156 14.0625 L 36.996094 22.125 C 26.121094 26.496094 17.996094 36.300781 16.054688 48.398438 L 15.660156 48.398438 C 13.574219 48.398438 11.871094 50.097656 11.871094 52.183594 L 11.871094 62.6875 C 11.871094 64.773438 13.574219 66.476562 15.660156 66.476562 L 16.261719 66.476562 L 22.203125 119.355469 C 22.175781 119.480469 22.128906 119.59375 22.128906 119.722656 C 22.128906 120.03125 22.210938 120.316406 22.339844 120.574219 L 25.203125 146.0625 C 25.417969 147.980469 27.035156 149.429688 28.96875 149.429688 L 70.457031 149.429688 C 72.386719 149.429688 74.003906 147.980469 74.21875 146.0625 L 83.160156 66.476562 L 83.945312 66.476562 C 86.03125 66.476562 87.730469 64.773438 87.730469 62.6875 L 87.730469 52.183594 C 87.730469 50.097656 86.03125 48.398438 83.945312 48.398438 Z M 49.800781 23.59375 C 64.546875 23.59375 76.980469 34.109375 79.570312 48.398438 L 45.777344 48.398438 L 41.492188 24.757812 C 44.136719 24.003906 46.921875 23.59375 49.800781 23.59375 Z M 37.71875 26.117188 L 41.761719 48.398438 L 20.027344 48.398438 C 21.859375 38.261719 28.664062 30.046875 37.71875 26.117188 Z M 73.421875 117.75 L 26 117.75 L 21.882812 81.101562 L 76.792969 81.101562 C 77.0625 81.101562 77.324219 81.046875 77.558594 80.945312 Z M 70.308594 145.480469 L 29.109375 145.480469 L 26.441406 121.699219 L 72.980469 121.699219 Z M 83.777344 62.523438 L 81.394531 62.523438 C 80.390625 62.523438 79.542969 63.28125 79.429688 64.28125 L 77.9375 77.558594 C 77.609375 77.316406 77.230469 77.148438 76.792969 77.148438 L 21.46875 77.148438 C 21.457031 77.148438 21.449219 77.15625 21.441406 77.15625 L 20.238281 66.476562 L 74.804688 66.476562 C 75.894531 66.476562 76.78125 65.59375 76.78125 64.503906 C 76.78125 63.410156 75.894531 62.527344 74.804688 62.527344 L 15.824219 62.527344 L 15.824219 52.351562 L 83.78125 52.351562 L 83.78125 62.523438 Z M 83.777344 62.523438 " fill-opacity="1" fill-rule="nonzero"/></g><path fill="#00bf63" d="M 56.53125 32.058594 C 60.882812 33.253906 64.648438 36.199219 66.863281 40.132812 C 67.230469 40.777344 67.898438 41.140625 68.589844 41.140625 C 68.917969 41.140625 69.25 41.058594 69.554688 40.886719 C 70.507812 40.347656 70.84375 39.144531 70.308594 38.195312 C 67.578125 33.347656 62.941406 29.722656 57.582031 28.246094 C 56.519531 27.960938 55.441406 28.578125 55.152344 29.628906 C 54.863281 30.679688 55.480469 31.769531 56.53125 32.058594 Z M 56.53125 32.058594 " fill-opacity="1" fill-rule="nonzero"/><path fill="#00bf63" d="M 69.144531 42.203125 C 68.773438 42.570312 68.566406 43.082031 68.566406 43.605469 C 68.566406 44.117188 68.773438 44.625 69.144531 44.996094 C 69.511719 45.363281 70.019531 45.574219 70.53125 45.574219 C 71.058594 45.574219 71.570312 45.363281 71.9375 44.996094 C 72.304688 44.625 72.515625 44.117188 72.515625 43.605469 C 72.515625 43.082031 72.304688 42.570312 71.9375 42.203125 C 71.199219 41.464844 69.882812 41.464844 69.144531 42.203125 Z M 69.144531 42.203125 " fill-opacity="1" fill-rule="nonzero"/><g clip-path="url(#655af5a615)"><g clip-path="url(#551fd38d91)"><path fill="#00bf63" d="M 21.234375 116.613281 L 27.953125 116.613281 L 27.953125 123.101562 L 21.234375 123.101562 Z M 21.234375 116.613281 " fill-opacity="1" fill-rule="nonzero"/></g></g></svg>