<svg xmlns="http://www.w3.org/2000/svg" xmlns:xlink="http://www.w3.org/1999/xlink" width="224" zoomAndPan="magnify" viewBox="0 0 168 123.000003" height="164" preserveAspectRatio="xMidYMid meet" version="1.0"><defs><clipPath id="fcf2c2bff4"><path d="M 51.660156 68.792969 L 52 68.792969 L 52 69.070312 L 51.660156 69.070312 Z M 51.660156 68.792969 " clip-rule="nonzero"/></clipPath><clipPath id="83ad4891e4"><path d="M 51.992188 68.960938 C 51.320312 69.257812 51.917969 68.808594 51.917969 68.808594 " clip-rule="nonzero"/></clipPath><clipPath id="76e6f7e706"><path d="M 0.679688 0 L 166.578125 0 L 166.578125 121.265625 L 0.679688 121.265625 Z M 0.679688 0 " clip-rule="nonzero"/></clipPath></defs><g clip-path="url(#fcf2c2bff4)"><g clip-path="url(#83ad4891e4)"><path fill="#00bf63" d="M 48.347656 65.835938 L 55.046875 65.835938 L 55.046875 72.308594 L 48.347656 72.308594 Z M 48.347656 65.835938 " fill-opacity="1" fill-rule="nonzero"/></g></g><g clip-path="url(#76e6f7e706)"><path fill="#00bf63" d="M 164.613281 35.875 C 164.238281 36.039062 163.855469 36.179688 163.472656 36.304688 C 161.867188 36.144531 160.183594 35.160156 159.332031 33.492188 C 159.328125 31.40625 159.589844 29.390625 160.144531 27.277344 C 159.285156 27.867188 158.65625 28.722656 158.277344 29.695312 C 157.347656 28.144531 155.550781 27.996094 156.566406 24.894531 C 157 23.359375 157.210938 20.902344 159.449219 21.257812 C 159.460938 21.257812 159.46875 21.257812 159.480469 21.261719 C 159.480469 21.261719 159.503906 21.167969 159.507812 21.140625 C 160.507812 21.652344 161.289062 22.484375 161.460938 23.621094 C 161.550781 24.535156 161.847656 25.476562 162.304688 26.257812 C 164.054688 29.128906 167.316406 33.050781 164.613281 35.875 Z M 151.824219 42.351562 C 146.765625 49.171875 146.308594 60.410156 145.671875 68.523438 C 145.277344 74.65625 144.257812 78.375 140.132812 82.988281 C 135.960938 86.488281 131.238281 89.273438 126.164062 91.214844 C 121.929688 91.933594 117.773438 92.203125 113.523438 92.023438 C 112.667969 91.304688 111.722656 90.738281 110.675781 90.332031 C 110.144531 90.121094 109.578125 89.945312 109.003906 89.84375 C 107.769531 88.988281 106.054688 88.769531 104.648438 89.273438 C 104.234375 89.390625 103.84375 89.621094 103.449219 89.753906 C 102.285156 88.207031 100.171875 88.734375 98.417969 89.492188 C 99.226562 88.789062 100.003906 88.050781 100.761719 87.296875 C 101.03125 87.03125 102.761719 85.632812 102.417969 85.214844 C 102.335938 85.113281 102.046875 85.128906 101.933594 85.109375 C 102.265625 84.695312 102.65625 84.304688 102.992188 83.886719 C 103.910156 82.742188 104.773438 81.488281 105.324219 80.125 C 105.652344 79.316406 106.054688 77.941406 105.042969 77.4375 C 105.34375 76.914062 105.59375 76.359375 105.792969 75.78125 C 106.632812 74.585938 107.152344 73.222656 107.15625 71.753906 C 107.15625 71.074219 107.078125 70.363281 106.90625 69.707031 C 106.847656 69.476562 106.761719 69.242188 106.628906 69.046875 C 106.582031 68.972656 105.96875 68.441406 105.886719 68.695312 C 106.117188 67.984375 106.347656 67.273438 106.578125 66.5625 C 106.761719 66 107.058594 65.496094 107.242188 64.921875 C 107.84375 63.050781 108.089844 61.070312 108.09375 59.105469 C 108.09375 58.234375 108.042969 57.359375 107.941406 56.492188 C 107.898438 56.109375 107.839844 55.730469 107.773438 55.351562 C 107.753906 55.242188 107.515625 54.449219 107.570312 54.398438 C 110.34375 51.691406 113.460938 49.363281 116.898438 47.527344 C 127.582031 43.144531 132.371094 43.785156 138.539062 41.574219 C 144.972656 39.425781 150.625 32.488281 151.839844 27.308594 C 151.808594 27.351562 151.777344 27.394531 151.746094 27.4375 C 152.691406 25.40625 154.070312 22.414062 156.1875 21.726562 C 155.761719 22.457031 155.558594 23.316406 155.316406 24.089844 C 153.621094 28.308594 156.359375 29.421875 157.003906 30.453125 C 157.554688 31.335938 157.425781 32.484375 157.839844 33.421875 C 158.210938 34.273438 158.761719 35.269531 159.496094 35.863281 C 159.871094 36.164062 161.121094 36.890625 161.578125 36.792969 C 156.738281 37.820312 153.941406 37.773438 151.824219 42.351562 Z M 115.050781 102.871094 C 113.144531 107.640625 107.097656 110.984375 102.726562 112.792969 C 88.53125 118.667969 79.269531 116.351562 68.582031 112.390625 C 68.261719 112.199219 67.941406 112.007812 67.625 111.816406 C 57.914062 106.289062 67.230469 96.070312 69.769531 88.96875 C 72.566406 80.21875 73.574219 82.363281 83.042969 74.679688 C 82.832031 74.820312 82.628906 74.949219 82.425781 75.082031 C 87.457031 70.085938 88.789062 67.105469 89.871094 67.046875 C 89.851562 66.980469 89.972656 67.21875 89.960938 67.460938 C 89.6875 70.746094 88.078125 73.871094 85.453125 76.03125 C 87.28125 75.191406 88.796875 73.691406 89.847656 71.90625 C 89.957031 71.847656 90.039062 71.773438 90.132812 71.675781 C 90.246094 71.558594 90.359375 71.445312 90.460938 71.320312 C 90.492188 71.28125 90.523438 71.242188 90.554688 71.203125 C 90.554688 71.234375 90.566406 71.261719 90.5625 71.289062 C 95.144531 67.609375 98.890625 62.878906 102.078125 57.882812 C 102.6875 56.898438 103.253906 55.886719 103.78125 54.855469 C 104.488281 53.363281 105.339844 51.964844 106.054688 54.003906 C 107.125 58.925781 106.539062 63.980469 104.65625 68.617188 C 103.519531 70.316406 102.160156 71.929688 101.203125 73.722656 C 102.792969 73.09375 104.113281 72.027344 105.105469 70.644531 C 105.257812 70.421875 105.394531 70.195312 105.527344 69.960938 C 105.746094 71.492188 105.753906 71.382812 105.703125 71.777344 C 105.238281 74.585938 104.132812 76.140625 103.085938 77.710938 C 101.726562 79.480469 99.949219 80.914062 98.5 82.679688 C 101.09375 81.71875 103.285156 80.121094 104.683594 78.023438 C 104.789062 78.199219 104.835938 78.425781 104.816406 78.644531 C 104.71875 79.996094 100.035156 84.910156 98.617188 86.269531 C 98.941406 86.285156 99.464844 86.316406 99.980469 86.347656 C 99.863281 86.503906 99.746094 86.664062 99.625 86.824219 C 99.601562 86.847656 99.578125 86.875 99.554688 86.898438 C 99.226562 87.226562 98.914062 87.570312 98.597656 87.90625 C 97.976562 88.5625 97.355469 89.21875 96.746094 89.886719 C 95.453125 91.3125 94.464844 92.714844 93.011719 94.027344 C 91.453125 95.433594 89.878906 96.824219 88.296875 98.203125 C 88.582031 97.957031 89.484375 97.890625 89.867188 97.75 C 90.433594 97.546875 90.984375 97.300781 91.519531 97.023438 C 92.566406 96.484375 93.421875 95.816406 94.359375 95.125 C 95.71875 94.125 97.210938 93.320312 98.554688 92.304688 C 99.550781 91.550781 100.980469 89.722656 102.363281 89.832031 C 102.542969 89.847656 103.089844 90.566406 103.566406 90.621094 C 104.453125 90.722656 105.402344 90.496094 106.296875 90.539062 C 109.886719 90.710938 113.410156 92.96875 114.882812 96.28125 C 115.933594 98.636719 115.851562 100.859375 115.050781 102.871094 Z M 55.367188 118.464844 C 47.957031 117.371094 40.199219 112.394531 34.941406 107.191406 C 33.15625 105.429688 31.632812 103.40625 29.28125 102.390625 C 27.3125 101.539062 25.082031 101.582031 23.003906 101.125 C 17.882812 100.003906 16.003906 96.855469 15.277344 91.753906 C 15.265625 91.671875 15.234375 91.414062 15.214844 91.164062 C 15.203125 91.109375 15.199219 91.054688 15.195312 91 C 14.625 84.683594 16.148438 78.332031 17.742188 72.261719 C 20.863281 60.363281 26.789062 49.027344 36.613281 41.355469 C 53.75 27.726562 76.316406 24.042969 98.085938 23.199219 C 101.273438 23.007812 108.015625 22.332031 110.855469 23.589844 C 112.785156 24.410156 114.644531 25.910156 116.679688 26.761719 C 117.082031 26.929688 117.507812 27.066406 117.945312 27.167969 C 117.175781 27.597656 116.453125 28.097656 115.800781 28.660156 C 113.664062 29.988281 111.6875 31.625 109.929688 33.226562 C 115.046875 31.140625 120.648438 26.453125 126.535156 27.394531 C 132.640625 28.375 135.699219 34.792969 137.84375 39.859375 C 134.109375 41.070312 130.082031 41.320312 126.210938 42.339844 C 119.195312 44.28125 112.003906 47.242188 106.34375 51.933594 C 105.785156 51.472656 105.054688 51.328125 104.191406 51.832031 C 103.324219 52.390625 102.90625 53.308594 102.460938 54.171875 C 101.941406 55.164062 101.382812 56.132812 100.785156 57.082031 C 98.199219 61.085938 95.175781 65.359375 91.808594 68.765625 C 91.734375 68.816406 91.671875 68.886719 91.609375 68.960938 C 91.355469 69.210938 91.105469 69.472656 90.847656 69.714844 C 91.09375 68.976562 91.265625 68.21875 91.347656 67.460938 C 91.445312 66.3125 90.554688 65.277344 89.335938 65.664062 C 87.089844 66.582031 86.117188 69.023438 84.625 70.6875 C 72.980469 83.335938 71.664062 76.859375 67.796875 90.078125 C 66.035156 93.613281 63.675781 96.863281 62.347656 100.683594 C 60.339844 106.179688 61.484375 110.378906 66.558594 113.484375 C 70.671875 116.003906 70.949219 116.933594 75.691406 117.824219 C 68.140625 118.601562 63.242188 119.628906 55.367188 118.464844 Z M 13.160156 90.421875 C 13.171875 90.546875 13.175781 90.675781 13.1875 90.800781 C 10.621094 90.550781 9.449219 90.496094 9.359375 90.488281 C 2.4375 89.0625 2.714844 84.773438 2.617188 78.03125 C 2.574219 72.007812 3.375 65.847656 5.996094 60.394531 C 7.570312 56.996094 7.773438 57.769531 18.347656 42.066406 C 18.371094 42.191406 18.527344 43.277344 18.972656 45.109375 C 21 43.03125 22.132812 41.703125 23.757812 38.511719 C 26.203125 34.941406 29.527344 29.28125 29.730469 24.972656 C 30.667969 18.320312 34 33.777344 34.695312 40.359375 C 29.4375 44.542969 24.464844 51.296875 22.132812 55.417969 C 20.78125 57.894531 19.625 60.492188 18.832031 63.203125 C 17.40625 66.730469 16.234375 70.359375 15.328125 74.042969 C 14.054688 78.824219 12.964844 83.863281 13.082031 88.875 C 10.9375 88.539062 8.835938 87.882812 6.828125 86.894531 C 8.417969 88.777344 10.714844 89.964844 13.160156 90.421875 Z M 53.246094 21.394531 C 57.453125 18.804688 62.414062 17.660156 67.273438 17.144531 C 69.625 16.894531 71.984375 16.773438 74.34375 16.617188 C 78.988281 16.304688 83.9375 16.558594 88.292969 14.652344 C 91.625 13.195312 94.429688 10.691406 96.738281 7.917969 C 98.351562 5.976562 100.789062 1.460938 103.882812 2.144531 C 105.378906 2.476562 105.292969 4.015625 105.285156 5.246094 C 105.273438 7.238281 105.285156 8.972656 105.925781 10.875 C 106.285156 11.941406 106.960938 12.867188 107.359375 13.917969 C 108.9375 18.070312 103.757812 14.878906 98.878906 16.96875 C 96.636719 17.929688 94.710938 19.539062 93.199219 21.4375 C 72.199219 22.402344 55.773438 26.6875 38.285156 37.800781 C 41.75 31.125 46.804688 25.355469 53.246094 21.394531 Z M 107.148438 2.074219 C 108.9375 3.71875 107.777344 6.964844 109.144531 8.886719 C 109.761719 9.75 110.367188 10.167969 110.492188 11.339844 C 110.628906 12.617188 110.058594 13.742188 109.167969 14.628906 C 109.714844 14.085938 107.429688 11.710938 107.199219 11.320312 C 106.640625 10.382812 106.164062 8.917969 106.058594 7.824219 C 105.976562 6.984375 106.207031 6.011719 106.277344 5.171875 C 106.339844 4.492188 106.582031 1.351562 105.253906 1.335938 C 105.929688 1.34375 106.578125 1.550781 107.148438 2.074219 Z M 164.878906 27.558594 C 164.003906 26.128906 163.070312 24.972656 162.742188 23.304688 C 162.421875 21.675781 161.011719 20.472656 159.359375 20.136719 C 158.097656 19.878906 156.234375 20.714844 155.234375 21.460938 C 151.15625 22.476562 149.621094 29.1875 148.554688 31.738281 C 146.066406 34.871094 143.378906 37.519531 139.742188 39.140625 C 137.554688 33.234375 132.519531 26.949219 125.9375 25.917969 C 124.863281 25.75 123.675781 25.648438 122.59375 25.613281 C 121.441406 25.574219 120.3125 26.011719 119.160156 25.878906 C 116.335938 25.554688 114.203125 23.195312 111.535156 22.035156 C 108.261719 20.464844 100.925781 21.15625 95.195312 21.359375 C 95.542969 21.347656 96.601562 20.078125 96.929688 19.824219 C 97.488281 19.386719 98.078125 18.984375 98.695312 18.640625 C 99.769531 18.039062 100.925781 17.617188 102.132812 17.367188 C 104.882812 16.800781 109.019531 18.121094 111.453125 13.898438 C 112.699219 11.738281 111.664062 9.292969 110.179688 7.554688 C 109.800781 7.0625 109.503906 6.472656 109.242188 5.839844 C 109.503906 4.167969 109.402344 2.304688 108.265625 1.046875 C 106.957031 -0.371094 104.910156 -0.21875 103.398438 0.738281 C 99.875 0.621094 96.988281 5.679688 94.808594 7.828125 C 92.929688 9.679688 90.910156 11.425781 88.65625 12.761719 C 87.617188 13.328125 86.546875 13.828125 85.445312 14.269531 C 73.632812 16.910156 55.199219 10.027344 41.457031 30.125 C 39.210938 32.855469 37.316406 35.878906 35.839844 39.089844 C 35.675781 32.390625 33.617188 24.859375 33.410156 24.285156 C 31.90625 20.125 28.992188 21.367188 28.332031 22.847656 C 26.773438 26.238281 29.496094 24.726562 23.851562 36.234375 C 23.136719 37.695312 22.054688 39.121094 21.085938 40.421875 C 19.625 42.386719 20.007812 40.171875 19.117188 39.089844 C 18.140625 40.457031 16.988281 41.613281 16.121094 43.074219 C 15.058594 44.851562 13.925781 46.585938 12.664062 48.230469 C 7.390625 55.089844 0.222656 60.53125 0.703125 78.0625 C 0.765625 80.304688 0.851562 82.316406 1.152344 84.070312 C 1.191406 87.15625 2.292969 90.050781 5.359375 91.601562 C 7.285156 92.507812 9.722656 92.578125 13.414062 92.652344 C 14.007812 96.675781 16.214844 101.019531 20.1875 102.210938 C 22.808594 102.945312 25.640625 102.960938 28.167969 103.667969 C 38.988281 109.195312 42.238281 129.144531 79.796875 118.351562 C 86.660156 119.207031 93.84375 118.136719 100.15625 115.617188 C 105.359375 113.222656 110.722656 110.609375 114.488281 106.15625 C 115.460938 105.050781 116.054688 103.753906 116.367188 102.386719 C 116.972656 101.078125 117.171875 99.695312 117.035156 98.359375 C 117.042969 98.097656 116.984375 97.808594 116.914062 97.535156 C 116.695312 96.46875 116.265625 95.449219 115.664062 94.542969 C 115.617188 94.460938 115.570312 94.382812 115.519531 94.304688 C 115.613281 94.394531 115.707031 94.488281 115.804688 94.574219 C 120.964844 94.964844 125.929688 93.96875 130.601562 91.804688 C 136.09375 89.425781 141.761719 85.738281 144.550781 80.339844 C 144.636719 80.199219 144.726562 80.066406 144.808594 79.925781 C 150.441406 71.050781 144.957031 49.839844 154.902344 40.332031 C 156.007812 39.277344 158.179688 38.925781 159.625 38.554688 C 161.332031 38.121094 163.144531 37.734375 164.644531 36.765625 C 164.855469 36.628906 165.050781 36.484375 165.230469 36.339844 C 168.140625 33.945312 166.492188 30.195312 164.878906 27.558594 " fill-opacity="1" fill-rule="nonzero"/></g><path fill="#00bf63" d="M 14.296875 71.550781 C 18.296875 58.964844 22.957031 51.164062 29.046875 42.804688 C 20.992188 49.871094 15.347656 60.890625 14.296875 71.550781 " fill-opacity="1" fill-rule="nonzero"/><path fill="#00bf63" d="M 80.59375 40.707031 C 69.953125 43.523438 58.882812 49.613281 50.792969 57.070312 C 55.054688 54.511719 61.15625 50.816406 65.472656 48.488281 C 69.769531 46.089844 76.128906 42.941406 80.59375 40.707031 " fill-opacity="1" fill-rule="nonzero"/><path fill="#00bf63" d="M 73.691406 111.199219 C 81.730469 114.660156 91.164062 114.546875 99.425781 111.855469 C 104.359375 110.15625 109.125 107.507812 112.808594 103.816406 C 101.171875 111.867188 86.996094 114.359375 73.691406 111.199219 " fill-opacity="1" fill-rule="nonzero"/><path fill="#00bf63" d="M 111.78125 94.191406 C 107.871094 90.800781 101.390625 90.625 97.292969 93.78125 C 103.34375 92.53125 107.070312 93.03125 111.78125 94.191406 " fill-opacity="1" fill-rule="nonzero"/><path fill="#00bf63" d="M 112.578125 89.257812 C 119.859375 91.097656 127.890625 89.285156 134.164062 85.277344 C 137.007812 83.410156 139.589844 81.054688 141.460938 78.230469 C 138.054688 81.425781 134.1875 84.007812 129.953125 85.90625 C 124.488281 88.285156 118.558594 89.414062 112.578125 89.257812 " fill-opacity="1" fill-rule="nonzero"/><path fill="#00bf63" d="M 106.261719 81.847656 C 104.964844 83.105469 103.820312 84.296875 102.9375 85.878906 C 102.554688 86.765625 103.054688 87.941406 104.003906 88.1875 C 105.351562 88.558594 104.554688 87.996094 110.824219 88.449219 C 107.8125 86.261719 104.734375 87.09375 104.320312 86.660156 C 104.167969 86.097656 105.59375 84.25 106.261719 81.847656 " fill-opacity="1" fill-rule="nonzero"/><path fill="#00bf63" d="M 134.28125 79.433594 C 129.050781 82.574219 123.640625 85.03125 117.820312 86.871094 C 124.011719 87.140625 130.394531 84.261719 134.28125 79.433594 " fill-opacity="1" fill-rule="nonzero"/><path fill="#00bf63" d="M 144.992188 58.898438 C 145.496094 52.015625 147.59375 45.5 151.226562 39.628906 C 145.847656 44.183594 143.292969 52.058594 144.992188 58.898438 " fill-opacity="1" fill-rule="nonzero"/><path fill="#00bf63" d="M 117.25 44.257812 C 123.410156 42.109375 129.605469 40.597656 136.066406 39.648438 C 129.566406 38.449219 122.460938 40.199219 117.25 44.257812 " fill-opacity="1" fill-rule="nonzero"/><path fill="#00bf63" d="M 58.882812 109.382812 C 59.632812 115.042969 66.269531 119.058594 71.625 117.078125 C 66.316406 116.515625 62.15625 114.464844 58.882812 109.382812 " fill-opacity="1" fill-rule="nonzero"/><path fill="#00bf63" d="M 60.140625 117.515625 C 54.722656 116.289062 49.753906 114.175781 45.128906 111.101562 C 48.320312 115.8125 54.527344 118.472656 60.140625 117.515625 " fill-opacity="1" fill-rule="nonzero"/><path fill="#00bf63" d="M 28.15625 99.15625 C 26.679688 99.4375 25.992188 100.929688 24.460938 100.777344 C 25.527344 101.894531 27.246094 100.726562 28.40625 100.574219 C 29.28125 100.472656 30.785156 102.410156 33.820312 103.503906 C 32.851562 101.980469 29.953125 98.621094 28.15625 99.15625 " fill-opacity="1" fill-rule="nonzero"/><path fill="#00bf63" d="M 47.355469 64.539062 C 49.054688 62.914062 50.824219 61.363281 52.625 59.84375 C 66.523438 49.851562 82.71875 43.066406 98.132812 35.761719 C 84.699219 40.492188 71.382812 45.9375 59.382812 53.699219 C 57.597656 54.882812 55.820312 56.097656 54.074219 57.363281 C 46.949219 61.875 40.636719 68.539062 36.804688 75.75 C 40.183594 71.867188 43.617188 68.058594 47.355469 64.539062 " fill-opacity="1" fill-rule="nonzero"/><path fill="#00bf63" d="M 65.808594 88.945312 C 62.726562 92.8125 60.503906 97.339844 59.300781 102.136719 C 62.375 98.265625 64.613281 93.746094 65.808594 88.945312 " fill-opacity="1" fill-rule="nonzero"/><path fill="#00bf63" d="M 31.707031 97.203125 C 30.609375 96.523438 29.226562 96.324219 28.019531 96.464844 C 25.554688 96.621094 20.128906 99.660156 19.328125 95.914062 C 19.175781 96.476562 19.40625 97.117188 19.808594 97.566406 C 22.019531 99.765625 25.558594 98.003906 28.144531 97.894531 C 29.761719 97.738281 31.015625 98.398438 32.195312 99.429688 C 33.480469 100.453125 34.632812 101.617188 35.75 102.828125 C 37.230469 104.464844 38.601562 106.214844 39.921875 108.054688 C 38.308594 103.785156 35.515625 99.808594 31.707031 97.203125 " fill-opacity="1" fill-rule="nonzero"/><path fill="#00bf63" d="M 59.429688 26.230469 C 63.652344 24.75 69.859375 22.953125 74.214844 21.671875 C 64.199219 22.277344 53.242188 26.035156 44.953125 31.675781 C 49.160156 30.03125 55.199219 27.640625 59.429688 26.230469 " fill-opacity="1" fill-rule="nonzero"/><path fill="#00bf63" d="M 65.890625 88.796875 C 65.9375 88.796875 65.9375 88.726562 65.890625 88.726562 C 65.84375 88.726562 65.84375 88.796875 65.890625 88.796875 " fill-opacity="1" fill-rule="nonzero"/><path fill="#00bf63" d="M 40.207031 61.652344 C 41.417969 61.652344 41.417969 59.777344 40.207031 59.777344 C 39 59.777344 39 61.652344 40.207031 61.652344 " fill-opacity="1" fill-rule="nonzero"/><path fill="#00bf63" d="M 31.984375 69.390625 C 32.058594 69.449219 32.136719 69.503906 32.210938 69.5625 C 32.386719 69.664062 32.574219 69.714844 32.773438 69.714844 C 32.929688 69.722656 33.070312 69.691406 33.207031 69.621094 C 33.34375 69.574219 33.464844 69.496094 33.566406 69.390625 C 33.671875 69.289062 33.75 69.167969 33.796875 69.03125 C 33.863281 68.894531 33.898438 68.753906 33.890625 68.601562 C 33.878906 68.5 33.863281 68.402344 33.851562 68.300781 C 33.796875 68.113281 33.703125 67.949219 33.566406 67.808594 C 33.488281 67.75 33.414062 67.691406 33.339844 67.636719 C 33.164062 67.535156 32.976562 67.484375 32.773438 67.484375 C 32.621094 67.476562 32.476562 67.507812 32.34375 67.578125 C 32.207031 67.625 32.085938 67.699219 31.984375 67.808594 C 31.875 67.910156 31.800781 68.03125 31.753906 68.167969 C 31.683594 68.300781 31.652344 68.445312 31.660156 68.601562 C 31.671875 68.699219 31.683594 68.796875 31.699219 68.894531 C 31.75 69.085938 31.847656 69.25 31.984375 69.390625 " fill-opacity="1" fill-rule="nonzero"/><path fill="#00bf63" d="M 35.4375 67.921875 C 35.441406 68.023438 35.476562 68.105469 35.542969 68.179688 C 35.574219 68.214844 35.621094 68.246094 35.65625 68.28125 C 35.695312 68.316406 35.730469 68.351562 35.769531 68.386719 C 35.9375 68.550781 36.179688 68.621094 36.410156 68.558594 C 36.519531 68.523438 36.617188 68.46875 36.699219 68.386719 C 36.75 68.335938 36.789062 68.269531 36.824219 68.203125 C 36.882812 68.109375 36.90625 68.019531 36.90625 67.921875 C 36.90625 67.828125 36.882812 67.738281 36.835938 67.65625 C 36.789062 67.574219 36.75 67.511719 36.699219 67.460938 C 36.617188 67.378906 36.519531 67.320312 36.410156 67.289062 C 36.179688 67.226562 35.9375 67.296875 35.769531 67.460938 C 35.730469 67.496094 35.695312 67.53125 35.65625 67.566406 C 35.621094 67.601562 35.574219 67.632812 35.542969 67.667969 C 35.480469 67.738281 35.433594 67.828125 35.4375 67.921875 " fill-opacity="1" fill-rule="nonzero"/><path fill="#00bf63" d="M 35.253906 64.699219 C 35.742188 64.699219 35.742188 63.9375 35.253906 63.9375 C 34.765625 63.9375 34.761719 64.699219 35.253906 64.699219 " fill-opacity="1" fill-rule="nonzero"/><path fill="#00bf63" d="M 39.605469 93.089844 C 39.507812 92.984375 39.394531 92.910156 39.261719 92.867188 C 39.179688 92.820312 39.089844 92.792969 38.992188 92.792969 C 38.960938 92.789062 38.929688 92.789062 38.902344 92.785156 C 38.875 92.765625 38.84375 92.742188 38.808594 92.71875 C 38.765625 92.65625 38.71875 92.605469 38.652344 92.566406 C 38.597656 92.527344 38.539062 92.511719 38.472656 92.507812 C 38.3125 92.484375 38.1875 92.535156 38.066406 92.640625 C 38.011719 92.6875 37.96875 92.757812 37.929688 92.820312 C 37.917969 92.835938 37.914062 92.851562 37.90625 92.867188 C 37.835938 92.945312 37.773438 93.039062 37.75 93.140625 C 37.730469 93.234375 37.71875 93.335938 37.730469 93.433594 C 37.738281 93.496094 37.746094 93.558594 37.757812 93.625 C 37.742188 93.75 37.761719 93.871094 37.785156 94 C 37.789062 94.015625 37.789062 94.03125 37.792969 94.046875 C 37.800781 94.074219 37.808594 94.101562 37.820312 94.128906 C 37.855469 94.214844 37.890625 94.300781 37.925781 94.382812 C 37.980469 94.457031 38.039062 94.527344 38.09375 94.601562 C 38.191406 94.703125 38.304688 94.777344 38.4375 94.820312 C 38.519531 94.871094 38.609375 94.894531 38.707031 94.894531 C 38.800781 94.921875 38.898438 94.921875 38.992188 94.894531 C 39.089844 94.894531 39.179688 94.871094 39.261719 94.820312 C 39.351562 94.796875 39.429688 94.75 39.496094 94.683594 C 39.613281 94.609375 39.707031 94.507812 39.773438 94.382812 C 39.808594 94.300781 39.84375 94.214844 39.878906 94.128906 C 39.894531 94.035156 39.90625 93.941406 39.917969 93.84375 C 39.90625 93.75 39.894531 93.65625 39.878906 93.558594 C 39.84375 93.476562 39.808594 93.390625 39.773438 93.304688 C 39.71875 93.234375 39.660156 93.160156 39.605469 93.089844 " fill-opacity="1" fill-rule="nonzero"/><path fill="#00bf63" d="M 36.378906 89.859375 C 37.648438 89.859375 37.648438 87.886719 36.378906 87.886719 C 35.109375 87.886719 35.109375 89.859375 36.378906 89.859375 " fill-opacity="1" fill-rule="nonzero"/><path fill="#00bf63" d="M 41.785156 88.074219 C 41.71875 88.074219 41.648438 88.074219 41.582031 88.078125 C 41.550781 88.085938 41.523438 88.089844 41.492188 88.09375 C 41.464844 88.097656 41.441406 88.117188 41.417969 88.132812 C 41.40625 88.132812 41.394531 88.136719 41.386719 88.140625 C 41.355469 88.144531 41.324219 88.152344 41.296875 88.160156 C 41.277344 88.171875 41.253906 88.179688 41.234375 88.1875 C 41.203125 88.207031 41.175781 88.230469 41.15625 88.257812 C 41.121094 88.304688 41.097656 88.363281 41.097656 88.425781 C 41.101562 88.472656 41.113281 88.519531 41.136719 88.5625 C 41.152344 88.59375 41.175781 88.617188 41.207031 88.636719 C 41.230469 88.660156 41.261719 88.675781 41.296875 88.6875 C 41.324219 88.699219 41.355469 88.703125 41.386719 88.707031 C 41.394531 88.710938 41.402344 88.714844 41.410156 88.714844 C 41.421875 88.722656 41.433594 88.734375 41.449219 88.738281 C 41.492188 88.757812 41.535156 88.769531 41.582031 88.765625 C 41.648438 88.773438 41.71875 88.773438 41.785156 88.773438 C 41.832031 88.777344 41.878906 88.765625 41.921875 88.742188 C 41.964844 88.730469 42.003906 88.707031 42.035156 88.671875 C 42.066406 88.640625 42.089844 88.601562 42.105469 88.558594 C 42.128906 88.515625 42.136719 88.472656 42.136719 88.425781 C 42.132812 88.332031 42.101562 88.238281 42.035156 88.175781 C 41.964844 88.113281 41.878906 88.070312 41.785156 88.074219 " fill-opacity="1" fill-rule="nonzero"/><path fill="#00bf63" d="M 81.101562 108.195312 C 81.109375 108.226562 81.113281 108.257812 81.117188 108.289062 C 81.121094 108.300781 81.222656 108.542969 81.226562 108.550781 C 81.230469 108.558594 81.398438 108.777344 81.398438 108.777344 C 81.523438 108.910156 81.722656 109.019531 81.890625 109.066406 C 81.988281 109.078125 82.089844 109.089844 82.183594 109.105469 C 82.285156 109.089844 82.382812 109.078125 82.480469 109.066406 C 82.574219 109.027344 82.660156 108.988281 82.75 108.949219 C 82.773438 108.933594 82.976562 108.777344 82.988281 108.769531 C 83.066406 108.683594 83.125 108.601562 83.183594 108.523438 C 83.242188 108.414062 83.28125 108.308594 83.316406 108.214844 C 83.320312 108.207031 83.320312 108.203125 83.324219 108.195312 C 83.351562 108.085938 83.359375 107.976562 83.367188 107.863281 C 83.367188 107.65625 83.316406 107.460938 83.210938 107.28125 C 83.109375 107.105469 82.96875 106.96875 82.792969 106.863281 C 82.613281 106.761719 82.417969 106.707031 82.210938 106.707031 C 82.050781 106.699219 81.902344 106.734375 81.765625 106.804688 C 81.621094 106.851562 81.496094 106.933594 81.390625 107.046875 C 81.246094 107.191406 81.148438 107.359375 81.09375 107.558594 C 81.039062 107.761719 81.039062 107.96875 81.09375 108.171875 C 81.097656 108.179688 81.101562 108.1875 81.101562 108.195312 " fill-opacity="1" fill-rule="nonzero"/><path fill="#00bf63" d="M 83.621094 103.71875 C 83.6875 103.820312 83.773438 103.902344 83.882812 103.960938 C 83.957031 103.992188 84.035156 104.023438 84.109375 104.054688 C 84.191406 104.066406 84.273438 104.078125 84.355469 104.089844 C 84.484375 104.09375 84.605469 104.066406 84.71875 104.007812 C 84.78125 103.988281 84.839844 103.957031 84.894531 103.921875 C 85.097656 103.902344 85.300781 103.839844 85.382812 103.640625 C 85.417969 103.554688 85.433594 103.453125 85.402344 103.363281 C 85.390625 103.320312 85.367188 103.277344 85.347656 103.238281 C 85.335938 103.207031 85.324219 103.175781 85.308594 103.144531 C 85.304688 103.136719 85.296875 103.128906 85.292969 103.121094 C 85.292969 102.988281 85.261719 102.910156 85.210938 102.792969 C 85.191406 102.710938 85.148438 102.644531 85.09375 102.585938 C 85.027344 102.484375 84.9375 102.402344 84.828125 102.34375 C 84.753906 102.3125 84.679688 102.28125 84.605469 102.25 C 84.523438 102.238281 84.441406 102.226562 84.355469 102.214844 C 84.226562 102.210938 84.109375 102.238281 83.996094 102.296875 C 83.917969 102.320312 83.847656 102.359375 83.789062 102.417969 C 83.6875 102.484375 83.605469 102.570312 83.546875 102.679688 C 83.515625 102.753906 83.484375 102.828125 83.453125 102.902344 C 83.441406 102.988281 83.429688 103.070312 83.421875 103.152344 C 83.414062 103.28125 83.441406 103.402344 83.5 103.515625 C 83.523438 103.59375 83.5625 103.660156 83.621094 103.71875 " fill-opacity="1" fill-rule="nonzero"/><path fill="#00bf63" d="M 89.546875 108.320312 C 90.507812 108.320312 90.511719 106.824219 89.546875 106.824219 C 88.582031 106.824219 88.578125 108.320312 89.546875 108.320312 " fill-opacity="1" fill-rule="nonzero"/><path fill="#00bf63" d="M 93.824219 102.847656 C 94.414062 102.847656 94.414062 101.933594 93.824219 101.933594 C 93.238281 101.933594 93.234375 102.847656 93.824219 102.847656 " fill-opacity="1" fill-rule="nonzero"/><path fill="#00bf63" d="M 73.917969 108.980469 C 74.011719 109.03125 74.117188 109.054688 74.226562 109.050781 C 74.234375 109.050781 74.242188 109.050781 74.25 109.054688 L 74.46875 109.023438 C 74.59375 108.996094 74.753906 108.898438 74.839844 108.800781 C 74.925781 108.714844 74.980469 108.628906 75.015625 108.53125 C 75.0625 108.4375 75.085938 108.335938 75.082031 108.226562 C 75.101562 108.179688 75.132812 108.160156 75.144531 108.125 C 75.167969 108.074219 75.179688 108.007812 75.160156 107.953125 C 75.125 107.847656 75.03125 107.761719 74.917969 107.757812 C 74.855469 107.671875 74.78125 107.59375 74.691406 107.542969 C 74.625 107.515625 74.5625 107.488281 74.5 107.464844 C 74.335938 107.417969 74.179688 107.414062 74.035156 107.457031 C 73.882812 107.496094 73.773438 107.574219 73.660156 107.679688 C 73.617188 107.734375 73.574219 107.789062 73.535156 107.84375 L 73.453125 108.035156 C 73.441406 108.105469 73.433594 108.175781 73.425781 108.25 C 73.417969 108.359375 73.441406 108.460938 73.492188 108.558594 C 73.511719 108.625 73.546875 108.683594 73.597656 108.734375 C 73.632812 108.792969 73.679688 108.84375 73.742188 108.878906 C 73.789062 108.929688 73.847656 108.960938 73.917969 108.980469 " fill-opacity="1" fill-rule="nonzero"/><path fill="#00bf63" d="M 87.515625 104.046875 C 87.542969 104.070312 87.566406 104.09375 87.59375 104.117188 C 87.628906 104.144531 87.664062 104.171875 87.699219 104.199219 C 87.742188 104.21875 87.785156 104.234375 87.828125 104.253906 C 87.898438 104.273438 87.96875 104.277344 88.039062 104.261719 C 88.085938 104.261719 88.128906 104.25 88.171875 104.226562 C 88.214844 104.214844 88.253906 104.191406 88.289062 104.15625 C 88.328125 104.132812 88.359375 104.101562 88.382812 104.0625 C 88.414062 104.03125 88.4375 103.992188 88.453125 103.945312 C 88.484375 103.882812 88.5 103.816406 88.496094 103.742188 C 88.488281 103.695312 88.484375 103.648438 88.476562 103.601562 C 88.460938 103.558594 88.441406 103.519531 88.425781 103.476562 C 88.398438 103.441406 88.371094 103.40625 88.34375 103.367188 C 88.304688 103.339844 88.269531 103.3125 88.234375 103.285156 C 88.191406 103.269531 88.152344 103.25 88.109375 103.234375 C 88.039062 103.210938 87.96875 103.207031 87.898438 103.222656 C 87.851562 103.222656 87.804688 103.234375 87.765625 103.261719 C 87.699219 103.28125 87.640625 103.316406 87.59375 103.367188 C 87.566406 103.390625 87.542969 103.417969 87.515625 103.441406 C 87.472656 103.480469 87.445312 103.523438 87.425781 103.578125 C 87.398438 103.628906 87.386719 103.683594 87.390625 103.742188 C 87.394531 103.78125 87.398438 103.820312 87.40625 103.855469 C 87.425781 103.929688 87.460938 103.992188 87.515625 104.046875 " fill-opacity="1" fill-rule="nonzero"/><path fill="#00bf63" d="M 122.96875 70.753906 C 122.875 70.839844 122.808594 70.945312 122.769531 71.0625 C 122.710938 71.179688 122.683594 71.304688 122.6875 71.4375 C 122.683594 71.570312 122.710938 71.695312 122.769531 71.808594 C 122.808594 71.929688 122.875 72.03125 122.96875 72.121094 C 123.035156 72.171875 123.101562 72.21875 123.164062 72.269531 C 123.316406 72.359375 123.480469 72.402344 123.652344 72.402344 C 123.738281 72.390625 123.824219 72.378906 123.910156 72.367188 C 124.074219 72.320312 124.21875 72.238281 124.335938 72.121094 L 124.488281 71.925781 C 124.558594 71.8125 124.597656 71.695312 124.601562 71.5625 C 124.617188 71.496094 124.621094 71.425781 124.617188 71.355469 C 124.625 71.265625 124.621094 71.171875 124.59375 71.082031 C 124.554688 70.9375 124.484375 70.816406 124.378906 70.710938 C 124.273438 70.605469 124.152344 70.535156 124.007812 70.496094 C 123.90625 70.46875 123.808594 70.464844 123.707031 70.476562 C 123.6875 70.472656 123.671875 70.472656 123.652344 70.46875 C 123.519531 70.464844 123.394531 70.492188 123.28125 70.550781 C 123.160156 70.589844 123.058594 70.660156 122.96875 70.753906 " fill-opacity="1" fill-rule="nonzero"/><path fill="#00bf63" d="M 123.269531 62.5625 C 123.191406 62.4375 123.082031 62.339844 122.949219 62.269531 C 122.859375 62.230469 122.765625 62.191406 122.675781 62.152344 C 122.523438 62.105469 122.371094 62.097656 122.21875 62.132812 C 122.066406 62.140625 121.925781 62.183594 121.792969 62.269531 C 121.71875 62.328125 121.640625 62.386719 121.5625 62.449219 C 121.421875 62.589844 121.324219 62.757812 121.269531 62.953125 L 121.230469 63.257812 C 121.230469 63.273438 121.234375 63.285156 121.234375 63.300781 C 121.234375 63.402344 121.246094 63.5 121.273438 63.601562 C 121.324219 63.785156 121.414062 63.945312 121.550781 64.078125 C 121.683594 64.214844 121.84375 64.304688 122.027344 64.355469 C 122.054688 64.363281 122.085938 64.363281 122.113281 64.367188 C 122.171875 64.382812 122.234375 64.390625 122.300781 64.394531 C 122.335938 64.394531 122.351562 64.398438 122.371094 64.398438 C 122.527344 64.40625 122.675781 64.371094 122.8125 64.300781 C 122.953125 64.253906 123.078125 64.175781 123.179688 64.066406 C 123.238281 63.988281 123.300781 63.910156 123.359375 63.832031 C 123.441406 63.703125 123.488281 63.558594 123.496094 63.410156 C 123.527344 63.257812 123.523438 63.105469 123.472656 62.953125 C 123.4375 62.804688 123.371094 62.671875 123.269531 62.5625 " fill-opacity="1" fill-rule="nonzero"/><path fill="#00bf63" d="M 118.085938 66.730469 C 118.109375 66.683594 118.121094 66.628906 118.121094 66.570312 C 118.117188 66.535156 118.109375 66.5 118.105469 66.460938 C 118.085938 66.390625 118.050781 66.328125 118 66.277344 C 117.96875 66.257812 117.941406 66.234375 117.914062 66.210938 C 117.851562 66.175781 117.78125 66.15625 117.703125 66.15625 C 117.648438 66.152344 117.59375 66.167969 117.542969 66.191406 C 117.492188 66.207031 117.449219 66.238281 117.410156 66.277344 C 117.371094 66.316406 117.339844 66.359375 117.324219 66.410156 C 117.296875 66.460938 117.285156 66.515625 117.289062 66.570312 C 117.292969 66.609375 117.296875 66.644531 117.304688 66.683594 C 117.324219 66.753906 117.359375 66.8125 117.410156 66.867188 C 117.4375 66.886719 117.464844 66.910156 117.496094 66.929688 C 117.558594 66.96875 117.628906 66.988281 117.703125 66.988281 C 117.761719 66.988281 117.816406 66.976562 117.863281 66.953125 C 117.917969 66.933594 117.960938 66.90625 118 66.867188 C 118.039062 66.828125 118.066406 66.785156 118.085938 66.730469 " fill-opacity="1" fill-rule="nonzero"/><path fill="#00bf63" d="M 125.589844 66.675781 C 124.855469 66.675781 124.855469 67.816406 125.589844 67.816406 C 126.324219 67.816406 126.324219 66.675781 125.589844 66.675781 " fill-opacity="1" fill-rule="nonzero"/><path fill="#00bf63" d="M 134.601562 66.796875 C 134.597656 66.757812 134.59375 66.714844 134.589844 66.671875 C 134.480469 65.527344 132.917969 65.527344 132.808594 66.671875 C 132.804688 66.714844 132.800781 66.757812 132.796875 66.796875 C 132.683594 67.957031 134.714844 67.960938 134.601562 66.796875 " fill-opacity="1" fill-rule="nonzero"/><path fill="#00bf63" d="M 132.796875 74.023438 C 133.402344 74.023438 133.402344 73.085938 132.796875 73.085938 C 132.195312 73.085938 132.191406 74.023438 132.796875 74.023438 " fill-opacity="1" fill-rule="nonzero"/><path fill="#00bf63" d="M 122.210938 78.851562 C 122.644531 78.851562 122.648438 78.171875 122.210938 78.171875 C 121.773438 78.171875 121.773438 78.851562 122.210938 78.851562 " fill-opacity="1" fill-rule="nonzero"/><path fill="#00bf63" d="M 125.695312 55.390625 C 125.582031 55.425781 125.488281 55.488281 125.40625 55.574219 C 125.316406 55.65625 125.257812 55.753906 125.21875 55.863281 C 125.164062 55.96875 125.136719 56.085938 125.144531 56.210938 C 125.152344 56.289062 125.164062 56.367188 125.175781 56.449219 C 125.21875 56.597656 125.292969 56.730469 125.40625 56.84375 C 125.464844 56.890625 125.527344 56.9375 125.585938 56.984375 C 125.726562 57.066406 125.878906 57.105469 126.039062 57.105469 C 126.164062 57.109375 126.277344 57.085938 126.386719 57.027344 C 126.496094 56.992188 126.59375 56.929688 126.675781 56.84375 C 126.761719 56.761719 126.824219 56.664062 126.859375 56.554688 C 126.914062 56.449219 126.941406 56.332031 126.9375 56.210938 L 126.90625 55.96875 C 126.863281 55.820312 126.785156 55.6875 126.675781 55.574219 L 126.492188 55.433594 C 126.351562 55.355469 126.203125 55.3125 126.039062 55.3125 C 125.917969 55.308594 125.800781 55.332031 125.695312 55.390625 " fill-opacity="1" fill-rule="nonzero"/><path fill="#00bf63" d="M 9.308594 61.378906 C 9.265625 61.226562 9.191406 61.09375 9.078125 60.980469 L 8.898438 60.839844 C 8.757812 60.761719 8.605469 60.71875 8.445312 60.71875 C 8.320312 60.714844 8.207031 60.738281 8.097656 60.796875 C 7.988281 60.832031 7.890625 60.894531 7.808594 60.980469 C 7.722656 61.0625 7.660156 61.160156 7.625 61.269531 C 7.570312 61.378906 7.542969 61.492188 7.546875 61.617188 C 7.558594 61.695312 7.570312 61.773438 7.582031 61.855469 C 7.621094 62.007812 7.699219 62.136719 7.808594 62.25 L 7.992188 62.390625 C 8.132812 62.472656 8.28125 62.511719 8.445312 62.511719 C 8.566406 62.515625 8.683594 62.492188 8.789062 62.433594 C 8.902344 62.398438 8.996094 62.335938 9.078125 62.25 C 9.167969 62.167969 9.226562 62.074219 9.265625 61.960938 C 9.320312 61.855469 9.347656 61.738281 9.339844 61.617188 L 9.308594 61.378906 " fill-opacity="1" fill-rule="nonzero"/><path fill="#00bf63" d="M 6.867188 66.820312 C 6.027344 66.820312 6.027344 68.125 6.867188 68.125 C 7.707031 68.125 7.710938 66.820312 6.867188 66.820312 " fill-opacity="1" fill-rule="nonzero"/><path fill="#00bf63" d="M 13.417969 70.417969 C 13.480469 70.359375 13.527344 70.285156 13.554688 70.207031 C 13.59375 70.125 13.613281 70.042969 13.609375 69.953125 C 13.601562 69.894531 13.59375 69.835938 13.585938 69.777344 C 13.554688 69.664062 13.5 69.566406 13.417969 69.484375 C 13.371094 69.449219 13.328125 69.417969 13.28125 69.382812 C 13.179688 69.320312 13.070312 69.292969 12.949219 69.292969 C 12.859375 69.289062 12.773438 69.308594 12.695312 69.347656 C 12.613281 69.375 12.542969 69.421875 12.484375 69.484375 C 12.417969 69.546875 12.375 69.617188 12.347656 69.695312 C 12.308594 69.777344 12.289062 69.859375 12.292969 69.953125 C 12.300781 70.007812 12.308594 70.066406 12.316406 70.125 C 12.347656 70.238281 12.402344 70.335938 12.484375 70.417969 C 12.527344 70.453125 12.574219 70.488281 12.617188 70.519531 C 12.71875 70.582031 12.832031 70.609375 12.949219 70.609375 C 13.039062 70.613281 13.125 70.59375 13.203125 70.554688 C 13.285156 70.527344 13.355469 70.480469 13.417969 70.417969 " fill-opacity="1" fill-rule="nonzero"/><path fill="#00bf63" d="M 10.890625 76.742188 C 10.722656 76.644531 10.539062 76.597656 10.347656 76.59375 C 10.195312 76.589844 10.058594 76.621094 9.929688 76.6875 C 9.796875 76.730469 9.679688 76.804688 9.582031 76.910156 C 9.449219 77.046875 9.355469 77.207031 9.304688 77.386719 C 9.25 77.582031 9.25 77.773438 9.304688 77.964844 C 9.308594 77.976562 9.316406 77.988281 9.320312 78 C 9.339844 78.117188 9.375 78.226562 9.433594 78.332031 C 9.523438 78.484375 9.648438 78.605469 9.800781 78.695312 C 9.960938 78.789062 10.132812 78.835938 10.316406 78.835938 C 10.320312 78.835938 10.585938 78.800781 10.589844 78.800781 C 10.601562 78.796875 10.84375 78.695312 10.84375 78.691406 C 10.863281 78.683594 11.066406 78.527344 11.066406 78.523438 C 11.097656 78.492188 11.242188 78.304688 11.25 78.292969 C 11.277344 78.238281 11.367188 78.027344 11.378906 78.007812 C 11.390625 77.949219 11.425781 77.703125 11.425781 77.679688 C 11.425781 77.480469 11.378906 77.300781 11.28125 77.128906 C 11.183594 76.96875 11.054688 76.839844 10.890625 76.742188 " fill-opacity="1" fill-rule="nonzero"/><path fill="#00bf63" d="M 12.273438 66.339844 C 11.394531 66.339844 11.394531 67.707031 12.273438 67.707031 C 13.152344 67.707031 13.15625 66.339844 12.273438 66.339844 " fill-opacity="1" fill-rule="nonzero"/><path fill="#00bf63" d="M 8.761719 74.699219 C 8.738281 74.648438 8.703125 74.609375 8.65625 74.582031 C 8.617188 74.542969 8.570312 74.519531 8.515625 74.507812 L 8.339844 74.464844 C 8.261719 74.445312 8.179688 74.445312 8.097656 74.464844 C 8.019531 74.488281 7.953125 74.527344 7.894531 74.582031 C 7.871094 74.613281 7.847656 74.644531 7.824219 74.675781 C 7.78125 74.746094 7.761719 74.824219 7.761719 74.90625 C 7.761719 74.96875 7.773438 75.027344 7.800781 75.082031 C 7.820312 75.140625 7.851562 75.1875 7.894531 75.230469 C 7.953125 75.289062 8.019531 75.328125 8.097656 75.347656 C 8.179688 75.371094 8.261719 75.371094 8.339844 75.347656 L 8.515625 75.308594 C 8.546875 75.292969 8.582031 75.28125 8.613281 75.265625 C 8.664062 75.238281 8.703125 75.203125 8.730469 75.160156 C 8.757812 75.132812 8.773438 75.101562 8.785156 75.066406 C 8.808594 75.019531 8.820312 74.964844 8.820312 74.90625 L 8.804688 74.796875 C 8.792969 74.765625 8.777344 74.730469 8.761719 74.699219 " fill-opacity="1" fill-rule="nonzero"/><path fill="#00bf63" d="M 62.144531 20.640625 C 62.207031 20.75 62.289062 20.839844 62.390625 20.90625 C 62.449219 20.964844 62.519531 21.003906 62.597656 21.027344 C 62.710938 21.085938 62.832031 21.113281 62.960938 21.109375 C 63.046875 21.097656 63.128906 21.085938 63.214844 21.074219 L 63.4375 20.980469 C 63.582031 20.894531 63.695312 20.78125 63.777344 20.640625 L 63.8125 20.597656 C 63.894531 20.488281 63.941406 20.300781 63.941406 20.164062 C 63.941406 20.027344 63.894531 19.839844 63.8125 19.734375 C 63.800781 19.71875 63.789062 19.703125 63.777344 19.6875 C 63.71875 19.578125 63.636719 19.488281 63.535156 19.421875 C 63.476562 19.363281 63.40625 19.324219 63.324219 19.300781 C 63.214844 19.242188 63.09375 19.214844 62.960938 19.21875 C 62.878906 19.230469 62.792969 19.242188 62.710938 19.253906 C 62.636719 19.285156 62.5625 19.316406 62.484375 19.347656 C 62.375 19.410156 62.289062 19.488281 62.21875 19.59375 C 62.160156 19.652344 62.121094 19.722656 62.097656 19.800781 C 62.039062 19.914062 62.011719 20.035156 62.019531 20.164062 C 62.027344 20.25 62.039062 20.332031 62.050781 20.417969 C 62.082031 20.492188 62.113281 20.566406 62.144531 20.640625 " fill-opacity="1" fill-rule="nonzero"/><path fill="#00bf63" d="M 63.023438 41.953125 C 63.101562 42.039062 63.195312 42.097656 63.304688 42.132812 C 63.40625 42.1875 63.519531 42.210938 63.636719 42.207031 C 63.714844 42.199219 63.792969 42.1875 63.867188 42.175781 C 64.015625 42.136719 64.144531 42.0625 64.25 41.953125 L 64.386719 41.777344 C 64.464844 41.644531 64.503906 41.496094 64.503906 41.339844 C 64.496094 41.261719 64.484375 41.1875 64.472656 41.109375 C 64.449219 40.996094 64.394531 40.898438 64.320312 40.816406 C 64.257812 40.722656 64.175781 40.648438 64.074219 40.59375 C 64.007812 40.535156 63.957031 40.507812 63.902344 40.492188 C 63.820312 40.449219 63.730469 40.429688 63.636719 40.433594 C 63.578125 40.441406 63.515625 40.449219 63.457031 40.457031 L 63.292969 40.527344 C 63.269531 40.539062 63.257812 40.5625 63.234375 40.578125 C 63.222656 40.585938 63.210938 40.585938 63.199219 40.59375 C 63.140625 40.636719 63.082031 40.683594 63.023438 40.726562 C 62.941406 40.804688 62.878906 40.898438 62.84375 41.007812 C 62.792969 41.109375 62.765625 41.222656 62.769531 41.339844 C 62.765625 41.460938 62.792969 41.570312 62.84375 41.675781 C 62.878906 41.78125 62.941406 41.875 63.023438 41.953125 " fill-opacity="1" fill-rule="nonzero"/><path fill="#00bf63" d="M 68.820312 41.179688 C 69.484375 41.179688 69.484375 40.148438 68.820312 40.148438 C 68.15625 40.148438 68.152344 41.179688 68.820312 41.179688 " fill-opacity="1" fill-rule="nonzero"/><path fill="#00bf63" d="M 59.808594 44.863281 C 60.574219 44.863281 60.574219 43.675781 59.808594 43.675781 C 59.042969 43.675781 59.042969 44.863281 59.808594 44.863281 " fill-opacity="1" fill-rule="nonzero"/><path fill="#00bf63" d="M 66.339844 33.773438 C 67.328125 33.773438 67.328125 32.238281 66.339844 32.238281 C 65.355469 32.238281 65.355469 33.773438 66.339844 33.773438 " fill-opacity="1" fill-rule="nonzero"/><path fill="#00bf63" d="M 44.941406 79.214844 C 44.105469 79.214844 44.105469 80.511719 44.941406 80.511719 C 45.773438 80.511719 45.773438 79.214844 44.941406 79.214844 " fill-opacity="1" fill-rule="nonzero"/><path fill="#00bf63" d="M 27.59375 83.527344 C 28.25 83.527344 28.25 82.507812 27.59375 82.507812 C 26.9375 82.507812 26.933594 83.527344 27.59375 83.527344 " fill-opacity="1" fill-rule="nonzero"/><path fill="#00bf63" d="M 78.730469 85.273438 C 79.601562 85.273438 79.605469 83.917969 78.730469 83.917969 C 77.859375 83.917969 77.859375 85.273438 78.730469 85.273438 " fill-opacity="1" fill-rule="nonzero"/><path fill="#00bf63" d="M 84.589844 81.878906 C 85.15625 81.878906 85.15625 81 84.589844 81 C 84.023438 81 84.023438 81.878906 84.589844 81.878906 " fill-opacity="1" fill-rule="nonzero"/><path fill="#00bf63" d="M 84.8125 85.832031 C 85.25 85.832031 85.25 85.15625 84.8125 85.15625 C 84.378906 85.15625 84.378906 85.832031 84.8125 85.832031 " fill-opacity="1" fill-rule="nonzero"/><path fill="#00bf63" d="M 49.65625 66.777344 C 52.332031 65.125 55.9375 62.609375 58.585938 60.859375 C 61.207031 59.089844 64.9375 56.707031 67.472656 54.871094 C 60.589844 57.054688 54.308594 61.261719 49.65625 66.777344 " fill-opacity="1" fill-rule="nonzero"/><path fill="#00bf63" d="M 73.550781 76.484375 C 75.863281 76.085938 77.976562 74.992188 79.84375 73.613281 C 81.695312 72.207031 83.335938 70.484375 84.363281 68.375 C 83.378906 69.023438 82.488281 69.714844 81.589844 70.382812 C 79.101562 72.320312 75.996094 74.492188 73.550781 76.484375 " fill-opacity="1" fill-rule="nonzero"/><path fill="#00bf63" d="M 109.253906 55.183594 C 114.585938 51.742188 120.210938 49.140625 126.277344 47.28125 C 119.835938 47.011719 113.210938 50.09375 109.253906 55.183594 " fill-opacity="1" fill-rule="nonzero"/><path fill="#00bf63" d="M 109.355469 62.519531 C 109.152344 65.175781 109.03125 67.726562 108.683594 70.335938 C 108.417969 72.585938 107.78125 75.800781 107.355469 78.066406 C 110.4375 73.648438 111.226562 67.574219 109.355469 62.519531 " fill-opacity="1" fill-rule="nonzero"/><path fill="#00bf63" d="M 65.046875 21.273438 C 65.605469 21.273438 65.605469 20.40625 65.046875 20.40625 C 64.488281 20.40625 64.488281 21.273438 65.046875 21.273438 " fill-opacity="1" fill-rule="nonzero"/><path fill="#00bf63" d="M 71.378906 68.742188 L 71.226562 68.625 C 71.109375 68.554688 70.984375 68.519531 70.847656 68.519531 C 70.742188 68.515625 70.644531 68.539062 70.554688 68.585938 C 70.460938 68.617188 70.382812 68.667969 70.3125 68.742188 C 70.238281 68.808594 70.1875 68.890625 70.15625 68.984375 C 70.109375 69.074219 70.089844 69.171875 70.09375 69.277344 C 70.101562 69.34375 70.109375 69.410156 70.121094 69.476562 C 70.15625 69.605469 70.21875 69.714844 70.3125 69.808594 L 70.464844 69.925781 C 70.582031 69.996094 70.710938 70.027344 70.847656 70.03125 C 70.949219 70.035156 71.046875 70.011719 71.136719 69.964844 C 71.230469 69.933594 71.3125 69.882812 71.378906 69.808594 C 71.453125 69.738281 71.507812 69.660156 71.535156 69.566406 C 71.582031 69.476562 71.605469 69.378906 71.601562 69.277344 C 71.59375 69.207031 71.582031 69.140625 71.574219 69.074219 C 71.539062 68.949219 71.472656 68.835938 71.378906 68.742188 " fill-opacity="1" fill-rule="nonzero"/><path fill="#00bf63" d="M 63.476562 74.371094 C 63.554688 74.382812 63.628906 74.394531 63.707031 74.40625 C 63.785156 74.417969 63.867188 74.4375 63.949219 74.441406 C 63.984375 74.445312 64.019531 74.441406 64.054688 74.445312 C 64.097656 74.4375 64.136719 74.433594 64.175781 74.429688 C 64.214844 74.414062 64.25 74.398438 64.285156 74.382812 C 64.316406 74.359375 64.347656 74.335938 64.378906 74.3125 C 64.421875 74.269531 64.453125 74.222656 64.472656 74.164062 C 64.492188 74.128906 64.503906 74.089844 64.503906 74.050781 C 64.511719 74.011719 64.511719 73.96875 64.503906 73.929688 C 64.503906 73.890625 64.492188 73.851562 64.472656 73.816406 C 64.453125 73.757812 64.421875 73.710938 64.378906 73.667969 C 64.355469 73.640625 64.332031 73.609375 64.308594 73.582031 C 64.285156 73.554688 64.253906 73.527344 64.230469 73.503906 C 64.175781 73.453125 64.125 73.398438 64.070312 73.347656 C 63.996094 73.273438 63.902344 73.21875 63.800781 73.191406 C 63.691406 73.164062 63.582031 73.164062 63.476562 73.191406 C 63.425781 73.210938 63.378906 73.230469 63.328125 73.253906 C 63.238281 73.308594 63.164062 73.378906 63.109375 73.472656 C 63.066406 73.542969 63.039062 73.617188 63.035156 73.699219 C 63.019531 73.78125 63.023438 73.863281 63.046875 73.941406 C 63.078125 74.046875 63.128906 74.136719 63.207031 74.214844 C 63.28125 74.289062 63.371094 74.34375 63.476562 74.371094 " fill-opacity="1" fill-rule="nonzero"/><path fill="#00bf63" d="M 73.847656 71.664062 C 73.902344 71.613281 73.9375 71.558594 73.960938 71.492188 C 73.976562 71.457031 73.976562 71.421875 73.984375 71.386719 C 73.996094 71.371094 74.007812 71.351562 74.019531 71.332031 C 74.046875 71.296875 74.070312 71.261719 74.09375 71.226562 C 74.136719 71.167969 74.167969 71.121094 74.191406 71.050781 C 74.207031 71.003906 74.230469 70.945312 74.226562 70.894531 C 74.21875 70.84375 74.207031 70.800781 74.175781 70.757812 C 74.144531 70.71875 74.109375 70.699219 74.058594 70.679688 C 74.011719 70.660156 73.945312 70.667969 73.898438 70.667969 C 73.828125 70.667969 73.765625 70.6875 73.699219 70.710938 C 73.65625 70.722656 73.617188 70.738281 73.574219 70.75 C 73.558594 70.753906 73.542969 70.757812 73.53125 70.761719 C 73.507812 70.761719 73.492188 70.75 73.472656 70.75 C 73.425781 70.757812 73.378906 70.761719 73.328125 70.769531 C 73.238281 70.792969 73.160156 70.839844 73.09375 70.90625 C 73.066406 70.941406 73.042969 70.976562 73.015625 71.007812 C 72.988281 71.042969 72.964844 71.074219 72.9375 71.109375 C 72.902344 71.167969 72.882812 71.230469 72.878906 71.292969 C 72.867188 71.339844 72.867188 71.382812 72.878906 71.429688 C 72.882812 71.492188 72.902344 71.554688 72.9375 71.613281 C 72.984375 71.683594 73.042969 71.746094 73.117188 71.792969 C 73.171875 71.828125 73.234375 71.847656 73.300781 71.851562 C 73.367188 71.867188 73.433594 71.863281 73.5 71.84375 C 73.539062 71.828125 73.574219 71.8125 73.613281 71.800781 C 73.703125 71.773438 73.78125 71.730469 73.847656 71.664062 " fill-opacity="1" fill-rule="nonzero"/><path fill="#00bf63" d="M 93.441406 53.292969 C 93.53125 53.265625 93.613281 53.210938 93.683594 53.136719 C 93.757812 53.070312 93.808594 52.988281 93.839844 52.894531 C 93.886719 52.804688 93.90625 52.707031 93.902344 52.605469 C 93.894531 52.539062 93.886719 52.472656 93.875 52.40625 C 93.839844 52.277344 93.777344 52.164062 93.683594 52.070312 L 93.53125 51.953125 C 93.414062 51.886719 93.285156 51.851562 93.148438 51.851562 C 93.046875 51.847656 92.949219 51.867188 92.859375 51.914062 C 92.765625 51.945312 92.683594 52 92.617188 52.070312 C 92.542969 52.140625 92.492188 52.21875 92.460938 52.3125 C 92.414062 52.402344 92.390625 52.5 92.394531 52.605469 C 92.402344 52.671875 92.414062 52.738281 92.421875 52.804688 C 92.457031 52.933594 92.523438 53.042969 92.617188 53.136719 L 92.769531 53.257812 C 92.886719 53.324219 93.011719 53.359375 93.148438 53.359375 C 93.253906 53.363281 93.351562 53.339844 93.441406 53.292969 " fill-opacity="1" fill-rule="nonzero"/><path fill="#00bf63" d="M 93.875 58.292969 C 93.851562 58.257812 93.824219 58.226562 93.789062 58.203125 C 93.753906 58.171875 93.71875 58.152344 93.675781 58.140625 C 93.660156 58.136719 93.640625 58.136719 93.625 58.132812 C 93.605469 58.132812 93.589844 58.128906 93.574219 58.125 C 93.539062 58.121094 93.503906 58.117188 93.46875 58.113281 C 93.40625 58.09375 93.34375 58.09375 93.277344 58.113281 C 93.21875 58.128906 93.164062 58.160156 93.117188 58.207031 C 93.101562 58.230469 93.082031 58.253906 93.0625 58.28125 C 93.027344 58.335938 93.011719 58.394531 93.011719 58.460938 C 93.011719 58.511719 93.019531 58.558594 93.042969 58.601562 C 93.058594 58.644531 93.082031 58.683594 93.117188 58.71875 C 93.164062 58.761719 93.21875 58.792969 93.277344 58.8125 C 93.34375 58.828125 93.40625 58.828125 93.46875 58.8125 C 93.503906 58.804688 93.539062 58.800781 93.574219 58.796875 C 93.589844 58.796875 93.605469 58.792969 93.625 58.789062 C 93.640625 58.789062 93.660156 58.789062 93.675781 58.78125 C 93.703125 58.769531 93.726562 58.757812 93.753906 58.75 C 93.792969 58.726562 93.824219 58.699219 93.847656 58.664062 C 93.867188 58.640625 93.882812 58.617188 93.890625 58.589844 C 93.910156 58.550781 93.921875 58.507812 93.917969 58.460938 C 93.914062 58.433594 93.910156 58.402344 93.90625 58.375 C 93.894531 58.347656 93.882812 58.320312 93.875 58.292969 " fill-opacity="1" fill-rule="nonzero"/><path fill="#00bf63" d="M 121.691406 32.175781 C 121.882812 32.289062 122.136719 32.296875 122.324219 32.175781 C 122.453125 32.097656 122.578125 32.019531 122.703125 31.941406 C 122.855469 31.847656 123.042969 31.753906 123.128906 31.597656 C 123.179688 31.496094 123.179688 31.34375 123.085938 31.265625 C 123.03125 31.21875 122.980469 31.179688 122.914062 31.15625 C 122.878906 31.144531 122.839844 31.140625 122.804688 31.132812 C 122.734375 31.117188 122.664062 31.109375 122.59375 31.097656 C 122.453125 31.074219 122.316406 31.054688 122.175781 31.03125 C 122.0625 31 121.953125 31 121.839844 31.03125 C 121.734375 31.058594 121.644531 31.113281 121.566406 31.191406 C 121.421875 31.332031 121.367188 31.523438 121.394531 31.71875 C 121.417969 31.910156 121.519531 32.078125 121.691406 32.175781 " fill-opacity="1" fill-rule="nonzero"/><path fill="#00bf63" d="M 119.054688 34.785156 C 119.898438 34.785156 119.898438 33.480469 119.054688 33.480469 C 118.214844 33.480469 118.214844 34.785156 119.054688 34.785156 " fill-opacity="1" fill-rule="nonzero"/><path fill="#00bf63" d="M 123.539062 35.507812 C 123.5625 35.523438 123.585938 35.542969 123.609375 35.5625 C 123.664062 35.59375 123.722656 35.609375 123.789062 35.609375 C 123.824219 35.613281 123.863281 35.617188 123.902344 35.625 L 123.957031 35.632812 C 124.023438 35.640625 124.109375 35.613281 124.164062 35.578125 C 124.171875 35.570312 124.175781 35.566406 124.183594 35.5625 C 124.238281 35.53125 124.28125 35.488281 124.3125 35.4375 C 124.34375 35.382812 124.359375 35.320312 124.359375 35.257812 C 124.359375 35.195312 124.34375 35.136719 124.3125 35.082031 C 124.28125 35.027344 124.238281 34.984375 124.183594 34.953125 C 124.179688 34.949219 124.171875 34.945312 124.164062 34.941406 C 124.132812 34.921875 124.113281 34.90625 124.066406 34.898438 C 124.035156 34.894531 124 34.886719 123.96875 34.882812 C 123.957031 34.886719 123.902344 34.890625 123.902344 34.890625 C 123.863281 34.898438 123.824219 34.902344 123.789062 34.90625 C 123.738281 34.90625 123.695312 34.914062 123.652344 34.9375 C 123.609375 34.953125 123.570312 34.976562 123.539062 35.011719 C 123.503906 35.042969 123.480469 35.078125 123.46875 35.125 C 123.445312 35.164062 123.433594 35.210938 123.4375 35.257812 C 123.441406 35.289062 123.445312 35.320312 123.449219 35.351562 C 123.464844 35.410156 123.496094 35.460938 123.539062 35.507812 " fill-opacity="1" fill-rule="nonzero"/></svg>