<svg xmlns="http://www.w3.org/2000/svg" xmlns:xlink="http://www.w3.org/1999/xlink" width="200" zoomAndPan="magnify" viewBox="0 0 150 92.999996" height="124" preserveAspectRatio="xMidYMid meet" version="1.0"><defs><clipPath id="7457147f69"><path d="M 78.3125 87.503906 L 78.695312 87.503906 L 78.695312 87.785156 L 78.3125 87.785156 Z M 78.3125 87.503906 " clip-rule="nonzero"/></clipPath><clipPath id="8a0a5cac2a"><path d="M 78.675781 87.671875 C 77.925781 87.972656 78.601562 87.519531 78.601562 87.519531 " clip-rule="nonzero"/></clipPath><clipPath id="589cbca24a"><path d="M 129.269531 42.675781 L 129.628906 42.675781 L 129.628906 42.957031 L 129.269531 42.957031 Z M 129.269531 42.675781 " clip-rule="nonzero"/></clipPath><clipPath id="be33fb8229"><path d="M 129.605469 42.84375 C 128.929688 43.144531 129.53125 42.695312 129.53125 42.695312 " clip-rule="nonzero"/></clipPath><clipPath id="4df2929f5c"><path d="M 62.621094 20.851562 L 63.027344 20.851562 L 63.027344 21.132812 L 62.621094 21.132812 Z M 62.621094 20.851562 " clip-rule="nonzero"/></clipPath><clipPath id="a798e509ff"><path d="M 63.007812 21.019531 C 62.257812 21.320312 62.855469 20.867188 62.855469 20.867188 " clip-rule="nonzero"/></clipPath><clipPath id="99a174d4b3"><path d="M 0 0 L 150 0 L 150 92.25 L 0 92.25 Z M 0 0 " clip-rule="nonzero"/></clipPath></defs><g clip-path="url(#7457147f69)"><g clip-path="url(#8a0a5cac2a)"><path fill="#00bf63" d="M 75 84.519531 L 81.753906 84.519531 L 81.753906 91.046875 L 75 91.046875 Z M 75 84.519531 " fill-opacity="1" fill-rule="nonzero"/></g></g><g clip-path="url(#589cbca24a)"><g clip-path="url(#be33fb8229)"><path fill="#00bf63" d="M 125.929688 39.695312 L 132.6875 39.695312 L 132.6875 46.21875 L 125.929688 46.21875 Z M 125.929688 39.695312 " fill-opacity="1" fill-rule="nonzero"/></g></g><g clip-path="url(#4df2929f5c)"><g clip-path="url(#a798e509ff)"><path fill="#00bf63" d="M 59.332031 17.867188 L 66.085938 17.867188 L 66.085938 24.394531 L 59.332031 24.394531 Z M 59.332031 17.867188 " fill-opacity="1" fill-rule="nonzero"/></g></g><g clip-path="url(#99a174d4b3)"><path fill="#00bf63" d="M 148.886719 25.636719 C 147.589844 24.523438 145.550781 24.894531 141.101562 27.121094 C 138.320312 28.605469 134.796875 30.644531 130.347656 33.425781 C 124.597656 37.132812 119.035156 40.839844 116.8125 42.511719 C 114.769531 40.472656 109.578125 35.835938 101.605469 30.644531 C 99.9375 29.53125 98.085938 28.605469 96.230469 27.492188 C 96.230469 24.523438 96.042969 15.625 92.890625 12.660156 C 90.667969 10.621094 88.441406 10.433594 85.847656 10.0625 C 84.179688 9.878906 82.507812 9.691406 80.285156 9.136719 C 76.207031 8.023438 74.351562 5.984375 72.496094 4.316406 C 70.457031 2.277344 68.417969 0.234375 64.152344 0.234375 C 58.40625 0.234375 53.957031 5.613281 48.207031 14.699219 C 43.386719 15.253906 38.566406 16.550781 33.746094 18.59375 C 32.261719 19.148438 30.964844 19.890625 29.480469 20.632812 C 29.480469 20.632812 29.296875 20.632812 29.296875 20.632812 C 24.105469 23.226562 19.097656 26.75 14.460938 30.828125 C 5.933594 38.429688 0 47.144531 0 52.152344 C 0 55.304688 3.894531 59.382812 7.046875 62.351562 C 12.980469 67.726562 21.136719 72.917969 29.296875 76.441406 C 31.519531 77.367188 33.746094 78.296875 36.15625 79.035156 C 38.9375 79.964844 41.53125 80.707031 44.128906 81.261719 C 45.054688 83.300781 47.09375 87.195312 49.875 89.234375 C 52.472656 91.089844 55.625 92.203125 58.960938 92.203125 C 61.742188 92.203125 64.523438 91.273438 66.5625 89.234375 C 68.972656 87.011719 70.085938 82.558594 70.457031 80.148438 C 78.617188 78.480469 85.660156 76.441406 91.59375 74.402344 C 92.890625 77.738281 94.933594 80.148438 97.34375 81.078125 C 98.640625 81.449219 99.753906 81.449219 100.867188 81.449219 C 102.90625 81.449219 105.128906 80.890625 106.984375 79.777344 C 109.023438 78.480469 110.507812 76.625 110.691406 74.585938 C 110.878906 72.175781 108.652344 69.210938 106.984375 67.355469 C 112.175781 64.574219 115.328125 61.980469 116.8125 60.867188 C 118.851562 61.980469 124.042969 64.945312 129.234375 67.542969 C 142.210938 73.84375 145.179688 73.472656 146.664062 72.175781 C 148.515625 70.507812 147.402344 67.914062 145.921875 64.761719 C 144.4375 61.238281 142.398438 56.601562 142.398438 50.296875 C 142.398438 42.511719 145.550781 36.578125 147.773438 32.5 C 148.515625 31.015625 149.074219 29.902344 149.445312 28.976562 C 150 27.492188 149.816406 26.378906 148.886719 25.636719 Z M 64.152344 3.386719 C 67.121094 3.386719 68.417969 4.6875 70.273438 6.539062 C 72.125 8.394531 74.535156 10.804688 79.355469 12.101562 C 81.769531 12.84375 83.808594 13.03125 85.476562 13.214844 C 87.886719 13.402344 89.183594 13.585938 90.667969 14.882812 C 92.335938 16.367188 92.890625 21.742188 93.078125 25.824219 C 83.808594 21.003906 71.570312 16.367188 56.921875 14.699219 C 55.253906 14.511719 53.585938 14.511719 51.914062 14.511719 C 56.550781 7.652344 60.257812 3.386719 64.152344 3.386719 Z M 9.269531 59.9375 C 4.449219 55.675781 3.152344 52.894531 3.152344 52.152344 C 3.152344 48.816406 7.789062 41.027344 16.5 33.238281 C 19.097656 30.828125 23.734375 27.121094 29.667969 23.96875 C 32.632812 26.566406 42.644531 36.390625 44.3125 48.257812 C 45.984375 60.125 39.492188 70.878906 35.96875 75.699219 C 25.214844 71.804688 15.203125 65.316406 9.269531 59.9375 Z M 64.710938 87.011719 C 61.558594 90.160156 55.808594 89.234375 52.101562 86.640625 C 50.617188 85.527344 49.132812 83.488281 48.207031 81.816406 C 50.0625 82.003906 51.914062 82.1875 53.769531 82.1875 C 55.253906 82.1875 56.550781 82.1875 57.847656 82.003906 C 61.1875 81.632812 64.339844 81.261719 67.304688 80.707031 C 66.933594 82.746094 66.007812 85.710938 64.710938 87.011719 Z M 107.539062 74.214844 C 107.355469 75.144531 106.613281 76.253906 105.316406 76.996094 C 103.277344 78.296875 100.679688 78.667969 98.640625 77.925781 C 96.972656 77.367188 95.671875 75.699219 94.746094 73.105469 C 97.898438 71.804688 100.679688 70.695312 102.90625 69.394531 C 103.277344 69.210938 103.644531 69.023438 104.015625 68.839844 C 105.6875 70.507812 107.726562 73.289062 107.539062 74.214844 Z M 144.808594 31.015625 C 142.582031 35.28125 139.0625 41.769531 139.0625 50.296875 C 139.0625 57.15625 141.285156 62.535156 142.953125 66.058594 C 143.511719 67.355469 144.253906 69.210938 144.253906 69.765625 C 143.511719 69.765625 140.542969 69.582031 129.789062 64.203125 C 123.300781 61.050781 117.367188 57.527344 117.367188 57.527344 C 116.8125 57.15625 116.070312 57.34375 115.511719 57.714844 C 115.511719 57.714844 110.878906 61.980469 101.421875 66.613281 C 92.707031 70.878906 78.058594 76.625 57.664062 78.667969 C 56.367188 78.851562 55.066406 78.851562 53.769531 78.851562 C 51.175781 78.851562 48.578125 78.667969 45.984375 78.109375 C 45.984375 78.109375 45.984375 78.109375 45.796875 78.109375 C 43.757812 77.738281 41.53125 77.183594 39.492188 76.625 C 43.386719 71.0625 49.503906 59.9375 47.835938 47.703125 C 46.910156 41.769531 44.128906 35.648438 39.492188 29.53125 C 37.269531 26.566406 34.671875 23.96875 33.003906 22.300781 C 37.824219 20.074219 43.386719 18.222656 49.132812 17.664062 C 49.132812 17.664062 49.320312 17.664062 49.320312 17.664062 C 50.246094 17.664062 51.359375 17.480469 52.472656 17.480469 C 53.957031 17.480469 55.253906 17.480469 56.738281 17.664062 C 75.835938 19.890625 90.851562 27.304688 99.9375 33.054688 C 109.949219 39.359375 115.511719 45.292969 115.511719 45.292969 C 116.070312 45.847656 116.996094 46.035156 117.550781 45.476562 C 117.550781 45.476562 124.042969 40.839844 131.085938 36.390625 C 140.730469 30.085938 144.621094 28.417969 146.292969 27.863281 C 145.921875 28.976562 145.363281 30.085938 144.808594 31.015625 Z M 144.808594 31.015625 " fill-opacity="1" fill-rule="nonzero"/></g><path fill="#00bf63" d="M 79.355469 51.78125 C 78.800781 52.335938 78.617188 53.449219 79.171875 54.007812 C 81.398438 56.417969 81.953125 58.640625 81.398438 59.753906 C 80.65625 61.050781 77.503906 60.867188 75.648438 60.867188 C 70.273438 60.679688 64.710938 58.457031 59.519531 54.5625 C 58.777344 54.007812 57.847656 54.191406 57.292969 54.933594 C 56.738281 55.675781 56.921875 56.601562 57.664062 57.15625 C 63.410156 61.421875 69.53125 63.832031 75.464844 64.019531 C 76.019531 64.019531 76.574219 64.019531 77.316406 64.019531 C 79.914062 64.019531 82.878906 63.648438 84.179688 61.238281 C 85.660156 58.828125 84.550781 55.117188 81.582031 51.78125 C 81.027344 51.226562 79.914062 51.226562 79.355469 51.78125 Z M 79.355469 51.78125 " fill-opacity="1" fill-rule="nonzero"/><path fill="#00bf63" d="M 24.660156 42.324219 C 21.136719 42.324219 18.171875 45.292969 18.171875 48.816406 C 18.171875 52.335938 21.136719 55.304688 24.660156 55.304688 C 28.183594 55.304688 31.148438 52.335938 31.148438 48.816406 C 31.148438 45.292969 28.183594 42.324219 24.660156 42.324219 Z M 24.660156 51.964844 C 22.804688 51.964844 21.324219 50.484375 21.324219 48.628906 C 21.324219 46.773438 22.804688 45.292969 24.660156 45.292969 C 26.515625 45.292969 27.996094 46.773438 27.996094 48.628906 C 27.996094 50.484375 26.328125 51.964844 24.660156 51.964844 Z M 24.660156 51.964844 " fill-opacity="1" fill-rule="nonzero"/></svg>