<svg xmlns="http://www.w3.org/2000/svg" xmlns:xlink="http://www.w3.org/1999/xlink" width="196" zoomAndPan="magnify" viewBox="0 0 147 149.999998" height="200" preserveAspectRatio="xMidYMid meet" version="1.0"><defs><clipPath id="f103338c63"><path d="M 43.921875 74.71875 L 44.277344 74.71875 L 44.277344 75 L 43.921875 75 Z M 43.921875 74.71875 " clip-rule="nonzero"/></clipPath><clipPath id="33b54d6cac"><path d="M 44.257812 74.886719 C 43.582031 75.1875 44.179688 74.738281 44.179688 74.738281 " clip-rule="nonzero"/></clipPath><clipPath id="bb31728cb3"><path d="M 51.121094 100.035156 L 51.476562 100.035156 L 51.476562 100.316406 L 51.121094 100.316406 Z M 51.121094 100.035156 " clip-rule="nonzero"/></clipPath><clipPath id="aeb8f83a0b"><path d="M 51.457031 100.203125 C 50.78125 100.503906 51.382812 100.054688 51.382812 100.054688 " clip-rule="nonzero"/></clipPath></defs><g clip-path="url(#f103338c63)"><g clip-path="url(#33b54d6cac)"><path fill="#00bf63" d="M 40.582031 71.738281 L 47.335938 71.738281 L 47.335938 78.261719 L 40.582031 78.261719 Z M 40.582031 71.738281 " fill-opacity="1" fill-rule="nonzero"/></g></g><path fill="#00bf63" d="M 47.875 38.640625 C 47.75 37.941406 47.757812 37.699219 47.664062 37.507812 C 45.046875 31.984375 42.070312 26.6875 37.835938 22.214844 C 33.546875 17.679688 28.351562 14.984375 22.003906 15.566406 C 14.652344 16.238281 8.800781 19.800781 4.453125 25.769531 C 3.488281 27.09375 2.660156 28.515625 1.757812 29.914062 C 0.0195312 23.90625 6.613281 12.046875 14.578125 6.707031 C 24.523438 0.03125 38.234375 0.546875 46.5625 6.664062 C 41.976562 7.644531 37.921875 9.230469 36.242188 14.074219 C 36.695312 13.640625 37.144531 13.214844 37.589844 12.777344 C 40.015625 10.414062 42.84375 8.886719 46.191406 8.167969 C 47.886719 7.804688 49.0625 8.246094 50.261719 9.328125 C 55.039062 13.632812 59.203125 18.441406 62.523438 23.964844 C 62.902344 24.601562 63.289062 25.234375 63.6875 25.890625 C 67.347656 25.847656 70.605469 26.742188 73.355469 29.558594 C 76.058594 26.851562 79.328125 25.628906 83.207031 25.914062 C 83.574219 25.347656 83.953125 24.804688 84.289062 24.238281 C 87.65625 18.570312 91.828125 13.582031 96.777344 9.21875 C 98.015625 8.121094 99.214844 7.816406 100.871094 8.164062 C 103.992188 8.824219 106.625 10.273438 108.929688 12.398438 C 109.644531 13.054688 110.289062 13.792969 111.058594 14.589844 C 110.414062 10.925781 107.023438 8.40625 100.640625 6.703125 C 105.347656 2.132812 118.578125 0 127.890625 4.0625 C 138.292969 8.597656 146.605469 20.628906 145.417969 30.074219 C 144.964844 29.355469 144.609375 28.820312 144.28125 28.269531 C 139.96875 21.070312 133.773438 16.621094 125.363281 15.574219 C 120.332031 14.949219 115.773438 16.394531 111.957031 19.648438 C 109.75 21.53125 107.785156 23.761719 106.003906 26.0625 C 103.148438 29.746094 100.941406 33.839844 98.960938 38.542969 C 100.011719 38.382812 100.714844 38.328125 101.394531 38.164062 C 103.578125 37.640625 105.777344 37.152344 107.921875 36.488281 C 108.816406 36.214844 109.667969 35.636719 110.394531 35.027344 C 113.789062 32.15625 117.332031 29.5 121.296875 27.464844 C 122.6875 26.753906 124.164062 26.140625 125.667969 25.71875 C 128.289062 24.984375 130.335938 26.539062 130.386719 29.257812 C 130.410156 30.289062 130.242188 31.363281 129.953125 32.355469 C 129.511719 33.867188 128.800781 35.296875 128.386719 36.8125 C 128.171875 37.605469 126.898438 38.519531 128.378906 39.390625 C 128.46875 39.445312 128.304688 40.117188 128.117188 40.414062 C 127.203125 41.871094 126.375 43.40625 125.277344 44.714844 C 121.910156 48.730469 117.886719 51.980469 113.171875 54.300781 C 111.703125 55.023438 110.140625 55.6875 108.546875 55.992188 C 106.738281 56.335938 105.621094 57.324219 104.699219 58.765625 C 102.503906 62.199219 101.839844 65.988281 102.09375 69.980469 C 102.859375 82.15625 105.003906 94.125 107.519531 106.035156 C 107.890625 107.785156 108.242188 109.539062 108.339844 111.390625 C 106.960938 108.53125 105.585938 105.671875 104.207031 102.8125 C 104.039062 102.832031 103.875 102.847656 103.707031 102.867188 C 104.929688 111.203125 104.75 119.339844 100.539062 126.972656 C 100.703125 122.050781 99.160156 117.90625 95.085938 114.335938 C 94.320312 119.464844 93.71875 124.335938 90.710938 128.527344 C 90.710938 126.703125 90.710938 124.878906 90.710938 123.054688 C 90.539062 123.019531 90.363281 122.980469 90.1875 122.945312 C 90.03125 123.429688 89.871094 123.910156 89.726562 124.394531 C 89.023438 126.761719 88.460938 129.179688 87.574219 131.472656 C 87.085938 132.746094 86.0625 133.816406 85.28125 134.980469 C 85.105469 134.921875 84.929688 134.867188 84.753906 134.808594 C 84.882812 133.492188 85.011719 132.171875 85.140625 130.855469 C 83.390625 135.324219 81.878906 139.867188 77.574219 143.371094 C 77.972656 139 78.03125 135.078125 76.867188 131.226562 C 76.152344 137.546875 75.300781 143.828125 73.550781 149.996094 C 72.402344 146.980469 71.964844 143.824219 71.503906 140.6875 C 71.050781 137.59375 70.75 134.472656 69.957031 131.320312 C 69.757812 132.574219 69.511719 133.816406 69.378906 135.074219 C 69.246094 136.34375 69.167969 137.625 69.175781 138.898438 C 69.183594 140.222656 69.324219 141.542969 69.441406 143.355469 C 65.230469 139.894531 63.605469 135.433594 61.6875 131.0625 C 61.871094 132.425781 62.058594 133.785156 62.289062 135.492188 C 58.109375 132.148438 57.636719 127.503906 56.386719 123.121094 C 56.386719 124.941406 56.386719 126.765625 56.386719 128.585938 C 56.226562 128.617188 56.0625 128.648438 55.902344 128.679688 C 53.121094 124.480469 52.496094 119.566406 51.734375 114.65625 C 48.316406 117.140625 47.113281 120.117188 46.628906 127.492188 C 44.199219 123.511719 43.332031 119.472656 42.847656 115.328125 C 42.359375 111.167969 42.609375 107.011719 43.289062 102.867188 C 43.132812 102.824219 42.976562 102.78125 42.820312 102.738281 C 41.441406 105.65625 40.058594 108.574219 38.679688 111.492188 C 38.605469 111.460938 38.535156 111.429688 38.460938 111.394531 C 39.695312 105.070312 40.953125 98.75 42.152344 92.417969 C 43.574219 84.878906 44.464844 77.265625 44.867188 69.609375 C 45.078125 65.640625 44.367188 61.828125 42.019531 58.460938 C 41.171875 57.25 40.175781 56.488281 38.660156 56.097656 C 30.582031 54.007812 24.523438 49.050781 19.765625 42.363281 C 19.253906 41.640625 18.449219 40.558594 18.667969 39.980469 C 19.753906 37.113281 17.304688 35.175781 17.039062 32.710938 C 16.898438 31.378906 16.527344 30.035156 16.601562 28.71875 C 16.71875 26.53125 18.546875 25.15625 20.691406 25.675781 C 22.421875 26.09375 24.136719 26.730469 25.730469 27.523438 C 29.789062 29.539062 33.4375 32.191406 36.851562 35.15625 C 37.792969 35.972656 38.816406 36.453125 40.027344 36.691406 C 41.496094 36.984375 42.929688 37.425781 44.382812 37.792969 C 45.449219 38.0625 46.523438 38.3125 47.875 38.640625 Z M 65.730469 66.488281 C 66.921875 70.558594 66.871094 70.527344 64.890625 74.113281 C 63.84375 76.011719 62.867188 77.972656 62.117188 80.003906 C 61.289062 82.253906 61.21875 84.679688 62.511719 86.769531 C 64.140625 89.414062 63.6875 91.734375 62.050781 94.078125 C 61.835938 94.386719 61.664062 94.726562 61.449219 95.03125 C 58.652344 98.945312 57.722656 103.328125 58.125 108.066406 C 58.273438 109.804688 58.351562 111.503906 60.105469 112.570312 C 60.652344 112.902344 60.941406 113.632812 61.4375 114.082031 C 62.933594 115.4375 64.359375 116.917969 66.03125 118.019531 C 67.242188 118.820312 68.757812 119.300781 70.203125 119.5625 C 72.1875 119.925781 73.214844 118.902344 73.035156 116.949219 C 72.851562 114.933594 72.535156 112.925781 72.253906 110.921875 C 71.894531 108.378906 70.40625 106.726562 68.109375 105.710938 C 67.21875 105.316406 66.296875 104.949219 65.496094 104.410156 C 63.65625 103.171875 63.378906 101.097656 64.851562 99.363281 C 67.414062 100.238281 70.046875 101.097656 72.644531 102.046875 C 73.410156 102.324219 74.042969 102.273438 74.785156 102.003906 C 77.039062 101.183594 79.308594 100.414062 81.59375 99.683594 C 82.835938 99.292969 83.519531 99.835938 83.367188 101.101562 C 83.203125 102.492188 82.625 103.707031 81.367188 104.460938 C 80.789062 104.808594 80.1875 105.132812 79.5625 105.375 C 76.605469 106.519531 74.96875 108.609375 74.746094 111.816406 C 74.632812 113.460938 74.375 115.097656 74.179688 116.738281 C 73.929688 118.882812 74.839844 119.925781 76.972656 119.539062 C 78.417969 119.277344 79.832031 118.664062 81.171875 118.019531 C 84.183594 116.574219 85.871094 113.644531 88.242188 111.472656 C 88.53125 111.203125 88.644531 110.65625 88.695312 110.222656 C 89.214844 105.683594 89.300781 101.207031 86.769531 97.113281 C 85.898438 95.707031 85.113281 94.253906 84.226562 92.855469 C 83.113281 91.09375 83.0625 89.375 84.128906 87.558594 C 85.734375 84.8125 85.683594 81.9375 84.433594 79.109375 C 83.527344 77.054688 82.519531 75.019531 81.332031 73.117188 C 80.140625 71.207031 79.84375 69.398438 80.980469 67.410156 C 81.070312 67.257812 80.992188 67.011719 80.992188 66.667969 C 80.410156 66.984375 79.941406 67.234375 78.972656 67.757812 C 79.691406 66.09375 80.136719 64.914062 80.703125 63.792969 C 81.546875 62.117188 82.535156 60.511719 83.359375 58.828125 C 84.601562 56.292969 84.257812 54.503906 82.253906 52.527344 C 81.742188 52.019531 81.175781 51.5625 80.472656 50.9375 C 82.21875 50.304688 83.410156 51.214844 84.96875 52.203125 C 84.015625 49.886719 82.855469 48.496094 81.007812 48 C 78.070312 47.214844 75.585938 48.445312 73.394531 50.214844 C 68.117188 46.527344 63.898438 47.171875 62.25 52.058594 C 63.527344 51.238281 64.621094 50.253906 66.113281 50.875 C 66.058594 51.113281 66.074219 51.300781 65.988281 51.378906 C 61.996094 55.058594 61.882812 55.886719 64.410156 60.628906 C 65.535156 62.746094 66.515625 64.9375 67.539062 67.105469 C 67.621094 67.273438 67.523438 67.527344 67.507812 67.777344 C 67.011719 67.417969 66.570312 67.097656 65.730469 66.488281 Z M 43.628906 54.945312 C 43.855469 53.675781 44.101562 52.800781 44.152344 51.914062 C 44.378906 47.8125 42.386719 44.667969 39.09375 42.71875 C 36.132812 40.964844 34.054688 38.5625 32.035156 35.960938 C 31.621094 35.429688 31.191406 34.90625 30.730469 34.410156 C 29.054688 32.601562 27.21875 30.996094 24.828125 29.773438 C 24.160156 33.238281 26.023438 35.824219 27.265625 38.5625 C 27.121094 38.65625 26.976562 38.753906 26.835938 38.847656 C 24.671875 36.816406 22.511719 34.785156 20.109375 32.527344 C 21.34375 38.585938 23.742188 43.527344 29.953125 46.394531 C 28.691406 46.480469 27.929688 46.53125 26.730469 46.613281 C 30.566406 50.050781 34.140625 53.109375 39.5 54.300781 C 37.132812 51.898438 35.058594 49.941406 33.167969 47.820312 C 31.832031 46.320312 30.570312 44.695312 29.59375 42.949219 C 28.359375 40.746094 28.503906 38.335938 29.246094 35.964844 C 29.65625 36.488281 29.890625 37.027344 30.0625 37.585938 C 30.707031 39.683594 31.933594 41.320312 33.820312 42.464844 C 36.640625 44.179688 38.785156 46.574219 40.5 49.351562 C 41.550781 51.054688 42.460938 52.84375 43.628906 54.945312 Z M 126.546875 32.597656 C 124.691406 34.890625 122.726562 36.921875 120.121094 38.300781 C 121.371094 35.644531 122.726562 33.070312 122.167969 29.765625 C 121.5 30.144531 120.984375 30.394531 120.515625 30.710938 C 117.34375 32.832031 114.886719 35.667969 112.691406 38.738281 C 111.847656 39.921875 110.859375 40.851562 109.566406 41.5625 C 107.078125 42.929688 105.113281 44.878906 103.8125 47.433594 C 102.621094 49.773438 102.574219 52.167969 103.703125 54.53125 C 104.175781 53.59375 104.589844 52.726562 105.050781 51.886719 C 107.152344 48.011719 109.640625 44.492188 113.597656 42.234375 C 115.292969 41.265625 116.34375 39.71875 116.902344 37.839844 C 117.09375 37.199219 117.367188 36.578125 117.601562 35.953125 C 118.765625 39.644531 118.140625 42.898438 115.660156 45.667969 C 113.707031 47.851562 111.636719 49.929688 109.621094 52.054688 C 109.03125 52.675781 108.449219 53.300781 107.675781 54.121094 C 111.75 53.316406 117.132812 49.84375 119.832031 46.402344 C 118.933594 46.402344 118.070312 46.402344 117.207031 46.402344 C 123.230469 43.722656 125.597656 38.625 126.546875 32.597656 Z M 59.441406 71.757812 C 60.007812 68.023438 59.980469 64.542969 57.238281 61.789062 C 54.210938 58.75 52.792969 55.085938 52.308594 50.941406 C 52.253906 50.496094 52.070312 50.066406 51.902344 49.480469 C 49.8125 52.234375 49.535156 53.203125 49.882812 56.714844 C 48.808594 55.664062 47.960938 54.832031 47.113281 53.996094 C 47.046875 54.035156 46.980469 54.070312 46.914062 54.109375 C 47.324219 55.007812 47.734375 55.910156 48.144531 56.808594 C 47.5625 56.898438 47.035156 56.976562 46.234375 57.097656 C 47.550781 58.15625 48.625 59.019531 49.828125 59.988281 C 46.898438 60.230469 46.421875 60.742188 46.5625 63.363281 C 46.847656 63.195312 47.089844 63.058594 47.324219 62.910156 C 49.304688 61.664062 50.148438 61.679688 51.980469 63.15625 C 52.851562 63.863281 53.707031 64.621094 54.425781 65.480469 C 56.097656 67.472656 57.679688 69.539062 59.441406 71.757812 Z M 100.398438 63.417969 C 100.722656 62.273438 100.589844 61.261719 99.722656 60.667969 C 99.019531 60.1875 98.085938 60.054688 97.21875 59.753906 C 98.3125 58.894531 99.347656 58.082031 100.65625 57.054688 C 99.722656 56.945312 99.1875 56.878906 98.625 56.8125 C 98.863281 55.921875 99.851562 55.414062 99.453125 54.296875 C 98.980469 54.804688 98.648438 55.214844 98.257812 55.558594 C 97.921875 55.859375 97.515625 56.078125 97.011719 56.417969 C 97.421875 53.792969 96.996094 51.59375 94.65625 49.464844 C 94.421875 54.65625 92.378906 58.871094 88.929688 62.636719 C 86.664062 65.117188 86.828125 68.414062 87.523438 71.96875 C 88.117188 71.078125 88.464844 70.425781 88.929688 69.878906 C 90.863281 67.59375 92.71875 65.230469 94.816406 63.105469 C 96.382812 61.519531 97.582031 61.59375 99.464844 62.769531 C 99.769531 62.960938 100.050781 63.175781 100.398438 63.417969 Z M 59.863281 115.042969 C 61.609375 120.664062 64.847656 124.910156 70.734375 126.46875 C 72.269531 126.875 74.039062 126.902344 75.601562 126.601562 C 81.1875 125.527344 84.578125 121.796875 86.757812 116.78125 C 86.964844 116.308594 87.046875 115.78125 87.058594 115.738281 C 86.40625 116.246094 85.457031 116.871094 84.648438 117.648438 C 82 120.1875 78.980469 122.054688 75.445312 123.097656 C 74.027344 123.511719 72.683594 123.488281 71.277344 123.050781 C 68.507812 122.191406 66.015625 120.859375 63.878906 118.90625 C 62.507812 117.652344 61.199219 116.332031 59.863281 115.042969 Z M 92.199219 68.636719 C 90.8125 69.96875 90.105469 71.53125 90.261719 73.316406 C 90.523438 76.253906 90.875 79.171875 89.96875 82.121094 C 90.722656 81.113281 91.394531 80.082031 91.597656 78.960938 C 92.152344 75.902344 93.582031 73.882812 96.726562 72.886719 C 99.03125 72.160156 99.664062 70.542969 99.378906 68.007812 C 97.167969 70.546875 94.695312 69.824219 92.199219 68.636719 Z M 54.703125 68.609375 C 52.28125 70.15625 49.867188 70.425781 47.539062 68.03125 C 47.492188 68.628906 47.421875 68.925781 47.457031 69.207031 C 47.742188 71.285156 49.015625 72.609375 50.914062 73.21875 C 53.140625 73.9375 54.417969 75.347656 54.898438 77.601562 C 55.070312 78.398438 55.339844 79.1875 55.664062 79.9375 C 55.996094 80.695312 56.453125 81.402344 56.855469 82.132812 C 56.28125 79.378906 56.308594 76.742188 56.699219 74.050781 C 56.992188 72.019531 56.222656 70.257812 54.703125 68.609375 Z M 55.632812 103.285156 C 55.359375 102.617188 55.113281 101.933594 54.804688 101.277344 C 53.746094 99.042969 52.71875 96.785156 51.578125 94.59375 C 48.621094 88.898438 47.230469 82.96875 48.5 76.546875 C 48.75 75.273438 48.804688 73.910156 47.789062 72.375 C 47.402344 75.390625 47.097656 78.0625 46.71875 80.71875 C 46.261719 83.917969 46.6875 87.019531 47.792969 90.011719 C 49.589844 94.890625 52.628906 99.066406 55.632812 103.285156 Z M 91.867188 102.242188 C 92.058594 102.3125 92.25 102.382812 92.441406 102.453125 C 94.144531 99.558594 95.917969 96.699219 97.535156 93.753906 C 100.109375 89.082031 101.140625 84.121094 100.105469 78.800781 C 99.710938 76.777344 99.511719 74.714844 99.171875 72.304688 C 98.191406 74.003906 98.292969 75.414062 98.546875 76.8125 C 99.332031 81.179688 99.21875 85.488281 97.523438 89.625 C 96.191406 92.878906 94.660156 96.050781 93.214844 99.257812 C 92.769531 100.25 92.316406 101.246094 91.867188 102.242188 Z M 65.738281 31.140625 C 69.027344 31.523438 71.414062 33.242188 73.550781 35.558594 C 75.34375 33.488281 77.347656 31.890625 79.914062 31.394531 C 81.386719 31.113281 81.695312 30.339844 81.71875 28.929688 C 78.296875 28.851562 75.839844 30.777344 73.421875 32.710938 C 70.984375 30.617188 68.4375 29.109375 65.054688 29.003906 C 65.324219 29.851562 65.503906 30.414062 65.738281 31.140625 Z M 52.851562 81.964844 C 52.753906 84.375 56.148438 98.566406 57.167969 100.210938 C 58.050781 96.566406 57.878906 93.058594 56.324219 89.648438 C 55.207031 87.207031 54.109375 84.753906 52.851562 81.964844 Z M 37.785156 18.097656 C 38.234375 18.421875 38.558594 18.652344 38.734375 18.78125 C 40.121094 17.691406 41.25 16.535156 42.609375 15.8125 C 44.03125 15.054688 45.644531 14.542969 47.234375 14.238281 C 48.6875 13.960938 50.222656 14.105469 51.871094 14.0625 C 50.539062 12.058594 48.945312 11.496094 46.886719 11.777344 C 42.867188 12.328125 40.035156 14.539062 37.785156 18.097656 Z M 93.957031 82.324219 C 92.960938 84.578125 92.015625 86.859375 90.945312 89.078125 C 89.210938 92.683594 88.859375 96.386719 90.066406 100.28125 C 91.53125 94.304688 93.253906 88.390625 93.957031 82.324219 Z M 109.109375 17.976562 C 106.582031 14.136719 103.421875 11.785156 98.851562 11.714844 C 97.085938 11.6875 96.019531 12.546875 95.109375 14.257812 C 100.359375 13.636719 104.765625 14.738281 108.070312 18.925781 C 108.460938 18.570312 108.71875 18.335938 109.109375 17.976562 Z M 104.078125 23.71875 C 105.128906 23.042969 105.113281 22.476562 104.46875 21.757812 C 102.050781 19.050781 99.027344 17.503906 95.433594 17.316406 C 93.558594 17.21875 91.730469 17.722656 90.300781 19.367188 C 95.59375 18.792969 100.253906 19.832031 104.078125 23.71875 Z M 56.683594 19.121094 C 55.871094 18.65625 55.101562 18.078125 54.234375 17.75 C 49.90625 16.117188 44.496094 19.070312 42.3125 22.042969 C 41.660156 22.929688 42.226562 23.332031 42.972656 23.722656 C 46.707031 19.601562 51.429688 18.828125 56.683594 19.121094 Z M 57.964844 23.828125 C 57.445312 21.898438 57.421875 21.6875 55.949219 21.851562 C 54.042969 22.058594 52.132812 22.507812 50.308594 23.101562 C 48.722656 23.617188 47.394531 24.652344 46.523438 26.222656 C 50.039062 24.234375 53.714844 23.25 57.964844 23.828125 Z M 100.371094 26.386719 C 100.390625 26.097656 100.484375 25.847656 100.40625 25.765625 C 97.839844 23.039062 94.617188 21.851562 90.933594 21.808594 C 89.71875 21.792969 88.957031 22.296875 89.117188 23.808594 C 93.15625 23.160156 96.84375 24.160156 100.371094 26.386719 Z M 30.777344 11.417969 C 33.03125 8.460938 35.949219 6.476562 39.476562 5.152344 C 38.304688 4.761719 36.898438 4.125 36.089844 4.570312 C 33.429688 6.035156 31.589844 8.355469 30.777344 11.417969 Z M 112.011719 3.949219 C 115.257812 5.6875 116.902344 8.488281 118.9375 11.226562 C 118.773438 8.972656 118.082031 7.140625 116.824219 5.390625 C 115.1875 3.113281 115.1875 3.113281 112.011719 3.949219 Z M 28.101562 11.070312 C 30.011719 8.417969 31.835938 5.707031 35.214844 3.75 C 33.625 3.792969 32.613281 2.808594 31.570312 3.820312 C 29.546875 5.796875 28.269531 8.148438 28.101562 11.070312 Z M 116.171875 11.261719 C 115.449219 8.71875 113.921875 6.761719 111.964844 5.125 C 110.617188 3.996094 109.542969 4.097656 107.6875 5.4375 C 111.199219 6.410156 113.960938 8.410156 116.171875 11.261719 Z M 51.164062 35.371094 C 52.601562 34.429688 53.910156 33.472656 55.3125 32.683594 C 56.71875 31.894531 58.214844 31.269531 60.09375 30.367188 C 55.757812 30.125 52.835938 31.851562 51.164062 35.371094 Z M 87.285156 30.382812 C 90.113281 31.902344 92.796875 33.34375 95.59375 34.847656 C 93.878906 31.589844 90.785156 29.941406 87.285156 30.382812 Z M 88.691406 27.273438 C 92.421875 26.886719 95.023438 28.523438 97.574219 30.300781 C 94.914062 26.5625 91.984375 25.472656 88.691406 27.273438 Z M 50.195312 29.890625 C 52.539062 28.027344 55.199219 27.09375 58.4375 27.164062 C 55.34375 25.527344 51.824219 26.726562 50.195312 29.890625 Z M 100.804688 45.144531 C 101.652344 43.453125 102.503906 41.761719 103.542969 39.6875 C 101.140625 41.058594 100.601562 42.914062 100.804688 45.144531 Z M 43.664062 39.703125 C 44.625 41.847656 45.417969 43.621094 46.371094 45.75 C 46.441406 43.183594 45.96875 41.269531 43.664062 39.703125 Z M 52.4375 65.203125 C 51.878906 64.777344 51.535156 64.355469 51.117188 64.261719 C 50.90625 64.214844 50.277344 64.902344 50.335938 65.035156 C 50.515625 65.433594 50.886719 65.855469 51.28125 65.996094 C 51.492188 66.070312 51.902344 65.585938 52.4375 65.203125 Z M 95.761719 63.957031 C 95.351562 64.5 94.976562 64.855469 94.824219 65.289062 C 94.78125 65.40625 95.414062 65.761719 95.734375 66.007812 C 96.011719 65.640625 96.375 65.304688 96.515625 64.890625 C 96.570312 64.726562 96.128906 64.394531 95.761719 63.957031 Z M 95.761719 63.957031 " fill-opacity="1" fill-rule="nonzero"/><g clip-path="url(#bb31728cb3)"><g clip-path="url(#aeb8f83a0b)"><path fill="#00bf63" d="M 47.78125 97.054688 L 54.535156 97.054688 L 54.535156 103.578125 L 47.78125 103.578125 Z M 47.78125 97.054688 " fill-opacity="1" fill-rule="nonzero"/></g></g></svg>