<svg xmlns="http://www.w3.org/2000/svg" xmlns:xlink="http://www.w3.org/1999/xlink" width="176" zoomAndPan="magnify" viewBox="0 0 132 149.999998" height="200" preserveAspectRatio="xMidYMid meet" version="1.0"><defs><clipPath id="b2dfe8f61e"><path d="M 111 0 L 131.25 0 L 131.25 28 L 111 28 Z M 111 0 " clip-rule="nonzero"/></clipPath><clipPath id="d4ea834c08"><path d="M 103 33 L 131.25 33 L 131.25 51 L 103 51 Z M 103 33 " clip-rule="nonzero"/></clipPath><clipPath id="0179b90ee3"><path d="M 51.402344 123.949219 L 51.757812 123.949219 L 51.757812 124.230469 L 51.402344 124.230469 Z M 51.402344 123.949219 " clip-rule="nonzero"/></clipPath><clipPath id="993b127fde"><path d="M 51.738281 124.117188 C 51.0625 124.417969 51.664062 123.964844 51.664062 123.964844 " clip-rule="nonzero"/></clipPath></defs><path fill="#00bf63" d="M 108.179688 37.144531 C 93.996094 69.417969 72.457031 96.054688 45.382812 118.398438 C 29.199219 131.757812 6.214844 145.230469 0.0625 146.121094 C 1.191406 145.34375 2.308594 144.539062 3.457031 143.789062 C 9.8125 139.625 16.28125 135.621094 22.519531 131.289062 C 38.925781 119.910156 54.074219 107.03125 67.53125 92.257812 C 79.945312 78.628906 91.3125 64.160156 101.332031 48.664062 C 103.753906 44.914062 105.902344 40.988281 108.179688 37.144531 Z M 108.179688 37.144531 " fill-opacity="1" fill-rule="nonzero"/><path fill="#00bf63" d="M 58.21875 65.972656 C 57.921875 67.191406 57.675781 68.40625 57.320312 69.605469 C 56.46875 72.480469 56.121094 75.40625 56.035156 78.402344 C 55.90625 83.082031 55.945312 87.777344 54.933594 92.40625 C 53.535156 98.796875 50.421875 104.160156 45.679688 108.628906 C 45.03125 109.238281 44.414062 109.640625 43.507812 109.351562 C 42.519531 109.03125 42.402344 108.234375 42.421875 107.382812 C 42.5625 101.503906 42.605469 95.625 42.910156 89.757812 C 43.070312 86.664062 44.320312 83.839844 46.117188 81.296875 C 48.109375 78.472656 50.511719 76.050781 53.324219 74.039062 C 54.226562 73.394531 54.742188 72.65625 55.121094 71.628906 C 55.851562 69.636719 56.773438 67.710938 57.617188 65.757812 Z M 58.21875 65.972656 " fill-opacity="1" fill-rule="nonzero"/><path fill="#00bf63" d="M 108.394531 76.972656 C 107.789062 77.609375 107.214844 78.273438 106.585938 78.882812 C 102.941406 82.402344 99.324219 85.941406 95.628906 89.410156 C 92.300781 92.558594 88.582031 95.136719 84.472656 97.152344 C 81.003906 98.832031 77.324219 99.6875 73.5 99.929688 C 72.871094 99.972656 72.117188 99.902344 71.605469 99.585938 C 70.683594 99.015625 70.539062 97.835938 71.257812 96.867188 C 74.859375 92.003906 78.710938 87.371094 83.675781 83.796875 C 87.867188 80.777344 92.648438 80.203125 97.542969 81.003906 C 100.175781 81.433594 102.25 81.175781 104.195312 79.261719 C 105.28125 78.1875 106.722656 77.46875 108 76.59375 Z M 108.394531 76.972656 " fill-opacity="1" fill-rule="nonzero"/><path fill="#00bf63" d="M 38.6875 82.703125 C 38.703125 82.921875 38.765625 83.152344 38.71875 83.359375 C 37.703125 87.691406 37.988281 92.066406 38.148438 96.457031 C 38.332031 101.449219 38.050781 106.425781 36.5 111.242188 C 35.128906 115.511719 32.796875 119.179688 29.578125 122.285156 C 28.375 123.449219 27.53125 123.328125 27.1875 121.824219 C 25.816406 115.859375 24.71875 109.863281 26.089844 103.726562 C 27.332031 98.167969 30.742188 93.984375 34.796875 90.265625 C 35.792969 89.355469 36.363281 88.421875 36.679688 87.140625 C 37.0625 85.585938 37.695312 84.097656 38.21875 82.574219 Z M 38.6875 82.703125 " fill-opacity="1" fill-rule="nonzero"/><path fill="#00bf63" d="M 92.222656 102.96875 C 91.734375 103.40625 91.289062 103.910156 90.746094 104.269531 C 86.105469 107.339844 81.730469 110.800781 76.800781 113.445312 C 70.066406 117.058594 62.964844 118.765625 55.3125 117.988281 C 54.132812 117.867188 52.933594 117.96875 51.746094 117.878906 C 50.445312 117.777344 49.964844 116.789062 50.640625 115.6875 C 50.847656 115.375 51.089844 115.09375 51.371094 114.851562 C 54.628906 111.890625 58.042969 109.160156 61.992188 107.140625 C 68.210938 103.960938 74.597656 103.960938 81.039062 106.175781 C 82.6875 106.742188 83.980469 106.609375 85.441406 105.808594 C 87.578125 104.644531 89.792969 103.632812 91.972656 102.554688 Z M 92.222656 102.96875 " fill-opacity="1" fill-rule="nonzero"/><path fill="#00bf63" d="M 76.773438 51.203125 C 76.585938 51.742188 76.4375 52.304688 76.199219 52.824219 C 74.71875 56.058594 74.105469 59.449219 74.074219 63 C 74.035156 67.472656 73.710938 71.921875 72.371094 76.238281 C 71.039062 80.53125 69.195312 84.585938 66.65625 88.292969 C 65.800781 89.511719 64.839844 90.644531 63.773438 91.6875 C 63.375 92.085938 62.511719 92.425781 62.070312 92.253906 C 61.628906 92.085938 61.230469 91.242188 61.21875 90.683594 C 61.113281 86.59375 61.023438 82.496094 61.113281 78.40625 C 61.171875 76.394531 61.433594 74.410156 61.894531 72.449219 C 63.269531 66.535156 66.714844 61.964844 71.484375 58.34375 C 72.351562 57.6875 72.917969 56.925781 73.398438 55.972656 C 74.25 54.269531 75.261719 52.632812 76.207031 50.96875 Z M 76.773438 51.203125 " fill-opacity="1" fill-rule="nonzero"/><path fill="#00bf63" d="M 71.28125 121.402344 C 70.578125 121.929688 69.917969 122.539062 69.15625 122.964844 C 64.625 125.492188 60.203125 128.210938 55.386719 130.214844 C 48.8125 132.949219 42.195312 132.714844 35.511719 130.84375 C 34 130.421875 33.710938 129.382812 34.828125 128.183594 C 38.113281 124.667969 42.058594 122.28125 46.863281 121.453125 C 49.46875 121.003906 52.042969 121.203125 54.59375 121.851562 C 55.457031 122.070312 56.390625 122.164062 57.167969 122.5625 C 61.101562 124.566406 64.859375 124.070312 68.582031 121.996094 C 69.339844 121.574219 70.199219 121.339844 71.007812 121.015625 Z M 71.28125 121.402344 " fill-opacity="1" fill-rule="nonzero"/><path fill="#00bf63" d="M 1.054688 149.710938 C 1.851562 149.222656 2.636719 148.703125 3.453125 148.234375 C 8.96875 145.078125 14.679688 142.433594 21.023438 141.390625 C 25.007812 140.726562 29.007812 140.570312 33.03125 140.925781 C 37.035156 141.277344 41.035156 141.679688 45.042969 141.910156 C 52.433594 142.34375 59.582031 141.226562 66.488281 138.554688 C 67.585938 138.125 68.714844 137.785156 69.867188 137.539062 C 64.0625 141.847656 57.953125 145.503906 50.738281 146.914062 C 45.078125 148.023438 39.5 147.472656 33.9375 146.191406 C 30.679688 145.441406 27.40625 144.710938 24.101562 144.234375 C 18.320312 143.398438 12.878906 144.761719 7.660156 147.21875 C 5.777344 148.101562 3.867188 148.9375 1.964844 149.78125 C 1.714844 149.875 1.453125 149.945312 1.191406 149.996094 C 1.140625 149.902344 1.097656 149.804688 1.054688 149.710938 Z M 1.054688 149.710938 " fill-opacity="1" fill-rule="nonzero"/><path fill="#00bf63" d="M 121.507812 54.792969 C 121.207031 55.273438 121.140625 55.496094 120.980469 55.621094 C 117.582031 58.34375 114.859375 61.707031 112.132812 65.046875 C 107.054688 71.265625 100.410156 74.503906 92.621094 75.691406 C 92.253906 75.746094 91.878906 75.832031 91.515625 75.8125 C 90.683594 75.761719 90.296875 75.25 90.453125 74.460938 C 90.5625 73.945312 90.773438 73.472656 91.085938 73.046875 C 93.230469 70.191406 95.277344 67.253906 97.597656 64.550781 C 101.703125 59.757812 107.195312 58.238281 113.285156 58.609375 C 114.671875 58.695312 115.679688 58.382812 116.722656 57.542969 C 118.074219 56.449219 119.503906 55.410156 121.507812 54.792969 Z M 121.507812 54.792969 " fill-opacity="1" fill-rule="nonzero"/><path fill="#00bf63" d="M 94.171875 34.617188 C 93.683594 36.238281 93.277344 37.890625 92.699219 39.476562 C 92.046875 41.265625 91.847656 43.070312 91.917969 44.957031 C 92.089844 49.070312 91.882812 53.148438 90.617188 57.113281 C 89.121094 61.816406 86.742188 65.960938 83.050781 69.308594 C 82.457031 69.847656 81.859375 70.449219 81.152344 69.972656 C 80.726562 69.6875 80.519531 68.878906 80.453125 68.277344 C 80.046875 64.566406 79.914062 60.859375 80.367188 57.128906 C 80.773438 53.796875 81.746094 50.707031 83.886719 48.097656 C 85.492188 46.152344 87.195312 44.261719 88.984375 42.472656 C 89.941406 41.53125 90.683594 40.4375 91.207031 39.203125 C 91.921875 37.535156 92.632812 35.851562 94.171875 34.617188 Z M 94.171875 34.617188 " fill-opacity="1" fill-rule="nonzero"/><g clip-path="url(#b2dfe8f61e)"><path fill="#00bf63" d="M 131.375 0.164062 C 131.027344 0.957031 130.714844 1.769531 130.324219 2.542969 C 128.832031 5.488281 127.726562 8.550781 127.402344 11.855469 C 126.632812 19.625 121.722656 24.183594 115.246094 27.484375 C 113.402344 28.425781 112.566406 27.851562 112.113281 25.875 C 111.050781 21.296875 112.304688 17.515625 115.753906 14.378906 C 119.003906 11.421875 122.003906 8.136719 125.53125 5.566406 C 127.507812 4.121094 128.929688 2.40625 130.394531 0.601562 C 130.59375 0.386719 130.804688 0.1875 131.03125 0 Z M 131.375 0.164062 " fill-opacity="1" fill-rule="nonzero"/></g><path fill="#00bf63" d="M 108.429688 15.054688 C 108.300781 16.144531 108.230469 16.710938 108.164062 17.28125 C 107.746094 20.898438 107.34375 24.5 107.582031 28.175781 C 107.902344 33.164062 106.402344 37.742188 103.671875 41.898438 C 102.445312 43.761719 101.125 45.570312 99.773438 47.34375 C 99.410156 47.816406 98.597656 48.460938 98.273438 48.328125 C 97.691406 48.09375 97.066406 47.390625 96.914062 46.773438 C 95.699219 41.820312 95.476562 36.898438 97.902344 32.183594 C 99.664062 28.765625 102.191406 25.921875 104.871094 23.226562 C 105.507812 22.609375 105.945312 21.875 106.171875 21.019531 C 106.636719 19.375 107.148438 17.742188 107.660156 16.113281 C 107.730469 15.875 107.960938 15.683594 108.429688 15.054688 Z M 108.429688 15.054688 " fill-opacity="1" fill-rule="nonzero"/><g clip-path="url(#d4ea834c08)"><path fill="#00bf63" d="M 131.058594 33.695312 C 130.410156 34.300781 130.148438 34.660156 129.796875 34.851562 C 127.199219 36.273438 125.386719 38.519531 123.441406 40.664062 C 121.699219 42.601562 119.839844 44.410156 117.855469 46.09375 C 114.359375 49.035156 110.1875 50.230469 105.660156 50.273438 C 103.570312 50.292969 103 49.433594 104.105469 47.703125 C 105.539062 45.449219 107.019531 43.195312 108.742188 41.167969 C 111.535156 37.882812 115.328125 36.453125 119.550781 36.066406 C 119.699219 36.046875 119.847656 36.039062 119.996094 36.042969 C 123.40625 36.390625 126.617188 35.8125 129.585938 34.027344 C 129.867188 33.855469 130.257812 33.867188 131.058594 33.695312 Z M 131.058594 33.695312 " fill-opacity="1" fill-rule="nonzero"/></g><path fill="#00bf63" d="M 20.871094 100.417969 C 20.75 100.75 20.609375 101.070312 20.445312 101.382812 C 17.128906 107.078125 15.625 113.324219 14.539062 119.757812 C 13.960938 123.179688 12.921875 126.546875 11.847656 129.859375 C 10.628906 133.613281 8.355469 136.746094 5.394531 139.355469 C 3.902344 140.675781 2.402344 141.988281 0.675781 143.113281 C 1.070312 142.539062 1.4375 141.9375 1.871094 141.394531 C 6.164062 136 8.398438 129.808594 9.359375 123.027344 C 9.835938 119.558594 10.597656 116.15625 11.636719 112.816406 C 13.253906 107.71875 16.753906 103.820312 20.871094 100.417969 Z M 20.871094 100.417969 " fill-opacity="1" fill-rule="nonzero"/><g clip-path="url(#0179b90ee3)"><g clip-path="url(#993b127fde)"><path fill="#00bf63" d="M 48.0625 120.964844 L 54.816406 120.964844 L 54.816406 127.492188 L 48.0625 127.492188 Z M 48.0625 120.964844 " fill-opacity="1" fill-rule="nonzero"/></g></g></svg>