<svg xmlns="http://www.w3.org/2000/svg" xmlns:xlink="http://www.w3.org/1999/xlink" width="200" zoomAndPan="magnify" viewBox="0 0 150 107.249998" height="143" preserveAspectRatio="xMidYMid meet" version="1.0"><defs><clipPath id="792dfb818e"><path d="M 0.519531 0 L 149 0 L 149 106.503906 L 0.519531 106.503906 Z M 0.519531 0 " clip-rule="nonzero"/></clipPath><clipPath id="ef38d2fe22"><path d="M 59.417969 98.652344 L 59.796875 98.652344 L 59.796875 98.929688 L 59.417969 98.929688 Z M 59.417969 98.652344 " clip-rule="nonzero"/></clipPath><clipPath id="340a62ca3c"><path d="M 59.777344 98.816406 C 59.03125 99.117188 59.703125 98.667969 59.703125 98.667969 " clip-rule="nonzero"/></clipPath></defs><g clip-path="url(#792dfb818e)"><path fill="#00bf63" d="M 147.476562 9.210938 C 146.683594 8.109375 145.558594 7.308594 144.273438 6.914062 C 144.304688 5.558594 143.902344 4.226562 143.109375 3.121094 C 142.128906 1.757812 140.683594 0.863281 139.035156 0.601562 C 137.394531 0.351562 135.757812 0.746094 134.417969 1.734375 C 132.144531 3.410156 131.320312 6.421875 132.28125 9.007812 L 123.546875 15.449219 C 122.554688 14.328125 121.273438 13.554688 119.910156 13.339844 C 118.632812 13.140625 117.390625 13.421875 116.40625 14.144531 L 113.765625 16.09375 C 112.800781 16.804688 111.714844 17.347656 110.546875 17.757812 C 102.558594 9.351562 89.410156 3.816406 72.125 1.648438 C 58.773438 -0.0273438 48.109375 2.5625 40.421875 9.34375 C 32.410156 16.414062 27.996094 28.015625 27.996094 42.015625 C 27.996094 42.789062 28.019531 43.515625 28.046875 44.234375 C 12.050781 48.078125 4.894531 56.179688 1.980469 60.90625 C 1.109375 62.316406 0.640625 63.949219 0.578125 65.648438 C 0.570312 65.679688 0.574219 65.710938 0.570312 65.738281 C 0.570312 65.835938 0.550781 65.925781 0.550781 66.023438 L 0.550781 85.066406 C 0.550781 86.671875 0.859375 88.078125 1.472656 89.246094 C 6.171875 98.222656 26.816406 105.636719 42.132812 106.273438 C 42.84375 106.304688 43.578125 106.320312 44.324219 106.320312 C 50.46875 106.320312 57.558594 105.175781 60.5625 100.441406 C 68.015625 88.691406 78.554688 87.828125 78.710938 87.816406 C 88.273438 86.824219 95.308594 84.78125 99.617188 81.746094 C 102.109375 79.992188 103.585938 77.03125 103.5625 73.816406 C 103.542969 71.148438 103.402344 66.753906 102.84375 62.242188 C 107.699219 61.398438 111.125 59.6875 113.644531 56.34375 C 116.59375 53.460938 118.644531 49.707031 119.457031 45.398438 C 119.574219 44.78125 119.667969 44.152344 119.738281 43.523438 C 120.289062 38.640625 122.324219 34.671875 125.476562 32.351562 L 128.113281 30.40625 C 129.875 29.109375 130.40625 26.679688 129.652344 24.40625 L 138.605469 17.808594 C 140.75 19.527344 143.832031 19.65625 146.109375 17.976562 C 148.871094 15.941406 149.484375 12.007812 147.476562 9.210938 Z M 4.230469 62.296875 C 7.132812 57.59375 17.859375 44.785156 48.304688 44.785156 C 55.667969 44.785156 64.1875 45.535156 74.023438 47.328125 C 74.28125 47.378906 74.539062 47.414062 74.796875 47.4375 C 83.269531 48.242188 97.957031 51.183594 99.300781 57.113281 C 99.359375 57.359375 99.402344 57.621094 99.453125 57.875 C 97.296875 59.976562 91.871094 63.222656 78.503906 64.613281 C 78.019531 64.644531 66.535156 65.519531 58.328125 78.441406 C 55.484375 82.929688 45.527344 84.3125 32.949219 81.957031 C 17.625 79.089844 4.65625 72.046875 3.21875 65.851562 C 3.25 64.570312 3.582031 63.34375 4.230469 62.296875 Z M 40.796875 42.351562 C 41.039062 40.449219 42.15625 34.871094 46.992188 34.089844 C 51.839844 33.308594 57.558594 27.335938 61.011719 23.183594 C 59.890625 29.90625 58.132812 37.203125 56.019531 42.382812 C 50.410156 42.011719 45.359375 42.03125 40.796875 42.351562 Z M 98.09375 79.582031 C 95.386719 81.488281 89.785156 84.007812 78.492188 85.183594 C 78.007812 85.214844 66.535156 86.085938 58.328125 99.023438 C 56.226562 102.339844 50.511719 103.96875 42.242188 103.632812 C 26.347656 102.972656 7.671875 95.382812 3.816406 88.019531 C 3.40625 87.234375 3.199219 86.242188 3.199219 85.066406 L 3.199219 71.132812 C 8.546875 77.363281 20.828125 82.382812 32.464844 84.558594 C 36.765625 85.363281 40.734375 85.757812 44.269531 85.757812 C 52.296875 85.757812 58.109375 83.726562 60.5625 79.859375 C 68.015625 68.121094 78.570312 67.257812 78.726562 67.25 C 90.488281 66.027344 96.703125 63.371094 99.988281 60.886719 C 100.726562 65.824219 100.898438 70.898438 100.917969 73.835938 C 100.933594 76.179688 99.878906 78.328125 98.09375 79.582031 Z M 126.542969 28.277344 L 123.90625 30.222656 C 120.15625 32.984375 117.742188 37.605469 117.109375 43.226562 C 117.046875 43.792969 116.960938 44.351562 116.859375 44.910156 C 115.472656 52.265625 109.949219 57.777344 102.425781 59.351562 C 102.363281 58.972656 102.292969 58.601562 102.222656 58.226562 C 102.21875 58.125 102.1875 58.023438 102.160156 57.921875 C 102.070312 57.457031 101.984375 56.984375 101.882812 56.527344 C 99.988281 48.171875 82.371094 45.566406 75.835938 44.882812 C 75.5625 44.855469 75.277344 44.824219 75.046875 44.804688 C 74.863281 44.785156 74.683594 44.761719 74.5 44.730469 C 68.863281 43.699219 63.664062 43.019531 58.828125 42.601562 C 62.253906 33.964844 63.933594 22.007812 64.363281 18.570312 C 64.4375 17.96875 64.09375 17.390625 63.527344 17.171875 C 62.964844 16.953125 62.320312 17.148438 61.96875 17.640625 C 59.449219 21.207031 51.773438 30.640625 46.574219 31.480469 C 40.457031 32.46875 38 39.464844 37.714844 42.628906 C 35.222656 42.890625 32.855469 43.226562 30.675781 43.660156 C 30.660156 43.121094 30.640625 42.589844 30.640625 42.015625 C 30.640625 28.785156 34.738281 17.886719 42.171875 11.324219 C 49.261719 5.066406 59.226562 2.695312 71.796875 4.273438 C 87.410156 6.230469 99.785156 11.203125 107.464844 18.460938 C 105.609375 18.679688 103.617188 18.601562 101.542969 18.179688 C 95.242188 16.882812 88.792969 18.105469 84.386719 21.363281 C 84.207031 21.46875 79.90625 24.074219 76.679688 30.425781 C 76.347656 31.074219 76.609375 31.871094 77.257812 32.203125 C 77.390625 32.269531 77.53125 32.296875 77.667969 32.316406 C 78.214844 32.394531 78.773438 32.140625 79.035156 31.621094 C 81.894531 26 85.703125 23.65625 85.847656 23.5625 C 89.769531 20.671875 95.445312 19.628906 101.011719 20.769531 C 106.496094 21.894531 111.582031 20.988281 115.335938 18.21875 L 117.976562 16.277344 C 118.496094 15.890625 119.089844 15.890625 119.496094 15.953125 C 120.382812 16.09375 121.246094 16.667969 121.863281 17.527344 L 122.203125 18 C 122.210938 18.015625 122.214844 18.03125 122.222656 18.042969 L 126.605469 24.15625 C 127.625 25.621094 127.605469 27.496094 126.542969 28.277344 Z M 144.539062 15.847656 C 143.046875 16.945312 140.9375 16.675781 139.738281 15.230469 C 139.292969 14.695312 138.503906 14.597656 137.9375 15.011719 L 128.363281 22.070312 L 125.132812 17.5625 L 134.734375 10.488281 C 135.285156 10.078125 135.433594 9.316406 135.074219 8.730469 C 134.078125 7.113281 134.476562 4.972656 135.988281 3.863281 C 136.75 3.296875 137.6875 3.074219 138.625 3.214844 C 139.566406 3.367188 140.394531 3.878906 140.960938 4.664062 C 141.570312 5.515625 141.777344 6.613281 141.523438 7.667969 C 141.433594 8.046875 141.511719 8.445312 141.738281 8.757812 C 141.96875 9.070312 142.324219 9.265625 142.710938 9.296875 C 143.765625 9.375 144.722656 9.90625 145.328125 10.753906 C 146.496094 12.378906 146.140625 14.664062 144.539062 15.847656 Z M 144.539062 15.847656 " fill-opacity="1" fill-rule="nonzero"/></g><path fill="#00bf63" d="M 34.628906 72.664062 C 39.886719 72.664062 44.164062 69.140625 44.164062 64.804688 C 44.164062 60.46875 39.886719 56.941406 34.628906 56.941406 C 29.375 56.941406 25.09375 60.46875 25.09375 64.804688 C 25.09375 69.140625 29.375 72.664062 34.628906 72.664062 Z M 34.628906 59.585938 C 38.429688 59.585938 41.519531 61.929688 41.519531 64.804688 C 41.519531 67.679688 38.429688 70.019531 34.628906 70.019531 C 30.832031 70.019531 27.742188 67.679688 27.742188 64.804688 C 27.742188 61.929688 30.832031 59.585938 34.628906 59.585938 Z M 34.628906 59.585938 " fill-opacity="1" fill-rule="nonzero"/><g clip-path="url(#ef38d2fe22)"><g clip-path="url(#340a62ca3c)"><path fill="#00bf63" d="M 56.125 95.691406 L 62.835938 95.691406 L 62.835938 102.167969 L 56.125 102.167969 Z M 56.125 95.691406 " fill-opacity="1" fill-rule="nonzero"/></g></g></svg>