<svg xmlns="http://www.w3.org/2000/svg" xmlns:xlink="http://www.w3.org/1999/xlink" width="200" zoomAndPan="magnify" viewBox="0 0 150 149.999998" height="200" preserveAspectRatio="xMidYMid meet" version="1.0"><defs><clipPath id="04e9ac998a"><path d="M 99.1875 91.40625 L 99.546875 91.40625 L 99.546875 91.6875 L 99.1875 91.6875 Z M 99.1875 91.40625 " clip-rule="nonzero"/></clipPath><clipPath id="3fc028a144"><path d="M 99.523438 91.574219 C 98.851562 91.875 99.449219 91.425781 99.449219 91.425781 " clip-rule="nonzero"/></clipPath><clipPath id="fc233ea980"><path d="M 88.164062 49.855469 L 88.519531 49.855469 L 88.519531 50.136719 L 88.164062 50.136719 Z M 88.164062 49.855469 " clip-rule="nonzero"/></clipPath><clipPath id="ff3ca4516c"><path d="M 88.5 50.023438 C 87.824219 50.324219 88.425781 49.875 88.425781 49.875 " clip-rule="nonzero"/></clipPath></defs><g clip-path="url(#04e9ac998a)"><g clip-path="url(#3fc028a144)"><path fill="#00bf63" d="M 95.851562 88.425781 L 102.605469 88.425781 L 102.605469 94.949219 L 95.851562 94.949219 Z M 95.851562 88.425781 " fill-opacity="1" fill-rule="nonzero"/></g></g><path fill="#00bf63" d="M 148.695312 62.234375 C 150 58.433594 149.761719 55.820312 148.101562 54.511719 C 146.910156 53.5625 142.992188 54.039062 139.90625 54.511719 C 135.867188 55.226562 131.710938 56.292969 129.214844 57.480469 C 124.109375 59.738281 121.378906 62.828125 120.902344 63.777344 C 120.785156 63.894531 120.308594 64.726562 119.953125 65.796875 L 91.210938 130.046875 C 91.210938 130.046875 91.210938 130.046875 91.210938 130.167969 C 91.210938 130.285156 88.835938 137.171875 88.003906 139.785156 C 87.53125 141.210938 87.53125 142.28125 87.886719 142.992188 C 87.886719 142.992188 88.003906 143.113281 88.003906 143.113281 C 87.648438 144.773438 88.953125 146.082031 89.90625 146.792969 C 90.140625 147.863281 90.855469 149.40625 93.113281 149.882812 C 93.46875 150 93.824219 150 94.179688 150 C 95.722656 150 96.675781 149.289062 97.269531 148.574219 L 98.929688 148.457031 C 100.832031 148.335938 102.492188 147.03125 102.96875 146.554688 C 104.15625 146.199219 105.105469 145.25 105.582031 144.65625 C 106.175781 144.894531 107.007812 144.894531 107.957031 144.300781 C 108.667969 143.824219 109.027344 143.230469 109.261719 142.753906 C 109.859375 142.875 110.570312 142.753906 111.164062 142.28125 C 111.996094 141.566406 112.351562 140.5 112.46875 139.785156 C 112.707031 139.785156 113.0625 139.785156 113.300781 139.667969 C 113.777344 139.546875 113.777344 139.546875 119.121094 127.789062 C 122.089844 121.257812 126.246094 112.234375 130.640625 102.613281 C 138.835938 84.5625 147.386719 65.4375 148.21875 63.300781 C 148.457031 62.945312 148.574219 62.589844 148.695312 62.234375 Z M 129.808594 58.90625 C 135.390625 56.414062 145.84375 54.871094 147.148438 55.820312 C 148.335938 56.652344 148.21875 59.144531 146.910156 62.707031 C 146.910156 62.707031 146.910156 62.707031 146.910156 62.828125 C 145.605469 65.914062 141.6875 68.765625 141.6875 68.882812 C 141.566406 68.882812 141.566406 69.003906 141.566406 69.003906 C 139.90625 71.257812 137.765625 71.257812 137.648438 71.257812 C 137.292969 71.257812 137.054688 71.378906 136.9375 71.734375 C 136.105469 73.515625 133.371094 73.871094 133.371094 73.871094 C 133.136719 73.871094 132.898438 73.992188 132.777344 74.226562 C 131.828125 75.890625 129.214844 75.296875 129.214844 75.296875 C 128.980469 75.179688 128.742188 75.296875 128.503906 75.414062 C 128.386719 75.535156 127.195312 76.484375 125.773438 74.941406 C 125.652344 74.703125 125.414062 74.703125 125.179688 74.703125 C 123.398438 74.820312 123.160156 73.753906 123.160156 73.398438 C 123.160156 73.039062 122.804688 72.683594 122.445312 72.683594 C 122.210938 72.683594 122.210938 72.566406 122.089844 72.566406 C 121.734375 72.089844 121.972656 70.902344 122.210938 70.191406 C 122.328125 69.832031 122.210938 69.476562 121.851562 69.238281 C 121.613281 69.121094 121.496094 69.003906 121.496094 68.765625 C 121.378906 68.171875 121.496094 67.339844 121.734375 66.628906 L 122.566406 64.84375 C 122.566406 64.015625 125.058594 61.046875 129.808594 58.90625 Z M 89.546875 140.140625 C 90.378906 137.648438 92.519531 131.117188 92.753906 130.523438 L 119.953125 69.597656 C 120.070312 69.714844 120.191406 69.832031 120.191406 69.953125 C 120.070312 70.546875 119.953125 71.613281 120.191406 72.445312 L 89.191406 141.925781 C 89.191406 141.804688 89.191406 141.332031 89.546875 140.140625 Z M 89.667969 143.113281 C 89.785156 142.992188 89.785156 142.875 89.785156 142.753906 L 120.664062 73.398438 C 120.902344 73.632812 121.019531 73.753906 121.378906 73.871094 C 121.496094 74.226562 121.734375 74.820312 122.210938 75.296875 C 122.566406 75.652344 123.039062 75.890625 123.632812 76.007812 L 91.566406 146.675781 C 91.566406 146.554688 91.566406 146.4375 91.566406 146.4375 C 91.566406 146.199219 91.449219 145.84375 91.210938 145.722656 C 91.09375 145.605469 89.074219 144.417969 89.667969 143.113281 Z M 93.46875 148.335938 C 92.753906 148.21875 92.28125 147.863281 92.042969 147.507812 L 124.464844 76.128906 C 124.464844 76.128906 124.585938 76.128906 124.585938 76.128906 C 125.179688 76.722656 126.128906 77.316406 127.316406 77.316406 C 127.433594 77.316406 127.671875 77.316406 127.789062 77.316406 L 96.199219 147.386719 C 96.199219 147.386719 96.082031 147.386719 96.082031 147.507812 C 96.082031 147.386719 95.488281 148.695312 93.46875 148.335938 Z M 98.8125 146.792969 L 97.269531 146.910156 L 128.859375 76.839844 C 128.980469 76.839844 128.980469 76.722656 129.097656 76.722656 C 129.808594 76.839844 131.355469 76.960938 132.660156 76.246094 L 102.613281 144.894531 C 102.613281 144.894531 102.492188 144.894531 102.492188 144.894531 C 102.375 144.894531 102.257812 145.011719 102.136719 145.128906 C 102.019531 145.25 100.476562 146.675781 98.8125 146.792969 Z M 106.058594 142.992188 C 105.9375 142.753906 105.699219 142.753906 105.34375 142.753906 C 105.105469 142.753906 104.871094 142.875 104.75 143.113281 C 104.75 143.113281 104.277344 143.707031 103.683594 144.300781 L 133.730469 75.652344 C 133.730469 75.535156 133.730469 75.414062 133.730469 75.296875 C 134.203125 75.179688 135.15625 74.941406 135.984375 74.464844 L 107.601562 142.398438 C 107.480469 142.519531 107.363281 142.636719 107.125 142.875 C 106.414062 143.347656 106.175781 143.113281 106.058594 142.992188 Z M 111.164062 138.71875 C 111.164062 139.191406 110.925781 140.378906 110.214844 140.855469 C 109.859375 141.210938 109.5 140.972656 109.261719 140.855469 C 109.144531 140.738281 109.144531 140.738281 109.027344 140.738281 L 137.171875 73.515625 C 137.410156 73.277344 137.765625 72.921875 137.886719 72.566406 C 138.480469 72.445312 139.429688 72.328125 140.5 71.613281 L 111.757812 137.886719 C 111.519531 138.125 111.28125 138.359375 111.164062 138.71875 Z M 112.828125 138.125 C 112.828125 138.125 112.707031 138.125 112.828125 138.125 L 141.925781 70.785156 C 142.160156 70.546875 142.398438 70.308594 142.636719 69.953125 C 142.875 69.714844 143.585938 69.238281 144.300781 68.527344 C 136.816406 85.628906 115.082031 133.609375 112.828125 138.125 Z M 112.828125 138.125 " fill-opacity="1" fill-rule="nonzero"/><path fill="#00bf63" d="M 126.367188 72.566406 C 127.078125 72.921875 127.789062 73.039062 128.621094 73.039062 C 130.523438 73.039062 132.777344 72.210938 135.628906 70.664062 C 139.667969 68.410156 141.925781 66.390625 144.773438 62.46875 C 146.082031 60.6875 146.554688 59.144531 146.199219 57.839844 C 145.84375 56.652344 145.011719 56.175781 144.894531 56.175781 C 144.773438 56.175781 144.65625 56.058594 144.535156 56.058594 C 137.410156 56.652344 128.386719 59.382812 125.058594 63.539062 C 123.992188 64.84375 123.515625 66.269531 123.753906 67.695312 C 123.871094 70.308594 124.820312 71.851562 126.367188 72.566406 Z M 126.128906 64.84375 C 129.097656 61.164062 137.648438 58.550781 144.300781 57.957031 C 144.417969 58.074219 144.535156 58.195312 144.65625 58.550781 C 144.894531 59.261719 144.417969 60.453125 143.46875 61.757812 C 140.738281 65.558594 138.71875 67.339844 134.917969 69.476562 C 131.355469 71.496094 128.742188 72.089844 127.078125 71.257812 C 126.007812 70.785156 125.414062 69.597656 125.179688 67.816406 C 125.058594 66.746094 125.414062 65.796875 126.128906 64.84375 Z M 126.128906 64.84375 " fill-opacity="1" fill-rule="nonzero"/><path fill="#00bf63" d="M 108.3125 14.964844 C 107.71875 16.269531 107.125 17.695312 106.769531 19.238281 C 106.058594 21.972656 106.292969 23.992188 107.480469 25.296875 C 108.3125 26.128906 109.621094 26.601562 111.28125 26.601562 C 111.757812 26.601562 112.351562 26.601562 112.828125 26.484375 C 120.664062 25.414062 127.671875 19.714844 130.285156 12.351562 C 130.761719 10.925781 131.234375 9.144531 130.523438 7.71875 C 130.046875 6.652344 128.980469 6.292969 128.148438 6.058594 C 128.027344 6.058594 127.910156 5.9375 127.910156 5.9375 C 125.058594 4.871094 122.210938 4.632812 119.597656 5.226562 C 117.933594 5.582031 116.507812 6.175781 115.082031 7.007812 C 112.234375 8.667969 109.976562 11.402344 108.3125 14.964844 Z M 119.832031 6.769531 C 120.664062 6.652344 121.496094 6.53125 122.445312 6.53125 C 124.109375 6.53125 125.652344 6.886719 127.316406 7.480469 C 127.433594 7.480469 127.554688 7.601562 127.671875 7.601562 C 128.386719 7.839844 128.859375 8.074219 129.097656 8.433594 C 129.574219 9.5 129.214844 10.925781 128.859375 11.875 C 126.484375 18.644531 119.953125 23.871094 112.707031 24.941406 C 110.808594 25.179688 109.5 24.941406 108.789062 24.226562 C 107.957031 23.398438 107.839844 21.851562 108.433594 19.714844 C 108.789062 18.410156 109.261719 16.984375 109.859375 15.796875 C 111.402344 12.46875 113.539062 9.976562 115.914062 8.433594 C 117.101562 7.601562 118.410156 7.007812 119.832031 6.769531 Z M 119.832031 6.769531 " fill-opacity="1" fill-rule="nonzero"/><path fill="#00bf63" d="M 101.425781 61.28125 C 102.613281 61.28125 103.085938 60.6875 103.207031 60.332031 C 104.277344 58.074219 100.476562 52.613281 92.519531 42.636719 C 92.398438 42.519531 92.28125 42.398438 92.28125 42.28125 C 93.46875 41.6875 94.65625 40.972656 95.84375 40.378906 C 99.761719 38.242188 103.683594 36.222656 107.480469 34.085938 C 110.214844 32.660156 113.65625 30.761719 117.222656 28.742188 C 117.816406 28.386719 118.410156 28.148438 119.003906 27.789062 C 120.425781 27.078125 121.851562 26.246094 123.160156 25.414062 C 123.871094 24.941406 124.585938 24.464844 125.179688 23.992188 C 126.007812 23.398438 126.839844 22.804688 127.671875 22.210938 C 128.859375 21.378906 130.523438 20.191406 131.355469 18.289062 C 131.472656 18.171875 131.589844 17.578125 131.589844 16.984375 C 133.136719 16.035156 134.324219 14.25 134.441406 12.351562 C 134.441406 11.875 134.324219 11.28125 134.203125 10.925781 C 135.15625 9.976562 135.511719 8.550781 135.15625 7.246094 C 134.679688 5.9375 133.492188 4.988281 132.066406 4.75 C 131.949219 3.800781 131.355469 2.96875 130.402344 2.613281 C 129.691406 2.375 128.980469 2.492188 128.265625 2.613281 C 127.789062 2.730469 127.433594 2.730469 127.078125 2.730469 C 127.078125 2.730469 127.078125 2.613281 127.078125 2.613281 C 127.078125 1.898438 126.484375 1.1875 125.773438 0.949219 C 125.179688 0.832031 124.703125 0.949219 124.226562 0.949219 L 121.496094 1.542969 C 121.496094 1.304688 121.378906 1.070312 121.140625 0.832031 C 120.902344 0.59375 120.664062 0.355469 120.308594 0.238281 C 119.359375 0 118.410156 0.238281 117.457031 0.59375 C 113.539062 2.136719 109.738281 3.917969 106.058594 5.9375 C 105.105469 6.414062 104.277344 7.007812 103.324219 7.480469 C 102.019531 8.195312 100.832031 9.027344 99.523438 9.621094 C 97.148438 10.808594 94.773438 11.875 92.398438 13.0625 C 91.6875 13.421875 90.972656 13.777344 90.261719 14.132812 C 87.886719 15.203125 85.511719 16.390625 83.253906 17.695312 C 78.742188 20.308594 74.226562 22.804688 69.714844 25.414062 C 66.269531 27.316406 62.945312 29.214844 59.5 31.234375 C 42.28125 29.808594 20.546875 28.027344 13.300781 27.433594 C 2.375 26.722656 1.1875 28.148438 0.710938 28.621094 C 0.476562 28.859375 0.476562 29.097656 0.355469 29.335938 C 0 30.523438 0.710938 31.234375 1.070312 31.589844 C 1.304688 31.828125 1.425781 31.949219 1.425781 32.066406 C 1.425781 32.898438 2.019531 33.492188 2.492188 34.085938 C 3.085938 34.679688 3.445312 35.035156 3.324219 35.511719 C 3.085938 36.816406 4.277344 37.765625 5.226562 38.597656 C 5.699219 38.953125 6.292969 39.546875 6.414062 39.785156 C 6.414062 40.738281 7.363281 41.6875 8.3125 42.875 C 9.027344 43.707031 9.859375 44.535156 9.976562 45.128906 C 10.332031 46.199219 11.402344 47.03125 12.589844 47.742188 C 13.183594 48.101562 14.015625 48.695312 14.132812 48.929688 C 14.132812 50.117188 15.320312 50.59375 16.269531 50.949219 C 16.863281 51.1875 17.578125 51.425781 17.695312 51.78125 C 18.171875 53.207031 19.597656 53.085938 20.546875 52.96875 C 20.902344 52.96875 21.496094 52.96875 21.613281 52.96875 C 22.445312 54.15625 23.992188 54.632812 24.226562 54.632812 C 24.226562 54.632812 24.347656 54.632812 24.347656 54.632812 C 24.941406 54.632812 28.859375 54.988281 34.679688 55.582031 C 34.796875 55.699219 34.796875 55.820312 34.917969 55.820312 C 34.5625 56.53125 34.324219 57.246094 34.203125 58.074219 C 34.085938 58.667969 33.964844 59.621094 34.441406 60.453125 C 34.679688 60.925781 35.035156 61.28125 35.390625 61.519531 C 35.273438 61.757812 35.15625 62.113281 35.15625 62.351562 C 34.917969 63.300781 35.15625 64.132812 35.75 64.726562 C 36.105469 65.082031 36.578125 65.320312 37.171875 65.320312 C 37.292969 65.558594 37.410156 65.796875 37.53125 66.035156 C 37.886719 66.390625 38.359375 66.746094 39.074219 66.863281 C 40.023438 67.101562 41.09375 66.984375 41.804688 66.628906 C 41.925781 66.746094 42.160156 66.863281 42.28125 66.863281 C 42.519531 66.984375 42.753906 66.984375 42.992188 66.984375 C 43.230469 66.984375 43.347656 66.984375 43.585938 66.984375 C 46.792969 66.507812 49.644531 64.964844 52.257812 63.539062 C 52.730469 63.300781 53.207031 63.0625 53.683594 62.828125 C 56.175781 61.519531 58.789062 60.09375 61.28125 58.789062 C 61.757812 58.550781 62.234375 58.195312 62.828125 57.957031 C 80.640625 59.738281 98.929688 61.28125 101.425781 61.28125 Z M 65.082031 56.886719 C 64.609375 56.886719 64.132812 56.769531 63.65625 56.769531 C 63.183594 56.769531 62.707031 56.652344 62.234375 56.652344 C 61.28125 56.53125 60.214844 56.53125 59.261719 56.414062 C 59.027344 56.414062 58.789062 56.414062 58.550781 56.292969 C 57.007812 56.175781 55.464844 56.058594 53.917969 55.9375 C 53.683594 55.9375 53.445312 55.9375 53.207031 55.820312 C 51.304688 55.699219 49.40625 55.464844 47.507812 55.34375 C 47.269531 55.34375 47.03125 55.34375 46.792969 55.226562 C 43.824219 54.988281 41.09375 54.75 38.597656 54.511719 C 38.359375 54.511719 38.125 54.511719 37.886719 54.394531 C 37.292969 54.394531 36.699219 54.277344 36.105469 54.277344 C 35.867188 54.277344 35.511719 54.277344 35.273438 54.15625 C 35.035156 54.15625 34.679688 54.15625 34.441406 54.039062 C 28.980469 53.5625 25.179688 53.207031 24.585938 53.207031 C 24.226562 53.089844 23.277344 52.730469 22.921875 52.136719 L 35.15625 52.96875 L 36.105469 53.089844 L 37.054688 53.207031 L 40.023438 53.445312 L 40.738281 53.445312 L 49.167969 54.039062 L 49.882812 54.039062 L 55.820312 54.394531 L 56.53125 54.394531 L 61.28125 54.75 L 61.996094 54.75 L 65.203125 54.988281 L 66.746094 55.105469 L 68.289062 55.226562 L 87.410156 56.414062 C 87.886719 56.769531 88.480469 57.363281 89.546875 57.363281 C 89.667969 57.601562 89.90625 57.839844 90.140625 58.074219 C 90.5 58.433594 90.972656 58.789062 91.449219 59.027344 C 84.5625 58.433594 74.941406 57.71875 65.082031 56.886719 Z M 51.304688 62.46875 C 48.695312 63.894531 46.082031 65.320312 43.113281 65.796875 C 42.875 65.796875 42.753906 65.796875 42.519531 65.796875 C 42.519531 65.796875 42.519531 65.675781 42.519531 65.675781 L 56.652344 57.839844 C 57.601562 57.957031 58.667969 57.957031 59.621094 58.074219 C 57.363281 59.261719 54.988281 60.570312 52.730469 61.757812 C 52.257812 61.875 51.78125 62.234375 51.304688 62.46875 Z M 42.042969 64.964844 C 41.6875 64.84375 41.332031 64.964844 41.09375 65.203125 C 40.617188 65.675781 39.785156 65.796875 39.191406 65.558594 C 38.835938 65.4375 38.597656 65.320312 38.480469 65.203125 C 38.359375 65.082031 38.359375 64.964844 38.359375 64.964844 C 38.480469 64.726562 38.480469 64.609375 38.480469 64.371094 L 51.425781 57.246094 C 52.96875 57.363281 54.511719 57.480469 56.058594 57.601562 L 42.28125 65.203125 C 42.160156 65.082031 42.160156 65.082031 42.042969 64.964844 Z M 36.460938 62.945312 C 36.578125 62.46875 36.816406 61.996094 37.171875 61.640625 C 37.292969 61.402344 37.410156 61.164062 37.292969 60.925781 C 38.597656 60.214844 41.332031 58.667969 45.011719 56.652344 C 46.792969 56.769531 48.8125 57.007812 50.710938 57.125 L 38.359375 64.015625 C 38.359375 64.015625 38.359375 64.015625 38.242188 63.894531 C 37.886719 63.65625 37.53125 63.65625 37.171875 63.894531 C 37.054688 64.015625 36.816406 63.894531 36.699219 63.777344 C 36.460938 63.65625 36.34375 63.300781 36.460938 62.945312 Z M 35.511719 58.667969 C 35.628906 57.839844 35.984375 57.007812 36.460938 56.292969 C 36.460938 56.175781 36.460938 56.175781 36.578125 56.058594 C 38.953125 56.292969 41.449219 56.53125 44.300781 56.769531 C 40.855469 58.667969 38.242188 60.09375 37.171875 60.6875 C 36.9375 60.453125 36.699219 60.332031 36.34375 60.453125 C 36.105469 60.453125 35.867188 60.332031 35.75 60.09375 C 35.390625 59.738281 35.390625 59.261719 35.511719 58.667969 Z M 19.121094 51.542969 C 18.765625 50.476562 17.695312 50 16.746094 49.644531 C 16.390625 49.523438 15.796875 49.289062 15.675781 49.167969 C 15.675781 48.8125 15.558594 48.457031 15.320312 48.21875 L 36.9375 49.644531 L 40.023438 49.644531 L 45.488281 50 L 46.199219 50 L 54.511719 50.59375 L 55.226562 50.59375 L 61.164062 50.949219 L 61.875 50.949219 L 66.628906 51.304688 L 67.339844 51.304688 L 70.664062 51.542969 L 72.210938 51.664062 L 73.753906 51.78125 L 83.253906 52.375 C 83.847656 52.96875 84.5625 53.5625 85.390625 53.800781 C 85.511719 54.511719 85.984375 55.105469 86.699219 55.699219 L 68.644531 54.511719 L 67.339844 54.75 L 65.796875 54.632812 L 62.589844 54.394531 L 61.875 54.394531 L 57.125 54.039062 L 56.414062 54.039062 L 50.476562 53.683594 L 49.761719 53.683594 L 41.332031 53.085938 L 40.617188 53.085938 L 37.292969 52.851562 L 36.34375 52.730469 L 35.390625 52.613281 L 22.328125 51.78125 C 21.734375 51.542969 21.140625 51.542969 20.546875 51.542969 C 20.308594 51.542969 20.191406 51.542969 19.953125 51.542969 L 19.597656 51.542969 C 19.238281 51.542969 19.121094 51.542969 19.121094 51.542969 Z M 4.988281 35.75 C 4.988281 35.511719 4.988281 35.273438 4.988281 35.035156 L 47.507812 38.242188 L 48.929688 38.359375 L 50.355469 38.480469 L 51.1875 38.480469 L 54.632812 38.71875 L 55.34375 38.71875 L 59.144531 38.953125 L 59.859375 38.953125 L 65.082031 39.3125 L 65.796875 39.3125 L 73.753906 39.90625 L 74.464844 39.90625 L 76.960938 40.140625 C 77.078125 40.617188 77.316406 40.972656 77.671875 41.210938 C 77.671875 41.449219 77.671875 41.566406 77.671875 41.804688 C 77.671875 41.925781 77.671875 42.042969 77.671875 42.28125 C 77.671875 42.636719 77.789062 43.113281 78.027344 43.46875 L 75.890625 43.347656 L 75.179688 43.347656 L 69.238281 42.992188 L 68.527344 42.992188 L 60.332031 42.398438 L 59.621094 42.398438 L 54.394531 42.042969 L 53.683594 42.042969 L 49.882812 41.804688 L 49.167969 41.804688 L 45.722656 41.566406 L 45.011719 41.566406 L 43.941406 41.449219 L 42.753906 41.332031 L 7.71875 38.835938 C 7.363281 38.242188 6.886719 37.765625 6.292969 37.292969 C 5.699219 36.816406 4.988281 36.222656 4.988281 35.75 Z M 2.375 30.523438 C 1.898438 30.167969 1.898438 30.046875 2.019531 29.691406 C 2.019531 29.691406 2.019531 29.574219 2.019531 29.574219 C 2.375 29.335938 4.15625 28.386719 13.300781 29.097656 C 20.191406 29.691406 40.378906 31.355469 57.125 32.660156 C 57.601562 32.660156 58.074219 32.777344 58.550781 32.777344 C 59.027344 32.777344 59.5 32.898438 59.976562 32.898438 C 60.214844 32.898438 60.332031 32.898438 60.570312 32.898438 C 60.808594 32.898438 61.046875 32.898438 61.28125 33.015625 C 62.46875 33.136719 63.65625 33.253906 64.726562 33.253906 C 64.964844 33.253906 65.203125 33.253906 65.4375 33.371094 C 66.746094 33.492188 67.933594 33.609375 69.121094 33.730469 C 69.359375 33.730469 69.597656 33.730469 69.832031 33.847656 C 71.613281 33.964844 73.398438 34.085938 74.820312 34.203125 C 75.058594 34.203125 75.296875 34.203125 75.535156 34.203125 C 76.960938 34.324219 78.265625 34.441406 79.214844 34.5625 C 78.503906 35.15625 78.148438 35.867188 77.910156 36.578125 C 76.839844 36.460938 74.820312 36.34375 71.972656 36.105469 C 71.734375 36.105469 71.496094 36.105469 71.257812 36.105469 C 69.714844 35.984375 68.050781 35.867188 66.152344 35.75 C 65.914062 35.75 65.675781 35.75 65.4375 35.75 C 64.25 35.628906 62.945312 35.511719 61.757812 35.511719 C 61.519531 35.511719 61.28125 35.511719 61.046875 35.511719 C 59.976562 35.390625 58.789062 35.390625 57.601562 35.273438 C 57.363281 35.273438 57.125 35.273438 56.886719 35.273438 C 56.769531 35.273438 56.652344 35.273438 56.53125 35.273438 C 56.058594 35.273438 55.582031 35.15625 55.105469 35.15625 C 54.632812 35.15625 54.15625 35.035156 53.683594 35.035156 C 33.136719 33.492188 7.125 31.472656 5.9375 31.234375 C 4.75 30.996094 3.5625 31.117188 2.730469 31.234375 C 2.613281 30.761719 2.492188 30.640625 2.375 30.523438 Z M 90.972656 15.796875 C 91.6875 15.4375 92.398438 15.082031 93.113281 14.726562 C 95.488281 13.539062 97.863281 12.351562 100.238281 11.28125 C 101.664062 10.570312 102.96875 9.859375 104.15625 9.027344 C 104.988281 8.550781 105.9375 7.957031 106.769531 7.480469 C 107.601562 7.007812 108.433594 6.652344 109.261719 6.175781 C 109.144531 6.292969 109.027344 6.53125 108.90625 6.769531 L 63.0625 31.589844 C 62.828125 31.589844 62.589844 31.589844 62.46875 31.589844 C 65.203125 30.046875 67.933594 28.503906 70.546875 26.960938 C 75.058594 24.347656 79.574219 21.851562 84.085938 19.238281 C 86.34375 18.050781 88.71875 16.863281 90.972656 15.796875 Z M 117.933594 2.257812 C 118.644531 2.019531 119.238281 1.78125 119.714844 1.898438 C 119.714844 1.898438 119.714844 1.898438 119.832031 1.898438 C 119.832031 1.898438 119.832031 2.019531 119.832031 2.019531 C 119.953125 2.257812 120.070312 2.730469 120.546875 2.96875 C 121.019531 3.207031 121.496094 3.085938 121.734375 3.085938 L 124.464844 2.492188 C 124.820312 2.375 125.058594 2.375 125.296875 2.375 C 125.414062 2.375 125.414062 2.375 125.414062 2.492188 C 125.414062 2.613281 125.414062 2.851562 125.414062 3.085938 C 125.535156 3.5625 125.890625 3.917969 126.484375 4.039062 C 127.195312 4.277344 127.910156 4.15625 128.503906 4.039062 C 128.980469 3.917969 129.453125 3.917969 129.808594 4.039062 C 130.285156 4.15625 130.523438 4.75 130.402344 5.226562 C 130.285156 5.464844 130.402344 5.820312 130.523438 5.9375 C 130.761719 6.175781 130.996094 6.292969 131.234375 6.175781 C 132.183594 6.058594 133.136719 6.652344 133.492188 7.480469 C 133.730469 8.3125 133.253906 9.5 132.421875 9.859375 C 132.066406 9.976562 131.949219 10.332031 131.949219 10.6875 C 132.066406 11.046875 132.304688 11.28125 132.660156 11.28125 C 132.660156 11.402344 132.777344 11.640625 132.777344 11.875 C 132.660156 13.421875 131.589844 14.964844 130.167969 15.558594 C 129.808594 15.675781 129.691406 16.035156 129.691406 16.269531 C 129.691406 16.507812 129.808594 16.746094 130.046875 16.863281 C 130.046875 16.984375 130.046875 17.101562 129.929688 17.101562 C 129.453125 18.171875 128.503906 19.238281 126.839844 20.308594 C 126.007812 20.902344 125.058594 21.496094 124.226562 22.089844 C 123.515625 22.566406 122.921875 23.039062 122.210938 23.515625 C 120.902344 24.347656 119.597656 25.058594 118.171875 25.773438 C 117.695312 26.007812 117.339844 26.246094 116.984375 26.484375 C 115.4375 27.078125 113.894531 27.671875 112.351562 28.148438 C 112.113281 28.265625 111.640625 28.386719 111.519531 28.265625 C 111.757812 28.027344 111.875 27.554688 111.640625 27.316406 C 111.402344 26.960938 111.046875 26.839844 110.6875 26.960938 C 110.570312 27.078125 110.453125 27.078125 110.332031 27.195312 C 109.5 27.789062 108.667969 28.265625 107.71875 28.621094 C 107.246094 28.027344 107.125 27.316406 107.246094 26.484375 C 107.246094 26.246094 107.125 25.890625 106.886719 25.773438 C 106.652344 25.652344 106.292969 25.535156 106.058594 25.773438 C 105.582031 26.007812 105.105469 26.246094 104.511719 26.367188 C 104.632812 25.414062 104.988281 24.464844 105.464844 23.515625 C 105.582031 23.277344 105.582031 22.921875 105.34375 22.683594 C 105.226562 22.566406 104.988281 22.445312 104.75 22.328125 C 104.75 22.328125 104.75 22.210938 104.75 22.089844 C 104.871094 21.140625 105.226562 20.308594 105.699219 19.597656 C 105.9375 19.238281 105.9375 18.882812 105.582031 18.527344 C 105.34375 18.289062 104.988281 18.171875 104.632812 18.410156 C 104.632812 18.410156 104.511719 18.289062 104.511719 18.171875 C 104.511719 17.816406 104.75 17.457031 104.988281 17.101562 C 105.582031 16.269531 106.175781 15.558594 106.886719 14.964844 C 107.246094 14.726562 107.246094 14.25 107.007812 13.894531 C 106.769531 13.539062 106.414062 13.421875 106.058594 13.539062 C 106.058594 13.539062 105.9375 13.421875 105.9375 13.421875 C 105.9375 13.0625 106.292969 12.707031 106.53125 12.351562 C 107.363281 11.519531 108.3125 10.6875 109.261719 10.214844 C 109.621094 10.09375 109.859375 9.738281 109.738281 9.382812 C 109.621094 9.027344 109.382812 8.789062 109.144531 8.789062 C 109.144531 8.667969 109.261719 8.433594 109.382812 8.3125 C 110.6875 5.820312 113.300781 4.15625 115.203125 3.207031 C 115.320312 3.085938 115.4375 2.96875 115.558594 2.851562 C 116.390625 2.96875 117.222656 2.613281 117.933594 2.257812 Z M 104.871094 15.203125 C 104.394531 15.675781 104.039062 16.152344 103.683594 16.746094 C 103.324219 17.222656 102.96875 17.933594 102.96875 18.765625 C 100.238281 20.308594 89.90625 26.007812 77.554688 32.898438 C 76.128906 32.777344 74.464844 32.660156 72.566406 32.542969 L 104.871094 15.082031 C 104.75 15.082031 104.75 15.203125 104.871094 15.203125 Z M 104.15625 28.503906 C 104.632812 28.386719 105.105469 28.265625 105.582031 28.148438 C 105.699219 28.742188 105.9375 29.335938 106.292969 29.808594 L 89.667969 38.953125 C 89.074219 38.242188 88.359375 37.53125 87.765625 36.9375 L 103.324219 28.265625 C 103.5625 28.503906 103.800781 28.621094 104.15625 28.503906 Z M 102.96875 28.148438 C 102.96875 28.265625 102.96875 28.265625 102.96875 28.148438 L 87.410156 36.816406 C 86.34375 35.867188 85.511719 35.15625 84.796875 34.5625 C 93.585938 29.691406 100.832031 25.652344 103.5625 24.109375 C 103.207031 25.179688 102.851562 26.128906 102.730469 27.316406 C 102.730469 27.433594 102.730469 27.910156 102.96875 28.148438 Z M 84.441406 34.324219 C 83.371094 33.609375 82.660156 33.253906 82.542969 33.253906 C 82.421875 33.253906 82.421875 33.253906 82.304688 33.253906 C 82.183594 33.253906 80.640625 33.136719 78.027344 32.898438 C 95.25 23.515625 101.070312 20.308594 102.96875 19.121094 C 103.085938 19.597656 103.324219 19.953125 103.800781 20.191406 C 103.445312 20.902344 103.324219 21.613281 103.207031 22.445312 C 103.207031 22.804688 103.207031 23.277344 103.324219 23.632812 C 103.324219 23.632812 103.445312 23.753906 103.445312 23.753906 C 100.59375 25.296875 93.347656 29.453125 84.441406 34.324219 Z M 104.394531 13.894531 C 104.394531 14.132812 104.394531 14.371094 104.511719 14.609375 L 71.734375 32.304688 C 70.546875 32.183594 69.359375 32.066406 68.050781 31.949219 L 105.464844 11.757812 C 105.105469 12.234375 104.394531 12.945312 104.394531 13.894531 Z M 108.074219 8.074219 C 107.839844 8.433594 107.601562 8.90625 107.71875 9.5 C 107.71875 9.621094 107.71875 9.738281 107.839844 9.976562 C 107.363281 10.214844 107.007812 10.570312 106.53125 10.925781 L 67.339844 32.066406 C 66.269531 31.949219 65.082031 31.828125 63.894531 31.828125 L 108.433594 7.480469 C 108.3125 7.71875 108.195312 7.839844 108.074219 8.074219 Z M 91.09375 40.738281 C 90.734375 40.261719 90.261719 39.785156 89.90625 39.3125 L 106.414062 30.285156 C 106.53125 30.523438 106.769531 30.761719 107.125 30.761719 C 107.246094 30.761719 107.363281 30.761719 107.480469 30.761719 C 107.839844 30.761719 108.074219 30.640625 108.195312 30.640625 C 108.90625 30.402344 109.5 30.046875 110.214844 29.691406 C 110.332031 29.929688 110.570312 30.046875 110.808594 30.167969 C 110.925781 30.167969 111.046875 30.285156 111.164062 30.285156 C 109.621094 31.117188 108.074219 31.949219 106.886719 32.660156 C 102.96875 34.796875 99.050781 36.9375 95.25 38.953125 C 93.941406 39.667969 92.753906 40.378906 91.449219 40.972656 C 91.210938 40.972656 91.09375 40.855469 91.09375 40.738281 Z M 5.820312 31.355469 C 7.007812 31.589844 32.421875 33.492188 52.96875 35.15625 C 53.445312 35.15625 53.917969 35.273438 54.394531 35.273438 C 54.871094 35.273438 55.34375 35.390625 55.820312 35.390625 C 55.9375 35.390625 56.058594 35.390625 56.175781 35.390625 C 56.414062 35.390625 56.652344 35.390625 56.886719 35.390625 C 58.074219 35.511719 59.261719 35.628906 60.332031 35.628906 C 60.570312 35.628906 60.808594 35.628906 61.046875 35.628906 C 62.351562 35.75 63.539062 35.867188 64.726562 35.867188 C 64.964844 35.867188 65.203125 35.867188 65.4375 35.867188 C 67.339844 35.984375 69.003906 36.105469 70.546875 36.222656 C 70.785156 36.222656 71.019531 36.222656 71.257812 36.222656 C 74.347656 36.460938 76.601562 36.578125 77.789062 36.699219 C 77.789062 36.816406 77.789062 36.9375 77.789062 37.054688 C 77.554688 37.292969 77.316406 37.648438 77.195312 38.003906 C 77.078125 38.242188 76.960938 38.359375 76.960938 38.597656 C 76.960938 38.71875 76.839844 38.953125 76.839844 39.074219 C 76.839844 39.3125 76.839844 39.546875 76.839844 39.785156 L 75.058594 39.667969 L 74.347656 39.667969 L 66.507812 39.3125 L 65.796875 39.3125 L 60.570312 38.953125 L 59.859375 38.953125 L 56.058594 38.71875 L 55.34375 38.71875 L 51.898438 38.480469 L 51.070312 38.480469 L 49.644531 38.359375 L 48.21875 38.242188 L 4.871094 34.679688 C 4.632812 33.964844 4.039062 33.371094 3.683594 33.015625 C 3.445312 32.777344 3.085938 32.421875 3.085938 32.183594 C 3.085938 31.828125 2.96875 31.589844 2.851562 31.234375 C 3.683594 31.234375 4.75 31.234375 5.820312 31.355469 Z M 79.214844 45.25 C 79.335938 45.367188 79.453125 45.488281 79.574219 45.488281 C 79.574219 45.960938 79.691406 46.554688 79.929688 47.03125 C 80.046875 47.269531 80.167969 47.507812 80.285156 47.742188 C 80.402344 47.980469 80.523438 48.101562 80.640625 48.335938 L 79.335938 48.21875 L 77.789062 48.101562 L 74.226562 47.863281 L 73.515625 47.863281 L 68.765625 47.507812 L 68.050781 47.507812 L 62.113281 47.148438 L 61.402344 47.148438 L 53.089844 46.554688 L 52.375 46.554688 L 47.03125 46.082031 L 46.316406 46.082031 L 42.519531 45.84375 L 39.667969 45.84375 L 11.046875 43.824219 C 10.6875 43.230469 10.09375 42.636719 9.621094 41.925781 C 9.027344 41.210938 8.195312 40.261719 8.195312 39.90625 C 8.195312 39.785156 8.195312 39.546875 8.074219 39.429688 L 42.519531 41.804688 L 43.707031 41.925781 L 45.25 41.925781 L 48.695312 42.160156 L 49.40625 42.160156 L 53.207031 42.398438 L 53.917969 42.398438 L 59.144531 42.753906 L 59.859375 42.753906 L 68.050781 43.347656 L 68.765625 43.347656 L 74.703125 43.707031 L 75.414062 43.707031 L 78.386719 43.941406 C 78.503906 44.179688 78.742188 44.535156 78.980469 44.773438 C 78.980469 45.128906 79.097656 45.25 79.214844 45.25 Z M 39.546875 45.960938 L 41.925781 45.960938 L 45.722656 46.199219 L 46.4375 46.199219 L 51.78125 46.554688 L 52.492188 46.554688 L 60.808594 47.148438 L 61.519531 47.148438 L 67.457031 47.507812 L 68.171875 47.507812 L 72.921875 47.863281 L 73.632812 47.863281 L 77.195312 48.101562 L 78.742188 48.21875 L 80.285156 48.335938 L 81.234375 48.457031 C 81.589844 48.8125 81.949219 49.050781 82.421875 49.167969 C 82.421875 50.117188 82.777344 51.070312 83.371094 51.898438 L 74.941406 51.304688 L 73.160156 51.664062 L 71.613281 51.542969 L 68.289062 51.304688 L 67.578125 51.304688 L 62.828125 50.949219 L 62.113281 50.949219 L 56.175781 50.59375 L 55.464844 50.59375 L 47.148438 50 L 46.4375 50 L 40.972656 49.644531 L 40.261719 49.644531 L 39.074219 49.523438 L 38.125 49.40625 L 37.292969 49.289062 L 15.203125 47.742188 C 14.726562 47.269531 14.25 46.914062 13.539062 46.554688 C 12.707031 45.960938 11.757812 45.367188 11.519531 44.773438 C 11.402344 44.535156 11.402344 44.300781 11.28125 44.0625 Z M 97.507812 59.382812 C 95.960938 59.144531 93.230469 58.550781 91.332031 56.886719 C 91.09375 56.652344 90.972656 56.53125 90.972656 56.414062 C 90.972656 56.175781 90.855469 56.058594 90.617188 55.820312 C 90.5 55.699219 90.261719 55.582031 90.023438 55.699219 C 89.191406 55.820312 88.953125 55.582031 88.480469 55.226562 C 88.359375 55.105469 88.125 54.871094 87.886719 54.75 C 87.410156 54.394531 87.054688 53.917969 87.054688 53.683594 C 87.054688 53.445312 87.054688 53.207031 86.9375 53.085938 C 86.816406 52.851562 86.578125 52.730469 86.34375 52.730469 C 84.679688 52.492188 83.492188 50.710938 83.730469 49.167969 C 83.730469 48.8125 83.492188 48.335938 83.136719 48.335938 C 82.777344 48.21875 82.421875 47.980469 82.066406 47.742188 C 81.828125 47.507812 81.710938 47.386719 81.472656 47.148438 C 81.355469 46.910156 81.234375 46.675781 81.117188 46.4375 C 80.996094 46.082031 80.996094 45.722656 80.996094 45.25 C 80.996094 44.894531 80.878906 44.535156 80.523438 44.417969 C 80.402344 44.417969 80.285156 44.300781 80.167969 44.179688 C 79.453125 43.707031 78.980469 42.636719 79.214844 41.6875 C 79.214844 41.566406 79.214844 41.449219 79.335938 41.332031 C 79.335938 41.210938 79.335938 41.210938 79.335938 41.09375 C 79.335938 40.972656 79.335938 40.738281 79.214844 40.617188 C 79.097656 40.378906 78.859375 40.261719 78.621094 40.261719 C 78.386719 40.261719 78.265625 39.785156 78.265625 39.546875 C 78.386719 39.074219 78.742188 38.597656 79.097656 38.125 C 79.214844 37.886719 79.335938 37.648438 79.335938 37.410156 C 79.335938 37.292969 79.335938 37.054688 79.335938 36.9375 C 79.453125 36.460938 79.691406 35.867188 80.167969 35.628906 C 80.761719 35.273438 81.589844 35.035156 82.542969 35.15625 C 82.542969 35.15625 82.542969 35.15625 82.660156 35.15625 C 82.777344 35.273438 82.898438 35.273438 83.015625 35.390625 C 83.730469 35.867188 84.679688 36.578125 85.75 37.53125 C 85.867188 37.648438 85.984375 37.765625 86.105469 37.765625 C 86.699219 38.359375 87.292969 38.953125 88.003906 39.667969 C 88.125 39.785156 88.242188 39.90625 88.242188 40.023438 C 88.71875 40.5 89.074219 41.09375 89.546875 41.6875 C 89.667969 41.925781 89.90625 42.160156 90.023438 42.28125 C 90.140625 42.519531 90.378906 42.753906 90.5 42.875 C 90.617188 43.113281 90.734375 43.230469 90.972656 43.46875 C 93.347656 46.4375 96.199219 50.117188 98.457031 53.324219 C 102.019531 58.550781 101.425781 59.5 101.425781 59.5 C 101.425781 59.5 101.304688 59.621094 101.070312 59.621094 C 100.59375 59.621094 99.289062 59.5 97.386719 59.382812 C 97.625 59.5 97.625 59.382812 97.507812 59.382812 Z M 97.507812 59.382812 " fill-opacity="1" fill-rule="nonzero"/><path fill="#00bf63" d="M 94.894531 49.644531 L 94.300781 48.929688 C 93.585938 47.980469 92.753906 47.03125 91.925781 46.199219 C 91.332031 45.488281 90.617188 44.773438 90.023438 44.0625 C 89.90625 43.941406 89.785156 43.824219 89.667969 43.707031 C 89.546875 43.46875 89.3125 43.230469 89.191406 43.113281 C 88.953125 42.875 88.835938 42.636719 88.71875 42.519531 C 88.242188 41.925781 87.765625 41.449219 87.292969 40.972656 C 87.171875 40.855469 87.054688 40.738281 87.054688 40.617188 C 86.9375 40.378906 86.699219 40.261719 86.578125 40.023438 L 86.34375 39.785156 C 85.984375 39.429688 85.628906 38.953125 85.15625 38.597656 C 85.035156 38.480469 84.917969 38.480469 84.796875 38.359375 C 84.5625 38.125 84.203125 38.003906 83.847656 37.886719 C 83.253906 37.648438 82.777344 37.648438 82.183594 37.886719 C 81.472656 38.125 80.996094 38.71875 80.878906 39.546875 C 80.761719 39.90625 80.761719 40.261719 80.878906 40.5 C 80.878906 40.617188 80.878906 40.738281 80.996094 40.972656 C 80.996094 41.09375 80.996094 41.210938 81.117188 41.332031 C 81.355469 42.042969 81.589844 42.875 81.828125 43.585938 C 81.828125 43.707031 81.949219 43.824219 81.949219 43.941406 C 82.183594 44.535156 82.542969 45.128906 82.898438 45.722656 C 83.015625 45.960938 83.136719 46.199219 83.371094 46.4375 C 83.492188 46.675781 83.609375 46.914062 83.847656 47.148438 C 84.5625 48.21875 85.390625 49.289062 86.222656 50.238281 L 86.578125 50.710938 C 89.546875 54.15625 93.113281 58.433594 97.980469 59.144531 C 98.101562 59.144531 98.21875 59.144531 98.335938 59.144531 C 98.574219 59.144531 98.695312 59.144531 98.929688 59.027344 C 99.644531 58.667969 99.882812 57.71875 99.40625 56.769531 C 98.335938 53.800781 96.554688 51.664062 94.894531 49.644531 Z M 87.765625 49.289062 L 87.410156 48.929688 C 86.699219 48.101562 85.867188 47.148438 85.15625 46.199219 C 85.035156 45.960938 84.796875 45.722656 84.679688 45.488281 C 84.5625 45.25 84.441406 45.011719 84.203125 44.773438 C 83.847656 44.179688 83.492188 43.585938 83.253906 42.992188 C 83.253906 42.875 83.136719 42.753906 83.136719 42.636719 C 82.898438 42.042969 82.660156 41.449219 82.542969 40.855469 C 82.421875 40.617188 82.421875 40.378906 82.421875 40.023438 C 82.421875 39.90625 82.421875 39.785156 82.421875 39.785156 C 82.421875 39.667969 82.421875 39.546875 82.542969 39.546875 C 82.542969 39.429688 82.660156 39.429688 82.777344 39.3125 C 82.898438 39.3125 82.898438 39.3125 83.015625 39.3125 C 83.015625 39.3125 83.136719 39.3125 83.136719 39.3125 C 83.253906 39.3125 83.371094 39.3125 83.492188 39.3125 C 83.492188 39.3125 83.609375 39.3125 83.609375 39.429688 C 84.203125 39.667969 84.679688 40.261719 85.15625 40.738281 L 85.390625 40.972656 C 85.511719 41.09375 85.511719 41.09375 85.628906 41.210938 C 85.75 41.332031 85.867188 41.449219 85.867188 41.566406 C 86.34375 42.042969 86.816406 42.636719 87.292969 43.113281 C 87.410156 43.347656 87.648438 43.46875 87.886719 43.707031 C 88.003906 43.941406 88.242188 44.0625 88.359375 44.300781 C 88.480469 44.535156 88.71875 44.65625 88.835938 44.894531 C 89.429688 45.605469 90.140625 46.4375 90.734375 47.148438 C 91.566406 47.980469 92.28125 48.929688 93.113281 49.882812 L 93.707031 50.59375 C 95.367188 52.613281 96.910156 54.511719 97.863281 56.886719 C 97.863281 57.007812 97.863281 57.007812 97.980469 57.125 C 93.824219 56.53125 90.5 52.492188 87.765625 49.289062 Z M 87.765625 49.289062 " fill-opacity="1" fill-rule="nonzero"/><g clip-path="url(#fc233ea980)"><g clip-path="url(#ff3ca4516c)"><path fill="#00bf63" d="M 84.824219 46.875 L 91.578125 46.875 L 91.578125 53.398438 L 84.824219 53.398438 Z M 84.824219 46.875 " fill-opacity="1" fill-rule="nonzero"/></g></g></svg>