<svg xmlns="http://www.w3.org/2000/svg" xmlns:xlink="http://www.w3.org/1999/xlink" width="200" zoomAndPan="magnify" viewBox="0 0 150 117.749996" height="157" preserveAspectRatio="xMidYMid meet" version="1.0"><defs><clipPath id="4a264f3aca"><path d="M 99.136719 75 L 99.492188 75 L 99.492188 75.277344 L 99.136719 75.277344 Z M 99.136719 75 " clip-rule="nonzero"/></clipPath><clipPath id="5d85218acb"><path d="M 99.472656 75.164062 C 98.800781 75.464844 99.398438 75.015625 99.398438 75.015625 " clip-rule="nonzero"/></clipPath><clipPath id="cd11bf0a75"><path d="M 88.136719 33.535156 L 88.492188 33.535156 L 88.492188 33.816406 L 88.136719 33.816406 Z M 88.136719 33.535156 " clip-rule="nonzero"/></clipPath><clipPath id="8b06e9231f"><path d="M 88.472656 33.703125 C 87.796875 34.003906 88.398438 33.554688 88.398438 33.554688 " clip-rule="nonzero"/></clipPath><clipPath id="79ddcdc4ef"><path d="M 0.160156 0 L 149.839844 0 L 149.839844 117.5 L 0.160156 117.5 Z M 0.160156 0 " clip-rule="nonzero"/></clipPath></defs><g clip-path="url(#4a264f3aca)"><g clip-path="url(#5d85218acb)"><path fill="#00bf63" d="M 95.804688 72.023438 L 102.546875 72.023438 L 102.546875 78.535156 L 95.804688 78.535156 Z M 95.804688 72.023438 " fill-opacity="1" fill-rule="nonzero"/></g></g><g clip-path="url(#cd11bf0a75)"><g clip-path="url(#8b06e9231f)"><path fill="#00bf63" d="M 84.804688 30.558594 L 91.542969 30.558594 L 91.542969 37.070312 L 84.804688 37.070312 Z M 84.804688 30.558594 " fill-opacity="1" fill-rule="nonzero"/></g></g><g clip-path="url(#79ddcdc4ef)"><path fill="#00bf63" d="M 38.390625 37.136719 C 39.445312 37.242188 40.960938 37.1875 41.796875 36.421875 C 41.859375 36.363281 41.867188 36.296875 41.824219 36.222656 C 41.675781 36.023438 41.488281 35.867188 41.269531 35.753906 C 41.214844 35.707031 41.160156 35.703125 41.105469 35.75 C 39.898438 35.085938 38.734375 34.246094 37.359375 33.964844 C 37.125 33.894531 36.890625 33.886719 36.652344 33.941406 C 36.414062 34 36.207031 34.113281 36.035156 34.285156 C 35.859375 34.457031 35.742188 34.664062 35.679688 34.898438 C 35.617188 35.136719 35.621094 35.371094 35.691406 35.605469 C 35.894531 36.742188 37.464844 37.039062 38.390625 37.136719 Z M 36.589844 34.289062 C 37.152344 34.207031 37.683594 34.296875 38.183594 34.558594 C 39.136719 34.988281 40.054688 35.480469 40.941406 36.035156 C 40.992188 36.066406 41.046875 36.066406 41.101562 36.03125 C 41.101562 36.035156 41.101562 36.035156 41.105469 36.035156 C 41.34375 36.214844 41.621094 36.195312 41.28125 36.390625 C 41.078125 36.5 40.863281 36.582031 40.640625 36.636719 C 40.113281 36.773438 39.574219 36.839844 39.03125 36.832031 C 38.074219 36.847656 36.675781 36.695312 36.113281 35.792969 C 36.035156 35.664062 35.988281 35.523438 35.972656 35.375 C 35.957031 35.226562 35.96875 35.078125 36.015625 34.933594 C 36.058594 34.792969 36.132812 34.664062 36.234375 34.550781 C 36.332031 34.4375 36.453125 34.351562 36.589844 34.289062 Z M 90.164062 36.65625 C 88.804688 36.945312 88.9375 38.75 89.085938 39.800781 C 89.273438 41.089844 89.652344 43.179688 90.863281 43.945312 C 90.910156 43.972656 90.957031 43.972656 91.007812 43.953125 C 91.058594 43.933594 91.089844 43.898438 91.105469 43.847656 C 91.1875 43.578125 91.28125 43.316406 91.367188 43.054688 C 91.472656 43.054688 91.523438 43 91.523438 42.894531 C 91.535156 41.867188 92.308594 36.199219 90.164062 36.65625 Z M 91.304688 40.121094 C 91.3125 40.976562 91.222656 41.824219 91.199219 42.667969 C 91.15625 42.691406 91.128906 42.722656 91.117188 42.769531 C 91.042969 43.023438 90.949219 43.273438 90.867188 43.523438 C 89.671875 42.328125 88.398438 36.453125 90.507812 36.992188 C 91.421875 37.226562 91.300781 39.449219 91.304688 40.121094 Z M 89.929688 62.714844 C 89.917969 62.546875 89.832031 62.429688 89.683594 62.355469 C 89.691406 62.308594 89.679688 62.265625 89.644531 62.230469 C 89.613281 62.195312 89.574219 62.179688 89.527344 62.179688 C 89.402344 62.179688 89.28125 62.1875 89.160156 62.199219 C 89.089844 62.191406 89.023438 62.179688 88.96875 62.171875 C 88.910156 62.164062 88.863281 62.183594 88.835938 62.238281 C 88.621094 62.265625 88.402344 62.300781 88.1875 62.339844 C 88.113281 62.34375 88.074219 62.382812 88.074219 62.457031 C 87.128906 62.519531 86.246094 62.792969 85.425781 63.269531 C 85.378906 63.292969 85.351562 63.335938 85.347656 63.386719 C 85.339844 63.441406 85.355469 63.488281 85.394531 63.523438 C 86.472656 64.394531 88.058594 64.183594 89.214844 63.566406 C 89.519531 63.40625 89.957031 63.109375 89.929688 62.714844 Z M 85.824219 63.425781 C 86.734375 62.964844 87.699219 62.738281 88.722656 62.75 C 88.769531 62.75 88.8125 62.730469 88.84375 62.691406 C 88.875 62.65625 88.886719 62.609375 88.875 62.5625 C 88.972656 62.550781 89.0625 62.539062 89.160156 62.53125 C 89.4375 62.578125 89.742188 62.683594 89.476562 62.976562 C 89.171875 63.253906 88.824219 63.445312 88.429688 63.550781 C 87.542969 63.910156 86.671875 63.867188 85.824219 63.425781 Z M 87.589844 59.230469 C 89.214844 58.773438 91.351562 57.539062 91.441406 55.644531 C 91.4375 55.5625 91.398438 55.507812 91.316406 55.488281 C 90.929688 55.40625 90.5625 55.464844 90.222656 55.664062 C 90.167969 55.628906 90.109375 55.625 90.050781 55.65625 C 88.890625 56.285156 86.789062 57.492188 87.386719 59.117188 C 87.417969 59.21875 87.488281 59.257812 87.589844 59.230469 Z M 89.960938 56.082031 C 90.015625 56.132812 90.078125 56.136719 90.140625 56.09375 C 90.507812 55.867188 91.21875 55.570312 90.996094 56.273438 C 90.792969 56.773438 90.484375 57.195312 90.066406 57.535156 C 89.363281 58.15625 88.5625 58.597656 87.664062 58.863281 C 87.359375 57.613281 88.9375 56.644531 89.960938 56.082031 Z M 92.71875 44.207031 C 94.75 43.839844 97.878906 42.355469 97.175781 39.820312 C 96.613281 37.773438 93.839844 41.195312 93.441406 41.824219 C 93.398438 41.882812 93.398438 41.941406 93.445312 41.996094 C 93.066406 42.632812 92.753906 43.304688 92.515625 44.007812 C 92.472656 44.136719 92.605469 44.226562 92.71875 44.207031 Z M 93.886719 41.90625 C 93.929688 41.855469 93.929688 41.804688 93.890625 41.75 C 94.613281 40.757812 96.722656 38.378906 96.945312 40.371094 C 97.167969 42.3125 94.589844 43.453125 92.933594 43.828125 C 93.175781 43.152344 93.492188 42.511719 93.886719 41.90625 Z M 97.730469 47.785156 C 97.765625 47.75 97.78125 47.703125 97.773438 47.652344 C 97.769531 47.601562 97.742188 47.5625 97.699219 47.53125 C 96.414062 46.746094 95.015625 46.433594 93.515625 46.585938 C 92.511719 46.707031 92.15625 47.652344 92.957031 48.339844 C 93.929688 49.175781 98.910156 50.257812 97.730469 47.785156 Z M 95.925781 49.027344 C 94.949219 48.96875 94.054688 48.671875 93.234375 48.140625 C 92.886719 47.894531 92.613281 47.335938 93.070312 47.050781 C 93.542969 46.859375 94.027344 46.8125 94.523438 46.910156 C 95.539062 46.96875 96.488281 47.238281 97.382812 47.722656 C 97.371094 47.765625 97.375 47.804688 97.394531 47.839844 C 98 48.984375 96.78125 49.097656 95.925781 49.027344 Z M 85 55.277344 C 84.964844 55.25 84.925781 55.242188 84.882812 55.253906 C 84.839844 55.269531 84.808594 55.292969 84.789062 55.335938 C 84.292969 56.539062 84.089844 57.789062 84.179688 59.085938 C 84.21875 59.929688 84.675781 60.910156 85.59375 60.15625 C 86.667969 59.277344 86.898438 54.328125 85 55.277344 Z M 84.515625 58.207031 C 84.539062 57.324219 84.703125 56.46875 85.015625 55.640625 C 85.128906 55.5625 85.253906 55.519531 85.390625 55.511719 C 86.433594 55.511719 86.132812 59.164062 85.476562 59.835938 C 84.46875 60.855469 84.488281 58.738281 84.515625 58.207031 Z M 86.453125 61.179688 C 87.875 61.417969 89.65625 60.925781 90.988281 60.464844 C 91.378906 60.332031 91.972656 60.140625 92.121094 59.707031 C 92.265625 59.277344 91.566406 59.066406 91.273438 58.976562 C 91.261719 58.972656 91.25 58.96875 91.238281 58.96875 L 91.234375 58.96875 C 91.21875 58.964844 91.207031 58.960938 91.191406 58.960938 L 91.179688 58.960938 C 91.171875 58.960938 91.164062 58.960938 91.15625 58.964844 C 89.480469 59.074219 87.371094 59.460938 86.355469 60.9375 C 86.328125 60.984375 86.324219 61.03125 86.34375 61.082031 C 86.367188 61.132812 86.402344 61.164062 86.453125 61.179688 Z M 91.171875 59.289062 C 91.695312 59.449219 91.996094 59.625 91.398438 59.941406 C 90.882812 60.179688 90.351562 60.355469 89.796875 60.46875 C 88.820312 60.769531 87.824219 60.90625 86.804688 60.890625 C 87.804688 59.703125 89.714844 59.390625 91.171875 59.289062 Z M 81.140625 56.019531 C 81.046875 55.964844 80.972656 55.984375 80.917969 56.078125 C 79.90625 57.390625 80.03125 59.757812 80.917969 61.101562 C 81.1875 61.515625 81.789062 62.183594 82.363281 62.085938 C 82.863281 62 82.941406 61.507812 82.917969 61.054688 C 82.9375 61.03125 82.945312 61.007812 82.949219 60.980469 C 83.195312 59.152344 82.847656 57.039062 81.140625 56.019531 Z M 82.675781 60.457031 C 82.574219 60.484375 82.53125 60.546875 82.550781 60.652344 C 82.632812 60.980469 82.621094 61.308594 82.511719 61.628906 C 82.324219 62.039062 81.695312 61.476562 81.5625 61.355469 C 81.125 60.917969 80.84375 60.390625 80.71875 59.78125 C 80.378906 58.597656 80.507812 57.464844 81.109375 56.390625 C 82.429688 57.273438 82.789062 58.933594 82.675781 60.457031 Z M 76.070312 59.6875 C 75.042969 59.558594 74.59375 60.222656 75 61.015625 C 74.945312 61.089844 74.949219 61.15625 75.011719 61.21875 C 75.8125 62.203125 76.742188 63.046875 77.796875 63.75 C 77.941406 63.867188 78.105469 63.929688 78.289062 63.941406 C 78.472656 63.949219 78.644531 63.90625 78.796875 63.804688 C 79.207031 63.460938 78.964844 62.582031 78.878906 62.167969 C 78.804688 61.839844 78.683594 61.53125 78.511719 61.242188 C 78.339844 60.953125 78.128906 60.695312 77.875 60.472656 C 77.625 60.25 77.34375 60.074219 77.035156 59.9375 C 76.726562 59.804688 76.40625 59.722656 76.070312 59.6875 Z M 78.25 63.589844 C 77.832031 63.429688 77.464844 63.191406 77.148438 62.878906 C 76.550781 62.363281 75.988281 61.808594 75.460938 61.222656 C 75.472656 61.175781 75.464844 61.136719 75.433594 61.101562 C 75.21875 60.804688 74.894531 60.28125 75.390625 60.074219 C 75.792969 59.957031 76.1875 59.976562 76.578125 60.128906 C 77.140625 60.296875 77.609375 60.605469 77.980469 61.058594 C 78.355469 61.511719 78.570312 62.03125 78.628906 62.613281 C 78.691406 62.953125 78.8125 63.742188 78.25 63.589844 Z M 148.867188 23.042969 C 148.574219 22.414062 148.167969 21.875 147.648438 21.417969 C 147.125 20.960938 146.535156 20.632812 145.871094 20.429688 C 145.28125 20.230469 144.679688 20.132812 144.058594 20.128906 C 141.78125 20.128906 139.542969 21.554688 137.539062 24.265625 C 137.144531 24.167969 136.742188 24.121094 136.332031 24.121094 C 135.757812 24.128906 135.191406 24.203125 134.636719 24.34375 C 131.582031 25.113281 128.976562 27.515625 126.695312 31.679688 C 126.515625 31.664062 126.332031 31.660156 126.152344 31.660156 C 125.261719 31.660156 124.394531 31.808594 123.550781 32.097656 C 123.757812 27.71875 121.574219 23.214844 116.738281 21.75 C 115.585938 21.410156 114.410156 21.246094 113.207031 21.253906 C 110.78125 21.308594 108.4375 21.769531 106.175781 22.640625 C 104.511719 23.246094 102.949219 24.042969 101.484375 25.039062 C 101.449219 22.476562 100.683594 20.15625 99.191406 18.074219 C 98.699219 17.386719 98.089844 16.828125 97.359375 16.398438 C 96.632812 15.96875 95.847656 15.707031 95.007812 15.613281 C 96.292969 11.957031 97.132812 8.375 95.8125 5.828125 C 95.484375 5.195312 95.035156 4.660156 94.464844 4.226562 C 93.898438 3.792969 93.265625 3.5 92.566406 3.347656 C 92.027344 3.214844 91.476562 3.148438 90.917969 3.148438 C 88.824219 3.148438 86.382812 4.011719 83.453125 5.789062 C 82.230469 6.535156 81.117188 7.421875 80.113281 8.445312 C 79.945312 8.066406 79.730469 7.71875 79.457031 7.402344 C 79.1875 7.085938 78.878906 6.816406 78.53125 6.59375 C 78.179688 6.371094 77.804688 6.203125 77.40625 6.089844 C 77.007812 5.980469 76.597656 5.929688 76.183594 5.9375 C 75.726562 5.941406 75.273438 5.996094 74.824219 6.101562 C 72.027344 6.742188 69.652344 9.253906 68.15625 11.246094 C 66.777344 13.054688 65.695312 15.03125 64.910156 17.167969 C 64.25 16 63.382812 15.019531 62.304688 14.226562 C 61.582031 13.691406 60.769531 13.414062 59.871094 13.394531 C 59.625 13.394531 59.382812 13.417969 59.144531 13.46875 C 58.695312 11.414062 58.097656 9.402344 57.355469 7.4375 C 56.292969 4.683594 54.957031 1.945312 52.382812 0.578125 C 51.667969 0.191406 50.90625 0 50.097656 0 C 47.957031 0 45.796875 1.476562 44.714844 3.679688 C 43.476562 6.199219 43.625 9.082031 43.960938 11.035156 C 41.871094 12.558594 41.71875 15.648438 41.941406 18.027344 C 41.640625 17.964844 41.335938 17.933594 41.027344 17.933594 C 40.050781 17.929688 39.183594 18.242188 38.429688 18.863281 C 37.828125 19.339844 37.34375 19.917969 36.980469 20.59375 C 36.617188 21.265625 36.398438 21.988281 36.332031 22.75 C 33.160156 23.5 29.617188 25.683594 27.847656 28.613281 C 27.800781 28.574219 27.75 28.535156 27.695312 28.5 C 26.785156 27.789062 25.75 27.402344 24.597656 27.339844 C 23.996094 27.335938 23.441406 27.484375 22.921875 27.785156 C 22.285156 28.15625 21.785156 28.660156 21.421875 29.296875 C 20.253906 28.410156 18.980469 27.730469 17.65625 27.730469 C 16.929688 27.726562 16.261719 27.925781 15.652344 28.328125 C 14.664062 28.949219 14.019531 29.824219 13.714844 30.953125 C 11.875 29.542969 9.851562 28.402344 7.480469 28.125 C 7.269531 28.101562 7.054688 28.089844 6.84375 28.089844 C 3.582031 28.089844 1.59375 31.011719 1.128906 33.730469 C 0.148438 39.480469 3.585938 43.871094 7.625 47.738281 C 7.460938 50.273438 7.503906 52.808594 7.757812 55.335938 C 7.746094 55.546875 7.765625 55.753906 7.816406 55.960938 C 7.945312 57.210938 8.109375 58.519531 8.320312 59.957031 C 8.957031 64.347656 10.082031 68.605469 11.699219 72.734375 C 13.320312 76.863281 15.386719 80.753906 17.90625 84.40625 C 20.460938 88.171875 23.378906 91.621094 26.667969 94.765625 C 29.957031 97.90625 33.539062 100.667969 37.417969 103.046875 C 37.59375 105.074219 38.949219 107.210938 41.535156 109.5625 C 44.722656 112.457031 48.585938 114.25 54.0625 115.371094 C 60.53125 116.625 67.058594 117.21875 73.644531 117.148438 C 73.855469 117.148438 74.066406 117.121094 74.269531 117.0625 C 74.472656 117.121094 74.679688 117.148438 74.890625 117.148438 C 81.472656 117.191406 87.996094 116.597656 94.464844 115.375 C 99.394531 114.398438 103.246094 112.664062 106.59375 109.917969 C 108.207031 108.585938 110.816406 106.023438 111.113281 103.105469 C 114.601562 101.019531 117.851562 98.609375 120.863281 95.875 C 123.875 93.140625 126.589844 90.140625 129.003906 86.867188 C 131.421875 83.59375 133.492188 80.117188 135.214844 76.433594 C 136.941406 72.753906 138.289062 68.9375 139.257812 64.984375 C 139.953125 62.03125 140.433594 59.046875 140.703125 56.023438 C 140.777344 55.753906 140.800781 55.480469 140.769531 55.199219 C 140.851562 54.140625 140.914062 53.070312 140.949219 52.019531 L 140.972656 51.367188 C 141.128906 49.78125 141 48.214844 140.578125 46.675781 C 143.34375 42.347656 145.457031 37.761719 147.757812 32.242188 C 149.460938 28.160156 149.824219 25.152344 148.867188 23.042969 Z M 98.839844 31.371094 C 102.695312 27.042969 108.296875 23.953125 114.226562 24.347656 C 114.796875 24.363281 115.359375 24.453125 115.90625 24.617188 C 116.453125 24.78125 116.96875 25.011719 117.457031 25.308594 C 117.945312 25.609375 118.386719 25.964844 118.78125 26.375 C 119.175781 26.789062 119.511719 27.246094 119.785156 27.746094 C 121.160156 30.339844 120.652344 34.460938 118.867188 36.710938 C 118.78125 36.8125 118.726562 36.929688 118.695312 37.058594 C 118.636719 37.035156 118.578125 37.019531 118.515625 37.007812 C 118.027344 36.875 117.527344 36.839844 117.023438 36.902344 C 116.648438 36.941406 116.277344 37.015625 115.917969 37.132812 C 115.855469 37.152344 115.792969 37.171875 115.734375 37.191406 C 114.515625 37.625 113.394531 38.238281 112.375 39.03125 C 111.355469 39.824219 110.484375 40.753906 109.765625 41.828125 C 109.714844 41.894531 109.671875 41.960938 109.628906 42.03125 C 109.234375 42.609375 108.886719 43.214844 108.578125 43.847656 C 108.238281 44.53125 107.945312 45.234375 107.695312 45.957031 C 107.449219 45.511719 107.121094 45.136719 106.707031 44.839844 C 106.398438 44.617188 106.050781 44.503906 105.667969 44.496094 C 105.664062 44.332031 105.664062 44.160156 105.65625 43.996094 C 105.636719 43.546875 105.601562 43.109375 105.539062 42.679688 C 105.507812 42.394531 105.460938 42.113281 105.410156 41.835938 C 105.179688 40.585938 104.785156 39.386719 104.230469 38.242188 C 104.226562 38.238281 104.222656 38.234375 104.222656 38.230469 C 104.085938 37.953125 103.945312 37.683594 103.792969 37.417969 L 103.792969 37.414062 C 103.511719 36.925781 103.203125 36.457031 102.867188 36.003906 C 102.582031 35.617188 102.273438 35.246094 101.945312 34.890625 C 101.664062 34.585938 101.371094 34.289062 101.0625 34.003906 C 100.730469 33.699219 100.386719 33.40625 100.023438 33.136719 C 99.785156 32.953125 99.546875 32.777344 99.296875 32.609375 C 99.289062 32.558594 99.277344 32.511719 99.261719 32.464844 C 99.140625 32.09375 99 31.730469 98.839844 31.371094 Z M 121.042969 46.390625 C 121.808594 45.074219 124.667969 42.628906 125.53125 45.21875 C 126.0625 46.824219 124.773438 49.09375 124.121094 50.5 C 123.945312 50.816406 123.96875 51.121094 124.191406 51.410156 C 124.410156 51.695312 124.699219 51.796875 125.050781 51.707031 C 125.136719 51.683594 125.226562 51.664062 125.316406 51.660156 C 125.277344 51.75 125.234375 51.84375 125.199219 51.9375 C 125.097656 52.179688 125.144531 52.390625 125.335938 52.574219 C 125.199219 53.164062 125.019531 53.742188 124.796875 54.304688 C 124.398438 55.378906 123.914062 56.417969 123.351562 57.417969 C 123.238281 57.605469 123.210938 57.804688 123.265625 58.019531 C 120.582031 59.058594 117.84375 59.925781 115.050781 60.621094 C 113.03125 61.160156 110.992188 61.632812 108.941406 62.046875 C 109.054688 61.980469 109.171875 61.910156 109.285156 61.847656 C 110.703125 61.046875 112.101562 60.210938 113.488281 59.363281 C 116.316406 57.6875 118.984375 55.792969 121.492188 53.671875 C 121.574219 53.601562 121.46875 53.476562 121.378906 53.527344 C 118.519531 55.070312 115.769531 56.816406 112.90625 58.359375 C 111.546875 59.089844 110.203125 59.855469 108.847656 60.585938 C 109.035156 60.257812 109.214844 59.9375 109.398438 59.640625 C 110.546875 57.785156 111.605469 55.875 112.566406 53.914062 C 114.378906 50.207031 115.6875 46.332031 116.488281 42.285156 C 116.53125 42.066406 116.210938 41.972656 116.152344 42.191406 C 115.101562 46.101562 113.621094 49.84375 111.710938 53.414062 C 110.78125 55.183594 109.742188 56.894531 108.664062 58.578125 C 107.996094 59.625 107 60.738281 106.324219 61.90625 C 106.28125 61.664062 106.222656 61.421875 106.179688 61.175781 C 105.976562 60.027344 105.800781 58.882812 105.65625 57.722656 C 105.34375 55.484375 105.164062 53.230469 105.113281 50.96875 C 105.109375 50.867188 105.054688 50.8125 104.949219 50.8125 C 104.847656 50.8125 104.792969 50.867188 104.789062 50.96875 C 104.617188 53.386719 104.628906 55.800781 104.820312 58.210938 C 104.90625 59.410156 104.769531 61.460938 105.34375 62.722656 C 103.761719 62.992188 102.175781 63.238281 100.585938 63.453125 C 101.433594 60.324219 100.273438 57.015625 98.378906 54.347656 C 98.394531 54.332031 98.402344 54.3125 98.414062 54.292969 C 99.597656 52.070312 101.027344 50.023438 102.707031 48.144531 C 103.410156 47.371094 104.25 46.507812 105.277344 46.199219 C 106.558594 45.804688 106.789062 48.445312 106.871094 49.15625 C 106.972656 50.003906 108.300781 50.367188 108.488281 49.375 C 109.199219 45.65625 110.742188 42.113281 113.96875 39.929688 C 115.101562 39.15625 117.292969 37.796875 118.597656 38.867188 C 120.4375 40.367188 119.863281 43.757812 119.535156 45.753906 C 119.390625 46.632812 120.539062 47.242188 121.042969 46.390625 Z M 82.667969 62.71875 C 82.609375 62.625 82.535156 62.605469 82.441406 62.65625 C 81.378906 63.121094 80.773438 64.082031 80.257812 65.066406 C 77.75 65.140625 75.238281 65.164062 72.726562 65.144531 C 72.714844 65.117188 72.699219 65.089844 72.675781 65.0625 C 70.898438 62.773438 75.03125 58.09375 76.640625 56.722656 C 79 54.710938 82.386719 53.839844 85.417969 53.570312 C 88.203125 53.324219 91.363281 53.675781 93.421875 55.746094 C 95.472656 57.8125 95.4375 62.191406 93.335938 64.269531 C 91.882812 64.40625 90.429688 64.523438 88.980469 64.628906 C 86.832031 64.785156 84.683594 64.902344 82.53125 64.988281 C 82.925781 64.25 82.972656 63.496094 82.667969 62.71875 Z M 82.171875 65.003906 C 81.660156 65.023438 81.148438 65.039062 80.636719 65.058594 C 81.023438 64.191406 81.625 63.515625 82.441406 63.03125 C 82.617188 63.722656 82.527344 64.382812 82.171875 65.003906 Z M 95.054688 56.335938 C 93.449219 53.152344 89.390625 52.449219 86.1875 52.535156 C 82.429688 52.636719 78.484375 53.851562 75.605469 56.308594 C 73.621094 58 70.320312 62.285156 71.601562 65.132812 C 70.832031 65.125 70.0625 65.109375 69.292969 65.089844 L 69.289062 65.089844 C 67.035156 62.035156 70.964844 57.140625 73.039062 54.964844 C 75.859375 51.996094 79.875 50.410156 83.890625 49.988281 C 85.6875 49.761719 87.46875 49.851562 89.238281 50.253906 C 91.003906 50.65625 92.648438 51.347656 94.171875 52.328125 C 97.429688 54.527344 100.445312 59.777344 98.792969 63.6875 L 98.789062 63.6875 C 97.429688 63.855469 96.070312 64.003906 94.707031 64.136719 C 96.210938 61.921875 96.226562 58.65625 95.054688 56.335938 Z M 67.351562 65.035156 C 64.351562 64.9375 61.351562 64.777344 58.351562 64.550781 C 58.042969 64.527344 57.730469 64.503906 57.421875 64.476562 C 60.390625 63.957031 63.363281 63.582031 66.039062 61.917969 C 66.457031 61.65625 66.859375 61.375 67.246094 61.066406 C 66.800781 62.402344 66.835938 63.722656 67.351562 65.035156 Z M 64.003906 61.1875 C 60.617188 62.984375 56.484375 62.65625 52.882812 63.851562 C 52.769531 63.886719 52.664062 63.949219 52.574219 64.027344 C 52.402344 64.011719 52.230469 63.992188 52.058594 63.972656 C 51.953125 63.859375 51.824219 63.78125 51.675781 63.742188 C 49.066406 62.984375 46.453125 61.824219 45.367188 59.148438 C 44.320312 56.566406 44.566406 53.425781 45.386719 50.832031 C 47.34375 44.628906 53.957031 41.363281 60.109375 41.398438 C 66.902344 41.441406 72.125 47.261719 70.1875 54.058594 C 69.289062 57.203125 66.828125 59.6875 64.003906 61.1875 Z M 35.351562 59.617188 C 37.414062 60.195312 39.253906 61.292969 41.21875 62.117188 C 41.566406 62.261719 41.964844 62.433594 42.386719 62.597656 C 39.460938 62.074219 36.554688 61.453125 33.683594 60.703125 C 33.738281 60.433594 33.667969 60.199219 33.476562 60 C 31.886719 58.246094 32.472656 54.890625 35.199219 54.921875 C 35.382812 54.921875 35.546875 54.863281 35.691406 54.75 C 35.835938 54.636719 35.933594 54.488281 35.984375 54.3125 C 36.03125 54.136719 36.023438 53.960938 35.953125 53.789062 C 35.886719 53.617188 35.773438 53.484375 35.617188 53.386719 C 34.398438 52.730469 33.105469 51.613281 33.449219 50.074219 C 33.882812 48.128906 36.324219 49.589844 37.144531 50.289062 C 37.304688 50.441406 37.496094 50.515625 37.71875 50.511719 C 37.941406 50.507812 38.132812 50.425781 38.289062 50.269531 C 38.445312 50.113281 38.527344 49.921875 38.53125 49.703125 C 38.535156 49.480469 38.460938 49.285156 38.308594 49.125 C 36.773438 47.292969 35.167969 45.46875 34.507812 43.125 C 33.996094 41.300781 34.695312 39.429688 36.753906 39.460938 C 41.296875 39.535156 42.242188 47.082031 43.300781 50.253906 C 43.367188 50.472656 43.503906 50.628906 43.703125 50.730469 C 43.125 52.648438 42.929688 54.601562 43.121094 56.59375 C 42.589844 55.582031 42.085938 54.554688 41.589844 53.527344 C 40.007812 50.261719 38.964844 46.640625 37.175781 43.492188 C 37.136719 43.433594 37.085938 43.417969 37.019531 43.445312 C 36.957031 43.472656 36.929688 43.519531 36.949219 43.589844 C 37.699219 47.097656 39.253906 50.628906 40.628906 53.929688 C 41.023438 54.875 41.457031 55.800781 41.921875 56.714844 C 41.894531 56.703125 41.871094 56.691406 41.851562 56.679688 C 40.839844 56.183594 39.871094 55.617188 38.945312 54.980469 C 38.828125 54.890625 38.683594 55.085938 38.789062 55.179688 C 39.578125 55.875 40.417969 56.480469 41.226562 57.144531 C 41.621094 57.542969 42.082031 57.835938 42.609375 58.027344 C 42.722656 58.238281 42.835938 58.449219 42.953125 58.65625 C 43.425781 59.5 44.066406 60.925781 44.949219 61.660156 C 45.109375 61.863281 45.28125 62.050781 45.460938 62.234375 C 45.417969 62.25 45.378906 62.269531 45.339844 62.292969 C 44.851562 62.234375 44.355469 62.21875 43.859375 62.125 C 42.714844 61.855469 41.609375 61.464844 40.546875 60.957031 C 38.917969 60.191406 37.230469 59.582031 35.488281 59.125 C 35.328125 59.089844 35.226562 59.148438 35.183594 59.308594 C 35.140625 59.464844 35.195312 59.570312 35.351562 59.617188 Z M 31.167969 56.351562 C 30.023438 52.585938 31.25 48.773438 33.640625 45.5625 C 34.003906 46.242188 34.414062 46.894531 34.878906 47.511719 C 34.359375 47.472656 33.867188 47.566406 33.398438 47.789062 C 32.929688 48.011719 32.546875 48.339844 32.253906 48.765625 C 30.988281 50.417969 31.929688 52.359375 33.277344 53.683594 C 32.746094 53.949219 32.296875 54.316406 31.929688 54.785156 C 31.5625 55.25 31.308594 55.773438 31.167969 56.351562 Z M 31.601562 60.144531 C 31.125 60.007812 30.652344 59.871094 30.179688 59.726562 C 30.144531 59.574219 30.070312 59.445312 29.960938 59.339844 C 27.535156 56.886719 28.003906 53.003906 28.765625 49.949219 C 29.4375 47.015625 30.753906 44.40625 32.707031 42.121094 C 32.710938 42.960938 32.871094 43.769531 33.183594 44.550781 C 29.953125 48.691406 28.527344 53.757812 31.039062 58.632812 C 31.054688 58.667969 31.074219 58.695312 31.097656 58.722656 C 31.195312 59.222656 31.363281 59.695312 31.601562 60.144531 Z M 45.175781 44.097656 C 45.136719 44.058594 45.089844 44.042969 45.039062 44.050781 C 44.984375 44.058594 44.945312 44.085938 44.917969 44.132812 C 44.089844 45.273438 44.257812 46.691406 44.355469 48.039062 C 43.839844 46.054688 43.175781 44.125 42.355469 42.246094 C 44.605469 41.601562 46.738281 42.324219 48.703125 43.480469 C 47.6875 44.273438 46.785156 45.183594 46 46.210938 C 45.933594 45.425781 45.660156 44.722656 45.175781 44.097656 Z M 45.707031 46.605469 C 45.332031 47.132812 44.992188 47.683594 44.699219 48.261719 C 44.609375 46.984375 44.402344 45.617188 45.066406 44.503906 C 45.480469 45.144531 45.695312 45.84375 45.707031 46.605469 Z M 41.890625 41.351562 C 41.382812 40.402344 40.71875 39.578125 39.894531 38.882812 C 41.679688 38.554688 43.445312 38.617188 45.199219 39.078125 C 47.417969 39.59375 48.980469 40.820312 50.761719 42.09375 C 50.355469 42.328125 49.953125 42.578125 49.566406 42.847656 C 47.230469 41.398438 44.589844 40.472656 41.890625 41.351562 Z M 91.402344 29.8125 C 89.644531 29.652344 87.910156 29.785156 86.195312 30.210938 C 86.347656 29.726562 86.394531 29.230469 86.332031 28.726562 C 86.332031 28.671875 86.308594 28.628906 86.265625 28.597656 C 86.226562 28.566406 86.175781 28.554688 86.125 28.570312 C 84.765625 28.859375 83.839844 30.054688 83.320312 31.296875 C 82.859375 31.535156 82.410156 31.800781 81.984375 32.09375 C 82.375 31.507812 82.703125 30.886719 82.960938 30.230469 C 83.417969 29.128906 84.03125 27.441406 83.261719 26.335938 C 83.207031 26.246094 83.128906 26.226562 83.039062 26.277344 C 81.101562 27.574219 80.792969 29.851562 80.589844 32.011719 C 80.394531 31.492188 80.175781 30.980469 79.9375 30.476562 C 79.960938 30.460938 79.976562 30.441406 79.984375 30.417969 C 80.191406 29.910156 80.269531 29.382812 80.222656 28.839844 C 80.175781 28.292969 80.007812 27.789062 79.71875 27.324219 C 79.664062 27.230469 79.589844 27.210938 79.496094 27.265625 C 79.144531 27.496094 78.863281 27.789062 78.652344 28.148438 C 78.152344 27.375 77.601562 26.640625 77 25.941406 C 81.972656 24.9375 88.199219 25.464844 91.402344 29.8125 Z M 76.371094 25.066406 C 76.324219 25.074219 76.28125 25.089844 76.238281 25.113281 C 75.898438 24.761719 75.550781 24.433594 75.1875 24.117188 C 77.164062 23.511719 79.183594 23.203125 81.25 23.1875 C 83.320312 23.175781 85.34375 23.460938 87.328125 24.039062 C 91.109375 25.175781 95.09375 27.722656 96.996094 31.3125 C 96.144531 30.921875 95.269531 30.601562 94.367188 30.351562 C 93.816406 30.199219 93.261719 30.074219 92.703125 29.980469 L 92.699219 29.980469 C 89.363281 24.5 82.070312 23.8125 76.371094 25.066406 Z M 86.019531 28.9375 C 86.039062 29.410156 85.972656 29.867188 85.820312 30.316406 C 85.121094 30.511719 84.445312 30.761719 83.785156 31.070312 C 84.21875 30.03125 84.964844 29.324219 86.019531 28.9375 Z M 80.855469 32.78125 C 80.851562 32.769531 80.847656 32.761719 80.84375 32.75 L 80.84375 32.746094 C 81.050781 30.5625 81.160156 28.046875 83.074219 26.660156 C 83.601562 27.632812 83.089844 29.027344 82.71875 29.960938 C 82.355469 30.890625 81.75 32.179688 80.855469 32.78125 Z M 79.519531 27.660156 C 79.949219 28.4375 80.027344 29.246094 79.753906 30.089844 C 79.476562 29.535156 79.175781 28.992188 78.847656 28.464844 C 79.011719 28.144531 79.234375 27.875 79.519531 27.660156 Z M 86.722656 41.480469 C 86.625 41.398438 86.527344 41.324219 86.425781 41.253906 L 86.421875 41.253906 C 86.339844 40.929688 86.304688 40.597656 86.316406 40.261719 C 86.347656 39.132812 87.335938 39.523438 87.785156 40.113281 C 88.300781 40.820312 88.683594 41.589844 88.9375 42.429688 C 89.148438 43.179688 89.277344 43.949219 89.316406 44.730469 C 89.351562 45.082031 89.332031 45.433594 89.257812 45.78125 C 89.105469 46.425781 88.507812 45.828125 88.261719 45.582031 C 88.253906 45.574219 88.246094 45.570312 88.242188 45.566406 L 88.242188 45.5625 C 88.359375 44.054688 88.050781 42.601562 86.722656 41.480469 Z M 88.199219 45.96875 C 88.773438 46.460938 89.492188 46.648438 89.625 45.625 C 89.726562 44.453125 89.589844 43.308594 89.210938 42.195312 C 88.890625 41.203125 88.191406 39.460938 87.082031 39.164062 C 86.011719 38.875 85.925781 40.09375 86.085938 41.054688 C 84.800781 40.390625 83.351562 40.769531 82.195312 41.597656 C 82.105469 41.128906 82.003906 40.640625 81.875 40.160156 C 81.890625 40.128906 81.90625 40.097656 81.921875 40.0625 C 83.722656 35.078125 88.988281 33.304688 93.847656 34.609375 C 99.355469 36.089844 103.34375 42.570312 100.460938 48.03125 C 100.433594 48.078125 100.417969 48.125 100.40625 48.175781 C 99.21875 49.671875 98.175781 51.261719 97.273438 52.945312 C 97.03125 52.671875 96.789062 52.410156 96.539062 52.160156 C 94.203125 49.8125 90.960938 48.671875 87.675781 48.359375 C 87.910156 47.574219 88.082031 46.777344 88.199219 45.96875 Z M 82.375 43.640625 C 83.378906 42.3125 85.152344 41.839844 86.230469 43.355469 C 87.203125 44.726562 86.445312 46.777344 85.992188 48.265625 C 85.28125 48.257812 84.578125 48.285156 83.890625 48.339844 C 80.375 48.621094 77.171875 49.769531 74.277344 51.785156 C 73.484375 48.875 71.722656 46.402344 70.46875 43.671875 C 69.730469 42.070312 69.601562 40.261719 69.539062 38.515625 C 69.527344 38.117188 69.59375 34.386719 70.074219 34.457031 C 71.097656 34.601562 71.960938 36.480469 72.371094 37.234375 C 73.238281 38.84375 73.75 40.640625 74.390625 42.347656 C 74.640625 43.019531 75.851562 43.238281 75.976562 42.347656 C 76.128906 41.300781 77.132812 36.546875 78.96875 38.003906 C 80.359375 39.105469 80.550781 41.824219 80.867188 43.445312 C 81.023438 44.222656 81.992188 44.148438 82.375 43.640625 Z M 72.855469 52.902344 C 72.558594 53.152344 72.269531 53.421875 71.988281 53.695312 C 71.992188 53.683594 71.996094 53.671875 71.996094 53.664062 C 72.203125 52.808594 72.300781 51.941406 72.285156 51.0625 C 72.523438 51.65625 72.714844 52.265625 72.851562 52.890625 C 72.851562 52.894531 72.851562 52.898438 72.855469 52.902344 Z M 104.019531 44.949219 C 103.738281 45.097656 103.46875 45.261719 103.214844 45.449219 C 102.84375 45.722656 102.492188 46.011719 102.152344 46.320312 C 103.453125 40.933594 99.621094 35.445312 94.421875 33.75 C 89.34375 32.089844 83.742188 34.007812 81.410156 38.761719 C 81.09375 37.921875 80.585938 37.222656 79.882812 36.667969 C 82.722656 31.90625 88.429688 30.65625 93.570312 31.847656 C 99.84375 33.304688 104.121094 38.441406 104.019531 44.949219 Z M 73.429688 10.160156 C 74.574219 9.292969 76.546875 8.136719 77.492188 9.792969 C 78.242188 11.109375 77.921875 13.070312 77.574219 14.449219 C 77.347656 15.332031 78.648438 15.9375 79.078125 15.085938 C 81.308594 10.652344 86.074219 6.144531 91.382812 6.21875 C 96.097656 6.285156 91.222656 16.925781 90.644531 18.730469 C 90.554688 19.085938 90.652344 19.375 90.945312 19.597656 C 91.234375 19.820312 91.539062 19.839844 91.855469 19.660156 C 97.625 15.601562 99.875 25.230469 97.605469 29.1875 C 96.402344 27.539062 94.9375 26.164062 93.214844 25.0625 C 94.011719 24.253906 94.871094 23.304688 95.023438 22.136719 C 95.039062 22.003906 94.851562 21.980469 94.792969 22.074219 C 94.238281 23.011719 93.53125 23.820312 92.675781 24.496094 C 92.621094 24.535156 92.578125 24.582031 92.542969 24.636719 C 91.328125 23.910156 90.058594 23.292969 88.738281 22.785156 C 87.675781 22.378906 86.585938 22.070312 85.46875 21.863281 C 85.554688 21.796875 85.617188 21.710938 85.652344 21.609375 C 87.164062 17.46875 90.136719 13.585938 90.796875 9.167969 C 90.828125 9.050781 90.78125 8.976562 90.664062 8.941406 C 90.546875 8.910156 90.46875 8.953125 90.433594 9.070312 C 89.109375 12.859375 87.066406 16.296875 85.359375 19.910156 C 84.90625 17.519531 84.164062 15.222656 83.132812 13.015625 C 83.078125 12.902344 82.898438 12.984375 82.929688 13.105469 C 83.519531 15.414062 83.886719 18.148438 84.980469 20.273438 C 85.011719 20.339844 85.066406 20.378906 85.136719 20.382812 C 85.007812 20.664062 84.878906 20.945312 84.757812 21.230469 C 84.664062 21.410156 84.675781 21.585938 84.796875 21.75 C 81.207031 21.25 77.691406 21.5625 74.246094 22.683594 C 74.011719 21.058594 73.574219 19.496094 73.503906 17.816406 C 73.421875 15.898438 73.753906 13.992188 73.6875 12.085938 C 73.6875 12.0625 73.675781 12.046875 73.652344 12.042969 C 73.625 12.039062 73.613281 12.050781 73.605469 12.074219 C 73.003906 13.867188 72.925781 15.941406 72.886719 17.816406 C 72.832031 19.058594 72.902344 20.292969 73.105469 21.519531 C 72.644531 20.917969 72.230469 20.28125 71.867188 19.613281 C 71.328125 18.507812 71.207031 17.195312 70.625 16.140625 C 70.597656 16.09375 70.554688 16.070312 70.5 16.078125 C 70.445312 16.085938 70.40625 16.117188 70.390625 16.171875 C 70.191406 17.359375 70.808594 18.792969 71.261719 19.867188 C 71.601562 20.777344 72.082031 21.601562 72.710938 22.339844 C 70.972656 21.308594 69.097656 20.722656 67.085938 20.582031 C 67.492188 18.523438 68.238281 16.597656 69.332031 14.808594 C 70.421875 13.015625 71.789062 11.464844 73.429688 10.160156 Z M 63.910156 22.492188 C 63.914062 22.488281 63.917969 22.488281 63.925781 22.488281 C 63.925781 22.488281 63.929688 22.484375 63.933594 22.484375 L 63.9375 22.484375 C 63.941406 22.484375 63.945312 22.480469 63.949219 22.480469 C 65.351562 22.15625 66.765625 22.117188 68.1875 22.363281 C 69.609375 22.613281 70.925781 23.128906 72.140625 23.914062 C 75.59375 26.019531 78.277344 29.808594 79.441406 33.777344 C 79.480469 33.925781 79.558594 34.054688 79.671875 34.15625 C 79.398438 34.472656 79.140625 34.800781 78.90625 35.148438 L 78.90625 35.152344 C 78.738281 35.394531 78.578125 35.636719 78.425781 35.890625 C 78.394531 35.941406 78.371094 35.996094 78.351562 36.054688 C 78.164062 36.039062 77.980469 36.046875 77.796875 36.082031 C 77.75 36.089844 77.703125 36.101562 77.65625 36.113281 C 77.148438 36.261719 76.726562 36.535156 76.382812 36.933594 C 75.796875 37.632812 75.355469 38.410156 75.066406 39.273438 C 74.988281 39.046875 74.90625 38.820312 74.820312 38.59375 L 74.820312 38.589844 C 74.558594 37.871094 74.261719 37.167969 73.925781 36.484375 C 73.410156 35.363281 72.691406 34.398438 71.765625 33.585938 L 71.761719 33.585938 C 71.527344 33.390625 71.28125 33.222656 71.023438 33.070312 C 69.257812 32.042969 68.292969 34.085938 68.058594 35.492188 C 67.898438 36.472656 67.832031 37.460938 67.863281 38.453125 C 67.875 38.980469 67.910156 39.507812 67.960938 40.03125 C 68.011719 40.511719 68.074219 40.988281 68.148438 41.457031 C 68.1875 41.734375 68.238281 42.007812 68.285156 42.277344 C 68.308594 42.390625 68.332031 42.507812 68.355469 42.625 C 67.28125 41.730469 66.082031 41.050781 64.761719 40.59375 C 64.757812 40.597656 64.757812 40.597656 64.757812 40.59375 C 63.800781 40.25 62.816406 40.015625 61.804688 39.886719 L 61.800781 39.886719 C 61.527344 39.847656 61.25 39.816406 60.972656 39.792969 C 60.636719 39.761719 60.304688 39.742188 59.964844 39.734375 C 59.371094 39.722656 58.777344 39.738281 58.1875 39.785156 C 57.25 39.863281 56.328125 40.011719 55.414062 40.238281 C 53.9375 37.4375 53.945312 34.207031 54.804688 31.183594 C 55.789062 27.722656 58.121094 25.191406 61.253906 23.519531 C 62.09375 23.066406 62.976562 22.722656 63.90625 22.492188 Z M 41.042969 20.96875 C 42.324219 20.835938 43.613281 22.328125 44.394531 23.15625 C 44.527344 23.285156 44.683594 23.359375 44.867188 23.382812 C 45.050781 23.402344 45.222656 23.367188 45.382812 23.273438 C 45.542969 23.179688 45.65625 23.050781 45.730469 22.878906 C 45.800781 22.710938 45.816406 22.535156 45.769531 22.355469 C 45.386719 20.621094 43.53125 13.425781 46.515625 13.183594 C 46.644531 13.179688 46.761719 13.152344 46.878906 13.09375 C 46.992188 13.035156 47.085938 12.957031 47.164062 12.855469 C 47.242188 12.753906 47.292969 12.640625 47.320312 12.515625 C 47.34375 12.390625 47.339844 12.265625 47.308594 12.140625 C 46.636719 9.976562 46.59375 7.796875 47.183594 5.605469 C 47.914062 3.125 50.335938 2.292969 52.132812 4.164062 C 53.613281 5.703125 54.386719 7.988281 55.0625 9.964844 C 55.898438 12.542969 56.519531 15.171875 56.925781 17.851562 C 57.027344 18.199219 57.253906 18.394531 57.613281 18.441406 C 57.972656 18.488281 58.242188 18.359375 58.429688 18.050781 C 58.679688 17.46875 59.101562 16.242188 59.9375 16.375 C 60.550781 16.472656 61.046875 17.09375 61.429688 17.527344 C 62.289062 18.550781 62.925781 19.695312 63.339844 20.960938 C 62.65625 21.144531 61.992188 21.378906 61.34375 21.667969 C 59.75 22.363281 58.316406 23.308594 57.050781 24.503906 C 57.996094 22.449219 59.359375 20.605469 59.929688 18.378906 C 59.960938 18.242188 59.765625 18.152344 59.695312 18.28125 C 58.335938 20.882812 56.191406 23.246094 55.558594 26.164062 C 55.394531 26.378906 55.238281 26.597656 55.085938 26.824219 C 54.894531 25.660156 54.417969 24.449219 54.164062 23.378906 C 53.695312 21.398438 53.269531 19.40625 52.855469 17.414062 C 52.039062 13.496094 51.222656 9.511719 49.71875 5.789062 C 49.65625 5.632812 49.410156 5.6875 49.460938 5.859375 C 50.496094 9.542969 51.367188 13.234375 52.09375 16.992188 C 52.480469 18.996094 52.828125 21.007812 53.203125 23.011719 C 53.488281 24.53125 53.585938 26.589844 54.382812 27.988281 C 54.335938 28.074219 54.285156 28.160156 54.242188 28.25 C 53.832031 27.597656 53.09375 27.132812 52.546875 26.59375 C 51.566406 25.570312 50.683594 24.46875 49.898438 23.285156 C 48.558594 21.378906 47.570312 19.296875 46.367188 17.316406 C 46.34375 17.273438 46.308594 17.261719 46.261719 17.28125 C 46.21875 17.300781 46.199219 17.332031 46.210938 17.378906 C 46.886719 19.738281 48.292969 21.988281 49.589844 24.046875 C 50.496094 25.480469 52.148438 28.484375 53.929688 28.878906 C 53.714844 29.34375 53.523438 29.820312 53.347656 30.316406 C 52.742188 32.011719 52.476562 33.761719 52.554688 35.558594 C 52.632812 37.359375 53.050781 39.074219 53.804688 40.710938 C 53.769531 40.722656 53.738281 40.738281 53.703125 40.75 C 53.425781 39.683594 52.226562 38.855469 51.511719 38.074219 C 50.410156 36.878906 49.351562 35.636719 48.324219 34.375 C 46.246094 31.886719 44.347656 29.265625 42.632812 26.511719 C 42.546875 26.371094 42.300781 26.464844 42.363281 26.621094 C 43.582031 29.519531 45.164062 32.203125 47.109375 34.675781 C 48.128906 36.027344 49.195312 37.34375 50.308594 38.621094 C 50.976562 39.382812 51.792969 40.628906 52.789062 41.101562 C 52.597656 41.183594 52.402344 41.261719 52.214844 41.351562 C 52.164062 41.144531 52.050781 40.984375 51.871094 40.867188 C 50.011719 39.550781 48.414062 38.378906 46.28125 37.683594 C 46.261719 37.546875 46.210938 37.425781 46.125 37.316406 C 44.007812 34.585938 42.175781 31.671875 40.640625 28.574219 C 40.109375 27.5 39.714844 26.378906 39.453125 25.210938 C 39.59375 25.019531 39.644531 24.804688 39.613281 24.570312 C 39.582031 24.335938 39.476562 24.144531 39.292969 23.996094 C 39.273438 23.765625 39.273438 23.53125 39.277344 23.296875 C 39.316406 22.273438 39.886719 21.089844 41.042969 20.96875 Z M 43.949219 37.140625 C 41.933594 36.816406 39.972656 37.007812 38.054688 37.707031 C 37.949219 37.75 37.855469 37.808594 37.777344 37.882812 C 37.164062 37.769531 36.554688 37.757812 35.941406 37.859375 C 35.441406 37.917969 34.976562 38.082031 34.550781 38.34375 C 34.121094 38.605469 33.765625 38.945312 33.484375 39.359375 C 33.394531 39.363281 33.304688 39.382812 33.21875 39.417969 C 32.808594 38.203125 32.324219 37.015625 31.773438 35.855469 C 32.046875 35.042969 32.425781 34.285156 32.902344 33.574219 C 33.378906 32.867188 33.945312 32.234375 34.59375 31.675781 C 35.242188 31.117188 35.953125 30.65625 36.726562 30.292969 C 37.5 29.925781 38.308594 29.671875 39.148438 29.523438 C 40.484375 32.230469 42.082031 34.765625 43.949219 37.140625 Z M 29.734375 32.128906 C 30.195312 28.851562 34.484375 25.96875 37.839844 25.539062 C 38.042969 26.589844 38.347656 27.609375 38.75 28.597656 C 37.917969 28.757812 37.117188 29.015625 36.351562 29.375 C 35.582031 29.730469 34.867188 30.175781 34.207031 30.707031 C 33.546875 31.238281 32.960938 31.84375 32.453125 32.519531 C 31.941406 33.195312 31.519531 33.925781 31.1875 34.703125 C 30.738281 33.882812 30.230469 33.101562 29.664062 32.363281 C 29.699219 32.289062 29.722656 32.210938 29.734375 32.128906 Z M 4.035156 36.140625 C 3.84375 34.0625 4.46875 31.199219 7.003906 31.121094 C 8.621094 31.074219 10.171875 32.183594 11.421875 33.070312 C 13.222656 34.339844 14.792969 35.929688 16.496094 37.328125 C 16.644531 37.464844 16.820312 37.539062 17.023438 37.550781 C 17.226562 37.5625 17.40625 37.503906 17.566406 37.378906 C 17.726562 37.253906 17.828125 37.09375 17.871094 36.894531 C 17.914062 36.695312 17.882812 36.507812 17.785156 36.328125 C 17.300781 35.277344 15.238281 30.894531 17.6875 30.828125 C 19.285156 30.785156 20.992188 32.964844 22.097656 33.921875 C 22.359375 34.171875 22.65625 34.226562 22.988281 34.085938 C 23.320312 33.949219 23.492188 33.699219 23.5 33.339844 C 23.546875 32.671875 23.566406 30.445312 24.613281 30.371094 C 25.53125 30.304688 26.53125 31.394531 27.117188 31.960938 C 29.589844 34.359375 30.808594 37.375 31.878906 40.589844 C 30.546875 41.996094 29.480469 43.578125 28.675781 45.339844 C 28.457031 44.125 28.304688 42.886719 28.171875 41.660156 C 27.949219 39.585938 27.804688 37.507812 27.5 35.441406 C 27.472656 35.261719 27.175781 35.304688 27.1875 35.480469 C 27.347656 37.742188 27.386719 40.011719 27.488281 42.277344 C 27.554688 43.730469 27.542969 45.53125 27.957031 47.0625 C 27.609375 48 27.316406 48.957031 27.074219 49.929688 C 26.917969 50.542969 26.792969 51.179688 26.695312 51.824219 C 26.660156 51.792969 26.621094 51.761719 26.582031 51.734375 C 26.292969 51.347656 26.03125 50.9375 25.796875 50.511719 C 25.1875 49.199219 24.703125 47.839844 24.34375 46.4375 C 23.644531 43.949219 23.179688 41.402344 22.640625 38.875 C 22.574219 38.5625 22.109375 38.699219 22.164062 39.007812 C 22.683594 41.863281 23.085938 44.730469 23.820312 47.542969 C 24.011719 48.269531 24.28125 49.410156 24.683594 50.511719 C 23.839844 49.898438 23.027344 49.230469 22.191406 48.605469 C 20.605469 47.417969 18.992188 46.273438 17.390625 45.105469 C 14.148438 42.746094 11 40.199219 8.679688 36.894531 C 8.632812 36.824219 8.574219 36.808594 8.496094 36.851562 C 8.421875 36.894531 8.40625 36.957031 8.445312 37.03125 C 10.070312 40.550781 13.382812 43.257812 16.292969 45.675781 C 17.753906 46.890625 19.261719 48.050781 20.777344 49.195312 C 22.441406 50.453125 24.003906 51.882812 25.851562 52.871094 C 25.898438 52.898438 25.949219 52.917969 26 52.929688 C 26.160156 53.105469 26.335938 53.253906 26.53125 53.378906 C 26.53125 53.394531 26.53125 53.410156 26.53125 53.421875 C 26.355469 53.25 26.15625 53.21875 25.9375 53.332031 C 24.695312 53.878906 23.554688 54.710938 22.355469 55.339844 C 22.257812 55.390625 22.328125 55.527344 22.429688 55.507812 C 23.761719 55.195312 25.0625 54.777344 26.328125 54.257812 C 26.394531 54.234375 26.457031 54.195312 26.511719 54.148438 C 26.46875 55.8125 26.824219 57.386719 27.582031 58.867188 C 25.714844 58.210938 23.898438 57.433594 22.132812 56.527344 C 19.925781 55.386719 17.5625 53.902344 16.328125 51.664062 C 16.226562 51.472656 16.074219 51.34375 15.867188 51.285156 C 11.671875 46.921875 4.632812 42.742188 4.035156 36.140625 Z M 103.5 108.523438 C 100.167969 111.011719 96.273438 112.007812 92.238281 112.726562 C 86.496094 113.699219 80.714844 114.167969 74.890625 114.128906 C 74.632812 114.121094 74.425781 114.21875 74.269531 114.421875 C 74.109375 114.21875 73.902344 114.121094 73.644531 114.128906 C 67.824219 114.148438 62.042969 113.683594 56.300781 112.726562 C 52.429688 112.066406 48.769531 111.070312 45.496094 108.847656 C 43.847656 107.730469 40.988281 105.476562 40.492188 103.214844 C 45.058594 105.671875 49.890625 107.375 54.988281 108.328125 C 61.28125 109.4375 67.621094 109.945312 74.011719 109.847656 C 74.105469 109.847656 74.191406 109.851562 74.285156 109.847656 C 74.363281 109.847656 74.445312 109.851562 74.523438 109.847656 C 86.027344 109.957031 97.742188 108.648438 108.035156 103.25 C 107.542969 105.347656 105.011719 107.394531 103.5 108.523438 Z M 137.269531 59.320312 C 136.628906 63.730469 135.46875 68 133.800781 72.132812 C 132.128906 76.265625 129.996094 80.144531 127.394531 83.765625 C 124.976562 87.21875 122.222656 90.382812 119.132812 93.253906 C 116.042969 96.125 112.6875 98.640625 109.0625 100.800781 C 102.898438 104.34375 96.28125 106.523438 89.210938 107.328125 C 84.375 107.945312 79.515625 108.234375 74.640625 108.203125 C 74.636719 108.207031 74.636719 108.207031 74.632812 108.203125 C 74.597656 108.199219 74.5625 108.199219 74.523438 108.199219 C 74.429688 108.199219 74.332031 108.203125 74.234375 108.203125 C 74.160156 108.203125 74.085938 108.199219 74.011719 108.199219 C 73.976562 108.199219 73.9375 108.199219 73.902344 108.203125 L 73.898438 108.203125 C 62.121094 108.300781 50.222656 106.878906 39.835938 101.003906 C 32.539062 96.882812 26.425781 90.964844 21.484375 84.238281 C 18.832031 80.625 16.644531 76.746094 14.929688 72.605469 C 13.210938 68.464844 12.011719 64.175781 11.332031 59.746094 C 11.265625 59.34375 11.203125 58.9375 11.148438 58.53125 C 11.785156 59.253906 12.476562 59.9375 13.15625 60.570312 C 17.242188 64.414062 22.328125 67.066406 27.550781 69 C 36.074219 72.164062 45.398438 73.191406 54.386719 74.15625 C 60.222656 74.816406 66.078125 75.15625 71.953125 75.179688 C 72.710938 75.175781 73.46875 75.175781 74.230469 75.132812 L 74.304688 75.132812 C 85.53125 75.679688 97.066406 74.066406 108.101562 72.246094 C 118.53125 70.523438 130.277344 66.871094 137.386719 58.488281 C 137.351562 58.765625 137.3125 59.042969 137.269531 59.320312 Z M 137.957031 50.648438 C 137.945312 52.191406 137.875 53.742188 137.738281 55.28125 C 136.679688 56.964844 135.390625 58.449219 133.863281 59.730469 C 129.347656 63.835938 123.632812 66.5 117.863281 68.324219 C 109.035156 71.113281 99.476562 72.070312 90.285156 72.882812 C 85.3125 73.359375 80.328125 73.570312 75.328125 73.519531 C 75.050781 73.511719 74.769531 73.511719 74.488281 73.496094 C 74.425781 73.496094 74.367188 73.492188 74.304688 73.488281 C 74.292969 73.488281 74.28125 73.488281 74.269531 73.488281 L 74.230469 73.488281 C 74.171875 73.492188 74.109375 73.496094 74.046875 73.496094 C 71.097656 73.628906 68.121094 73.503906 65.171875 73.359375 C 56.585938 72.902344 48.058594 71.929688 39.589844 70.441406 C 32.179688 69.179688 24.832031 66.847656 18.511719 62.691406 C 15.683594 60.832031 12.9375 58.5 11.042969 55.660156 C 10.941406 55.507812 10.84375 55.351562 10.75 55.195312 C 10.542969 53.003906 10.488281 50.8125 10.59375 48.613281 C 12.078125 49.953125 13.535156 51.234375 14.734375 52.484375 C 14.8125 52.566406 14.902344 52.632812 15.003906 52.675781 L 15.007812 52.675781 C 17.210938 56.460938 21.953125 58.464844 25.832031 59.964844 C 32.929688 62.710938 40.5625 64.109375 48.078125 65.121094 C 67.324219 67.753906 86.53125 67.480469 105.695312 64.304688 C 111.171875 63.4375 116.523438 62.09375 121.757812 60.265625 C 124.171875 59.441406 126.476562 58.378906 128.671875 57.070312 C 128.671875 57.070312 128.675781 57.070312 128.679688 57.066406 C 132.632812 55.019531 135.390625 51.855469 137.878906 48.261719 C 137.972656 49.054688 138 49.847656 137.957031 50.648438 Z M 145.769531 28.992188 C 145.273438 30.570312 144.550781 32.078125 143.941406 33.621094 C 142.113281 38.132812 139.84375 42.40625 137.128906 46.445312 C 135.503906 49.0625 133.53125 51.382812 131.210938 53.410156 C 130.941406 53.359375 130.710938 53.433594 130.519531 53.625 C 129.8125 54.285156 129.058594 54.882812 128.253906 55.425781 C 128.242188 55.433594 128.226562 55.441406 128.210938 55.449219 C 127.769531 55.691406 127.3125 55.917969 126.835938 56.132812 C 126.648438 56.207031 126.519531 56.335938 126.445312 56.523438 L 126.441406 56.523438 C 126.085938 56.71875 125.726562 56.90625 125.363281 57.082031 C 126.078125 55.550781 127.035156 53.128906 126.972656 51.550781 C 127.304688 50.933594 127.660156 50.332031 128.03125 49.734375 C 129.695312 48.644531 131.339844 47.53125 133.09375 46.554688 C 135.289062 45.386719 137.375 44.042969 139.351562 42.53125 C 139.519531 42.402344 139.300781 42.121094 139.128906 42.242188 C 136.910156 43.699219 134.601562 45.003906 132.203125 46.148438 C 131.320312 46.597656 130.398438 47.035156 129.496094 47.507812 C 131.179688 45.089844 133.050781 42.773438 134.816406 40.46875 C 137.574219 36.867188 140.542969 33.117188 142.011719 28.769531 C 142.03125 28.679688 142 28.621094 141.917969 28.585938 C 141.835938 28.550781 141.769531 28.570312 141.722656 28.644531 C 139.3125 32.941406 136.503906 36.957031 133.292969 40.695312 C 131.488281 42.855469 129.378906 45.105469 127.660156 47.53125 C 127.824219 47.085938 127.988281 46.640625 128.167969 46.214844 C 128.898438 44.511719 129.644531 42.8125 130.40625 41.121094 C 131.945312 37.722656 133.535156 34.34375 135.074219 30.949219 C 135.15625 30.765625 134.894531 30.605469 134.800781 30.789062 C 133.144531 34.113281 131.359375 37.378906 129.660156 40.683594 C 128.824219 42.300781 128.007812 43.929688 127.226562 45.574219 C 127.164062 44.609375 126.785156 43.792969 126.085938 43.125 C 124.714844 41.796875 122.867188 42.421875 121.4375 43.535156 C 121.609375 41.738281 121.257812 40.046875 120.386719 38.464844 C 120.34375 38.386719 120.296875 38.316406 120.25 38.246094 C 122.160156 35.980469 124.539062 33.996094 127.6875 34.902344 C 127.867188 34.953125 128.046875 34.941406 128.21875 34.871094 C 128.390625 34.804688 128.527344 34.6875 128.621094 34.527344 C 129.832031 32.050781 131.34375 29.605469 133.648438 28.007812 C 134.28125 27.613281 134.960938 27.339844 135.691406 27.191406 C 136.59375 26.964844 137.351562 26.863281 136.863281 27.980469 C 136.449219 28.929688 137.792969 29.773438 138.285156 28.8125 C 139.316406 26.800781 143.324219 20.570312 145.929688 24.078125 C 146.921875 25.414062 146.210938 27.582031 145.769531 28.992188 Z M 145.769531 28.992188 " fill-opacity="1" fill-rule="nonzero"/></g></svg>