<svg xmlns="http://www.w3.org/2000/svg" xmlns:xlink="http://www.w3.org/1999/xlink" width="156" zoomAndPan="magnify" viewBox="0 0 116.88 149.999998" height="200" preserveAspectRatio="xMidYMid meet" version="1.0"><defs><clipPath id="98f3a29557"><path d="M 0 1 L 115 1 L 115 149.921875 L 0 149.921875 Z M 0 1 " clip-rule="nonzero"/></clipPath><clipPath id="f96df1966c"><path d="M 52.804688 75.507812 L 53.160156 75.507812 L 53.160156 75.785156 L 52.804688 75.785156 Z M 52.804688 75.507812 " clip-rule="nonzero"/></clipPath><clipPath id="a424779552"><path d="M 53.140625 75.675781 C 52.464844 75.972656 53.0625 75.523438 53.0625 75.523438 " clip-rule="nonzero"/></clipPath></defs><g clip-path="url(#98f3a29557)"><path fill="#00bf63" d="M 49.925781 83.710938 C 53.226562 75.542969 54.441406 65.527344 52.585938 57.148438 C 48.421875 54.507812 41.828125 55.535156 37.296875 56.515625 C 35.929688 56.804688 34.414062 57.078125 33.042969 57.5625 C 32.015625 58.132812 30.75 58.964844 29.414062 60.003906 C 28.015625 61.167969 26.785156 62.328125 26.015625 63.191406 C 25.574219 63.582031 25.28125 64.042969 25.007812 64.269531 C 24.746094 64.527344 24.5625 64.636719 24.472656 64.59375 C 24.378906 64.535156 24.390625 64.316406 24.492188 63.964844 C 24.613281 63.628906 24.722656 63.140625 25.097656 62.582031 C 25.109375 62.5625 25.132812 62.535156 25.140625 62.511719 C 22.601562 63.664062 20.160156 63.222656 17.542969 64.140625 C 15.175781 64.96875 13.316406 66.535156 10.816406 66.898438 C 10.757812 66.902344 10.714844 66.898438 10.65625 66.902344 L 10.714844 66.929688 L 10.769531 66.960938 L 10.777344 66.96875 L 10.859375 66.996094 C 11 67.042969 11.191406 67.125 11.304688 67.132812 C 11.519531 67.191406 11.796875 67.226562 12.074219 67.265625 C 12.636719 67.296875 13.203125 67.273438 13.753906 67.234375 C 14.851562 67.144531 15.875 66.980469 16.753906 66.898438 C 18.515625 66.695312 19.675781 66.898438 19.65625 67.113281 C 19.644531 67.328125 18.617188 67.511719 16.945312 67.976562 C 16.109375 68.199219 15.105469 68.464844 13.90625 68.65625 C 13.316406 68.738281 12.667969 68.808594 11.972656 68.777344 C 11.632812 68.75 11.265625 68.710938 10.859375 68.613281 C 10.640625 68.566406 10.53125 68.511719 10.363281 68.464844 L 10.25 68.429688 L 10.230469 68.421875 L 10.148438 68.382812 L 10.136719 68.382812 L 10.109375 68.363281 L 10.054688 68.339844 L 9.8125 68.210938 C 8.511719 67.566406 7.519531 66.6875 6.636719 65.914062 C 6.207031 65.519531 5.792969 65.132812 5.414062 64.785156 C 4.777344 64.300781 4.167969 63.773438 3.609375 63.273438 C 3.453125 66.804688 3.933594 70.242188 6.21875 73.300781 C 8.90625 76.902344 12.558594 79.496094 16.019531 82.296875 C 16.84375 82.96875 17.664062 83.636719 18.480469 84.308594 C 18.140625 83.636719 17.910156 82.96875 17.71875 82.398438 C 17.570312 81.957031 17.402344 81.566406 17.25 81.25 C 17.195312 81.097656 17.035156 80.898438 16.929688 80.726562 C 16.820312 80.542969 16.699219 80.417969 16.578125 80.269531 C 15.683594 79.089844 14.585938 78.316406 13.945312 77.699219 C 13.277344 77.089844 12.933594 76.714844 13 76.632812 C 13.0625 76.550781 13.523438 76.753906 14.304688 77.210938 C 14.6875 77.453125 15.175781 77.71875 15.695312 78.09375 C 15.964844 78.296875 16.25 78.507812 16.546875 78.726562 C 16.84375 78.957031 17.113281 79.28125 17.421875 79.570312 C 17.570312 79.71875 17.734375 79.890625 17.855469 80.054688 C 17.980469 80.234375 18.121094 80.359375 18.253906 80.601562 C 18.535156 81.050781 18.730469 81.488281 18.921875 81.941406 C 19.289062 82.839844 19.605469 83.699219 20.203125 84.410156 C 21.546875 86.050781 23.207031 87.347656 25.375 88.253906 C 25.574219 88.34375 25.789062 88.4375 25.984375 88.519531 L 26.015625 88.535156 L 26.054688 88.546875 C 26.5625 88.738281 27.082031 88.921875 27.585938 89.105469 C 28.105469 89.21875 28.625 89.316406 29.125 89.417969 C 29.78125 89.550781 30.175781 89.53125 30.890625 89.785156 C 31.519531 90.027344 31.972656 90.363281 32.382812 90.613281 L 32.699219 90.808594 C 32.707031 90.824219 32.890625 90.90625 32.980469 90.953125 C 33.203125 91.0625 33.421875 91.175781 33.640625 91.277344 C 34.058594 91.421875 34.433594 91.558594 34.84375 91.675781 C 35.257812 91.765625 35.664062 91.878906 36.058594 91.957031 C 36.457031 92.007812 36.839844 92.0625 37.207031 92.121094 C 38.679688 92.253906 39.882812 92.164062 40.699219 92.050781 C 41.507812 91.90625 41.980469 91.785156 42.03125 91.898438 C 42.070312 91.96875 41.683594 92.285156 40.855469 92.621094 C 40.019531 92.925781 38.742188 93.195312 37.148438 93.195312 C 36.746094 93.164062 36.332031 93.136719 35.898438 93.109375 C 35.460938 93.074219 35.011719 92.984375 34.542969 92.90625 C 34.070312 92.808594 33.558594 92.640625 33.0625 92.484375 C 32.84375 92.394531 32.625 92.292969 32.394531 92.191406 C 32.257812 92.140625 32.210938 92.128906 32 92.019531 L 31.671875 91.824219 C 31.203125 91.570312 30.777344 91.28125 30.402344 91.175781 C 30.128906 91.042969 29.402344 90.992188 28.96875 90.914062 C 28.402344 90.816406 27.832031 90.707031 27.246094 90.605469 C 30.503906 92.617188 34.535156 95.027344 38.242188 94.761719 C 42.644531 94.449219 45.832031 91.503906 47.953125 87.863281 C 47.171875 88.390625 46.398438 88.789062 45.699219 89.015625 C 43.996094 89.582031 42.996094 89.417969 42.949219 89.253906 C 42.875 89.015625 43.941406 88.738281 45.261719 88.015625 C 45.941406 87.648438 46.703125 87.125 47.476562 86.464844 C 48.238281 85.785156 49.007812 84.960938 49.722656 84.003906 C 49.792969 83.914062 49.851562 83.8125 49.925781 83.710938 Z M 67.496094 125.480469 C 67.609375 125.335938 67.722656 125.179688 67.832031 125.023438 C 63.363281 128.34375 57.339844 130.65625 53.714844 133.585938 C 47.6875 138.460938 41.148438 145.621094 33.246094 146.207031 C 34.921875 146.390625 36.902344 146.125 38.507812 145.757812 C 39.984375 145.417969 41.398438 144.976562 42.792969 144.472656 C 44.070312 143.699219 45.382812 142.792969 46.695312 141.746094 C 49.953125 139.097656 52.660156 136.332031 54.726562 134.429688 C 56.789062 132.503906 58.164062 131.4375 58.3125 131.582031 C 58.46875 131.742188 57.359375 133.09375 55.511719 135.191406 C 53.945312 136.953125 51.851562 139.292969 49.210938 141.636719 C 53.207031 139.605469 57.09375 137.332031 61.261719 135.550781 C 62.222656 133.761719 62.824219 131.804688 63.902344 130.078125 C 64.949219 128.410156 66.261719 127.03125 67.496094 125.480469 Z M 68.457031 106.511719 C 68.539062 105.179688 66.878906 104.636719 66.097656 103.664062 C 65.554688 102.976562 65.492188 102.175781 64.847656 101.730469 C 54.863281 102.410156 45.648438 107.390625 37.113281 112.199219 C 35.796875 112.933594 34.441406 113.675781 33.082031 114.449219 C 33.855469 114.191406 34.605469 113.9375 35.328125 113.695312 C 36.828125 113.183594 38.183594 112.640625 39.453125 112.183594 C 41.929688 111.164062 43.949219 110.335938 45.316406 109.695312 C 46.695312 109.082031 47.484375 108.777344 47.539062 108.878906 C 47.585938 108.972656 46.898438 109.4375 45.589844 110.230469 C 44.308594 111.042969 42.335938 112.027344 39.875 113.191406 C 38.617188 113.726562 37.25 114.34375 35.765625 114.914062 C 34.257812 115.460938 32.6875 116.0625 30.972656 116.632812 C 29.742188 117.054688 28.472656 117.496094 27.253906 118.054688 C 25.757812 119.089844 24.347656 120.21875 23.070312 121.457031 C 23.03125 121.546875 23.007812 121.648438 22.976562 121.738281 C 24.582031 121.332031 26.171875 120.949219 27.691406 120.570312 C 29.585938 120.140625 31.414062 119.726562 33.144531 119.34375 C 34.007812 119.148438 34.871094 118.976562 35.613281 118.71875 C 36 118.589844 36.386719 118.488281 36.753906 118.359375 C 37.113281 118.195312 37.472656 118.039062 37.816406 117.882812 C 39.207031 117.257812 40.445312 116.476562 41.574219 115.769531 C 43.8125 114.3125 45.699219 113.15625 47.113281 112.527344 C 48.523438 111.960938 49.328125 111.773438 49.375 111.855469 C 49.417969 111.960938 48.667969 112.347656 47.363281 113.082031 C 46.105469 113.835938 44.371094 115.09375 42.175781 116.679688 C 41.066406 117.453125 39.839844 118.316406 38.367188 119.039062 C 38 119.210938 37.632812 119.394531 37.25 119.578125 C 36.855469 119.738281 36.445312 119.863281 36.027344 120.011719 C 35.183594 120.320312 34.351562 120.507812 33.488281 120.714844 C 31.753906 121.140625 29.945312 121.578125 28.0625 122.042969 C 26.199219 122.507812 24.269531 122.996094 22.289062 123.5 L 21.609375 123.667969 C 21.371094 123.902344 21.128906 124.195312 20.902344 124.523438 C 25.273438 123.773438 29.695312 124.1875 34.046875 122.976562 C 40.519531 121.167969 45.28125 116.863281 51.054688 113.707031 C 56.570312 110.675781 62.722656 109.070312 68.457031 106.511719 Z M 69.871094 121.34375 C 70.523438 119.800781 71.007812 118.203125 71.496094 116.589844 C 69.660156 118.625 67.824219 120.683594 65.769531 122.453125 C 65.730469 122.699219 64.308594 124.066406 61.574219 125.46875 C 60.152344 126.230469 58.378906 126.96875 56.457031 127.773438 C 55.488281 128.179688 54.503906 128.625 53.496094 129.070312 C 52.464844 129.582031 51.429688 130.109375 50.355469 130.667969 C 48.199219 131.765625 46.144531 132.804688 44.253906 133.734375 C 42.460938 134.605469 41.019531 135.777344 39.746094 136.734375 C 38.46875 137.699219 37.351562 138.40625 36.507812 138.800781 C 35.683594 139.148438 35.195312 139.25 35.148438 139.167969 C 35.09375 139.066406 35.507812 138.761719 36.230469 138.265625 C 36.910156 137.746094 37.875 136.953125 39.046875 135.890625 C 40.222656 134.84375 41.65625 133.503906 43.609375 132.464844 C 45.191406 131.613281 46.917969 130.707031 48.734375 129.757812 C 45.871094 130.355469 42.96875 130.789062 40.101562 131.179688 C 39.675781 131.246094 39.003906 131.328125 38.164062 131.402344 C 37.992188 131.539062 37.808594 131.675781 37.644531 131.835938 C 37.207031 132.28125 36.773438 132.933594 36.351562 133.566406 C 35.929688 134.183594 35.511719 134.769531 35.128906 135.339844 C 34.367188 136.457031 33.722656 137.484375 33.285156 138.386719 C 32.84375 139.277344 32.585938 140.039062 32.457031 140.570312 C 32.3125 141.078125 32.28125 141.453125 32.164062 141.453125 C 32.070312 141.453125 31.886719 141.179688 31.855469 140.53125 C 31.804688 139.902344 31.917969 139.003906 32.273438 137.960938 C 32.625 136.925781 33.203125 135.777344 33.925781 134.566406 C 34.191406 134.128906 34.476562 133.667969 34.769531 133.207031 C 32.941406 135.605469 31.011719 138.121094 30.089844 140.898438 C 29.511719 142.652344 29.640625 143.863281 30.179688 144.695312 C 39.625 146.230469 46.765625 136.964844 53.792969 131.804688 C 58.039062 128.6875 65.953125 125.964844 69.871094 121.34375 Z M 70.839844 111.175781 L 70.871094 111.15625 C 70.734375 109.824219 70.046875 108.613281 68.695312 107.894531 C 64.003906 109.925781 58.984375 111.257812 54.414062 113.503906 C 49.863281 115.746094 45.941406 118.957031 41.507812 121.375 C 38.488281 123.03125 35.386719 124.148438 32.070312 124.796875 C 32.300781 124.785156 32.523438 124.777344 32.761719 124.777344 C 33.195312 124.757812 33.652344 124.757812 34.070312 124.738281 C 34.503906 124.699219 34.945312 124.664062 35.386719 124.625 C 35.816406 124.582031 36.273438 124.582031 36.707031 124.5 C 37.148438 124.410156 37.589844 124.328125 38.03125 124.242188 C 38.832031 124.132812 39.523438 123.851562 40.253906 123.617188 C 40.609375 123.488281 40.957031 123.433594 41.316406 123.234375 C 41.675781 123.058594 42.023438 122.886719 42.371094 122.710938 C 42.722656 122.542969 43.070312 122.371094 43.40625 122.207031 C 43.730469 122.023438 44.042969 121.839844 44.359375 121.664062 C 45.015625 121.292969 45.65625 120.9375 46.28125 120.589844 C 48.804688 119.210938 51.035156 117.898438 53 117.007812 C 56.910156 115.136719 59.371094 114.070312 59.472656 114.265625 C 59.5625 114.457031 57.277344 115.867188 53.507812 117.980469 C 51.589844 119 49.4375 120.398438 46.980469 121.839844 C 46.363281 122.195312 45.730469 122.574219 45.089844 122.949219 C 44.757812 123.152344 44.417969 123.34375 44.082031 123.546875 C 43.738281 123.71875 43.402344 123.894531 43.050781 124.066406 C 42.703125 124.242188 42.351562 124.421875 42.003906 124.601562 C 41.664062 124.800781 41.222656 124.894531 40.832031 125.050781 C 40.019531 125.316406 39.195312 125.640625 38.351562 125.757812 C 37.875 125.851562 37.398438 125.9375 36.925781 126.023438 C 36.453125 126.117188 35.984375 126.117188 35.511719 126.160156 C 35.046875 126.199219 34.585938 126.230469 34.128906 126.261719 C 33.660156 126.28125 33.226562 126.269531 32.789062 126.28125 C 31.035156 126.28125 29.355469 126.289062 27.78125 126.289062 C 25.140625 126.34375 22.785156 126.390625 20.800781 126.425781 C 21.644531 127.679688 24.015625 128.328125 26.519531 128.71875 C 32.84375 129.722656 39.113281 128.648438 45.34375 127.519531 C 51.171875 126.472656 57.40625 125.335938 62.269531 121.691406 C 62.144531 121.746094 62.011719 121.820312 61.886719 121.875 C 60.480469 122.507812 59.128906 122.917969 57.898438 123.382812 C 56.652344 123.820312 55.488281 124.214844 54.402344 124.542969 C 52.238281 125.210938 50.429688 125.589844 49.171875 125.738281 C 47.90625 125.867188 47.199219 125.839844 47.191406 125.738281 C 47.191406 125.628906 47.871094 125.457031 49.050781 125.140625 C 50.257812 124.820312 51.96875 124.289062 54.046875 123.507812 C 55.09375 123.113281 56.222656 122.664062 57.441406 122.175781 C 58.660156 121.664062 60 121.203125 61.289062 120.582031 C 62.589844 119.949219 63.941406 119.210938 65.273438 118.367188 C 66.097656 117.835938 66.929688 117.25 67.710938 116.609375 C 68.503906 115.757812 69.285156 114.902344 70.0625 114.042969 C 70.246094 113.714844 70.382812 113.390625 70.449219 113.074219 C 65.800781 115.449219 61.675781 117.441406 58.75 119.121094 C 55.5625 120.828125 53.59375 121.773438 53.507812 121.609375 C 53.40625 121.445312 55.195312 120.195312 58.242188 118.257812 C 61.230469 116.238281 65.71875 113.871094 70.839844 111.175781 Z M 75.40625 97.535156 C 75.183594 97.269531 74.992188 96.984375 74.820312 96.691406 C 71.601562 97.375 68.550781 98.8125 66.367188 101.3125 C 66.316406 101.382812 66.253906 101.425781 66.199219 101.472656 C 66.492188 101.964844 66.785156 102.535156 67.40625 103.101562 C 68.347656 103.964844 70.585938 105.011719 69.933594 106.710938 C 69.824219 107 71.335938 108.226562 71.539062 108.636719 C 71.878906 109.347656 72.175781 110.042969 72.238281 110.832031 C 72.261719 111.125 72.261719 111.421875 72.257812 111.703125 C 72.777344 111.164062 73.3125 110.640625 73.855469 110.136719 C 74.265625 109.183594 74.441406 108.261719 73.46875 107.347656 C 72.789062 106.703125 72.257812 105.253906 72.332031 104.34375 C 72.550781 101.628906 73.742188 99.5625 75.40625 97.535156 Z M 86.621094 113.421875 C 86.976562 112.996094 91.316406 107.996094 91.109375 107.957031 C 89.851562 107.742188 88.402344 107.601562 87.242188 107.011719 C 85.28125 106.023438 84.085938 104.433594 82.855469 102.804688 C 82.195312 102.332031 81.492188 101.847656 80.71875 101.382812 C 79.664062 100.746094 78.507812 100.105469 77.460938 99.371094 C 75.632812 101.699219 75.074219 103.933594 76.828125 106.910156 C 77.15625 107.480469 77.441406 108.308594 77.277344 108.972656 C 76.71875 111.289062 75.605469 113.492188 74.71875 115.769531 C 75.972656 114.332031 77.195312 113.109375 78.242188 112.210938 C 79.875 110.804688 81.023438 110.230469 81.148438 110.363281 C 81.3125 110.539062 80.355469 111.476562 79.003906 112.996094 C 77.632812 114.539062 75.792969 116.71875 73.898438 119.242188 C 73.703125 119.503906 73.511719 119.761719 73.320312 120.03125 C 72.441406 122.699219 71.316406 125.234375 69.4375 127.425781 C 68.796875 128.171875 68.246094 128.941406 67.742188 129.722656 C 71.144531 128.21875 74.496094 126.574219 77.09375 123.839844 C 80.316406 120.4375 83.617188 117.039062 86.621094 113.421875 Z M 92.6875 106.828125 C 93.023438 106.886719 93.304688 107.355469 93.175781 107.671875 C 92.191406 110.042969 90.238281 111.226562 88.636719 113.144531 C 86.253906 116.011719 83.699219 118.699219 81.1875 121.445312 C 79.15625 123.65625 77.136719 126.289062 74.496094 127.824219 C 71.933594 129.308594 69.234375 130.507812 66.539062 131.722656 C 66.085938 132.539062 65.648438 133.367188 65.210938 134.191406 C 71.511719 131.265625 77.257812 127.070312 81.941406 121.910156 C 86.347656 117.046875 92.542969 112.039062 95.296875 105.957031 C 94.320312 105.5 93.394531 105.050781 92.640625 104.847656 C 92.542969 104.921875 92.429688 104.988281 92.300781 105.042969 C 90.246094 105.839844 88.683594 105.851562 87.292969 105.40625 C 88.96875 106.300781 90.769531 106.519531 92.6875 106.828125 Z M 95.035156 27.0625 C 95.054688 27.007812 94.992188 27.035156 94.953125 27.042969 Z M 112.28125 40.652344 C 114.3125 48.015625 115.90625 56.222656 113.53125 63.691406 C 113.507812 63.765625 113.476562 63.832031 113.449219 63.894531 C 113.476562 63.996094 113.496094 64.117188 113.507812 64.242188 C 113.972656 76.183594 110.449219 87.742188 106.277344 98.816406 C 105.152344 101.828125 103.148438 105.792969 99.898438 106.96875 C 99.289062 107.1875 98.578125 107.132812 97.835938 106.949219 C 96.324219 110.21875 94.101562 112.925781 91.558594 115.523438 C 88.554688 118.597656 85.859375 121.972656 82.8125 124.976562 C 76.992188 130.707031 70.449219 135.230469 62.832031 138.175781 C 62.425781 138.550781 61.890625 138.609375 61.433594 138.449219 C 55.203125 141.28125 49.566406 145.546875 42.957031 147.4375 C 39.402344 148.445312 34.808594 149.914062 31.121094 148.757812 C 22.609375 146.097656 28.707031 136.964844 32.503906 131.722656 C 25.160156 131.855469 15.765625 130.820312 17.433594 124.746094 C 19.207031 118.277344 28.652344 113.84375 33.945312 110.820312 C 43.464844 105.386719 53.621094 99.757812 64.792969 98.984375 C 67.222656 96.394531 70.59375 94.789062 74.039062 94.046875 C 74.027344 93.695312 74.128906 93.421875 74.292969 93.21875 C 74.625 88.234375 75.9375 83.355469 76.324219 78.347656 C 76.78125 72.347656 77.195312 66.339844 77.707031 60.339844 C 77.746094 59.871094 77.972656 59.535156 78.277344 59.3125 C 76.78125 57.285156 75.796875 54.925781 75.652344 52.421875 C 71.394531 51.449219 65.953125 47.089844 61.878906 49.859375 C 59.441406 51.523438 57.605469 53.765625 55.695312 55.953125 C 55.5625 56.242188 55.429688 56.53125 55.320312 56.824219 C 57.5 67.214844 55.78125 81.839844 49.449219 90.613281 C 43.25 99.203125 35.074219 98.378906 26.652344 93.429688 C 22.085938 90.75 18.183594 87.519531 14.078125 84.246094 C 10.238281 81.183594 5.738281 78.140625 3.242188 73.796875 C 0.386719 68.816406 0.5625 63.792969 1.382812 58.246094 C 2.316406 51.90625 3.820312 45.722656 6.824219 40.03125 C 6.804688 39.921875 6.796875 39.808594 6.804688 39.691406 C 7.171875 34.0625 9.125 28.730469 12.6875 24.351562 C 12.6875 24.125 12.769531 23.875 12.953125 23.621094 C 23.859375 9.199219 42.40625 0.0234375 60.542969 1.160156 C 75.195312 2.078125 92.789062 6.757812 99.625 21.179688 C 99.683594 21.296875 99.71875 21.417969 99.734375 21.535156 C 102.222656 24.148438 105.097656 26.472656 107.292969 29.347656 C 109.894531 32.761719 111.152344 36.542969 112.28125 40.652344 Z M 79.972656 90.859375 C 79.535156 89.335938 79.625 87.464844 79.835938 85.914062 C 79.9375 85.179688 80.039062 84.472656 80.140625 83.820312 C 80.273438 83.179688 80.398438 82.582031 80.515625 82.042969 C 80.996094 79.871094 81.398438 78.550781 81.605469 78.582031 C 81.820312 78.617188 81.800781 80.003906 81.597656 82.207031 C 81.535156 82.757812 81.480469 83.355469 81.410156 83.996094 C 81.359375 84.636719 81.3125 85.316406 81.261719 86.035156 C 81.160156 86.757812 81.207031 87.484375 81.1875 88.253906 C 81.1875 88.445312 81.148438 88.636719 81.148438 88.832031 L 81.148438 89.125 C 81.148438 89.144531 81.1875 89.152344 81.1875 89.152344 C 81.207031 89.171875 81.222656 89.207031 81.222656 89.207031 L 81.25 89.355469 C 81.332031 89.757812 81.371094 90.199219 81.492188 90.546875 C 81.597656 90.941406 81.707031 91.328125 81.808594 91.714844 C 81.929688 92.109375 82.003906 92.546875 82.066406 92.992188 C 82.140625 93.449219 82.152344 93.816406 82.171875 94.203125 C 82.1875 94.589844 82.207031 94.964844 82.222656 95.332031 C 82.269531 96.8125 82.359375 98 82.710938 98.964844 C 82.792969 99.160156 82.867188 99.332031 82.929688 99.515625 C 83.085938 99.617188 83.230469 99.71875 83.371094 99.820312 C 83.433594 99.871094 83.507812 99.921875 83.574219 99.972656 C 83.433594 99.1875 83.382812 98.425781 83.351562 97.71875 C 83.324219 96.449219 83.425781 95.320312 83.546875 94.386719 C 83.800781 92.519531 84.164062 91.410156 84.363281 91.429688 C 84.582031 91.457031 84.621094 92.621094 84.648438 94.449219 C 84.664062 95.367188 84.671875 96.457031 84.773438 97.636719 C 84.886719 98.8125 85.058594 100.113281 85.527344 101.289062 C 85.566406 101.394531 85.628906 101.488281 85.675781 101.589844 C 86.839844 102.421875 87.953125 102.976562 89.394531 102.894531 C 90.441406 102.441406 91.570312 101.773438 92.566406 100.792969 C 94.089844 99.289062 95.042969 97.496094 95.714844 96.195312 C 96.367188 94.871094 96.761719 94.007812 96.984375 94.070312 C 97.175781 94.121094 97.15625 95.089844 96.734375 96.589844 C 96.292969 98.0625 95.421875 100.140625 93.652344 101.894531 C 93.550781 101.992188 93.429688 102.085938 93.328125 102.1875 C 95.183594 102.644531 98.984375 105.132812 100.40625 103.425781 C 103.019531 100.277344 104.167969 96.597656 105.351562 92.824219 C 104.835938 93.644531 104.335938 94.425781 103.808594 95.15625 C 102.847656 96.515625 101.878906 97.699219 100.902344 98.5625 C 99.9375 99.441406 98.992188 99.964844 98.230469 100.15625 C 97.855469 100.277344 97.589844 100.269531 97.402344 100.25 C 97.214844 100.238281 97.113281 100.207031 97.105469 100.15625 C 97.085938 100.105469 97.175781 100.03125 97.339844 99.949219 C 97.511719 99.863281 97.785156 99.769531 98.039062 99.589844 C 98.578125 99.28125 99.351562 98.691406 100.132812 97.789062 C 100.921875 96.902344 101.765625 95.714844 102.628906 94.355469 C 103.507812 93.007812 104.390625 91.410156 105.417969 89.824219 C 106.390625 88.355469 107.03125 87.011719 107.601562 85.648438 C 109.546875 78.976562 110.917969 72.367188 110.769531 65.226562 C 106.757812 65.753906 103.046875 64.316406 99.316406 62.582031 C 94.101562 60.167969 89.730469 59.863281 84.691406 60.1875 C 84.730469 60.335938 84.753906 60.480469 84.785156 60.625 C 85.179688 63.457031 84.867188 65.953125 84.65625 67.703125 C 84.429688 69.449219 84.246094 70.558594 84.023438 70.558594 C 83.8125 70.546875 83.609375 69.457031 83.566406 67.648438 C 83.503906 65.855469 83.617188 63.417969 83.25 60.855469 C 83.222656 60.671875 83.1875 60.488281 83.140625 60.308594 C 82.269531 60.371094 81.371094 60.460938 80.445312 60.550781 C 79.9375 66.484375 79.542969 72.414062 79.074219 78.347656 C 78.660156 83.472656 77.304688 88.527344 77.023438 93.613281 C 77.003906 93.871094 76.929688 94.089844 76.820312 94.273438 C 77.046875 96.292969 79.378906 97.535156 81.378906 98.625 C 81.046875 97.675781 80.894531 96.550781 80.800781 95.433594 C 80.761719 95.074219 80.738281 94.699219 80.699219 94.3125 C 80.664062 93.9375 80.636719 93.53125 80.5625 93.199219 C 80.507812 92.851562 80.445312 92.496094 80.324219 92.109375 C 80.203125 91.695312 80.09375 91.277344 79.972656 90.859375 Z M 96.039062 25.09375 L 96.109375 25 L 96.265625 24.796875 C 96.386719 24.648438 96.394531 24.566406 96.476562 24.453125 C 96.726562 23.996094 96.910156 23.4375 97.015625 22.910156 C 97.054688 22.703125 97.085938 22.492188 97.105469 22.277344 C 90.503906 8.804688 73.328125 4.308594 59.460938 3.859375 C 57.433594 3.792969 55.40625 3.867188 53.378906 4.054688 C 54.496094 4.410156 55.523438 4.929688 56.34375 5.628906 L 56.351562 5.628906 L 56.433594 5.710938 L 56.457031 5.742188 L 56.496094 5.785156 L 56.570312 5.867188 L 56.726562 6.050781 C 56.828125 6.179688 56.921875 6.273438 57.023438 6.421875 C 57.207031 6.707031 57.378906 6.980469 57.542969 7.246094 C 57.6875 7.472656 57.816406 7.703125 57.949219 7.914062 C 58.074219 8.078125 58.195312 8.242188 58.3125 8.402344 C 58.8125 8.804688 59.6875 8.960938 60.132812 9.339844 C 60.601562 9.703125 60.671875 10.042969 60.609375 10.089844 C 60.519531 10.171875 60.285156 10 59.855469 9.863281 C 59.625 9.796875 59.371094 9.742188 59.003906 9.695312 C 58.652344 9.632812 58.175781 9.585938 57.664062 9.265625 L 57.625 9.246094 C 57.421875 9.054688 57.210938 8.839844 57.003906 8.621094 C 56.835938 8.402344 56.660156 8.179688 56.488281 7.949219 C 56.332031 7.746094 56.171875 7.539062 56.019531 7.328125 C 55.9375 7.226562 55.808594 7.117188 55.707031 7.003906 L 55.550781 6.832031 L 55.46875 6.75 L 55.441406 6.730469 C 54.523438 6.050781 53.320312 5.566406 51.964844 5.273438 C 50.574219 4.980469 49.210938 4.878906 47.953125 4.847656 C 38.839844 6.667969 30.128906 10.890625 23.03125 16.917969 C 23.695312 16.695312 24.390625 16.507812 25.152344 16.398438 C 26.328125 16.164062 27.648438 16.214844 28.960938 16.523438 C 30.28125 16.816406 31.550781 17.578125 32.566406 18.570312 C 32.632812 18.632812 32.6875 18.695312 32.75 18.765625 C 33.796875 18.1875 34.984375 17.910156 36.082031 17.960938 C 37.402344 17.992188 38.589844 18.367188 39.625 18.828125 C 41.71875 19.757812 43.300781 20.996094 44.546875 22.085938 C 47.027344 24.308594 48.125 26.042969 47.988281 26.152344 C 47.8125 26.308594 46.4375 24.847656 43.867188 22.921875 C 42.589844 21.964844 40.996094 20.886719 39.085938 20.132812 C 37.214844 19.332031 34.863281 19.078125 33.074219 20.351562 L 32.535156 20.734375 L 32.027344 20.226562 L 31.488281 19.679688 C 29.824219 17.964844 27.425781 17.523438 25.34375 17.808594 C 23.320312 18.042969 21.554688 18.828125 20.132812 19.570312 C 18.40625 21.28125 16.792969 23.089844 15.339844 25.011719 C 15.304688 25.050781 15.265625 25.089844 15.230469 25.125 C 15.222656 25.417969 15.117188 25.710938 14.890625 25.976562 C 11.660156 29.824219 9.878906 34.699219 9.558594 39.691406 C 9.550781 39.820312 9.519531 39.941406 9.496094 40.050781 C 9.550781 40.25 9.558594 40.480469 9.503906 40.707031 C 9.695312 40.8125 9.90625 40.875 10.136719 40.875 C 10.75 40.917969 11.570312 40.867188 12.136719 40.976562 C 13.226562 40.976562 14.191406 41.089844 14.933594 41.179688 C 16.082031 41.34375 16.792969 41.546875 16.792969 41.757812 C 16.78125 41.964844 16.078125 42.148438 14.929688 42.277344 C 13.78125 42.410156 12.183594 42.390625 10.605469 42.625 C 9.695312 42.757812 8.917969 43.070312 8.226562 43.398438 C 6.1875 47.867188 4.96875 52.667969 4.253906 57.523438 C 4.050781 58.835938 3.871094 60.167969 3.738281 61.488281 C 6.554688 64.058594 9.761719 66.648438 13.589844 64.492188 C 15.25 63.554688 16.808594 62.703125 18.761719 62.5625 C 22.609375 62.296875 24.941406 61.140625 27.925781 58.929688 C 29.347656 57.871094 30.796875 56.917969 32.484375 56.359375 C 37.550781 54.699219 45.089844 52.953125 50.6875 54.773438 C 50.363281 54.449219 50.035156 54.148438 49.722656 53.835938 C 49.082031 53.257812 48.511719 52.75 47.84375 52.367188 C 46.539062 51.566406 45.171875 51.09375 44.011719 50.640625 C 42.867188 50.210938 41.890625 49.796875 41.300781 49.449219 C 40.691406 49.097656 40.378906 48.851562 40.417969 48.757812 C 40.460938 48.65625 40.855469 48.710938 41.527344 48.890625 C 42.195312 49.0625 43.160156 49.300781 44.347656 49.59375 C 45.546875 49.917969 47.027344 50.292969 48.554688 51.125 C 49.328125 51.53125 50.078125 52.140625 50.769531 52.742188 C 51.417969 53.328125 52.089844 53.972656 52.777344 54.679688 C 52.84375 54.753906 52.910156 54.824219 52.972656 54.902344 C 54.679688 52.972656 56.550781 50.394531 58.773438 48.546875 C 58.175781 47.023438 57.597656 45.601562 56.984375 44.363281 C 56.261719 42.90625 55.421875 41.730469 54.636719 40.828125 C 53.816406 39.960938 53.121094 39.292969 52.542969 38.882812 C 52 38.441406 51.722656 38.167969 51.78125 38.085938 C 51.835938 38.003906 52.199219 38.121094 52.828125 38.417969 C 53.460938 38.671875 54.351562 39.261719 55.339844 40.113281 C 56.292969 40.996094 57.3125 42.214844 58.164062 43.730469 C 58.832031 44.886719 59.421875 46.1875 60 47.566406 C 60.058594 47.511719 60.113281 47.457031 60.183594 47.398438 C 60.652344 47.023438 61.21875 46.789062 61.746094 46.667969 C 62.042969 46.59375 62.316406 46.535156 62.589844 46.492188 C 62.664062 46.472656 62.742188 46.453125 62.8125 46.433594 C 63.230469 46.34375 63.648438 46.300781 64.0625 46.269531 C 64.390625 46.207031 64.703125 46.144531 64.976562 46.035156 C 65.820312 45.75 66.328125 45.089844 66.636719 44.261719 C 66.941406 43.464844 67.03125 42.542969 67.03125 41.710938 C 67.03125 40.867188 66.949219 40.066406 66.839844 39.34375 C 66.367188 36.414062 65.464844 34.761719 65.667969 34.640625 C 65.8125 34.519531 67.113281 36.0625 67.914062 39.121094 C 68.097656 39.882812 68.261719 40.734375 68.320312 41.675781 C 68.367188 42.617188 68.339844 43.648438 67.980469 44.746094 C 67.871094 45.023438 67.757812 45.363281 67.628906 45.558594 L 67.445312 45.894531 L 67.398438 45.96875 L 67.394531 45.976562 L 67.375 46.007812 L 67.335938 46.054688 L 67.261719 46.144531 L 67.113281 46.332031 C 67.0625 46.390625 67.007812 46.433594 66.949219 46.492188 C 70.246094 47.207031 73.3125 49.199219 76.699219 49.835938 C 76.707031 49.84375 76.71875 49.84375 76.726562 49.84375 C 76.726562 49.84375 76.726562 49.835938 76.726562 49.824219 L 76.789062 49.472656 L 76.929688 49.097656 L 77.035156 48.796875 C 77.066406 48.707031 77.195312 48.53125 77.277344 48.410156 C 77.367188 48.273438 77.46875 48.136719 77.582031 48.015625 L 77.917969 47.730469 C 78.160156 47.519531 78.386719 47.4375 78.636719 47.292969 C 79.066406 47.089844 79.492188 46.921875 79.707031 46.71875 C 79.855469 46.636719 79.910156 46.511719 80.019531 46.402344 L 80.050781 46.332031 L 80.121094 46.171875 C 80.160156 46.070312 80.253906 45.925781 80.242188 45.855469 C 80.285156 45.621094 80.324219 45.171875 80.355469 44.644531 C 80.398438 44.117188 80.542969 43.457031 80.894531 42.988281 C 81.207031 42.460938 81.636719 42.160156 82.003906 41.832031 C 82.355469 41.566406 82.703125 41.296875 83.039062 41.039062 C 84.492188 40.011719 85.78125 39.292969 86.785156 38.550781 C 88.785156 37.109375 89.640625 35.753906 89.871094 35.898438 C 90.007812 35.960938 89.464844 37.597656 87.476562 39.40625 C 86.5 40.308594 85.191406 41.179688 83.921875 42.160156 C 83.59375 42.4375 83.261719 42.703125 82.921875 42.988281 C 82.640625 43.261719 82.324219 43.5 82.175781 43.792969 C 81.972656 44.066406 81.929688 44.363281 81.886719 44.765625 C 81.859375 45.1875 81.886719 45.710938 81.683594 46.421875 C 81.644531 46.605469 81.59375 46.65625 81.542969 46.789062 L 81.472656 46.949219 L 81.433594 47.03125 L 81.414062 47.082031 L 81.410156 47.097656 L 81.398438 47.105469 L 81.332031 47.234375 C 81.324219 47.253906 81.3125 47.265625 81.3125 47.265625 C 81.105469 47.5 80.914062 47.769531 80.664062 47.933594 C 80.152344 48.335938 79.664062 48.484375 79.277344 48.667969 C 79.121094 48.757812 78.910156 48.832031 78.8125 48.933594 L 78.628906 49.074219 C 78.589844 49.117188 78.558594 49.164062 78.527344 49.199219 C 78.488281 49.253906 78.445312 49.238281 78.394531 49.355469 L 78.285156 49.621094 C 78.699219 49.300781 79.21875 49.074219 79.867188 49.023438 C 80.570312 48.992188 81.085938 49.074219 81.5 49.015625 C 81.617188 49.003906 81.699219 48.992188 81.757812 48.972656 C 81.839844 48.941406 81.878906 48.992188 82.011719 48.898438 L 82.34375 48.71875 L 82.386719 48.6875 L 82.507812 48.585938 C 83.125 48.027344 83.65625 47.265625 84.074219 46.675781 C 84.9375 45.472656 85.417969 44.664062 85.617188 44.738281 C 85.71875 44.777344 85.738281 45.03125 85.648438 45.464844 C 85.554688 45.90625 85.363281 46.511719 85.027344 47.214844 C 84.671875 47.933594 84.289062 48.757812 83.492188 49.621094 L 83.324219 49.785156 L 83.242188 49.859375 L 83.210938 49.886719 L 83.207031 49.898438 L 83.105469 49.960938 L 83.066406 49.988281 L 82.742188 50.191406 C 82.507812 50.3125 81.984375 50.503906 81.699219 50.515625 C 81.039062 50.625 80.417969 50.539062 79.96875 50.566406 C 79.867188 50.585938 79.773438 50.605469 79.671875 50.617188 C 79.605469 50.648438 79.535156 50.667969 79.460938 50.6875 L 79.136719 50.890625 C 79.074219 50.941406 79.039062 50.992188 78.976562 51.035156 C 78.730469 51.296875 78.535156 51.652344 78.394531 52.027344 C 78.476562 54.148438 79.300781 56.042969 80.554688 57.78125 C 85.304688 57.277344 90.648438 56.113281 95.285156 57.867188 C 100.34375 59.789062 105.453125 63.488281 111.03125 62.378906 C 111.703125 60.054688 111.988281 57.644531 111.976562 55.210938 C 111.933594 55.175781 111.886719 55.117188 111.84375 55.09375 C 111.496094 54.871094 111.082031 54.722656 110.613281 54.660156 C 109.667969 54.519531 108.546875 54.734375 107.375 54.964844 C 106.914062 55.054688 106.460938 55.148438 106.015625 55.238281 C 105.769531 55.277344 105.515625 55.300781 105.28125 55.339844 C 105.03125 55.351562 104.792969 55.359375 104.558594 55.371094 C 103.609375 55.359375 102.773438 55.230469 102.085938 55.257812 C 101.921875 55.28125 101.800781 55.257812 101.597656 55.300781 C 101.421875 55.339844 101.167969 55.378906 101.085938 55.414062 C 100.820312 55.472656 100.578125 55.605469 100.257812 55.808594 C 100.09375 55.910156 99.917969 56.011719 99.71875 56.09375 C 99.542969 56.175781 99.238281 56.265625 99.085938 56.285156 L 98.84375 56.324219 C 98.734375 56.339844 98.660156 56.332031 98.570312 56.332031 C 98.394531 56.332031 98.222656 56.339844 98.058594 56.339844 C 96.726562 56.296875 95.816406 56.03125 95.144531 55.890625 C 94.476562 55.753906 94.109375 55.632812 94.109375 55.523438 C 94.121094 55.414062 94.496094 55.339844 95.183594 55.28125 C 95.863281 55.238281 96.910156 55.351562 98 55.25 C 98.140625 55.230469 98.273438 55.210938 98.425781 55.191406 C 98.488281 55.1875 98.570312 55.1875 98.628906 55.175781 L 98.863281 55.109375 C 99.027344 55.066406 99.046875 55.035156 99.1875 54.972656 C 99.296875 54.90625 99.421875 54.824219 99.554688 54.734375 C 99.828125 54.539062 100.203125 54.253906 100.679688 54.109375 C 100.957031 54.011719 101.078125 54 101.289062 53.9375 C 101.460938 53.890625 101.746094 53.871094 101.972656 53.835938 C 102.894531 53.765625 103.738281 53.863281 104.546875 53.855469 C 104.734375 53.835938 104.9375 53.828125 105.132812 53.816406 L 105.730469 53.726562 C 106.164062 53.632812 106.613281 53.542969 107.058594 53.449219 C 108.269531 53.210938 109.539062 52.972656 110.839844 53.183594 C 111.214844 53.246094 111.578125 53.367188 111.933594 53.523438 C 111.679688 48.8125 110.484375 44.066406 109.144531 39.726562 C 107.890625 35.644531 106.460938 32.164062 103.410156 29.085938 C 101.699219 27.367188 99.9375 25.710938 98.257812 23.964844 C 98.148438 24.363281 98.011719 24.765625 97.796875 25.191406 C 97.707031 25.355469 97.601562 25.582031 97.496094 25.703125 L 97.277344 26.007812 L 97.257812 26.035156 C 97.214844 26.097656 97.222656 26.070312 97.203125 26.097656 L 97.128906 26.171875 C 96.679688 26.613281 96.285156 26.71875 95.925781 26.859375 L 95.429688 27.023438 L 95.238281 27.089844 C 95.246094 27.082031 95.246094 27.0625 95.238281 27.050781 L 95.144531 27.132812 L 95.117188 27.152344 L 95.101562 27.152344 C 95.09375 27.234375 95.09375 27.308594 95.09375 27.4375 C 95.054688 27.949219 95.214844 28.585938 95.164062 29.347656 C 94.992188 30.761719 94.332031 31.855469 93.632812 32.550781 C 92.941406 33.257812 92.332031 33.664062 91.90625 33.960938 C 91.476562 34.246094 91.203125 34.375 91.125 34.304688 C 91.050781 34.222656 91.191406 33.957031 91.488281 33.53125 C 91.785156 33.105469 92.300781 32.539062 92.796875 31.855469 C 92.917969 31.675781 93.023438 31.484375 93.15625 31.300781 C 93.257812 31.101562 93.347656 30.890625 93.449219 30.679688 C 93.503906 30.445312 93.601562 30.230469 93.652344 29.980469 C 93.679688 29.753906 93.773438 29.449219 93.761719 29.246094 C 93.773438 28.804688 93.601562 28.171875 93.613281 27.375 C 93.601562 27.183594 93.660156 26.933594 93.703125 26.695312 C 93.742188 26.574219 93.804688 26.433594 93.875 26.308594 L 93.917969 26.207031 L 93.925781 26.199219 C 93.925781 26.199219 93.925781 26.199219 93.9375 26.191406 L 93.9375 26.179688 C 93.957031 26.160156 93.984375 26.136719 94.039062 26.058594 L 94.054688 26.042969 L 94.074219 26.027344 L 94.171875 25.945312 C 94.300781 25.84375 94.484375 25.730469 94.640625 25.667969 L 95.410156 25.398438 C 95.707031 25.296875 95.984375 25.164062 96.007812 25.105469 L 96.027344 25.09375 L 96.039062 25.09375 " fill-opacity="1" fill-rule="nonzero"/></g><path fill="#00bf63" d="M 68.003906 17.726562 C 68.21875 19 68.167969 20.226562 67.996094 21.304688 C 67.792969 22.378906 67.484375 23.316406 67.132812 24.046875 C 66.417969 25.566406 65.71875 26.238281 65.546875 26.152344 C 65.335938 26.050781 65.730469 25.105469 66.105469 23.671875 C 66.308594 22.949219 66.472656 22.078125 66.574219 21.113281 C 66.65625 20.136719 66.65625 19.078125 66.480469 17.992188 C 66.125 15.800781 65.03125 14.0625 64.070312 12.933594 C 63.085938 11.824219 62.324219 11.21875 62.445312 11.007812 C 62.539062 10.851562 63.527344 11.117188 64.832031 12.152344 C 66.105469 13.175781 67.597656 15.167969 68.003906 17.726562 " fill-opacity="1" fill-rule="nonzero"/><g clip-path="url(#f96df1966c)"><g clip-path="url(#a424779552)"><path fill="#00bf63" d="M 49.46875 72.527344 L 56.214844 72.527344 L 56.214844 79.046875 L 49.46875 79.046875 Z M 49.46875 72.527344 " fill-opacity="1" fill-rule="nonzero"/></g></g></svg>