<svg xmlns="http://www.w3.org/2000/svg" xmlns:xlink="http://www.w3.org/1999/xlink" width="200" zoomAndPan="magnify" viewBox="0 0 150 130.499996" height="174" preserveAspectRatio="xMidYMid meet" version="1.0"><defs><clipPath id="5a6b531a52"><path d="M 87.058594 81.34375 L 87.414062 81.34375 L 87.414062 81.625 L 87.058594 81.625 Z M 87.058594 81.34375 " clip-rule="nonzero"/></clipPath><clipPath id="49062a0be2"><path d="M 87.394531 81.511719 C 86.722656 81.8125 87.320312 81.363281 87.320312 81.363281 " clip-rule="nonzero"/></clipPath></defs><path fill="#00bf63" d="M 56.671875 129.910156 C 55.582031 129.910156 54.636719 129.097656 54.5 127.988281 C 51.789062 106.542969 57.167969 90.457031 70.941406 78.804688 C 71.496094 78.335938 72.253906 78.175781 72.953125 78.367188 C 97.238281 85.207031 118.070312 77.628906 133.210938 56.441406 C 142.320312 43.6875 142.273438 13.441406 142.054688 4.664062 C 132.597656 6.195312 97.542969 12.828125 80.570312 29.117188 C 64.347656 44.683594 74 61.902344 77.316406 66.785156 C 91.84375 60.476562 99.542969 53.089844 107.667969 45.28125 C 109.484375 43.535156 111.320312 41.773438 113.246094 40.011719 C 114.136719 39.191406 115.527344 39.253906 116.34375 40.144531 C 117.164062 41.039062 117.101562 42.425781 116.210938 43.242188 C 114.308594 44.984375 112.503906 46.722656 110.710938 48.445312 C 101.980469 56.828125 93.742188 64.742188 77.410156 71.511719 C 76.511719 71.886719 75.46875 71.617188 74.855469 70.855469 C 74.664062 70.617188 55.945312 46.667969 77.53125 25.949219 C 98.203125 6.109375 142.023438 0.1875 143.878906 -0.0507812 C 144.492188 -0.125 145.097656 0.046875 145.570312 0.4375 C 146.039062 0.832031 146.324219 1.402344 146.355469 2.011719 C 146.445312 3.667969 148.339844 42.820312 136.785156 58.992188 C 120.941406 81.160156 98.289062 89.617188 72.910156 82.90625 C 61 93.46875 56.402344 108.046875 58.855469 127.441406 C 59.007812 128.640625 58.15625 129.738281 56.953125 129.890625 C 56.855469 129.902344 56.761719 129.910156 56.671875 129.910156 Z M 56.671875 129.910156 " fill-opacity="1" fill-rule="nonzero"/><path fill="#00bf63" d="M 49.796875 98.730469 C 49.773438 98.730469 49.753906 98.730469 49.734375 98.730469 C 29.863281 98.179688 14.78125 87.132812 7.269531 67.621094 C 1.585938 52.855469 10.792969 23.207031 11.1875 21.953125 C 11.375 21.375 11.792969 20.890625 12.34375 20.628906 C 12.894531 20.367188 13.53125 20.351562 14.101562 20.578125 C 15.472656 21.132812 47.878906 34.339844 59.816406 53.679688 C 72.425781 74.09375 53.089844 88.933594 52.890625 89.082031 C 52.105469 89.664062 51.035156 89.664062 50.253906 89.078125 C 39.070312 80.65625 34.105469 72.605469 29.300781 64.820312 C 28.269531 63.144531 27.226562 61.453125 26.113281 59.742188 C 25.453125 58.726562 25.738281 57.367188 26.757812 56.707031 C 27.769531 56.046875 29.132812 56.335938 29.792969 57.351562 C 30.925781 59.09375 31.984375 60.808594 33.039062 62.515625 C 37.621094 69.945312 41.960938 76.988281 51.511719 84.507812 C 55.179688 81.15625 64.925781 70.300781 56.082031 55.984375 C 46.621094 40.65625 22.203125 28.9375 14.691406 25.605469 C 12.664062 32.820312 7.082031 54.925781 11.363281 66.046875 C 18.296875 84.054688 31.609375 93.839844 49.855469 94.34375 C 51.066406 94.378906 52.023438 95.386719 51.988281 96.597656 C 51.957031 97.785156 50.980469 98.730469 49.796875 98.730469 Z M 49.796875 98.730469 " fill-opacity="1" fill-rule="nonzero"/><g clip-path="url(#5a6b531a52)"><g clip-path="url(#49062a0be2)"><path fill="#00bf63" d="M 83.734375 78.375 L 90.460938 78.375 L 90.460938 84.875 L 83.734375 84.875 Z M 83.734375 78.375 " fill-opacity="1" fill-rule="nonzero"/></g></g></svg>